<svg width="97" height="97" viewBox="0 0 97 97" fill="none" xmlns="http://www.w3.org/2000/svg">
<path d="M78.9386 18.0132C69.6309 18.0132 61.9459 25.0949 60.9805 34.156C67.7358 38.3495 72.2447 45.837 72.2447 54.3598V66.5427C72.2447 70.987 70.2431 75.0723 66.9651 77.7942V94.1563C66.9651 95.7267 68.2375 96.9998 69.807 96.9998H88.0703C89.6398 96.9998 90.9121 95.7267 90.9121 94.1563V65.8766C94.4472 64.6861 96.9999 61.3385 96.9999 57.4054V36.0853C96.9999 26.1204 88.8975 18.0132 78.9386 18.0132V18.0132Z" fill="#0F171D"/>
<path d="M78.9389 18.0132C83.9183 18.0132 87.9696 13.9597 87.9696 8.97711C87.5157 -2.99411 70.3604 -2.99069 69.9082 8.9773C69.9082 13.9597 73.9593 18.0132 78.9389 18.0132V18.0132Z" fill="#0F171D"/>
<path d="M57.5318 27.2515C57.5318 22.2689 53.4807 18.2153 48.5011 18.2153C36.5371 18.6695 36.5403 35.8351 48.5013 36.2876C53.4805 36.2876 57.5318 32.2341 57.5318 27.2515Z" fill="#0F171D"/>
<path d="M48.4992 36.2876C39.1915 36.2876 31.5065 43.3693 30.541 52.4304C37.2964 56.6239 41.8052 64.1114 41.8052 72.6342V75.6798C41.8052 80.1238 39.8036 84.2094 36.5257 86.9312V94.1564C36.5257 95.7268 37.7981 96.9999 39.3675 96.9999H57.6309C59.2003 96.9999 60.4727 95.7268 60.4727 94.1564V75.0138C64.0077 73.8236 66.5604 70.476 66.5604 66.5426V54.3597C66.5604 44.3947 58.4582 36.2876 48.4992 36.2876V36.2876Z" fill="#0F171D"/>
<path d="M18.0612 54.562C8.06828 54.562 0 62.6552 0 72.6341V75.6797C0 79.613 2.5527 82.9606 6.08773 84.1509V94.1563C6.08773 95.7267 7.3601 96.9998 8.92954 96.9998H27.1929C28.7624 96.9998 30.0347 95.7267 30.0347 94.1563V84.1509C33.5698 82.9606 36.1225 79.613 36.1225 75.6797V72.6341C36.1226 62.6367 28.0364 54.562 18.0612 54.562V54.562Z" fill="#0F171D"/>
<path d="M18.06 54.5621C23.0394 54.5621 27.0907 50.5085 27.0907 45.5259C26.6368 33.5547 9.48152 33.5581 9.0293 45.5261C9.02949 50.5085 13.0806 54.5621 18.06 54.5621Z" fill="#0F171D"/>
</svg>
