<svg width="125" height="130" viewBox="0 0 125 130" fill="none" xmlns="http://www.w3.org/2000/svg">
<path d="M55.894 10.938L55.9887 10.9684L56.2004 10.9943L56.7026 11.1148L57.3581 11.251L57.5371 11.2037L57.6441 11.108L57.6689 10.8276L57.6891 10.6294L57.5416 10.4548L57.3581 10.2566L57.1891 10.01L56.9864 9.93906L57.0123 9.81183L57.1441 9.68007L57.2792 9.608L57.3569 9.51902L57.4425 9.19019L57.4988 9.13163L57.5562 9.11699L57.6238 9.12936L57.7578 9.21497L58.2736 9.47623L58.4999 9.43681L59.3648 9.36811L59.4955 9.21721L59.6791 9.18342L59.9899 9.03252L60.1126 9.02238L60.223 9.05843L60.3615 9.03028L60.5653 8.88951L60.6509 8.87487L60.6836 9.03028L60.8153 9.19133L60.9753 9.33883L61.0518 9.37262L61.3199 9.32533L61.4606 9.36698L61.5214 9.50438L61.5394 9.62374L61.652 9.72512L61.7962 9.72736L61.8728 9.76904L62.0046 9.83434L62.116 9.98411L62.375 10.1035L62.8176 10.2702L63.0237 10.2724L63.2151 10.3231L63.3323 10.3738L63.4595 10.2803L63.9123 10.0224L64.133 9.87826L64.2816 9.76904L64.3931 9.66543L64.4764 9.63838L64.5328 9.70034L64.5812 9.78368L64.7433 9.83211L65.1217 9.92895L65.2952 9.95597L65.5384 9.87376L65.7467 9.73299L65.8458 9.68457L66.0001 9.82534L66.106 10.0224L66.1769 10.1091L66.3335 10.0889L66.6432 10.1192L66.8718 10.1823L67.0137 10.1767L67.2074 10.0889L67.3121 9.91541L67.5868 9.75664L67.8481 9.61023L67.9979 9.4154L68.2197 9.09108L68.2941 8.95258L68.3099 8.71833L68.6218 8.03813L68.74 7.91314L68.8099 7.69803L68.9349 7.44914V7.24081L69.0261 7.03924L69.2051 6.86583L69.3369 6.75657L69.5486 6.46376L69.6961 6.18786L70.0644 5.57636L70.0925 5.40295L70.2389 5.29933L70.2874 5.16756L70.4439 5.00428L70.6083 4.87592L70.6793 4.6856L70.7998 4.4885L71.0633 4.34099L71.1613 4.27343L71.4608 3.73063L71.4946 3.48848L71.7649 3.47947L72.1894 3.75988L72.5284 4.17318L72.9822 5.50093L73.0577 6.72729L73.2413 7.3692L73.7694 8.70706L73.8032 8.95481L73.8876 9.25439L74.0543 9.57195L74.239 10.0945L74.2458 10.1913L74.1264 10.3332L74.3021 10.3434L74.4609 10.4278L74.5645 10.7589L74.6963 10.983L74.935 11.2893L75.4237 11.3896L75.7931 11.4267L76.2132 11.6001L76.5217 11.822L76.7605 12.5754L76.6828 13.0484L76.7064 13.3817L76.5825 13.5123L76.2368 13.7308L76.1614 13.8468L75.4553 14.4099L75.301 14.6757L74.9226 15.0326L74.5476 15.7128L73.9991 16.3345L73.8054 16.4921L73.5093 16.5282L73.3291 16.6239L72.9034 17.1318L72.3313 17.3007L72.2784 17.5946L71.9484 18.2658L71.6568 18.6329L71.4709 18.7568L71.0036 19.4258L70.9439 19.7186L70.9462 20.2309L70.6342 20.5429L70.3099 20.7411L70.2694 21.1792L70.1229 21.329L69.998 21.4258L69.338 21.3109L68.3132 21.7873L67.963 21.9055L69.0813 21.9292L69.4405 22.1826L70.2277 22.0148L71.1804 21.4112L71.5441 21.2839L72.2829 20.874L72.5836 20.6003L73.1309 20.2726L73.248 20.1285L73.5543 19.9753L73.721 20.1702L73.7345 20.2929L73.4823 20.5328L73.5476 20.687L73.7131 20.8807L73.7728 21.1488L73.7953 21.3526L73.8978 21.7096L74.2368 22.1927L74.248 22.3526L74.2007 22.5632L74.3629 22.7366L74.5307 22.8391L75.1073 23.3594L75.5577 23.0689L75.8359 22.9844L76.0127 22.8628L76.3843 22.7817L76.6884 22.9033L77.2684 23.0779L77.6929 22.892L78.5511 22.4664L78.283 23.2198L78.0882 23.9112L77.9407 24.1905L77.7943 24.9428L77.6501 25.1443L77.533 25.3741L77.7245 25.2941L77.8889 25.1849L78.0995 24.8955L78.2571 24.3921L78.8788 23.0486L79.0567 22.9292L79.5736 22.7761L80.4633 21.7017L80.8112 21.7051L81.0342 21.9517L81.2448 22.0981L81.2989 21.8042L81.6029 21.6848L81.282 21.5396L81.2302 21.4078L81.1998 21.1882L81.4182 20.8909L81.2876 20.6274L81.7403 20.2963L81.7054 20.0474L81.8675 19.8424L82.0725 19.6307L82.3045 19.5282L82.3473 19.3469L82.4937 19.2726L82.6086 19.2456L82.8349 19.4483L83.0804 19.2096L83.3192 19.1161L83.4261 19.1577L83.5602 19.2636L83.7009 19.3086L83.8147 19.2895L84.1108 19.1363L84.3845 19.383L84.5489 19.437L84.5039 19.2985L84.4172 19.1701L84.4847 19.0654L84.6143 19.0001L85.0242 19.0586L85.2393 19.169L85.4724 19.3728L85.7956 19.3875L86.0501 19.3661L86.21 19.4809L86.4701 19.4798L86.6008 19.6589L86.9972 19.91L87.0828 20.08L87.4015 20.1622L87.701 20.267L88.0197 20.2951L88.3418 20.2704L88.3553 20.4855L88.5907 20.544L88.8936 20.4967L89.1222 20.7614L89.7337 20.9607L90.1572 21.2659L90.4353 21.2118L90.7461 21.2929L91.0795 21.9562L91.1549 22.427L91.3036 22.3616L91.4421 22.1511L91.62 21.7659L91.9545 21.6386L92.1144 21.7862L92.4489 22.0227L92.7372 22.2817L92.8588 22.4483L93.0761 22.4754L92.8948 22.6803L93.0773 22.6589L93.2969 22.5137L93.4849 22.8155L93.6268 23.1443L93.655 23.4788L93.521 23.6702L93.4038 23.7907L93.2732 24.0272L93.1189 24.07L92.9646 24.1466L93.1403 24.3189L93.2608 24.4844L93.5243 24.0362L93.7102 23.9101L93.9782 23.8403L94.1178 24.159L94.1471 24.4608L93.7102 24.5858L93.709 24.8234L93.5784 24.9585L93.4928 25.1139L93.4241 25.4383L93.3351 25.7074L93.075 26.9011L93.0705 27.0982L93.3881 26.8876L93.9737 26.2795L94.1516 25.632L94.3825 24.9934L94.6336 24.793H94.7901L95.0232 24.8628L95.0367 25.0723L95.0007 25.1928L94.7507 25.5104L94.6449 25.6838L94.7473 25.855L95.3138 25.329L95.5683 25.1443L95.7845 25.1815L96.2136 24.9382L97.0785 24.8876L97.1438 24.6094L97.3161 24.4912L97.7913 24.5227L98.717 24.7705L99.047 24.9732L99.5413 25.1613L99.8015 25.3853L100.888 25.7975L101.678 25.8414L102.068 25.6545L102.556 25.8505L102.814 26.07L103.321 26.1883L103.832 26.2502L104.223 26.0926L105.232 26.0408L106.499 25.8076L107.254 25.8628L108.11 26.0149L108.721 26.4056L109.234 26.6264L109.545 26.8437L110.046 27.0701L111.115 27.677L111.49 28.0284L112.152 28.5059L112.818 28.7064L113.177 29.2064L113.462 29.4316L114.167 30.2762L114.966 30.8674L115.501 31.4587L116.528 31.8393L116.929 32.4677L117.624 32.5443L117.92 32.6377L118.28 32.9024L118.775 33.0499L119.419 33.0083L120.13 33.0387L120.705 32.9148L122.065 33.1502L122.279 33.2661L122.561 33.533L123.058 34.5297L123.354 35.6356L123.5 36.4813L123.839 37.139L124.024 38.3755L124.182 38.7651L124.194 39.0658L124.328 39.1334L124.418 39.969L124.383 40.3057L124.252 40.7438L124.243 40.9397L124.263 41.0636L124.205 41.2472L124.187 41.4228L124.319 41.817L124.326 42.1323L124.149 42.5152L123.908 43.5163L123.304 45.1774L122.725 46.1324L121.916 47.1189L121.388 47.6347L121.178 47.6876L120.987 47.5851L121.123 47.8577L121.005 48.0975L120.469 48.825L119.936 49.3003L119.383 50.1268L119.341 50.146L118.633 50.4658L118.214 50.7271L117.678 51.2023L117.186 51.9523L117.085 52.0481L116.903 51.9951L116.909 52.3758L116.485 52.9794L116.356 53.0683L116.359 52.8972L116.432 52.7666L116.466 52.628L116.464 52.4636L116.346 52.583L116.095 53.0357L116.179 53.3668L115.998 53.8679L115.304 55.3004L114.455 56.5065L114.259 56.8792L113.562 57.6935L113.05 58.0865L112.905 58.0887L112.742 58.0549L112.66 57.4288L112.252 57.0504L112.135 56.984L111.968 57.3849L111.829 57.4952L111.627 57.5189L111.842 57.6935L111.905 57.8962L111.686 58.3016L111.679 58.6698L111.287 59.0764L111.06 59.3737L110.945 59.7464L110.875 60.0944L111.047 59.9998L111.129 60.073L111.194 60.1811L111.154 60.341L111.028 60.644L111.047 61.3973L111.006 61.5685L111.131 61.7543L111.263 61.4379L111.34 61.5269L110.97 63.5494L111.115 64.4616L111.169 65.4965L111.336 66.5089L111.519 67.4144L111.534 67.4865L111.28 68.5394L110.956 69.58L110.761 70.4302L110.638 71.3491L110.516 71.7917L110.476 72.2444L110.617 73.3188L110.67 73.5226L110.277 74.0024L109.852 74.2354L109.618 74.4674L109.1 75.3346L108.819 76.6184L108.812 77.302L108.945 78.7367L108.846 79.3234L108.681 79.7164L108.487 79.9743L107.993 80.284L107.549 81.0396L107.357 81.8347L107.053 82.1253L106.991 82.5712L106.746 83.0532L106.112 83.7728L105.7 83.9823L105.504 84.1839L105.379 84.6062L104.982 85.3021L104.689 86.2064L104.766 86.5139L104.77 86.5612L104.877 87.6085L104.838 87.8754L104.451 88.1648L102.996 88.7053L102.609 88.9295L101.741 89.8507L101.687 90.068L101.723 90.3788L101.865 90.5579L101.718 90.7516L101.545 91.0996L101.291 91.0781H99.8421L99.0582 91.1885L98.6506 91.1671L98.467 91.0838L98.262 90.9475L98.2001 90.7685L98.3116 90.4982L98.2452 90.3372L98.0301 90.3428L97.7947 90.4194L97.7542 90.5804L97.771 90.6964L97.8589 90.8642L97.9073 91.0714L97.8105 91.2504L97.351 91.2741L96.8352 91.4385L96.1911 91.5072L95.6775 91.6266L95.441 91.4757L95.6775 91.4002L96.0176 91.4363L96.3825 91.3113L96.2969 91.1638L95.7811 90.9745L95.2079 91.0906L94.8904 91.3169L94.1955 91.2955L93.3441 91.4678L93.2057 91.6435L93.2293 91.9836L93.3948 92.0579L93.5581 92.2133L93.4016 92.3586L93.2496 92.4228L92.3509 92.5816L91.5175 93.2471L91.1696 93.3304L90.8599 93.6244L90.8283 93.8755L90.7304 94.0275L90.5321 94.0354L90.0975 93.898L89.5333 93.8947L89.1256 94.0039L87.0433 95.0861L86.2956 95.5208L85.4431 96.4071L84.005 97.4026L83.2494 97.9983L83.1063 98.1526L82.987 98.1605L82.7505 98.2844L82.8439 98.3869L83.005 98.3959L82.9385 98.7438L82.6379 98.9815L82.0736 99.6065L81.9487 99.5603L82.1277 99.2349L81.8507 99.2225L81.443 99.1031L81.2662 99.2371L81.3642 99.5592L81.211 99.6977L80.9329 99.7135L80.6806 99.6752L80.4036 99.4398L80.5286 99.8666L81.1142 99.9703L81.3574 100.07L81.4486 100.235L80.9937 100.997L80.613 101.096L80.5714 101.204H80.7808L80.8968 101.416L80.7606 102.27L80.5725 102.432L80.4621 102.436L80.3529 102.583L80.5027 102.862L80.6581 103.066L80.6367 103.462L80.5781 103.79L80.5748 104.109L80.7707 104.726L80.8416 105.36L80.9205 105.591L80.9655 105.848L80.8349 106.087L80.9092 106.473L80.6862 107.129L80.8034 108.077L80.756 108.969L80.6682 109.439L80.5263 109.806L80.1975 110.279L80.1907 110.753L79.4824 111.196L78.6997 111.814L77.9767 112.548L77.1985 113.585L76.2909 115.169L75.4496 117.44L74.4372 119.165L74.0318 119.79L73.4845 120.491L72.7559 121.309L71.7807 122.128L70.713 122.86L70.3279 123.19L69.9518 123.655L69.8583 123.463L69.9394 123.145L69.8876 122.908L69.8763 122.6L70.0914 122.543L70.4135 122.739L70.5779 122.606L70.6973 122.475L71.0858 122.393L71.8268 121.59L72.3764 121.294L72.6861 120.788L72.739 120.52L72.7266 119.976L72.9023 119.838L73.2998 119.885L73.3809 119.73L73.346 119.558L73.4237 119.185L73.9631 118.853L74.2188 118.455L74.1332 117.439L74.2323 117.393L74.4541 117.551L74.5588 117.485L74.6703 117.04L74.6163 116.81L74.355 116.749L73.4518 117.25L73.1579 117.228L73.1095 116.835L72.6703 116.655L72.4991 116.329L72.4484 116.106L72.2964 116.014L72.3054 116.401L72.3471 116.776L72.7413 117.214L72.6455 117.388L72.4586 117.591L72.328 118.043L72.3426 118.629L72.2367 118.45L72.1016 118.347L72.0464 118.977L71.7852 119.219L71.7029 119.457L71.7716 119.733L71.6365 119.923L70.9709 120.436L70.3076 120.786L70.1635 120.95L70.0925 121.342L69.9912 121.744L69.6973 122.099L69.4642 122.804L69.4698 123.108L69.5475 123.556L69.6725 123.851L69.4743 124.048L69.2074 124.431L68.9957 124.864L68.4686 126.491L68.0148 127.476L67.6646 127.96L67.1657 128.47L65.7445 129.755L65.6589 129.737L65.4506 129.633L65.276 129.51L65.2366 129.428L65.2163 129.305L65.24 128.842L65.2366 127.601L65.2985 127.367L65.3909 127.216L65.6679 126.998L65.937 126.686L66.2411 126.288L66.5215 125.973L66.4213 125.761L66.1871 125.556L65.7715 125.392L65.3717 125.101L65.017 124.727L64.8526 124.339L64.7017 123.92L64.5586 123.59L64.5113 123.439L64.3706 123.376L64.1476 123.208L64.008 123.052L63.8041 122.962L63.4393 122.864L63.0597 122.691L62.5879 122.284L62.2478 121.832L62.08 121.534L61.9009 121.324L60.9268 120.977L60.4842 120.564L60.3097 120.694L60.0495 120.568L59.7928 120.369L59.7162 120.216L59.6081 120.06L59.5067 119.881L59.4414 119.709L59.1779 119.409L58.8367 119.084L58.6925 118.992L58.616 119.019L58.5428 119.143L58.4954 119.263L58.3671 119.343L58.2083 119.492L58.045 119.674L57.8367 119.795L57.5889 119.837L57.4222 119.831L57.3884 119.759L57.3794 119.51L57.4414 118.944L57.2972 118.725L57.1047 118.491L56.8828 118.179L56.1531 117.518L55.1587 116.569L54.8073 116.279L54.4773 116.257L54.1755 116.289L53.8974 116.414L53.6868 116.852L53.6001 116.92L53.064 116.911L52.5314 116.84L52.3523 116.573L52.4942 116.4L52.9954 116.014L53.2724 115.671L53.3253 115.37L53.5652 115.1L53.9931 114.861L54.4695 114.422L54.9943 113.782L55.3141 113.312L55.4267 113.008L55.6328 112.773L55.9323 112.609L56.1936 112.267L56.4177 111.746L56.7229 111.333L57.1103 111.027L57.3276 110.772L57.3738 110.571L57.483 110.442L57.6565 110.386L57.7398 110.28L57.7342 110.125L57.7815 110.019L57.8806 109.963L58.0473 109.983L58.2815 110.079L58.4223 110.061L58.4707 109.929L58.4087 109.778L58.2364 109.609L58.3017 109.425L58.7545 109.128L59.0878 109.015L59.2995 108.832L59.5 108.54L59.8254 108.338L60.2748 108.223L60.3941 108.113L60.3773 107.973L60.4696 107.871L60.7354 107.798L60.8795 107.661L60.9031 107.459L60.9888 107.272L61.1363 107.1L61.3007 107.036L61.482 107.08L61.652 107.014L61.812 106.84L62.0034 106.759L62.2264 106.77L62.3413 106.732L62.7241 106.651L62.9359 106.504L63.1093 106.176L63.2636 106.05L63.3987 106.124L63.6318 106.014L63.9629 105.723L64.026 105.717L64.2704 105.581L64.5226 105.076L64.6521 104.739L64.6217 104.464L64.5384 104.266L64.5665 103.977L64.6499 103.192L64.6724 102.871L64.8064 102.648L64.7974 102.427L64.5586 101.932L64.3176 101.497L64.1882 100.762L64.1025 100.483L63.9021 100.408L63.7197 100.165L63.4899 100.144L63.3818 100.05L63.2703 99.9736L63.107 99.9961L62.9674 100.138L62.7095 100.143L62.5462 100.201L62.3548 100.327L62.1723 100.27L62.0575 100.158L61.8108 100.157L61.8277 99.6583L62.2624 98.9195L62.3795 98.5761L62.3232 98.3813L62.4527 97.6954L62.7692 96.522L62.8705 95.755L62.7557 95.3936L62.7523 95.1413L62.9156 94.9273L62.9944 94.8631L62.5868 94.6019L62.3672 94.3632L62.0856 94.1931L61.7827 94.0568L61.6363 94.1143L61.4798 94.1931L61.1768 94.3181L60.8322 94.5343L60.6543 94.6132L60.3401 94.6931L59.9853 94.7618L59.6926 94.7167L59.4414 94.6705L59.2838 94.5343L59.2004 94.2381V93.9882L59.1486 93.6255L58.9606 93.4205L58.8975 93.2618L58.8874 93.0692L58.9087 92.8541L58.9606 92.6953L58.929 92.5027L58.8457 92.3665L58.8671 92.1289L58.8254 91.8L58.7004 91.5962L58.6373 91.3597V91.1232L58.5439 90.8867L58.5338 90.6277L58.6171 90.3912L58.6486 90.1547L58.5551 89.9858L58.3772 89.8844L58.2409 89.6141L58.2195 89.265L58.0731 89.0747L57.9166 88.9171H57.7387L57.4673 88.827L57.2274 88.8383L56.84 88.827L56.6621 88.7707L56.5686 88.6479L56.3288 88.4802L56.1925 88.1885L56.0258 88.1322L55.7848 88.2223L55.7015 88.3349L55.608 88.4925L55.4413 88.6727L55.2217 88.6614L54.992 88.7628L54.7724 88.7741L54.4796 88.7965L54.1868 88.7065L53.8321 88.6051L53.528 88.5376L53.2352 88.6051L53.037 88.5488L52.7757 88.515L52.4829 88.4925L52.2532 88.3123L52.0021 88.2121L51.8658 88.2459L51.6879 88.3585L51.4998 88.336L51.2588 88.2459L51.1654 88.033L51.1867 87.8979L51.2385 87.7628L51.332 87.5724L51.2802 87.3708L51.3016 87.1918L51.3433 87.0353L51.3849 86.8562L51.3534 86.6885L51.3433 86.5094L51.3219 86.3415L51.2904 86.1625L51.4154 85.9058L51.5201 85.6941L51.457 85.5161L51.4784 85.3934L51.5618 85.1929L51.6665 84.9474L51.6563 84.4902L51.5629 84.2233L51.4604 84.1512L51.4345 84.0712L51.4841 83.9654L51.43 83.8573L51.4086 83.7458L51.4626 83.6489L51.3883 83.4575L51.2385 83.4023L51.1867 83.3471L51.1349 83.1354L51.0933 82.8911L51.1147 82.703L51.0415 82.5374L50.9368 82.4372L50.832 82.2604L50.7273 82.1275L50.6856 81.9394L50.6158 81.6962L50.8241 81.6512L50.9063 81.5149L51.0527 81.3302L51.2453 81.2818L51.475 81.2142L51.5595 81.078L51.0246 80.5869L50.7036 80.293L50.8917 79.8944L51.2093 79.2243L51.5156 78.5756L51.7498 78.0824L51.8095 77.9912L52.0145 77.9596L51.9773 77.7051L51.9706 77.5385L51.8061 77.5295L51.9897 76.9281L52.2611 76.0722L52.4672 75.4247L52.5336 75.3166L52.6811 75.2862L52.7149 75.2118L52.537 75.1082L52.4277 74.9066L52.1901 74.3289L51.8151 73.419L51.7881 73.0936L51.6507 72.8931L51.421 72.9607L51.1496 72.8965L50.4705 72.4032L50.0212 72.1363L49.8692 71.9787L49.8016 71.473L49.6676 70.9156L49.6101 70.2264L49.6338 70.0619L50.0133 69.5394L50.0122 69.2759L50.0437 69.045L50.0279 68.8626L49.9345 68.8604L49.7824 68.9403L49.5516 69.0011L49.4209 69.0068L48.0955 68.9572L46.5876 68.9009L45.333 68.8536L44.244 68.8131L44.208 68.3637L44.1461 67.6126L44.1021 67.0788L44.0323 66.2342L43.5954 65.7082L43.1213 65.1384L42.9546 64.992L43.5278 64.974L43.9343 64.9616L43.8544 63.4334L43.7305 63.278L43.6201 62.7848L43.5458 62.5055L43.3442 62.2803L43.2981 62.0257L43.3352 61.8568L43.4456 61.7521L43.5188 61.4908L43.4636 61.2284L43.3442 60.9841L43.1978 60.7498L42.9174 60.6057L42.5165 60.3444L41.9084 60.0122L41.3949 59.7802L41.2304 59.8084L40.3228 59.8984L40.021 59.9458L39.8183 59.8928L39.1415 59.8951L38.8757 59.7172L38.6527 59.5088L38.1786 58.9795L38.1054 58.7149L37.9218 58.6304L37.6437 58.6631L37.3621 58.627L36.8171 58.4074L36.3058 58.1822L36.0581 58.1912L35.8384 58.0504L35.4499 57.707L35.2686 57.5729L35.1864 57.395L35.1042 57.1338L34.9477 57.0774L34.7461 57.1248L34.5276 57.2588L34.2213 57.1698L33.8463 56.9288L33.6042 56.7407L33.4657 56.6518L33.1402 56.52L32.826 56.493L32.3508 56.6867L31.9611 56.6067L31.3508 56.5369L30.8282 56.3961L30.6379 56.0313L30.5354 55.7903L30.2246 55.6394L29.9769 55.4547L29.6818 55.1743L29.5354 55.0808L29.2685 55.0031L29.0219 54.904L28.9948 54.7272L28.9025 54.4941L28.8811 54.4366L28.7133 54.154L28.6345 54.1337L28.5478 54.19L28.4824 54.2305L28.4115 54.181L28.3991 54.0549L28.4441 53.8522L28.3473 53.6405L28.1074 53.4174L27.9813 53.1866L27.97 52.9478L27.9171 52.7891L27.8214 52.708L27.7673 52.5683L27.7561 52.3701L27.8259 52.1337L27.9768 51.86L27.9441 51.4377L27.7291 50.8679L27.6097 50.4579L27.5872 50.2057L27.6198 50.0188L27.7504 49.8374L28.0106 49.3926L28.0567 49.0536L27.9745 48.6719L27.9633 48.3802L28.023 48.1797L27.9329 47.9174L27.7482 47.6696L27.6198 47.664L27.4453 47.7315L27.2347 47.941L26.9869 47.9782L26.7673 47.8487L26.0781 47.9027L25.0071 48.0322L24.5792 48.1662L24.327 48.2236L24.0217 48.2676L23.533 48.5086L22.3269 49.4444L22.0769 49.5807L21.7931 49.5998L21.6276 49.7293L21.3618 49.8307L20.8393 50.2012L20.5735 50.4985L20.3989 50.7676L20.1973 50.7766L20.0408 50.7023L19.5464 50.7395L19.2931 50.8318L19.0183 51.0931L18.677 51.5661L18.5363 51.7012L18.2615 51.8408L17.9439 51.9568L17.5509 52.1303L17.3752 52.1415L17.2198 52.1719L17.0858 52.0931L17.0408 51.923L16.838 51.8161L16.3538 51.762L15.6365 51.6381L14.8966 51.6145L14.5294 51.6258L14.2276 51.6336L13.704 51.5672L13.3222 51.5559L12.9878 51.7237L12.5013 51.9321L12.2794 51.985L12.1161 51.9929L11.9573 51.967L11.7715 51.8589L11.5114 51.61L11.3109 51.7057L11.1668 51.8127L11.169 51.271L11.1724 50.4568L11.1758 49.7395L11.178 49.1662L11.1803 48.4973L11.1825 48.0254L11.3188 47.8464L11.4021 47.6459L11.3019 47.3779L11.3244 47.1324L11.3943 46.9612L11.4855 46.7946L11.2749 46.8779L11.1825 46.9241L11.0699 47.0502L10.7974 47.2214L10.6149 47.3926L10.3999 47.5322L10.1273 47.8397L9.90322 48.0086L9.67011 48.1167L9.28272 48.4782L8.96176 48.5502L8.11265 48.6054L7.22975 48.6043L6.42229 48.6032L6.30066 48.5987L6.30857 48.3003L6.32881 48.0896L6.05291 47.8678L6.03377 47.5941L5.96056 47.4049L5.86822 47.1741L5.67566 47.0266L5.40426 46.9691L4.95941 46.8419L4.29949 46.709L3.66885 46.7L3.05061 46.7124L3.42786 46.2484L3.80511 45.7856L3.79387 45.3824L3.48866 45.031L3.32424 44.8125L3.06975 44.5119L2.75553 44.3035L2.58438 44.0265L2.60016 43.8587L2.57311 43.7483L2.45375 43.6842L2.33436 43.5828L2.16995 43.4713L1.97739 43.3238V43.1762L1.90419 43.0197L1.78479 42.8361V42.6886L1.67444 42.4578L1.55508 42.2922L1.43569 42.1819L1.26114 42.0253L1.27018 41.897L1.39854 41.8328L1.45373 41.6852L1.43569 41.5377L1.28932 41.4454L1.11477 41.3992L0.885021 41.1323L0.719474 40.9938L0.60912 40.9104L0.544922 40.8181L0.60912 40.7539L0.682323 40.6616L0.701465 40.514L0.66428 40.3766V40.2573L0.774668 40.2201L0.894026 40.2392L1.01338 40.166L1.16993 40.139L1.34448 40.1199L1.43682 40.0377L1.42782 39.8913L1.31747 39.6064L1.20708 39.487L1.16993 39.3124L1.26004 38.9768L1.31747 38.7618L1.51903 38.5343L2.13393 38.0466L2.68573 37.7155L2.95486 37.6818L3.1542 37.559L3.28032 37.3709L3.31524 37.166L3.28709 36.9869L3.18461 36.7234L3.06185 36.3946L2.9695 36.211L3.05171 35.9914L3.19812 35.6907L3.4977 35.2369L3.77697 34.7482L3.80738 34.6063L3.8434 34.3078L3.97179 33.6997L4.04273 33.3709L4.00558 33.2436L4.06978 33.1332L4.24433 33.0409L4.6655 32.9576L4.95154 32.7763L5.39185 32.435L5.759 32.0724L6.06305 31.9553L6.61375 31.6197L6.93017 31.4069L7.05407 31.3404L7.36488 31.1861L7.92232 31.1332L8.38628 31.078L8.64868 30.9767L9.0327 30.935L9.29059 30.8213L9.57776 30.8179L10.1172 30.7019L10.3007 30.5285L10.4573 30.3213L10.6679 30.1445L10.9145 30.0983L11.1893 30.1287L11.5181 30.1253L11.9168 30.0701L12.1094 30.2075L12.1938 30.3753L12.4393 30.5453L12.6139 30.5363L12.7884 30.4992L13.0271 30.6456L13.1837 30.6276L13.2839 30.5453L13.3031 30.3404L13.3594 30.2289L13.4765 29.587L13.6702 28.5273L13.8459 27.5667L14.0396 26.5047L14.2411 25.4079L14.445 24.2975L14.6117 23.3864L14.7547 22.6037L14.8436 22.1229L14.981 21.4934L15.0351 20.9404L15.0903 20.7817L15.0554 20.6476L14.936 20.4573L14.9371 20.374L14.9506 20.2636L14.9371 20.1667L14.8121 20.0632L14.7153 20.0012L14.6387 19.9111L14.6038 19.7861L14.5407 19.6611L14.5125 19.5294L14.4213 19.4258L14.3943 19.294L14.4574 19.169L14.4844 19.0372L14.4574 18.9134L14.4225 18.7681L14.3526 18.6296L14.2468 18.5451L13.9934 18.4516L13.7389 18.2275L13.4382 18.0271L13.0553 17.6465L12.972 17.4663L12.9709 16.9719L12.9878 16.4358L13.0125 15.6261L13.0249 15.214L13.2411 15.1903L13.4314 15.179L13.6308 15.1509L13.8042 15.1228L13.9641 15.0631L14.0835 14.9899L14.2254 14.9426L14.3369 14.9594L14.4484 14.8941L14.5711 14.8322L14.6905 14.7815L14.8639 14.7387L15.0261 14.8378L15.1173 14.9369L15.2232 14.9842L15.3223 14.9729L15.3909 14.982L15.4619 15.0608L15.5531 15.0664L15.6837 15.0518L15.8065 15.0349L15.8628 15.0113L15.8718 14.9606L15.8403 14.8727L15.7975 14.7905L15.8313 14.6633L15.8347 14.5101L15.8403 14.3153L15.7434 14.2072L15.6466 14.0033L15.5385 13.8389L15.3707 13.7286L15.2141 13.6858L15.0835 13.7545L14.9619 13.7657L14.8707 13.7038L14.7231 13.7015L14.5632 13.6813L14.3954 13.6576L14.0914 13.7027L13.9832 13.6475L13.8357 13.6419L13.6646 13.7015L13.6691 12.9189L13.6736 12.1813L13.6758 11.6632L13.829 11.6745L14.0193 11.581L14.302 11.5664L14.5193 11.4684L14.6409 11.4605L14.8707 11.5078L15.1105 11.6091L15.3459 11.6238H15.963H16.6297H17.3718H18.1151H18.7593L18.9586 11.6294L18.8426 11.4571L18.7075 11.2342L18.7593 11.0585L18.8257 10.8817L18.9034 10.7893L19.1039 10.8873L19.2717 11.188L19.4113 11.4143L19.5476 11.5258L19.7165 11.5382L19.9079 11.4999L20.0994 11.4064L20.426 10.992L20.7503 10.6373L20.9181 10.5179L21.096 10.4087L21.2289 10.367L21.4102 10.3805L21.5634 10.4774L21.6625 10.6463L22.0251 11.2342L22.2987 11.6778L22.3911 11.9549L22.3967 12.6306L22.3798 13.2286L22.4159 13.3063L22.4699 13.3288L23.0679 13.188L23.8799 13.9133L24.4801 14.4493L24.7391 14.6205L24.8833 14.6678L25.2324 14.6317L25.6468 14.5619L25.8484 14.4853L26.0713 14.3175L26.4329 14.0844L26.7279 13.9561L26.8439 13.9391L26.961 13.9808L27.2099 14.1205L27.3462 14.3795L27.2211 14.6802L27.2426 14.8671L27.5038 14.857L27.7133 14.5461L27.8597 14.3007L28.166 14.1013L28.4644 13.8187L28.6728 13.5484L28.9171 13.3907L29.2854 13.1981L29.5771 13.081L29.8496 13.0934L30.0523 12.9662L30.3147 12.7274L30.4982 12.536L30.6255 12.4673L30.8811 12.4864L31.1999 12.4605L31.5129 12.2274L31.7978 11.9459L31.9487 11.4706L32.0478 11.0495L32.1334 10.9639L32.237 10.8963L32.3587 10.8524L32.6515 10.822L33.165 10.5979L33.5186 10.3704L33.8542 10.322L33.9533 10.2611L34.0749 10.0506L34.1357 9.68007L34.0895 9.45596L33.4724 9.38612H33.0681L32.3992 9.32869L32.0805 9.23635L32.0118 9.17215L32.005 9.10122L32.0692 8.94017L32.1312 8.63949L32.04 8.23183L31.7066 7.59331L31.469 6.96491L31.4375 6.52683L31.4431 6.064L31.4622 5.76105L31.2911 5.52457L30.3665 4.77794L30.0467 4.42543L29.9408 4.18108L29.5759 3.73173L29.6683 3.59323L29.8789 3.59773L30.0579 3.71485L30.2223 3.96484L30.3395 4.02117H30.5005L31.353 4.02004L31.5523 4.06282L31.6728 4.1473L31.7753 4.25202L31.9285 4.54369L32.0929 4.6856L32.4307 4.68109L32.96 4.67546L33.2573 4.64954L33.4352 4.73062L33.656 4.79822L34.1211 4.64281L34.2506 4.63941L34.3902 4.70811L34.8914 5.22953L35.1785 5.4491L35.4206 5.74078L35.7731 5.74191L36.0659 5.49192L36.1436 4.65068L36.2315 4.40629L36.379 4.33759L36.5547 4.32972L36.763 4.19796L36.9882 4.02677L37.1842 3.96934L37.9984 4.15294L38.2247 4.06509L39.0491 3.84322L39.8915 3.55718L40.1279 3.1968L40.4804 3.09995L40.7575 2.83646L40.9805 2.86347L41.3183 2.87474L41.5278 2.82855L41.6336 2.77903L41.7496 2.65514L41.9399 2.30267L42.1708 2.16863L42.4602 2.02676L42.6584 1.86008L42.8217 1.65398L42.8972 1.47493L42.8949 1.33302L42.7992 1.05712L42.6821 0.798131L42.5559 0.712522L42.4613 0.679873L42.7485 0.619077L42.985 0.710288L43.3544 0.723794L43.5154 0.65396L43.7485 0.687743L44.0436 0.501953L44.2328 0.562749H44.3578L44.4715 0.703518L44.5605 0.862295L44.8364 1.05489L44.8094 1.34767L44.7587 1.60669L44.7227 1.90624L44.7069 2.13372L44.5898 2.36683L44.4141 2.5842L44.3623 2.67205L44.3375 2.7869L44.4558 2.85674L44.6652 2.87698L44.9265 2.88602L45.1044 2.95358L45.3341 2.96709L45.6112 3.15401L45.7452 3.26664L45.7565 3.35334L45.6686 3.56058L45.6337 3.75201L45.7024 3.87363L45.7835 3.96147L46.0076 4.39392L46.1146 4.54369L46.2046 4.59212L46.2261 4.67546L46.1495 4.8331L46.0571 5.03356L45.8488 5.24417L45.8207 5.41081L45.6551 5.51557L45.2666 5.76446L45.3341 6.15858L45.3477 6.35791L45.3409 6.51332L45.208 6.72165L44.9783 7.33542L44.8938 7.64174L44.8195 8.34895L44.824 8.58657L44.9299 8.90525L45.1551 9.61363L45.2835 9.72736L45.5796 9.8929L45.6168 10.3715L45.5909 10.8715L45.5774 11.0652L45.6258 11.1485L45.7587 11.1891L45.8533 11.2488L45.8679 11.3963L45.8589 11.5506L46.0796 11.6396L46.2722 11.6959L46.4502 11.9076L46.7711 12.2375L46.8995 12.2983L46.9637 12.4346L47.2351 12.7128L47.6484 12.8141L48.065 12.9369L48.2295 13.1114L48.4006 13.2533L48.5301 13.2601L48.6394 13.2376L48.8196 13.1148L48.9637 13.009L49.2148 13.0157L49.5099 12.9977L49.5606 12.911L49.5887 12.7995L49.5279 12.5146L49.6326 12.4279L49.877 12.3794L49.9255 12.2274L49.9807 12.1441L50.0504 12.0472L50.1338 12.0337L50.2385 12.0889L50.3996 12.1238L50.5809 12.1722L50.6777 12.2691L50.8388 12.277L51.0178 12.259L51.0899 12.197L51.1428 12.0889L51.1822 11.8558L51.2971 11.849L51.528 11.7972L51.7735 11.6947L52.1023 11.679L52.4097 11.6812L52.564 11.6125L52.707 11.4628L52.9841 11.0382L53.1294 10.9402L53.2859 10.867L53.4188 10.8806L53.6902 10.8096L53.9131 10.7082L53.9965 10.7341L54.1699 10.9515L54.2577 10.9988L54.3861 11.0146L54.8062 11.1249L55.0292 11.09L55.2702 11.0202L55.5021 10.9943L55.6688 11.0427L55.7893 10.9796L55.894 10.938ZM75.4384 10.9492L75.1231 11.0923L74.9417 11.0371L74.7751 10.6632L74.8314 10.3524L75.06 10.2488L75.2368 10.2713L75.3021 10.3107L75.4598 10.8209L75.4384 10.9492ZM75.9001 15.8029L75.5566 15.9088L75.4924 15.8097V15.4144L75.5893 15.1982L76.0262 15.1374L76.0713 15.0732L76.1963 15.0326L76.2661 15.1689L76.256 15.3953L75.9001 15.8029ZM75.0363 16.5991L74.98 17.0608L74.4113 16.866L74.4541 16.3942L74.7199 16.2613L74.9553 16.0102L75.0363 15.7027L75.0408 15.2838L75.1287 15.2117L75.2053 15.1824L75.274 15.2106L75.301 15.839L75.3337 16.2241L75.0363 16.5991ZM77.2109 16.1948L77.3404 16.3593L76.8934 17.0158L76.6467 17.1104L76.3765 17.1295L76.0262 16.9336L75.4812 16.9482L75.3111 16.9021L75.2931 16.616L75.5217 16.3108L75.9789 16.3277L76.7661 16.0822L77.2109 16.1948ZM78.1411 17.3897L77.3033 17.4876L76.9204 17.3311L77.0071 17.1994L77.2932 16.9888L77.6411 16.8401L77.9531 16.7737L78.2785 16.857L78.3675 17.0338L78.3405 17.2117L78.1411 17.3897ZM74.3201 17.4494L73.4552 18.0643L73.1624 17.8627L73.1016 17.7455L73.1512 17.6273L73.141 17.5778L73.2379 17.3672L73.721 17.1949L73.9643 17.1656L74.2751 17.2196L74.3269 17.3706L74.3201 17.4494ZM77.5567 17.7568L77.8517 17.7703L78.2695 17.7106L78.5499 17.5642L78.863 17.535L79.1727 17.5507L80.2166 17.714L80.8439 17.7647L81.0736 17.8165L81.2977 17.8908L81.4622 17.9708L81.5027 18.1442L81.3507 18.4235L81.2369 18.7163L81.1311 19.1251L81.0489 19.2073L80.9114 19.1859L80.9971 19.5519L80.9666 19.6983L80.8979 19.8402L80.7302 20.1352L80.4756 20.5114L80.4002 20.5902L80.2065 20.7208L80.0488 20.8875L80.0826 21.0452L80.1614 21.204L80.068 21.4022L79.7673 21.6916L79.5871 21.7614L79.4216 21.7907L79.2684 21.7625L78.997 21.472L78.9689 21.6995L78.8957 21.9326L78.8033 22.0598L78.4531 22.0463L78.2583 21.9213L77.9418 21.7828L77.8821 22.1567L77.685 22.4145L77.4868 22.4957L77.176 22.5497L76.9981 22.6601L76.6625 22.5745L76.3506 22.4033L76.1737 22.3887L76.0364 22.5272L75.3122 22.5531L74.98 22.6939L74.7773 22.6544L74.4789 22.3706L74.4316 22.1826L74.2537 21.8008L74.0938 21.347L73.98 20.9348L74.0757 20.579L74.2694 20.5902L74.498 20.6431L74.5465 20.6183L74.5577 20.5035L74.5071 20.4089L74.1388 20.4235L73.9057 20.2118L73.8651 19.8852L73.9124 19.205L73.9428 19.0654L74.1061 18.8706L74.1591 18.6983L74.1185 18.5158L74.1884 18.1836L74.3404 17.8964L74.9215 17.5338L75.5961 17.4043L77.5567 17.7568ZM70.5914 21.5384L70.257 21.5981L70.6883 20.8121L71.0734 20.4461L71.079 19.7208L71.4968 19.0755L71.8809 18.8131L72.4203 18.7366L72.7153 19.1296L72.3493 20.2445L72.2423 20.2512L71.7525 20.8391L71.2074 21.2501L70.5914 21.5384ZM92.5559 21.1747L92.3531 21.3256L92.2867 21.4033L92.12 21.3447L92.1504 21.258L92.2 21.267L92.2541 21.0148L92.539 21.0452L92.5559 21.1747ZM93.7687 26.2694L93.4579 26.5779L93.5604 26.2209L93.5086 25.9743L93.5491 25.784L93.762 25.5993L93.8261 25.5723L93.8081 25.7998L93.8228 25.8696L93.7687 26.2694ZM111.958 58.5212L111.834 58.591L111.822 58.386L112.145 58.1281L112.198 57.823L112.367 57.9637L112.412 58.1203L112.41 58.1856L111.958 58.5212ZM111.454 59.7352L111.346 59.9255L111.221 59.8973L111.171 59.7701L111.079 59.6462L111.128 59.5493L111.212 59.4942L111.443 59.502L111.454 59.7352ZM94.9377 91.7741L95.0367 91.8676L94.8543 91.8586L94.6494 91.9408L94.3352 92.014L94.209 91.8766L94.4804 91.6851L94.5796 91.5422L94.6505 91.5725L94.7417 91.6761L94.9377 91.7741ZM91.3633 94.3361L91.361 94.5151L91.2292 94.4239L90.8801 94.4938L90.7585 94.3586L91.2292 93.7809L91.3238 93.8654L91.397 93.9701L91.4477 94.1165L91.3937 94.2111L91.3633 94.3361ZM80.8574 103.06L80.7989 103.103L80.6006 102.667L80.9993 102.25L81.1322 102.418L81.0263 102.75L80.9092 102.984L80.8574 103.06ZM81.1693 107.881L80.952 108.042L80.9914 107.199L81.1085 106.917L81.2358 106.707L81.3934 106.577L81.5106 106.761L81.4104 107.167L81.1345 107.666L81.1693 107.881Z" fill="#108AB4"/>
<path d="M90 50C90 59.3888 82.3888 67 73 67C63.6112 67 56 59.3888 56 50C56 40.6112 63.6112 33 73 33C82.3888 33 90 40.6112 90 50Z" stroke="#C5B581" stroke-width="6"/>
</svg>
