<svg width="158" height="163" viewBox="0 0 158 163" fill="none" xmlns="http://www.w3.org/2000/svg">
<path d="M152.991 77.719L152.978 77.7675L152.96 77.9465L152.838 78.1729L152.705 78.4679L152.714 78.7269L153.053 79.6211L153.355 80.1628L153.411 80.3689L153.605 80.5276L153.421 80.727L153.385 81.022L153.266 81.1538L153.234 81.3216L153.285 81.4747L153.284 81.6662L153.35 81.9286L153.055 81.986L152.705 81.977L152.58 81.9928L152.463 82.0648L152.342 82.0288L152.025 81.7822L151.847 81.727L151.721 81.7416L151.626 81.8498L151.463 81.9871L151.311 82.084L151.344 82.1684L152.001 82.3903L152.117 82.7304L151.991 83.0074L151.948 83.1437L151.794 83.2495L151.606 83.343L151.378 83.3667L151.351 83.5164L151.44 83.9545L151.368 84.0491L151.296 84.1854L151.364 84.5446L151.504 84.5705L151.536 84.6516L151.511 84.798L151.486 84.9523L151.437 85.1156L151.412 85.1888L151.318 85.2338L151.028 85.2102L150.777 85.3498L150.272 85.8498L150.097 85.9354L149.905 86.1359L149.916 86.574L149.891 86.6145L149.844 86.7046L149.242 86.5492L149.222 86.5526L148.817 86.6088L148.541 86.8093L148.207 86.9253L147.504 86.8634L146.821 86.9411L146.658 86.9996L146.482 87.0334L146.315 87.1505L146.219 87.315L146.049 87.5222L145.807 87.6855L145.545 87.8116L145.482 87.9163L145.396 87.9771L145.249 87.8983L145.13 87.9028L144.985 87.8488L144.502 87.7902L143.973 87.6933L143.719 87.601L143.433 87.5267L143.125 87.467L142.849 87.4535L142.709 87.4253L142.046 87.2643L141.608 87.253L141.03 87.1855L139.882 86.9422L139.548 86.8431L139.229 86.8127L138.851 86.7282L138.564 86.5897L138.38 86.3262L138.183 85.9771L137.824 85.5187L137.75 85.2901L137.86 85.0897L137.972 84.9377L137.96 84.8735L137.872 84.8397L137.24 85.0356L136.628 85.2834L136.387 85.2901L136.154 85.2361L135.843 85.2316L135.546 85.298L134.949 85.3318L134.6 85.5142L134.377 85.869L134.256 86.155L134.155 86.2474L133.946 86.2823L133.636 86.2552L133.417 86.173L133.194 85.9286L132.848 85.8938L132.531 85.8881L132.446 85.8431L132.452 85.6832L132.327 85.3836L132.12 85.2901L131.584 85.8543L131.437 85.905L131.006 85.7485L130.629 85.5075L130.588 85.3307L130.526 85.1854L130.21 85.048L129.815 84.9545H129.689L129.738 84.869L129.784 84.7237L129.755 84.6088L129.663 84.4883L129.612 84.361L129.596 84.2372L129.568 84.1358L129.551 84.0401L129.522 83.9658L129.78 83.4027L129.833 83.0525L129.607 82.8464L129.512 82.7856L129.591 82.7394L129.911 82.7777L130.115 82.6617L130.222 82.5457L130.507 82.6549L130.926 82.8734L131.123 83.0221L131.204 83.1358L131.251 83.2315L131.226 83.3959L131.32 83.4601L131.517 83.4838L131.649 83.5345L131.603 83.7507L131.594 83.9275L131.775 83.9027L132.004 83.7676L132.182 83.5232L132.292 83.2856L132.376 82.7067L132.405 82.6583L132.542 82.7034L133.097 82.6786L133.36 82.7867L133.775 82.8047L133.767 82.8948L133.841 83.0367L134.025 83.2405L134.115 83.3734L134.308 83.3971L134.606 83.3239L134.78 83.2473L134.846 83.3014L135.118 83.2484L135.359 83.084L135.418 82.959L135.662 82.8701L135.99 82.6662L136.442 82.5097L137.923 82.3408L137.98 82.2135L137.959 81.9218L137.998 81.879L138.184 81.9511L138.484 82.0198L138.715 82.1223L138.862 82.2574L139.001 82.2631L139.215 82.1684L139.504 82.1076L139.774 82.2484L139.853 82.3993L139.806 82.477L139.81 82.5998L139.895 82.7022L140.114 82.8689L140.396 83.0119L140.542 83.0007L140.596 82.8621L140.648 82.53L140.667 82.1741L140.603 81.9702L140.451 81.9207L140.27 81.9038L140.173 81.861L140.208 81.7495L140.352 81.459L140.351 81.0704L140.023 80.6268L139.738 80.1977L139.739 80.0513L139.911 79.7968L140.173 79.5941L140.757 79.2562L140.941 79.1864L141.178 79.1301L141.518 78.9905L141.681 78.8474L141.791 78.692L141.951 77.8823L141.988 77.8474L142.036 77.8001L142.631 78.0805L142.684 78.0332L142.786 77.9882L142.979 77.7731L143.022 77.6109L143.018 77.3012L143.036 77.0096L143.073 76.9161L143.162 76.951L143.419 77.1019L143.622 77.2731L143.813 77.7021L144.258 77.8159L144.819 77.8271L145.02 77.6357L145.202 77.5918L145.408 77.6503L145.843 77.7168L145.892 77.371L146.142 77.0096L146.255 76.8834L146.574 76.8958L146.652 76.6255L146.731 75.8766L146.797 75.7944L147.029 75.8102L147.26 75.9465L147.329 76.058L147.449 76.049L147.617 75.9724L147.8 75.924L148.092 76.0039L148.713 76.344L149.034 76.469L149.236 76.4454L149.427 76.4499L150.16 76.9746L150.672 77.0478L151.139 77.0501L151.29 76.8924L151.489 76.7584L151.697 76.7764L151.878 76.8451L152.232 77.0726L152.395 77.1312L152.612 77.1683L152.771 77.219L152.912 77.6132L152.991 77.719Z" fill="#108AB4"/>
<path d="M114.63 63.8131L114.644 63.9179L114.731 63.9618L115.034 63.9392L115.187 63.7489L115.309 63.6296L115.399 63.7107L115.443 63.9449L115.526 64.249L115.888 64.5891L116.193 64.6859L116.569 64.6194L116.718 64.5586L116.819 64.6093L116.919 64.7895L117.134 64.9945L117.589 65.1409L117.728 65.2231L117.825 65.3616L117.797 65.5575L117.58 66.0474L117.552 66.1915L117.581 66.24L117.539 66.3301L117.257 66.6578L117.232 66.7727L117.326 66.9607L117.404 67.1161L117.406 67.0857L117.837 66.9449L118.032 67.2276L118.352 67.2377L118.39 67.329L118.749 67.5925L118.86 67.8008L119.118 68.0024L118.904 68.2569L118.936 68.3707L119.013 68.4867L119.303 68.5542L119.449 68.7209L119.458 68.9765L119.524 69.3909L118.925 69.8031L118.755 70.2626L118.739 70.3527L118.719 70.3392L118.654 70.1871L118.544 70.1894L118.297 70.1252L117.951 70.5396L117.794 70.8842L117.702 71.1365L117.562 71.3403L117.534 71.5554L117.552 71.6466L117.505 71.7626L117.503 71.8854L117.701 72.1252L117.751 72.2559L117.994 72.6827L117.918 72.8369L117.858 73.0048L117.789 73.1241L117.706 73.1996L117.456 73.1951L117.139 73.248L116.925 73.3325H116.815L116.585 73.1208L116.328 72.8032L116.166 72.6512L116.092 72.5205L115.89 72.4653L115.603 72.3088L115.403 72.1376L115.232 72.0307L114.991 71.9777L114.792 71.9833L114.735 71.6951L114.71 71.3662L114.548 71.1444L114.771 70.2795L114.638 70.195L114.494 70.2637L114.284 70.4709L114.184 70.7164L114.124 70.9349L113.773 71.141L113.215 71.2164L112.606 71.141L112.523 71.0858L112.483 71.0227V70.9473L112.525 70.8302L112.631 70.6871L112.658 70.4844L112.549 70.3087L112.478 70.24L112.506 70.07L112.586 69.8572L112.603 69.7344L112.189 69.3662L111.891 69.2941L111.602 69.2806L111.382 69.2389L111.254 69.2569L111.162 69.3639L111.069 69.4416L110.999 69.3493L110.871 68.6939L110.772 68.5947L110.398 68.4844L109.889 68.445L109.754 68.3256L109.679 68.0294L109.632 67.6736L109.465 67.3312L109.38 67.2445L109.228 67.0936L108.962 67.1555L108.643 67.3549L108.455 67.4089L108.383 67.4303L108.13 67.2366L107.844 66.9337L107.615 66.6116L107.56 66.4326L107.63 66.2152L107.546 66.0485L107.424 65.7434L107.389 65.5046L108.764 64.6577L109.602 64.223L109.997 64.0913L110.091 64.5282L110.163 64.6668L110.257 64.7568L110.381 64.7748L110.524 64.6668L110.724 64.553L111.045 64.6059L111.278 64.7107L111.361 64.8199L111.516 64.9235L111.741 64.9483L112.177 64.7501L112.596 64.4483L112.719 64.2377L112.765 64.0474L113.013 64.1735L113.231 64.2005L113.328 64.1442L113.266 63.839L113.444 63.6757L113.641 63.6014L113.73 63.7332L113.911 63.8683L114.054 63.8694L114.438 63.5181L114.528 63.5879L114.612 63.7129L114.63 63.8131Z" fill="#108AB4"/>
<path d="M129.51 82.7858L129.605 82.8466L129.831 83.0527L129.778 83.4029L129.52 83.966L129.384 84.421L129.369 84.7689L129.395 84.9323L129.441 84.93L129.687 84.9548H129.813L130.208 85.0483L130.524 85.1857L130.586 85.3309L130.627 85.5077L131.004 85.7487L131.435 85.9052L131.582 85.8546L132.118 85.2904L132.325 85.3839L132.45 85.6834L132.444 85.8433L132.297 86.4413L132.271 86.7623L132.398 86.974L132.412 87.1395L132.375 87.2893L132.161 87.3028L131.874 87.2217L131.631 86.9638L131.448 86.9954L131.289 87.0618L131.207 87.3051L131.135 87.5956L131.158 87.7566L131.272 87.8816L131.36 88.1452L131.424 88.4875L131.473 88.644L131.42 88.7139L131.269 88.7612L131.143 88.715L130.924 88.3062L130.822 88.1508L130.648 88.1227L130.343 88.2229L129.875 88.4515L129.684 88.4503L129.524 88.4042L129.373 88.2105L129.245 87.8355L129.205 87.6001L129.116 87.6069L128.815 87.5393L128.675 87.6327L128.674 88.0157L128.647 88.4931L128.496 88.8006L128.077 89.3321L127.924 89.563L127.862 89.7296L127.85 89.8738L127.914 90.1227L128.001 90.3603L127.927 90.4954L127.707 90.5664L127.55 90.4222L127.491 90.1655L127.152 89.8141L127.306 89.5202L127.28 89.447L126.72 89.2938L126.479 89.0708L126.141 88.679L126.078 88.5111L126.093 87.9638L126.073 87.831L126.028 87.7656L125.864 87.7701L125.636 87.9605L125.425 88.2442L124.995 88.5652L124.95 88.6328L125.095 88.9447L125.088 89.0652L124.737 89.5619L124.671 89.7251L124.226 90.0349L124.022 90.1508L123.405 89.9234L123.234 89.8963L122.959 90.0484L122.569 90.1936L121.94 90.3389L121.708 90.2331L121.599 90.1339L121.544 89.983L121.386 89.7184L121.208 89.5619L121.084 89.3907L120.918 89.2037L120.811 89.0472L120.953 88.545L120.85 88.3693L120.797 88.117L120.824 87.9458L120.767 87.9042L120.199 87.8051L119.727 87.8366L119.389 88.0044L119.113 88.2837L119.079 88.3445L119.097 88.3941L119.235 88.6497L119.002 88.9199L118.645 89.1294L118.392 89.1508L118.281 89.1103L118.276 88.822L118.486 88.715L118.675 88.5269L118.738 88.2612L118.761 88.0742L118.562 87.8479L118.586 87.7082L118.71 87.4447L118.781 87.2116L118.88 87.01L119.273 86.68L119.667 86.3467L119.727 85.9931L119.758 85.5618L119.814 85.4582L120.346 85.1992L120.479 85.0967L120.547 84.9503L120.966 84.4649L121.38 83.9829L121.464 83.8208L121.534 83.725V83.6462L121.481 83.5854L121.284 83.546L121.217 83.3917L121.432 83.1169L121.701 82.9491L121.962 82.9457L122.067 83.0234L122.061 83.1146L122.174 83.2126L122.372 83.2442L122.617 83.2104L122.86 83.1079L123.01 82.8635L123.096 82.6777L123.478 82.466L123.738 82.573L124.462 82.6011L124.989 82.5437L125.319 82.3996H125.728L126.003 82.4806L126.051 82.4682L126.128 82.4502L126.202 82.3725L126.461 82.3196L126.495 82.2554L126.485 82.189L126.439 82.1563L126.12 82.1901L126 82.1394L125.968 82.0223L126.07 81.8173L126.305 81.6507L126.503 81.6101L126.646 81.6552L126.994 81.9637L127.078 81.9739L127.127 81.9187L127.199 81.8871L127.319 81.948L127.454 82.1394L127.478 82.1687L128.256 82.1011H128.431L128.959 82.4378L129.51 82.7858Z" fill="#108AB4"/>
<path d="M125.667 46.1848L125.594 46.2929L125.629 45.5192L125.975 44.6926L126.121 44.7118L125.971 44.9358L125.927 45.0924L125.867 45.4043L125.894 45.5665L126.683 45.6115L126.591 45.7557L125.79 45.8526L125.667 46.1848ZM130.193 45.9742L130.212 46.0744L130.675 46.2197L130.87 46.4517L131.086 46.803L131.108 47.3075L130.831 47.6701L130.601 47.8999L131.469 47.8132L131.556 48.0204L131.688 48.2445L132.155 48.0846L133.328 48.7456L134.038 48.4235L134.219 48.4044L134.38 48.9382L134.203 49.4743L133.578 50.0441L133.717 50.3954L133.917 50.4731L134.506 50.3988L135.44 50.7445L135.635 50.6364L136.392 49.838L136.694 49.6657L137.69 49.5429L137.871 49.2321L138.274 48.9202L138.533 48.579L139.156 47.9269L139.8 48.044L140.177 48.169L140.589 48.2321L140.964 48.9269L141.914 49.6916L142.787 49.6251L143.097 50.347L143.234 51.2344L143.502 51.5126L143.737 51.6939L144.448 51.8831L144.476 51.8943L144.5 52.0137L144.544 52.4529L144.603 52.8155L144.969 54.2593L144.963 54.6106L144.958 54.7041L144.824 55.1962L144.587 55.6095L144.272 55.8426L144.099 56.1016L144.067 56.3866L144.463 56.8854L145.286 57.5983L145.618 58.2064L145.462 58.7109L145.414 59.0803L145.475 59.3145L145.607 59.5026L145.81 59.6445L145.891 59.863L145.849 60.158L145.887 60.363L146.039 60.5082L146.025 60.5646L145.951 60.7695L145.851 61.1423L145.794 61.4148L145.562 61.7842L145.633 62.0984L145.814 62.4678L145.953 62.6536L145.996 62.8292L145.909 63.2459L145.953 63.3529L146.526 63.6592L146.619 63.8L146.674 64.0939L146.876 64.7212L146.709 65.514L146.563 65.9476L146.236 66.6334L146.221 66.6965L146.183 66.7798L146.085 66.8992L145.949 66.9172L145.743 66.8282L145.602 66.7133L145.635 66.4183L145.544 66.398L145.431 66.2167L145.387 66.0219L145.266 65.9419L144.823 65.8597L144.672 65.8023L144.556 65.844L144.469 65.9825L144.525 66.1075L144.607 66.2291L144.852 66.4217L144.828 66.4982L144.298 66.6863L143.966 66.8778L143.656 66.9859L143.341 67.1841L142.718 67.407L142.261 67.4656L142.166 67.5242L141.996 67.9014L141.882 67.9803L141.77 67.9397L141.687 67.8778L141.581 67.9285L141.471 68.0535L141.354 68.1019L141.254 68.1008L141.075 68.4296L140.555 68.5287L140.494 68.6987L140.398 68.8958L140.322 68.9442L140.088 68.8665L139.762 68.8226L139.575 68.9307L139.351 68.9904L139.077 69.0084L138.772 69.2235L138.475 69.6008L138.308 69.9341L138.218 70.0535L138.073 69.7404L137.895 69.5265L137.769 69.415H137.656L137.627 69.4612V69.6244L137.747 69.8958L137.896 70.0817L137.92 70.2191L138 70.4668L138.217 70.7382L138.557 70.9522L138.789 71.1639L138.961 71.4567L138.963 71.5468L138.915 71.6662L138.834 71.7788L138.765 71.9252L138.576 72.2202L138.633 72.3497L138.787 72.5119L138.923 72.7067L139.099 73.022L139.34 73.5739L139.495 73.8002L139.707 74.0345L139.914 74.2124L140.241 74.2067L140.579 74.5468L140.948 75.0378L141.224 75.2619L141.416 75.3307L141.576 75.5074L141.717 75.7608L141.772 75.9072L141.897 76.0131L142.235 75.9928L142.67 76.3915L142.938 76.682L143.08 76.9163L143.043 77.0097L143.025 77.3014L143.029 77.61L142.986 77.7733L142.793 77.9883L142.692 78.0345L142.638 78.0807L142.043 77.8003L141.995 77.8476L141.958 77.8825L141.798 78.6922L141.689 78.8476L141.525 78.9906L141.184 79.1303L140.948 79.1866L140.763 79.2575L140.179 79.5954L139.916 79.7981L139.746 80.0526L139.745 80.199L140.029 80.628L140.357 81.0718L140.358 81.4603L140.214 81.7508L140.18 81.8623L140.277 81.9051L140.458 81.9209L140.61 81.9704L140.674 82.1754L140.655 82.5301L140.603 82.8623L140.549 83.002L140.403 83.0132L140.121 82.8702L139.902 82.7035L139.817 82.6011L139.813 82.4783L139.86 82.4006L139.782 82.2497L139.512 82.1089L139.223 82.1698L139.01 82.2632L138.871 82.2576L138.723 82.1225L138.493 82.0188L138.193 81.9501L138.006 81.8781L137.967 81.9209L137.988 82.2125L137.931 82.3398L136.449 82.5087L135.997 82.6664L135.669 82.8702L135.425 82.958L135.366 83.0831L135.125 83.2475L134.853 83.2993L134.787 83.2463L134.612 83.3218L134.315 83.395L134.122 83.3713L134.031 83.2385L133.848 83.0346L133.773 82.8939L133.781 82.8026L133.366 82.7846L133.104 82.6765L132.548 82.7013L132.411 82.6551L132.382 82.7035L132.299 83.2824L132.189 83.5189L132.011 83.7633L131.782 83.8995L131.601 83.9243L131.609 83.7464L131.655 83.5313L131.523 83.4806L131.326 83.457L131.232 83.3928L131.256 83.2283L131.21 83.1326L131.129 83.0177L130.931 82.8702L130.512 82.6518L130.227 82.5425L130.12 82.6585L129.916 82.7745L129.595 82.7362L129.516 82.7824L128.966 82.4333L128.438 82.0977H128.263L127.485 82.1653L127.462 82.136L127.326 81.9445L127.207 81.8837L127.135 81.9152L127.086 81.9704L127.003 81.9614L126.654 81.6528L126.511 81.6078L126.313 81.6495L126.078 81.8162L125.976 82.02L126.007 82.1371L126.128 82.1878L126.447 82.154L126.493 82.1878L126.504 82.2542L126.469 82.3184L126.211 82.3713L126.137 82.449L126.061 82.4682L126.013 82.4806L125.738 82.3995H125.329L124.999 82.5425L124.472 82.5999L123.748 82.5718L123.488 82.4648L123.329 82.4006L123.214 82.0853L123.244 81.618L123.416 80.9974L123.464 80.5413L123.388 80.2508L123.49 79.8138L123.772 79.2305L123.96 78.6145L124.053 77.9636L124.19 77.539L124.458 77.2406L125.094 76.405L125.146 76.3419L125.128 75.9241L124.957 75.8644L124.706 75.744L124.067 75.5953L123.472 75.4996L123.202 75.3813L122.966 75.0649L122.819 75.0604L122.532 75.1741L122.174 75.2507L121.913 75.1842L121.749 75.1966L121.658 75.2552L121.612 75.2034L121.547 74.932L121.41 74.8611L121.199 74.798L121.067 74.825L120.976 74.9601L120.835 75.0547L120.707 75.0243L120.302 74.3959L120.199 74.2563L120.173 74.1279L120.071 73.8937L119.83 73.6594L119.591 73.5851L119.471 73.611L119.485 73.3205L119.578 72.8982L119.668 72.6774L119.788 72.4973L119.915 72.3711L119.943 72.1436L119.923 71.9286L119.776 71.8948L119.409 71.736L119.192 71.5682L119.031 71.3576L118.819 71.0682L118.729 70.7731L118.725 70.4792L118.749 70.3474L118.765 70.2562L118.935 69.7967L119.534 69.3846L119.468 68.969L119.459 68.7134L119.314 68.5467L119.023 68.4791L118.946 68.3631L118.914 68.2494L119.127 67.9938L118.869 67.7922L118.752 67.5929L118.393 67.3293L118.355 67.2381L118.527 66.4667L118.396 66.2415L118.232 66.1266L118.042 66.0703L117.954 65.9633L117.924 65.8406L117.958 65.7651L118.182 65.7877L118.252 65.7077L118.785 65.2527L118.808 65.1649L118.734 65.1153L118.637 65.0895L118.612 64.9937L118.615 64.8676L118.9 64.2088L118.985 63.9272L119.004 63.7279L118.986 63.5309L118.821 63.2211L118.663 62.9734L118.657 62.7763L118.541 62.6727L118.212 62.1423V61.9373L118.398 61.7774L118.658 61.6761L118.745 61.5916L118.9 61.5387L119.314 61.6919L119.498 61.8247L119.55 61.7977L119.717 61.6535L120.009 61.6761L120.718 61.3855L120.824 61.2459L120.902 61.0972L120.909 61.0319L120.634 60.7448L120.627 60.6389L120.663 60.5195L120.74 60.4249L120.902 60.3607L121.075 60.2346L121.461 59.8765L121.595 59.5657L121.637 59.2278L121.645 58.9756L121.539 58.7751L121.432 58.6456L121.287 58.6659L121.004 58.6557L120.739 58.5431L120.594 58.3607L120.558 58.2008L120.624 58.0994L120.645 57.9755L120.602 57.8506L120.619 57.7458L120.738 57.6614L121.575 57.6636L121.638 57.5712L121.694 57.0848L121.904 56.3426L122.101 55.9282L122.133 55.7537L122.13 54.7683L122.157 54.2671L122.014 54.0318L121.702 53.7739L121.769 53.2356L121.872 52.8144L122.186 52.2964L122.435 52.1545L123.522 52.07L124.722 52.1049L125.221 52.8876L125.037 53.2885L125.328 53.4754L125.469 53.4067L125.576 53.0576L125.647 52.6703L125.749 52.5531L126.121 52.8426L126.252 53.0408L126.26 53.6759L126.397 52.8144L126.295 52.2097L126.364 51.6218L126.514 51.3155L126.651 51.1207L127.532 51.3313L128.505 51.2231L128.873 51.4506L129.706 52.5847L129.984 52.7705L130.334 52.829L129.851 52.5869L128.842 51.2063L128.54 51.0351L128.076 50.9833L127.787 50.8481L127.604 50.6387L127.551 50.4506L127.561 49.0486L127.388 48.8391L127.163 48.767L127.022 48.8627L126.734 48.8639L126.673 48.5452L126.744 48.3087L127.323 48.1465L127.704 47.9292L127.721 47.5452L127.48 47.2422L127.192 46.6859L126.853 46.1622L126.815 45.5519H126.816L127.406 45.5631L127.55 45.5868L128.444 45.8728L128.663 46.0733L128.938 46.0823L129.433 45.8953L129.804 45.8131L129.947 45.9291L130.148 45.9776H130.193V45.9742ZM126.552 46.5913L126.43 46.7253L126.128 46.7095L125.959 46.5834L126.014 46.4494L126.174 46.3469L126.307 46.3312L126.507 46.3942L126.552 46.5913ZM142.739 48.3841L142.817 48.7479L142.733 48.9337L142.378 48.6251L142.021 48.6296L141.808 49.1037L141.65 49.124L141.099 48.6927L141.01 48.4821L140.992 48.3064L141.071 47.6983L141.056 47.5069L141.229 47.2974L141.257 46.9934L141.562 46.6735L141.834 46.6611L141.92 46.9325L142.05 47.1195L142.508 47.3289L142.576 47.4235L142.618 47.5553L142.405 47.812L142.333 47.9438L142.401 48.1544L142.739 48.3841ZM135.071 48.1938L134.585 48.2039L134.399 47.9877L134.214 47.9325L134.314 47.6656L134.444 47.5677L134.914 47.7422L135.062 48.0834L135.071 48.1938ZM144.325 50.713L144.284 50.8808L144.332 51.1387L144.201 51.1196L143.809 51.1804L143.422 51.0948L143.348 50.7738L143.41 50.4652L143.254 50.2524L143.111 50.1274L143.09 49.9495L143.114 49.7637L143.781 50.2614L144.325 50.713Z" fill="#108AB4"/>
<path d="M93.7401 101.289L93.7446 101.44L93.8685 101.648L93.9969 101.724L94.2671 101.83L94.4755 101.845L94.7593 101.894L94.9518 102.014L94.9631 102.199L94.9147 102.407L94.7976 102.597L94.7311 102.742L94.7931 102.826L94.8944 102.891L95.0037 102.909L95.078 102.888L95.1343 102.773L95.2413 102.632L95.301 102.614L95.2964 102.694L95.3471 102.793L95.6951 102.958L96.4586 103.267L96.7582 103.273L97.0003 103.309L97.0713 103.438L97.5578 103.913L97.6738 103.901L97.89 103.912L98.1512 103.874L98.3404 103.785L98.4643 103.8L98.6017 103.892L98.7616 103.972L98.9688 104.129L99.1535 104.321L99.2808 104.384L100.048 104.255L100.219 104.368L100.4 104.367L100.604 104.338L101.048 104.398L101.408 104.383L101.441 104.336L101.471 103.908L101.529 103.756L101.614 103.715L101.827 103.746L102.603 103.999L102.923 104.158L103.23 104.282L103.498 104.295L103.676 104.379L103.925 104.784L103.882 104.988L103.905 105.063L103.931 105.204L103.924 105.361L103.989 105.463L104.107 105.475L104.258 105.445L104.424 105.384L104.714 105.211L104.801 105.183L105.288 105.38L105.503 105.511L105.577 105.654L105.689 105.801L105.834 105.822L106.041 105.684L106.364 105.535L106.914 105.666L107.525 105.855L107.79 105.877L107.799 105.785L107.847 105.653L107.948 105.587L108.099 105.568L108.308 105.498L108.547 105.383L108.796 105.336L109.056 105.421L109.37 105.491L109.558 105.49L109.648 105.76L109.8 105.863L109.86 106.097L109.581 106.219L109.416 106.236L109.365 106.635L109.444 106.748L109.601 106.854L109.644 106.977L109.675 107.562L109.355 107.915L108.907 108.31L106.713 109.577L106.191 110.188L105.991 110.329L104.361 110.713L103.221 111.123L102.675 111.272L101.993 111.982L101.669 112.268L101.927 112.347L102.228 112.686L102.127 112.836L101.688 113.068L101.497 113.139L101.393 113.102L101.295 113.133L100.561 114.355L99.9125 115.231L99.5477 115.612L99.1738 116.178L98.3776 117.634L98.372 118.053L98.7639 119.494L98.9891 119.871L99.3044 120.187L99.9013 120.457L100.049 120.721L99.8427 120.973L99.2459 121.421L98.2076 122.024L97.7661 122.499L97.6726 122.957L97.3686 123.163L97.2537 123.801L97.069 124.224L97.0341 124.367L96.8382 124.686L96.8122 124.919L97.1332 125.239L96.9744 125.378L96.8156 125.439L96.4496 125.476L95.2187 125.516L94.2288 126.207L93.7345 126.817L93.2863 127.949L92.7424 128.614L92.5025 128.737L92.1297 128.445L91.6635 128.4L91.2119 128.497L90.9754 128.729L90.606 128.859L90.2445 128.747L89.463 128.686L89.115 128.698L88.5711 128.886L88.1049 128.761L87.3177 128.697L85.6138 128.846L85.3987 128.916L85.1859 129.195L84.6431 129.676L83.8176 129.693L83.071 130L82.884 130.195L82.571 130.735L82.473 131.128L82.4077 131.131L82.3266 131.034L82.2117 131.066L82.152 131.366L81.8716 131.502L81.6374 131.551L81.0597 131.309L80.5777 130.945L80.3254 130.92L79.9155 130.352L79.7387 129.991L79.6137 129.599L79.6396 129.449L79.6047 129.324L79.2409 129.165L79.152 128.805L79.4178 128.335L79.6351 128.136L79.7702 128.078L79.4414 128.099L79.2038 128.4L78.8997 127.916L77.6598 126.971L77.7398 126.754L77.7263 126.637L77.5179 126.89L77.376 126.956L76.742 126.915L76.0123 127.031L75.8197 126.047L75.7285 125.668L75.7048 125.423L75.8929 124.855L76.099 124.623L76.3726 124.145L76.7105 123.746L77.0675 123.651L77.2251 123.593L77.3569 123.284L77.4312 123.021L77.3772 122.995L76.9605 123.049L76.2127 121.94L76.2364 121.763L76.3298 121.5L76.3918 121.168L76.4076 120.906L76.6024 120.68L76.9008 120.452L77.1519 120.128L77.278 119.811L77.304 119.523L77.1621 119.317L76.7533 119.203L76.331 118.379L76.2375 117.862L76.1508 117.808L75.8906 117.572L75.6406 117.129L75.6046 117.059L75.8625 116.981L76.9256 116.978L77.1474 116.88L77.1812 116.846L77.3749 116.5L77.5776 115.932L77.6249 115.584L77.5607 115.44L77.2082 115.087L77.1925 114.983L77.2488 114.817L77.4582 114.639L77.7409 114.436L77.8952 114.262L77.858 114.124L77.7758 113.981L77.7623 113.847L77.8141 113.683L77.8332 113.12L77.8693 112.976L77.8141 112.462L77.7454 112.042L77.5213 111.497L77.5618 111.376L77.6655 111.275L78.0044 111.086L78.2747 110.64L78.6677 110.266L79.1824 109.965L79.5427 109.631L79.6847 109.374L79.7849 109.307L79.7556 109.187L79.688 109.014L79.4831 108.844L79.2184 108.747L78.9245 108.751L78.7421 108.716L78.6891 108.584L78.7094 108.223L78.6936 107.866L78.6373 107.702L78.501 107.578L78.2319 107.611L77.9988 107.509L77.822 107.486L77.7195 107.566L77.1981 107.542L76.9808 107.484L76.8287 107.413L76.7319 107.453L76.6767 107.523L76.6677 107.632L76.6317 107.776L76.4447 107.907L76.0179 108.036L75.6733 108.026L75.3568 107.934L75.2555 107.865L75.1034 107.804L74.4604 107.88L74.3827 107.825L74.1609 107.959L73.8343 108.118L73.6507 108.127L73.5843 108.094L73.5606 108.023L73.4233 107.774L73.4593 107.642L73.7228 107.256L73.6935 107.163L73.5854 107.038L73.4886 106.858L73.4604 106.765L73.2926 106.749L73.1135 106.844L72.4322 107.038L72.2689 107.109L71.9739 107.296L71.6755 107.582L71.4379 107.642L71.3556 107.558L71.3275 106.886L71.6901 106.439L71.948 106.169L71.8275 106.114L71.5538 106.122L71.573 105.912L71.7014 105.811L71.8252 105.582L71.68 105.484L71.5662 105.333L71.573 104.939L71.6045 104.779L71.5674 104.606L71.0099 104.84L70.8669 104.805L70.8612 104.513L71.1698 104.065L71.2013 103.928L70.8399 103.862L70.5696 103.642L70.4052 103.445L70.2295 103.162L70.2284 102.908L70.4108 102.312L70.6709 102.139L70.8962 102.032L71.3725 101.618L72.0291 101.695L72.4356 101.606L72.8005 101.394L73.01 101.347L73.3467 101.162L73.3354 100.912L73.2194 100.726L73.3208 100.552L73.698 100.338L74.117 100.054L74.5978 99.9989L75.0866 99.7478L75.4143 99.9099L75.7014 99.8548L76.0314 100.047L76.465 100.488L77.1001 100.664L77.6069 100.526L78.5022 100.497L78.9493 100.555L79.7443 100.446L80.1993 100.485L80.9369 100.267L81.5079 100.539L82.6149 100.667L83.2793 100.89L85.1194 101.264L85.7839 101.268L86.7242 101.058L87.1228 100.9L87.4877 100.993L88.0227 100.812L88.2794 100.849L88.6139 101.107L89.7907 101.455L90.0993 101.16L90.329 101.096L91.1759 101.276L92.0295 101.643L92.4732 101.669L93.1218 101.569L93.6365 101.328L93.7401 101.289ZM112.98 116.315L112.923 116.362L111.951 115.888L111.634 115.835L111.556 115.763L111.565 115.516L111.59 115.407L112.241 115.357L112.766 115.533L113.049 116.006L113.07 116.087L112.98 116.315ZM109.351 116.526L109.654 116.663L109.974 116.54L110.144 116.578L110.311 116.645L110.352 116.904L110.203 117.192L109.995 117.485L109.819 117.806L109.666 118.174L109.381 118.391L109.123 118.522L108.578 118.248L108.261 118.179L108.166 118.077L108.091 117.669L107.948 117.54L107.737 117.482L107.552 117.587L107.311 117.802L107.183 117.587L106.979 117.547L106.903 117.417L106.906 117.25L108.213 116.261L108.592 116.041L109.395 115.785L109.517 115.824L109.413 115.974L109.421 116.043L109.521 116.116L109.497 116.233L109.396 116.335L109.351 116.526ZM103.977 120.074L103.862 120.323L103.381 120.235L103.275 120.134L103.379 119.853L103.517 119.819L103.526 119.619L103.672 119.417L104.354 119.254L104.508 119.391L104.541 119.588L104.133 120.018L103.977 120.074ZM104.448 121.07L104.377 121.123L104.167 121.075H103.853L103.841 120.912L103.889 120.798L103.95 120.682L104.141 120.909L104.444 120.952L104.448 121.07ZM56.0603 158.104L55.8452 158.34L55.6053 158.255L55.7202 157.737L55.8317 157.582L56.2686 157.356L56.6324 157.265L56.7393 157.024L56.8587 156.93L56.9871 157.073L56.8903 157.24L56.8137 157.76L56.5715 157.927L56.0603 158.104ZM43.0442 159.603L42.9654 159.63L42.8933 159.347L42.5183 158.653L42.7458 158.344L43.1602 158.336L43.328 158.552L43.3843 158.775L43.3055 158.903L43.3291 159.163L43.2852 159.331L43.0442 159.603ZM54.54 160.759L54.1109 161.163L53.6819 161.07L53.6087 161.004L54.0388 160.901L54.4296 160.594L54.6807 159.912L55.0738 159.158L55.1526 158.838L55.308 158.713L55.522 158.702L55.6143 158.725L55.7089 158.893L55.7078 159.273L55.5963 159.902L55.3902 160.458L54.54 160.759ZM47.7842 160.008L47.5195 160.823L47.2729 161.142L47.1265 161.249L46.7628 161.338L46.3303 160.832L46.1051 160.318L45.9812 160.152L46.1783 160.022L46.4655 160.044L47.0826 159.935L47.2076 159.891L47.8349 159.371L48.452 159.306L48.4666 159.478L47.7842 160.008ZM45.0972 161.284L44.9677 161.314L44.8145 161.225L44.6524 160.943L44.7616 160.733L44.8619 160.638L45.0015 160.652L45.2695 160.807L45.3517 160.966L45.3596 161.065L45.0972 161.284ZM50.7358 160.837L50.7167 161.112L50.791 161.389L50.7719 161.809L50.621 162.036L50.2336 162.263L49.9284 162.222L49.7561 162.131L49.4498 161.763L49.443 161.382L49.7234 161.134L49.8439 160.813L50.5714 160.874L50.6345 160.812L50.6885 160.794L50.7358 160.837ZM42.8742 162.04L42.569 162.62L42.1838 162.403L42.0904 162.331L42.0127 162.212L42.3832 162.188L42.7582 161.897L42.8742 162.04Z" fill="#108AB4"/>
<path d="M79.1621 0.837987L79.0112 1.32674L78.7871 1.25015L78.7252 1.19723L78.6767 1.06998L78.7004 0.70624L78.6925 0.179199L78.9504 0.612761L79.1621 0.837987ZM78.4515 1.04632L78.3727 1.954L78.2443 1.9495L78.0146 1.69837L77.8423 1.64657L77.7882 1.78058L77.7972 1.94163L77.8862 2.04298L78.161 2.64884L78.1857 2.82564L78.152 2.91123L77.8851 2.73668L77.2409 1.95288L76.7398 0.656682L77.4155 0.448347L77.9053 0.789564L78.4515 1.04632ZM76.6947 1.64545L76.9785 1.90671L77.0787 2.0914L76.9155 2.26934L76.7184 2.31551L76.4796 2.27384L76.0866 2.08126L75.9492 1.63981L76.2206 1.64995L76.5416 1.56549L76.6947 1.64545ZM78.4763 3.88422L78.4144 4.13536L78.3276 4.13311L78.0303 3.82229L77.7939 3.65224L77.715 3.50809L77.6486 3.26147L77.7848 3.23106L77.947 3.28737L78.3536 3.51259L78.4684 3.74684L78.4763 3.88422ZM78.2342 6.28405L78.2972 6.48451L78.224 6.46198L78.0112 6.23337L77.6396 5.68832L77.51 5.23673L77.492 5.02727L77.5844 5.05091L77.661 5.23673L78.0135 5.35836L78.1069 5.45071L78.1058 5.67705L78.224 5.94508L78.2342 6.28405Z" fill="#108AB4"/>
<path d="M108.455 67.4092L108.643 67.354L108.962 67.1558L109.228 67.0927L109.38 67.2447L109.466 67.3315L109.632 67.6738L109.679 68.0297L109.754 68.3258L109.889 68.4452L110.397 68.4846L110.772 68.5939L110.871 68.6929L110.999 69.3484L111.069 69.4407L111.163 69.3641L111.255 69.256L111.383 69.2391L111.603 69.2808L111.892 69.2943L112.191 69.3664L112.603 69.7358L112.587 69.8574L112.507 70.0702L112.479 70.2403L112.55 70.309L112.659 70.4847L112.633 70.6874L112.528 70.8293L112.485 70.9464V71.0218L112.524 71.0849L112.609 71.1401L113.218 71.2144L113.775 71.1401L114.127 70.9329L114.186 70.7144L114.285 70.4689L114.495 70.2617L114.639 70.1918L114.772 70.2763L114.549 71.1423L114.712 71.3631L114.736 71.6919L114.794 71.9802L114.994 71.9746L115.235 72.0275L115.406 72.1333L115.605 72.3045L115.892 72.4622L116.094 72.5173L116.167 72.648L116.331 72.8L116.587 73.1176L116.817 73.3293H116.929L117.142 73.246L117.46 73.193L117.71 73.1975L117.817 73.3586L118.064 73.4329L118.15 73.4926L118.247 73.6041L118.412 73.6491L118.61 73.6041L118.754 73.4566L118.947 73.389L119.14 73.4115L119.252 73.4926L119.463 73.6131L119.583 73.5872L119.823 73.6615L120.064 73.8958L120.165 74.13L120.191 74.2584L120.295 74.398L120.699 75.0264L120.827 75.0568L120.968 74.9622L121.059 74.8271L121.191 74.8001L121.403 74.8631L121.539 74.9341L121.604 75.2055L121.65 75.2573L121.742 75.1987L121.905 75.1863L122.166 75.2528L122.524 75.1762L122.812 75.0625L122.958 75.067L123.194 75.3834L123.465 75.5017L124.059 75.5974L124.698 75.746L124.949 75.8665L125.12 75.9262L125.138 76.344L125.086 76.4071L124.45 77.2427L124.182 77.5411L124.046 77.9657L123.952 78.6166L123.764 79.2326L123.483 79.8159L123.38 80.2529L123.457 80.5434L123.408 80.9995L123.236 81.62L123.207 82.0874L123.322 82.4027L123.48 82.4669L123.099 82.6786L123.012 82.8644L122.862 83.1088L122.619 83.2113L122.375 83.2451L122.176 83.2135L122.064 83.1156L122.069 83.0243L121.965 82.9466L121.705 82.9489L121.435 83.1167L121.22 83.3915L121.287 83.5446L121.485 83.5852L121.537 83.646V83.7248L121.467 83.8194L121.384 83.9816L120.968 84.4635L120.549 84.9489L120.482 85.0953L120.349 85.1978L119.816 85.4568L119.761 85.5604L119.73 85.9917L119.671 86.3454L119.275 86.6776L118.882 87.0075L118.784 87.2091L118.713 87.4422L118.591 87.7057L118.566 87.8454L118.765 88.0717L118.742 88.2587L118.679 88.5245L118.49 88.7125L118.281 88.8195L118.286 89.1078L118.397 89.1483L118.649 89.127L119.006 88.9175L119.239 88.6472L119.102 88.3916L119.085 88.342L119.119 88.2812L119.395 88.0019L119.733 87.8341L120.204 87.8026L120.773 87.9017L120.829 87.9433L120.802 88.1145L120.855 88.3668L120.958 88.5436L120.817 89.0448L120.924 89.2013L121.09 89.3894L121.214 89.5605L121.391 89.717L121.55 89.9817L121.604 90.1315L121.35 90.3905L120.92 90.6337L120.871 90.7903L120.877 90.9671L120.925 91.1067L121.163 91.2858L121.418 91.6901L121.581 92.0504L121.935 92.395L122.022 92.4975L122 92.5831L121.906 92.7295L121.784 93.2183L121.639 93.2948L121.477 93.3263L121.038 93.6833L120.842 93.6394L120.564 93.6439L120.36 93.7611L120.382 93.9829L120.561 94.1856L120.666 94.4063L120.709 94.6361L120.907 94.8061L121.186 94.9075L121.346 94.9142L121.45 94.975L121.513 95.0539L121.634 95.5449L121.561 95.6676L121.411 95.7194L121.32 95.921L121.141 96.2172L121.04 96.4548L121.153 96.6643L121.2 96.8197L121.14 96.9796L121.22 97.2273L121.432 97.4728L122.007 97.8174L122.542 98.0978L122.708 98.144L123.431 97.9638L123.55 97.9796L123.638 98.1936L123.676 98.3377L123.595 98.5539L123.396 98.8591L123.184 99.0968L123.056 99.2983L123.083 99.4819L123.091 99.7251L122.919 99.7972L122.913 99.7499L122.842 99.7083L122.781 99.7319L122.734 99.7848L122.727 99.8783L122.36 100.034L122.107 100.195L121.105 101.154L120.637 101.435L120.545 101.604L120.449 101.919L120.174 102.189L119.933 102.318L119.337 102.449L118.738 102.735L118.468 102.611L117.77 102.625L117.334 102.28L116.496 102.062L116.224 101.559L115.842 101.526L115.592 101.542L115.442 101.465L115.404 101.293L115.4 101.127L115.136 101.204H114.933L114.812 101.27L114.718 101.347L114.605 101.298L114.54 101.315L114.546 101.412L114.302 101.437L114.038 101.377L113.345 101.117L113.239 101.077L112.758 100.976L112.565 100.872L112.407 100.614L112.288 100.533L112.217 100.484L111.768 100.615L111.613 100.817L111.371 101.055L109.709 102.217L109.405 102.703L109.053 103.416L109.026 103.748L109.177 104.806L109.515 105.36L109.558 105.489L109.37 105.49L109.056 105.42L108.795 105.335L108.547 105.382L108.308 105.497L108.098 105.566L107.947 105.586L107.847 105.652L107.799 105.784L107.79 105.876L107.525 105.854L106.914 105.664L106.364 105.534L106.041 105.682L105.834 105.821L105.688 105.8L105.577 105.653L105.503 105.51L105.288 105.378L104.801 105.181L104.826 105.087L104.909 104.954L104.907 104.872L104.813 104.75L104.365 104.619L104.153 104.587L104.019 104.677L103.923 104.787L103.674 104.382L103.496 104.298L103.228 104.285L102.92 104.161L102.6 104.002L101.825 103.749L101.612 103.718L101.526 103.759L101.469 103.911L101.438 104.339L101.406 104.386L101.045 104.401L100.602 104.341L100.398 104.37L100.216 104.372L100.045 104.258L99.2784 104.387L99.1511 104.324L98.9664 104.132L98.7592 103.975L98.5993 103.895L98.4619 103.803L98.338 103.788L98.1488 103.877L97.8876 103.916L97.6713 103.904L97.5554 103.917L97.0689 103.441L96.9979 103.312L96.7558 103.276L96.4562 103.27L95.6927 102.962L95.3447 102.796L95.2941 102.697L95.2986 102.617L95.2389 102.635L95.1319 102.776L95.0756 102.891L95.0012 102.912L94.892 102.894L94.7906 102.829L94.7287 102.745L94.7951 102.6L94.9123 102.41L94.9607 102.203L94.9495 102.017L94.7569 101.897L94.4731 101.848L94.2648 101.833L93.9945 101.727L93.8661 101.651L93.7422 101.444L93.7377 101.293L94.2523 101.16L94.7152 100.614L95.1544 98.6226L95.472 96.2476L95.7074 95.7971L96.0046 95.6733L95.7648 95.3444L95.615 95.5111L95.5519 95.6879L95.4731 95.7769L95.6499 93.5752L95.776 92.7644L95.9911 91.9131L96.4314 92.2509L96.7963 92.5943L96.9844 92.8917L97.2231 93.8782L97.4045 94.0854L97.6747 94.2926L97.5677 94.0662L97.3819 93.8928L97.0914 92.5763L96.9089 92.2013L96.6251 91.886L95.7107 91.2204L95.6285 91.091L95.5835 90.8364L95.8864 90.8477L96.1477 90.9716L96.1173 90.8297L96.0396 90.681L95.9179 90.1394L95.8166 88.8702L95.8301 88.6528L95.7851 88.3848L95.4923 88.3251L95.258 88.315L95.0057 88.2091L93.7602 87.4569L93.3345 86.6776L92.8987 86.101L92.794 85.8487L92.8007 85.5931L93.0271 85.0525L92.8278 84.7102L92.633 84.6426L92.464 84.4726L92.6172 84.1899L92.7444 84.0086L93.0001 83.9602L93.3345 84.0199L93.6521 84.1843L93.901 84.2282L93.1656 83.7878L91.9719 83.9365L91.714 83.8802L91.4978 83.7822L91.4122 83.4579L91.5822 83.3126L91.7354 83.0424L91.562 82.8532L91.3368 82.7811L90.9832 82.7845L90.6532 82.8419L90.5698 82.7327L90.7714 82.4309L90.6003 82.3205L90.3717 82.3723L90.0406 82.4342L89.7241 82.3396L89.4246 81.9962L89.2264 81.9984L89.0901 82.0412L88.8885 81.9083L88.6757 81.8757L88.5236 81.9196L88.3221 81.7225L87.0788 81.3261L86.5428 81.2777L86.0506 81.4567L85.7792 81.3948L85.5799 81.138L85.4132 80.7078L84.6204 80.3756L84.7769 80.1571L85.1463 80.1054L85.5709 79.9544L85.724 79.7596L85.3918 79.5333L85.1463 79.477L85.045 79.3959L84.9413 79.192L85.0877 79.0986L85.1914 79.1481L85.4909 79.1774L86.0022 79.1278L85.8119 78.9218L85.6137 78.8756L85.5225 78.8238L85.1058 78.8013L84.9166 78.8722L84.4909 78.8452L84.3985 78.6233L84.3535 78.4319L84.4852 78.0062L85.0844 77.6244L86.5776 77.2066L87.2195 77.2675L87.6644 77.192L88.1982 76.9285L88.4335 76.7021L89.1926 76.5693L89.9133 76.8091L90.5777 77.7146L90.8953 78.0209L91.6735 77.4893L92.8323 77.5051L93.071 77.8046L93.1679 77.5524L93.3807 77.2562L93.5508 77.3913L93.6375 77.5749L94.8605 77.5231L95.053 77.4702L94.7242 77.2551L94.4562 76.7393L94.3999 74.8327L94.0609 74.2978L93.6724 73.4408L93.4933 72.9307L93.4764 72.7539L93.5361 72.4982L94.0136 72.5117L94.383 72.577L95.0868 72.3845L95.4247 72.5162L95.4044 72.9149L95.508 73.4172L95.6251 73.6604L95.8042 73.9363L96.3706 73.9115L96.9821 74.0737L97.7558 74.0985L98.8853 74.3778L99.3662 74.2156L99.8324 73.8699L100.72 73.6424L100.791 73.523L100.28 73.5703L99.811 73.3507L99.748 73.1131L99.802 72.8991L99.9923 72.4059L101.35 71.6254L102.323 71.3946L103.339 70.9633L103.851 70.5207L104.188 69.9475L104.298 69.8214L104.438 69.7155L104.308 69.5094L104.396 67.3022L104.49 66.9024L104.688 66.5747L104.99 66.3213L105.447 66.0465L107.133 65.667L107.383 65.5127L107.418 65.7514L107.541 66.0566L107.625 66.2233L107.554 66.4406L107.61 66.6197L107.838 66.9418L108.123 67.2447L108.378 67.4384L108.455 67.4092ZM95.6848 90.2317L95.5733 90.6281L95.3616 90.2632L95.0823 89.9434L95.0182 89.6472V89.5684L95.3458 89.7846L95.6848 90.2317ZM129.371 103.886L129.289 104.516L129.349 104.699L129.464 104.828L129.517 104.968L129.612 106.637L129.594 106.77L129.208 107.438L129.121 107.633L129.102 108.457L129.037 108.678L128.899 108.895L128.655 109.598L128.443 109.913L127.865 109.528L127.523 109.362L127.357 109.183L127.247 109.059L127.318 108.893L127.474 108.721L127.499 108.585L127.133 108.431L126.965 108.329L126.967 108.149L127.093 107.868L127.036 107.636L126.824 107.648L126.66 107.613L126.638 107.492L126.759 107.338L126.914 107.136L126.91 106.913L126.721 106.818L126.551 106.636L126.483 106.39L126.615 106.221L126.828 106.113L126.671 105.859L126.565 105.854L126.481 105.798L126.55 105.681L126.716 105.506L126.947 104.98L127.268 104.731L127.838 104.571L127.992 104.5L128.133 104.314L128.289 104.195L128.479 104.211L128.655 104.282L128.763 104.358L128.844 104.278L128.923 104.047L128.875 103.845L128.899 103.287L129.001 102.971L129.165 102.953L129.316 103.127L129.309 103.282L129.366 103.646L129.371 103.886Z" fill="#108AB4"/>
<path d="M96.0428 67.5376L95.7781 67.7088L95.6948 67.9104L95.6306 67.9892L95.456 68.041L95.2826 68.0421L94.6227 67.639L94.4707 67.657L94.6216 67.4723L95.0315 67.3214L95.2623 67.1221L95.795 67.3146L96.0428 67.5376ZM86.1462 54.0576L86.279 54.1556L86.6124 54.1398L86.502 54.3583L86.1349 54.6015L85.8883 54.8414L85.5898 55.0419L85.4457 54.811L85.2779 54.82L85.0211 54.3763L84.975 53.7119L85.3106 53.5384L85.7745 53.5486L86.1462 54.0576ZM79.262 43.6835L79.708 43.822L80.0402 43.8198L80.3352 44.2218L80.4929 44.8547L80.8611 45.4786L81.3431 46.0191L81.3623 46.3491L81.19 46.5259L80.8307 46.7455L80.8318 46.9809L81.0695 46.8626L81.2744 46.8086L81.7677 46.8604L81.94 47.0991L82.0594 47.4561L82.1224 47.7489L82.0796 48.0665L81.9467 47.9651L81.8116 47.6813L81.6618 47.5507L81.4873 47.4797L81.5661 47.8705L81.5346 48.3919L81.61 48.4403L81.8443 48.4494L81.69 48.9809L81.369 49.125L80.9963 49.1791L80.9062 49.3672L80.8386 49.6093L80.6438 49.9697L80.387 50.1735L80.0695 50.1318L79.7586 49.9708L79.4872 49.9381L79.298 50.0339L79.1753 50.1228L79.0559 50.1071L78.7147 50.1408L78.3937 50.1341L78.3476 49.9933L78.4028 49.5699L78.3307 49.455L78.0244 49.3965L77.9106 49.2951L77.7338 49.0023L77.6989 48.8649L77.6741 48.6757L77.4872 48.4313L77.2608 48.2557L77.128 48.2467L76.8633 48.5327L76.6448 48.8221L76.7214 48.9674L76.7924 49.1577L76.6741 49.2951L76.3149 49.6082L76.2586 49.7298L76.1617 49.7962L75.9905 49.7095L75.5637 49.7298L75.3678 49.6746L75.1392 49.4438L74.5817 49.2895L74.4882 48.919L74.3813 48.8491L73.7495 48.2129L73.665 48L73.7472 47.8728L73.9826 47.6802L74.7743 47.3604L74.8993 47.232L74.9252 47.1183L74.6921 46.9888L74.4826 46.8446L74.4117 46.7511L74.406 46.6689L74.5254 46.5619L74.7641 46.5541L74.9534 46.6025L75.1031 46.5068L75.3666 46.4099L75.5435 46.2883L75.6955 45.9741L75.8565 45.6914L75.8734 45.5383L76.0142 44.9988L76.0919 44.8648L76.5919 44.5112L76.718 44.7049L76.9646 44.7522L77.1854 44.5743L77.45 44.0124L77.6336 43.9774L77.8363 44.0236L78.2349 43.9527L78.9422 43.6903L79.262 43.6835ZM83.2745 42.5348L82.8758 42.5393L82.7317 42.4909L82.5594 42.3558L82.3657 41.59L82.4355 41.3186L82.5143 41.1857L82.6022 41.0821L82.8127 41.0393L83.0222 41.1846L83.101 41.3197L83.2767 41.8378L83.3094 42.2814L83.2745 42.5348ZM80.0402 39.8389L80.1539 40.5607L80.2654 41.0067L80.2733 41.1587L80.1685 41.3704L79.6472 41.6519L79.4827 41.6531L79.476 41.5844L79.5931 41.2983L79.4918 40.9729L79.5413 40.7251L79.4928 40.6801L79.3915 40.715L79.0176 41.108L78.8926 41.1463L78.8791 41.0664L78.9715 40.7443L78.9827 40.5235L79.0379 40.3884L79.1392 40.2634L79.2597 40.1699L79.3577 40.1564L79.4613 40.2533L79.7631 39.983L80.0402 39.8389ZM80.5424 40.492L80.476 40.5517L80.3161 40.5348L80.2564 40.4436L80.2237 40.3039L80.2203 40.0483L80.3172 39.8647L80.7271 39.5877L80.5413 39.4897L80.5346 39.4199L80.6404 39.189L81.0807 38.8298L81.199 38.7645L81.3161 38.7746L81.0886 39.412L80.5424 40.492ZM81.1494 37.4976L79.8904 37.814L79.4568 37.7858L79.4174 37.6304L79.5041 37.5269L79.8634 37.4266L80.0086 36.6642L79.4658 36.3117L79.4377 36.2137L79.4805 36.046L79.5435 35.9705L79.8724 35.7926L80.0109 35.7532L80.1235 35.7768L80.3555 35.9829L80.6168 36.4142L80.967 36.4829L81.2046 36.6653L81.1494 37.4976ZM78.5266 36.1237L78.3476 36.1552L78.3341 36.0741L78.646 35.6867L78.8476 35.6225L78.9185 35.6608L78.7721 35.8861L78.5266 36.1237ZM75.9691 33.9333L75.691 34.0121L75.5885 33.966L75.5705 33.8927L75.6335 33.6935L75.8464 33.6225L76.0007 33.7306L76.0255 33.8286L75.9691 33.9333ZM79.5661 33.9378L79.4726 34.0121L79.3543 33.9975L79.2372 33.9018L79.0818 33.6293L79.4309 33.4401L79.5706 33.5515L79.6235 33.6788L79.6257 33.8196L79.5661 33.9378ZM76.4973 33.0639L76.3633 33.0966L76.1887 33.065L76.0806 32.975L75.9714 32.618L75.9511 32.4018L75.9995 31.9986L75.9883 31.5155L76.3486 31.5008L76.4421 31.5706L76.5041 33.002L76.4973 33.0639ZM79.9906 30.7891L79.9861 31.0481L79.9298 31.3533L80.0019 31.6765L80.0188 31.9073L80.1517 31.9805L80.2327 32.0864L80.8251 32.2047L81.3758 32.1709L81.4817 32.2655L81.494 32.4164L81.4073 32.5819L81.0931 32.8837L80.7192 33.3714L80.6078 33.4727L80.4872 33.4772L80.4005 33.4333L80.3386 32.5662L79.9332 32.6777L79.6066 32.6652L79.4276 32.5594L79.3026 32.3556L79.0492 31.8308L78.3126 31.6236L78.1043 31.333L78.0412 31.1573L78.0672 31.0605L78.2203 30.8443L78.4118 30.9209L78.53 30.8735L78.6021 30.7767L78.6009 30.6968L78.5007 30.5087L78.4962 30.4501L79.2496 30.2114L79.3161 29.8375L79.4793 29.8071L79.6663 29.9298L79.9219 30.3184L79.9906 30.7891ZM76.637 29.7418L76.9939 30.0729L76.7102 30.6224L76.2743 30.6202L75.6606 30.2193L75.6583 30.137L75.709 30.0166L75.8013 29.9208L75.8971 29.8983L76.0491 29.9636L76.2608 29.8578L76.4297 29.8916L76.637 29.7418ZM79.8194 25.6888L79.4174 26.735L79.2597 26.7609L79.1212 27.0221L78.6933 27.3093L79.0672 27.3149L79.1719 27.4107L79.1742 27.6167L79.1032 27.7361L78.6201 28.2113L78.2879 28.3915L77.9298 28.887L77.7485 28.8927L77.5694 29.2069L77.423 29.3454H77.3397L77.2451 29.2756L77.0232 28.9681L77.4264 28.6652L77.4635 28.4951L77.7395 28.3172L77.7158 28.262L77.2777 28.012L77.1054 27.8442L77.1212 27.7564L77.3318 27.5627L77.2327 27.5379L77.1651 27.4332L77.0435 27.3926L77.0063 27.2958L76.9838 27.039L77.0164 26.7766L77.1437 26.6606L77.1955 26.5368L77.2473 26.4985L77.4444 26.5649L77.6448 26.7755L77.8791 26.6944L78.1505 26.7338L78.1561 26.6854L77.9568 26.1685L77.9928 26.0627L78.1009 25.9421L78.7271 25.5717L79.5075 24.9477L79.6967 24.8498L79.7541 24.9354L79.8329 25.2586L79.8194 25.6888ZM89.582 24.771L89.6091 25.2642L89.5719 25.414L89.4964 25.5987L89.2577 25.9421L88.6293 26.432L87.4795 27.5537L86.7993 28.1077L86.7058 28.3735L86.6552 28.7429L87.0617 28.8161L87.2194 28.9411L87.1225 29.128L86.52 29.7778L86.3432 30.3634L86.805 30.342L87.1856 30.2294L87.9435 29.8645L88.6564 29.5931L88.9987 29.5819L89.6642 29.7981L89.8152 29.8049L90.0978 29.7046L90.3839 29.6866L92.3186 29.7542L92.8569 29.6269L93.2127 29.7789L93.5101 30.1573L93.7927 30.8544L93.7837 30.9704L93.6125 31.2868L93.2972 31.6833L93.0258 32.2283L92.947 32.5211L92.8941 32.8421L92.8084 33.1382L92.269 34.5234L91.7431 35.2869L91.5089 35.8275L91.2195 36.2566L90.9402 36.5268L90.6429 36.707L89.7825 36.8984L89.5415 37.0358L89.2543 37.2712L88.9525 37.3883L89.3061 37.3737L89.6564 37.243L90.2949 37.1958L91.0291 37.6462L90.9604 38.0145L90.6654 38.305L89.9942 38.3512L89.3669 38.9965L89.0843 39.1947L88.7847 39.2927L88.4108 39.2634L87.7318 39.0911L87.4345 38.9109L87.7025 39.2048L88.0077 39.358L89.7746 39.7195L89.8816 39.6812L90.4447 39.3005L91.1958 39.2949L92.6249 39.9954L93.0359 40.5303L93.626 41.2927L93.947 41.59L94.179 41.8591L94.322 42.2612L94.599 43.5855L94.9155 44.8716L95.3288 46.2567L95.5168 46.6396L95.7635 46.9077L97.0112 47.5226L97.2894 47.7264L97.7736 48.3165L98.241 48.9438L98.6757 49.4246L99.1453 49.8132L98.9178 50.0147L98.7624 50.3312L98.8795 50.7603L99.0698 51.169L99.4449 51.8222L99.7759 52.5328L99.6543 52.4258L99.5259 52.3673L99.3502 52.3853L99.1791 52.3515L98.8626 52.1285L98.5586 51.8548L97.9538 51.9652L97.6182 51.9157L97.3266 51.9235L97.8795 52.0812L98.4843 52.0925L99.8176 53.2828L100.268 53.9855L100.536 54.9101L100.354 55.3245L100.07 55.5925L99.8052 55.8977L99.5563 56.2435L100.296 56.7491L100.456 56.7345L100.619 56.6635L100.777 56.4912L101.042 56.0711L101.178 55.9225L101.639 55.8684L102.025 55.9011L102.409 55.9946L102.748 55.9653L103.429 56.1455L103.779 56.3077L104.648 57.0363L104.836 57.4349L104.922 57.9485L104.933 58.516L104.786 59.0329L104.618 59.4991L104.515 60.0994L104.442 60.3156L104.339 60.4845L103.88 60.9564L103.574 61.1501L103.446 61.0656L103.308 61.0769L103.293 61.1906L103.438 61.4305L103.439 61.7199L103.168 61.9339L102.892 62.0251L102.43 61.9114L101.789 62.31L102.25 62.515L102.344 62.7323L102.229 63.1141L101.939 63.2842L101.617 63.3596L101.288 63.3776L101.016 63.4711L100.755 63.6513L101.082 63.5567L101.31 63.64L101.453 63.9598L101.582 64.0522L102.224 64.1884L102.621 64.1873L103.386 64.1096L103.755 64.1107L103.885 64.1693L103.888 64.434L103.831 65.0826L103.73 65.2166L102.715 65.7594L102.507 66.1378L102.449 66.3664L101.856 66.3259L101.578 66.568L101.097 66.729L100.725 66.8991L100.362 67.1142L100.062 67.1784L98.7703 66.9227L97.9899 66.9441L96.9324 67.1671L96.6599 67.1299L96.2522 66.9171L95.8333 66.773L95.3524 66.7099L94.9369 66.5117L95.1959 66.8912L94.6204 67.2572L94.3547 67.3293L94.0787 67.318L93.5157 67.4171L92.992 67.3631L93.0708 67.6221L93.2105 67.8484L93.0968 67.9464L92.9774 67.9712L91.9841 67.8011L91.8433 67.8326L91.7206 67.9903L91.3591 67.9058L91.0077 67.6412L90.635 67.4622L90.2431 67.3777L89.9323 67.407L88.6518 67.8259L88.3962 68.2449L88.2678 68.8383L88.0831 69.3642L87.7813 69.7685L87.4221 69.8215L87.0842 69.541L86.4423 69.2325L86.2239 69.023L86.154 69.0106L86.082 69.0849L85.8297 69.1795L85.5695 69.184L85.1675 69.2674L84.4682 69.5185L84.1855 69.6886L83.5785 70.1581L83.4546 70.2877L83.2339 70.7595L82.8972 70.8428L82.5887 70.541L82.2373 70.4352L81.8668 70.5377L81.6427 70.6987L81.5379 70.5681L81.5346 70.3001L81.8048 69.9802L82.5267 69.7381L83.1607 69.1086L83.4716 68.7246L83.5954 68.5072L83.7475 68.3687L83.9457 68.3169L84.0481 68.077L84.9277 67.1108L84.9997 66.889L85.0437 66.4903L85.1157 66.1063L85.8319 65.8574L86.1743 65.0477L86.2689 64.9835L87.2678 64.8349L88.0088 64.8472L88.7453 65.006L89.1226 65.0207L89.501 64.9655L89.7982 64.7459L90.3062 63.9531L90.5922 63.6028L90.9199 63.2864L91.2262 62.9249L91.7229 62.2537L91.3873 62.4857L90.9818 62.8528L90.7465 63.0657L89.9987 63.2796L89.6766 63.4981L89.1124 63.9902L89.0043 64.0308L88.1529 63.9125L87.5201 63.274L87.1158 63.0127L86.9491 62.9823L86.7757 63.0601L86.4063 63.14L86.0302 63.1265L86.2227 62.8303L86.484 62.6648L85.8984 62.5499L85.7351 62.4598L85.5493 62.2515L85.0898 62.2165L84.8713 62.2695L84.502 62.5443L83.9186 62.8359L83.2148 62.4316L83.0774 62.2549L83.0808 61.9114L82.9749 61.6388L82.7801 61.5431L83.029 61.1884L83.3308 60.9519L83.9929 60.7165L84.9964 60.1568L85.5594 59.9181L86.082 59.5059L86.2982 59.2537L86.4547 58.9079L86.6101 58.4845L86.832 58.1388L86.6169 58.0565L86.52 57.7964L86.5459 57.5318L86.645 57.2964L86.5561 57.0014L86.3973 56.6928L86.4063 56.4518L86.4491 56.1939L86.0459 56.2074L85.6439 56.2885L85.279 56.4709L84.9254 56.7187L84.6112 56.7649L84.6157 56.5666L84.752 56.3212L85.1079 55.9698L85.4885 55.6781L85.6236 55.4563L85.7306 55.1984L85.9198 54.9912L86.4176 54.5993L87.3714 54.1578L87.5133 54.1319L87.8872 54.1837L88.2554 54.1162L88.5775 53.9574L88.8985 53.9236L89.6215 54.3819L89.4064 53.6725L89.725 53.5024L90.1868 54.1443L90.358 54.2119L90.7206 54.1184L90.5809 54.0103L90.4177 54.0035L90.2037 53.9067L90.0235 53.7006L89.7239 53.0452L89.7408 52.6555L89.9424 52.2501L90.1654 51.8763L89.9784 51.8019L89.8287 51.6589L89.7859 51.2839L89.8444 50.9517L90.2453 50.6589L90.3636 50.2129L90.4131 49.7208L90.3467 49.4944L89.948 49.5305L89.7543 49.6228L89.5809 49.7681L89.403 49.7591L88.9108 49.214L88.6304 48.8007L88.1271 47.9246L88.0561 47.3987L88.4581 46.2613L89.0798 45.5304L89.8118 45.2748L89.6699 45.2263L88.5539 45.2162L88.1856 45.3063L87.8444 45.6058L87.6518 45.6982L87.4491 45.732L87.2644 45.8806L87.0842 46.0867L86.8962 46.2196L86.5234 46.1847L86.3432 46.2286L86.2137 46.1092L86.1045 45.9121L85.9626 45.8592L85.8038 45.9201L85.4682 46.1858L85.1281 46.3424L84.7171 46.1745L84.1776 45.8615L84.0718 45.9763L83.9524 46.2669L83.8837 46.7185L83.5008 46.3255L83.1754 45.7996L83.065 45.4685L83.0571 45.0946L83.2339 44.9493L83.4265 45.0822L83.7125 44.1936L84.2824 43.0315L84.484 42.6902L84.6247 42.2432L84.6011 41.9504L84.4761 41.7026L83.9457 41.1396L83.9524 40.6789L84.0087 40.1587L84.1529 39.8456L84.2137 39.7859L84.9175 39.7938L84.6427 39.6316L84.0954 39.1598L84.1056 38.992L84.234 38.5539L84.1743 38.5978L84.0571 38.8005L83.833 39.2904L83.6968 39.4041L83.3094 39.5201L83.2384 39.76L83.1765 39.8231L82.9839 39.8501L82.9242 40.0742L82.8814 40.0888L82.8263 39.8479L82.8206 39.4469L82.8972 39.0775L83.0436 38.7881L83.6112 38.1294L83.3353 38.3332L82.7092 38.9424L82.3893 39.3422L82.3037 39.4773L82.2778 39.5911L82.2789 39.7217L82.422 40.4211L82.3803 40.7443L81.8409 42.8671L81.7384 43.0788L81.6449 43.1891L81.556 43.215L81.2902 43.1745L81.1719 43.0157L81.1731 42.8366L81.2226 42.5675L81.4467 41.5619L81.5436 41.2814L81.6877 41.0202L82.0053 40.5629L81.9974 40.5326L81.7857 40.6226L81.6956 40.5934L81.6303 40.5021L81.6719 39.1384L81.8443 38.6879L81.9085 38.0314L82.0571 37.4672L82.2294 37.055L82.3611 36.5268L82.5582 36.2915L82.6112 35.9311L82.833 35.5403L83.0042 35.1315L82.9119 35.1721L81.8161 36.2352L81.5368 36.4277L81.1562 36.3759L80.8657 36.2566L80.6381 36.0054L80.5368 35.5223L80.2564 35.5099L80.0165 35.4266L80.0188 35.3613L80.3285 35.0977L80.8251 35.0077L81.2902 34.5842L80.8769 34.2982L80.9118 34.207L81.2722 33.9626L81.7305 33.1416L81.8229 32.3837L81.6044 32.0267L81.5256 31.7925L81.0875 31.5312L81.0143 31.1968L81.065 31.0087L81.208 30.8251L81.4231 30.6832L81.7609 30.5458L81.4546 30.3994L81.3398 30.226L81.253 29.9749L81.2451 29.8296L81.4039 29.1809L81.4963 28.9129L81.6776 28.5706L82.4974 28.5897L82.592 28.4388L82.6855 28.4332L83.1044 28.5717L83.0425 28.423L82.3566 27.6066L82.2947 27.4512L82.4907 27.0097L82.5042 26.8127L82.476 26.6021L82.5323 26.441L82.7497 26.3656L83.4119 26.3723L83.5751 26.298L83.5008 26.084L83.3465 25.8025L83.3161 25.566L83.3522 25.3565L83.3601 24.9342L83.3905 24.7473L83.5481 24.4669L83.6776 24.3835L83.8387 24.3351L84.2024 24.4286L84.341 24.5412L84.5009 24.8081L84.618 24.7867L85.0707 24.4962L85.2069 24.4545L85.3928 24.7912L86.1664 24.5232L87.2058 24.4038L87.8309 24.227L88.4885 24.1628L89.1023 23.9612L89.7532 24.0536L89.7757 24.1707L89.742 24.3329L89.582 24.771ZM90.153 23.4004L90.1226 23.4184L90.0066 23.3069L89.8174 22.9072L90.1158 22.8272L90.2566 22.8768L90.2037 23.0468L90.153 23.4004ZM89.4075 23.0806L89.2262 23.1617L89.0471 23.156L88.7678 22.8036L88.662 22.5468L88.6811 22.3768L88.7982 22.3193L89.0685 22.4027L89.2082 22.6966L89.2262 22.8869L89.2588 22.9612L89.4266 23.0367L89.4075 23.0806ZM89.7476 21.6425L89.7048 21.7934L89.9447 21.79L90.2926 21.9184L90.5032 21.9342L90.6789 22.0941L90.5821 22.3925L90.4773 22.477L90.3591 22.4939L89.9447 22.1954L89.4019 22.3193L89.2937 22.281L89.2228 22.1988L89.1935 22.0964V21.8869L89.1642 21.825L88.9672 22.0232L88.8816 21.9995L88.8331 21.9049L88.8118 21.7089L88.8331 21.4263L88.9491 21.022L89.144 20.9409L89.4345 20.9882L89.7679 21.2168L89.8681 21.3576L89.8658 21.4702L89.7476 21.6425ZM91.3546 20.4015L90.9976 20.4082L91.1823 20.0434L91.3974 19.951L91.8039 19.9916L91.7319 20.156L91.3546 20.4015ZM90.7848 20.6763L90.5134 20.8294L90.3974 20.7033L90.367 20.3069L90.0438 20.1368L89.8861 20.031L89.7645 19.8305L89.7949 19.7686L90.0055 19.6864L90.3658 20.0501L90.5134 20.3429L90.7803 20.4296L90.814 20.4747L90.7848 20.6763ZM95.2759 12.1874L95.3412 12.6389L95.5045 12.5218L95.7511 12.9543H95.8772L96.0844 12.7831L96.0428 13.1851L95.8277 14.2966L95.7669 14.4847L95.7263 14.8214L95.6835 14.8879L95.6205 15.5669L95.4752 15.7899L95.3536 16.3215L95.304 16.3732L95.1261 16.1694L95.304 15.3575L95.3772 14.8845L95.3299 14.639L95.2297 14.4171L94.9571 14.4104L94.7274 14.5129L94.679 14.3822L94.6722 14.2065L94.6171 14.148L94.3118 14.1604L94.2218 14.1119L94.1621 13.9498L94.1508 13.8203L94.4267 13.7189L94.6857 13.7572L95.0641 13.4993L94.8276 12.6333L94.5134 12.5511L94.4414 12.4666L94.5022 12.3191L94.6745 12.2392L94.9391 11.7966L95.0979 11.7268L95.295 11.7392L95.2759 12.1874ZM96.116 12.3394L96.036 12.4126L95.7274 11.7605L95.9561 11.0117L96.2331 11.0353L96.277 11.2313L96.25 11.4126L96.1092 11.4283L96.0968 11.4835L96.1407 11.8315L96.143 12.2347L96.116 12.3394ZM96.9628 10.4182V10.4925L96.7984 11.0376L96.8007 11.2459L96.536 11.2256L96.4943 11.1592L96.4448 10.8472L96.4786 10.515L96.5157 10.4283L96.5923 10.3934L96.6756 10.4587L96.8074 10.2898L96.8761 10.2932L96.9628 10.4182Z" fill="#108AB4"/>
<path d="M76.5936 44.51L76.0936 44.8636L76.0159 44.9977L75.8751 45.5371L75.8582 45.6902L75.6972 45.9729L75.5451 46.2871L75.3683 46.4087L75.1048 46.5056L74.955 46.6013L74.7659 46.5529L74.5271 46.5608L74.4077 46.6678L74.4133 46.75L74.4843 46.8434L74.6938 46.9876L74.9269 47.1171L74.901 47.2308L74.776 47.3592L73.9843 47.679L73.7489 47.8716L73.6667 47.9988L73.7512 48.2117L74.383 48.848L74.49 48.9178L74.5834 49.2883L75.1409 49.4426L75.3694 49.6734L75.5654 49.7286L75.9922 49.7083L76.1634 49.795L76.2602 49.7286L76.3165 49.607L76.6758 49.2939L76.794 49.1565L76.7231 48.9662L76.6465 48.8209L76.865 48.5315L77.1296 48.2455L77.2625 48.2545L77.4889 48.4302L77.6758 48.6745L77.7006 48.8637L77.7355 49.0011L77.9123 49.2939L78.026 49.3953L78.3324 49.4538L78.4044 49.5687L78.3493 49.9921L78.3954 50.1329L78.7164 50.1396L79.0576 50.1059L79.177 50.1216L79.2997 50.0327L79.4889 49.937L79.7603 49.9696L79.8932 50.1588L79.9529 50.3536L79.7198 50.4268L79.4765 50.3874L79.3583 50.5147L79.3504 50.7602L79.4326 51.0766L79.5959 51.3007L79.7254 51.8052L79.8335 52.3638L80.0002 52.7005L80.0351 53.1172L80.0103 53.3222L80.0407 53.6904L79.9698 53.8199L80.0227 54.1645L80.2198 54.8751L80.3065 55.2704L80.3617 56.1308L80.222 56.4517L80.0351 56.7569L79.9124 57.1173L79.8189 57.5058L79.7615 58.1308L79.356 58.8606L79.1837 59.0419L78.9833 59.1533L79.4202 59.6624L79.0632 59.8887L78.6747 59.9597L78.2445 59.8324L77.9765 59.8482L77.731 60.0126L77.6353 60.1117L77.5576 60.0644L77.3965 59.6478L77.2783 60.0779L77.0305 60.2153L76.606 60.1861L75.8965 60.3009L75.6228 60.4225L75.5091 60.614L75.4246 60.8347L75.3132 60.9642L75.1882 61.0329L74.6397 61.1951L74.5316 61.2604L74.2771 61.6151L73.9449 61.8201L73.669 61.882L73.4246 61.6759L73.3244 61.5521L73.2106 61.489L72.8345 61.4991L72.9527 61.5633L73.0293 61.7086L73.0665 61.9879L73.0237 62.2615L72.8379 62.4001L72.6171 62.4259L72.268 62.7086L71.8063 62.7852L71.5563 63.0453L70.0293 63.4845L69.9425 63.489L69.732 63.3775L69.5033 63.328L69.2759 63.3629L68.6362 63.6084L68.3265 63.56L68.7218 62.9496L69.2522 62.6411L69.3074 62.5566L69.134 62.5149L68.1249 62.7289L67.7747 62.9113L67.4245 62.9642L67.5866 62.685L68.0382 62.3032L68.2804 62.123L68.4279 62.051L68.5968 61.8257L69.0732 61.5701L67.5394 62.0971L67.1362 62.0329L67.0416 61.8865L66.7285 61.9564L66.6091 61.5994L67.0742 61.0599L67.3456 60.8268L67.6677 60.7007L67.9774 60.5194L68.0923 60.2987L67.947 60.2277L67.0191 60.284L66.5742 60.2367L66.5979 60.061L66.6801 59.8662L67.1407 59.5329L67.3907 59.4799L67.6125 59.5115L67.8288 59.5971L68.0056 59.7086L68.5281 59.6444L68.3096 59.4315L68.2713 58.9979L68.1047 58.8527L68.3175 58.6511L68.5619 58.5295L68.9696 58.1117L69.1148 58.0475L69.9212 57.9461L70.7905 57.7265L71.652 57.4225L71.2094 57.2524L70.9977 57.0272L70.6576 57.481L70.4122 57.6545L69.7207 57.7479L69.5022 57.6972L69.1937 57.5565L69.0979 57.6094L69.009 57.7175L68.5506 57.9394L68.0697 57.9923L68.6295 57.5847L69.3401 56.892L69.4977 56.6736L69.723 56.2918L69.6531 56.1218L69.5067 56.0249L70.0214 55.2366L70.2027 55.0936L70.5315 55.07L70.7736 54.9449H70.8806L70.9763 54.8976L71.1881 54.6612L70.8615 54.5103L70.5236 54.4325L69.4797 54.5148L69.3423 54.4967L69.2128 54.4235L69.1283 54.3188L69.0653 54.0497L68.9887 53.9888H68.7533L68.5202 54.071L68.3581 54.0632L68.1993 53.9449L68.4538 53.669L68.1261 53.6037L67.795 53.6578L67.5191 53.5733L67.5112 53.3999L67.6362 53.2264L67.4718 53.062L67.438 52.8537L67.6125 52.7512L67.8029 52.785L68.1914 52.6307L68.6903 52.5564L68.2623 52.4044L68.0923 52.2737L68.0844 52.0744L68.1182 51.9032L68.6125 51.6138L69.1396 51.4865L69.1002 51.2962L69.1373 51.089L68.6047 51.0293L68.0788 51.1746L68.1351 50.7793L68.2612 50.4212L68.286 50.1858L68.2612 49.9324L68.0146 50.0406L67.9864 49.6836L67.8806 49.4392L67.5146 49.6081L67.5236 49.2838L67.6294 49.0574L67.8198 48.9595L68.009 49.0023L68.3614 48.9989L68.7015 48.8277L69.1914 48.7838L69.9707 48.8367L70.5067 49.3176L70.6453 49.232L70.8592 48.9279L70.9595 48.8941L71.768 49.027L72.2692 49.2016L72.4032 49.1475L72.3311 48.8108L72.1588 48.5766L72.375 48.2703L72.6385 48.0619L72.8154 47.9583L73.2219 47.8288L73.3998 47.7072L73.5181 47.3108L73.7061 46.9808L72.6847 47.152L71.7129 46.7601L71.8671 46.4831L72.0721 46.3254L72.4257 46.2049L72.4595 46.0596L72.6385 45.9391L72.9347 45.6215L72.8255 45.206L72.884 44.9019L73.0969 44.7037L73.1633 44.4188L73.2579 44.2082L73.6904 44.1328L74.1059 43.938L74.2557 43.9571L74.7478 43.912L74.9134 43.9909L74.8751 43.6451L75.1769 43.6001L75.294 43.6688L75.3458 43.9143L75.4832 44.0709L75.526 44.3423L75.4336 44.5517L75.2794 44.7127L75.4201 44.8772L75.2028 45.1756L75.437 45.0483L75.7715 44.7567L75.7535 44.519L75.6972 44.2184L75.6037 43.947L75.6465 43.6474L75.8346 43.4605L76.3289 43.3659L76.1262 43.0258L76.3064 42.9954L76.5024 43.0663L76.7907 43.331L77.0914 43.5393L77.4022 43.7037L77.1026 44.0326L76.7343 44.2611L76.5936 44.51ZM67.9673 50.9122L67.9538 51.0654L67.7195 50.8728L67.6058 50.6622L66.9639 50.5665L67.2308 50.3559L67.3614 50.4178L67.8153 50.4268L67.9425 50.5147L67.9673 50.9122Z" fill="#108AB4"/>
<path d="M142.708 87.425L142.644 87.6874L142.51 87.7527L142.275 87.9059L142.007 88.1153L141.757 88.3507L141.69 88.6063L141.758 88.773L141.826 88.8304L141.917 88.7798L142.05 88.8113L142.217 88.9025L142.495 88.9915L142.503 89.0793L142.444 89.1919L142.228 89.3913L142.033 89.6165L142.014 89.7539L142.038 89.8541L142.105 89.9149L142.394 89.8879L142.436 89.9701L142.296 90.5478L142.34 90.6458L142.593 90.7381L142.778 90.8766L143.123 91.2415L143.261 91.5366L143.166 91.6357L142.949 91.6841L142.772 91.6593L142.972 91.4814L142.483 90.8327L142.261 90.8339L141.967 91.1086L141.149 90.8305L140.993 90.9431L140.877 91.1627L140.593 91.4352L140.191 91.5546L139.743 91.8542L139.271 92.0659L138.91 92.2258L138.703 92.1976L139.032 91.8519L138.892 91.8451L138.455 92.0895L138.204 92.2956L138.123 92.6424L138.05 93.2123L138.242 93.3632L138.577 94.1132L138.99 94.433L138.91 94.7382L138.801 94.9792L138.551 95.1875L138.344 95.0333L138.217 95.0366L138.121 95.5243L138.3 96.8205L138.588 97.7259L138.874 98.12L139.52 98.7315L140.202 99.0536L141.43 100.08L142.103 100.404L142.28 100.58L142.688 101.367L143.04 102.273L143.42 103.69L143.69 104.385L144.235 105.169L145.366 106.286L146.394 107.1L147.351 107.602L148.098 107.69L149.864 107.58L150.172 107.627L150.499 107.762L150.576 108.11L150.457 108.344L150.085 108.588L149.707 108.924L149.665 109.383L150.019 109.705L151.724 110.557L153.467 111.268L154.01 111.629L154.639 112.191L156.159 112.962L156.415 113.335L157.339 114.138L157.757 114.757L157.837 115.235L157.637 115.721L157.545 116.062L157.388 116.399L156.995 116.271L156.548 115.924L155.875 114.512L154.646 114.369L154.392 114.265L153.955 114.021L153.929 113.86L153.821 113.66L153.709 113.592L153.24 113.547L152.914 113.777L152.531 114.321L152.096 115.101L151.655 116.242L151.63 116.702L151.87 117.146L152.586 117.394L153.139 117.789L153.504 118.202L153.53 119.194L153.693 119.756L153.454 120.074L152.988 119.992L152.369 120.195L151.93 120.557L151.747 120.902L151.795 121.794L151.705 122.133L150.872 122.773L150.435 123.426L150.326 123.696L150.16 124.002L149.109 124.014L148.86 123.634L148.851 123.07L149.031 122.722L149.417 122.559L149.678 121.833L149.595 121.309L149.747 121.075L149.89 120.911L150.184 120.814L150.6 120.722L150.642 119.986L150.317 119.652L150.203 119.182L150.053 118.313L149.518 117.199L149.232 116.203L149.007 115.709L148.667 115.451L148.054 115.455L147.748 115.382L146.663 114.686L146.587 114.58L146.594 114.394L146.774 114.114L146.653 113.734L146.524 113.375L146.312 113.069L146.078 112.909L145.59 113.007L145.418 113.082L145.11 113.056L144.868 113.192L144.733 113.197L145.113 112.658L145.011 112.53L144.635 112.308L144.123 112.275L143.981 112.248L143.898 112.386L143.799 112.311L143.809 112.07L143.216 110.986L142.817 110.544L142.616 110.465L142.252 110.558L141.642 110.365L141.279 110.322L141.078 110.369L140.779 110.51L140.628 110.416L140.575 110.271L140.022 109.82L139.332 109.564L137.988 108.119L137.576 107.577L136.728 106.979L136.192 106.106L135.753 105.785L135.114 105.527L134.967 105.559L134.775 105.656L134.624 105.67L134.505 105.556L134.627 105.439L134.763 105.386L134.71 105.05L133.982 104.179L133.557 103.897L133.436 103.724L133.347 103.486L133.256 103.33L133.054 103.24L132.882 103.255L132.645 103.196L132.652 102.774L132.7 102.451L132.664 102.176L132.432 101.452L132.031 100.837L131.794 99.3611L131.612 98.9432L131.168 98.6268L130.167 98.271L128.772 97.3126L128.477 97.2957L127.638 96.9218L127.117 96.8576L126.442 97.1932L125.621 98.1144L124.955 99.0682L124.713 99.2529L123.854 99.5773L123.095 99.7316L123.087 99.4883L123.06 99.3048L123.188 99.1032L123.4 98.8655L123.595 98.566L123.676 98.3498L123.638 98.2056L123.55 97.9916L123.43 97.9759L122.707 98.1561L122.542 98.1099L122.007 97.8295L121.431 97.4849L121.22 97.2394L121.14 96.9916L121.199 96.8317L121.152 96.6763L121.04 96.4668L121.141 96.2292L121.32 95.933L121.41 95.7315L121.561 95.6797L121.633 95.5569L121.513 95.0659L121.449 94.9871L121.346 94.9263L121.186 94.9195L120.907 94.8182L120.708 94.6481L120.666 94.4184L120.561 94.1977L120.382 93.995L120.359 93.7731L120.563 93.656L120.841 93.6515L121.037 93.6954L121.477 93.3384L121.639 93.3069L121.784 93.2303L121.906 92.7416L121.999 92.5951L122.022 92.5096L121.935 92.4071L121.58 92.0625L121.418 91.7021L121.162 91.2978L120.925 91.1188L120.876 90.9791L120.871 90.8023L120.919 90.6458L121.349 90.4025L121.604 90.1435L121.713 90.2426L121.945 90.3485L122.575 90.2043L122.965 90.059L123.24 89.9059L123.41 89.9329L124.027 90.1615L124.231 90.0455L124.676 89.7359L124.742 89.5726L125.094 89.0771L125.1 88.9566L124.956 88.6446L125.001 88.5759L125.432 88.2561L125.642 87.9723L125.871 87.782L126.035 87.7775L126.08 87.8428L126.099 87.9757L126.085 88.523L126.148 88.6908L126.486 89.0827L126.727 89.3057L127.286 89.4588L127.312 89.532L127.158 89.8259L127.497 90.1773L127.558 90.4341L127.714 90.5782L127.935 90.5073L128.007 90.371L127.92 90.1334L127.856 89.8845L127.869 89.7404L127.929 89.5748L128.084 89.3428L128.503 88.8113L128.653 88.5039L128.681 88.0275L128.682 87.6446L128.821 87.5511L129.122 87.6198L129.212 87.612L129.253 87.8473L129.381 88.2223L129.532 88.416L129.693 88.4622L129.882 88.4633L130.351 88.2347L130.656 88.1356L130.829 88.1626L130.932 88.318L131.15 88.7268L131.275 88.773L131.426 88.7257L131.479 88.6559L131.431 88.4982L131.366 88.157L131.279 87.8924L131.164 87.7685L131.14 87.6074L131.212 87.3169L131.294 87.0737L131.454 87.0072L131.638 86.9768L131.88 87.2347L132.167 87.3158L132.381 87.3022L132.418 87.1525L132.405 86.988L132.277 86.7763L132.302 86.4554L132.45 85.8563L132.534 85.9024L132.852 85.9081L133.197 85.9419L133.42 86.1862L133.639 86.2696L133.95 86.2955L134.158 86.2617L134.259 86.1693L134.38 85.8833L134.603 85.5286L134.952 85.3461L135.549 85.3123L135.847 85.2459L136.157 85.2493L136.39 85.3045L136.631 85.2977L137.244 85.0499L137.876 84.854L137.963 84.8867L137.977 84.952L137.863 85.1029L137.753 85.3033L137.827 85.5319L138.186 85.9903L138.382 86.3405L138.567 86.6029L138.854 86.7414L139.231 86.8259L139.551 86.8563L139.886 86.9554L141.033 87.1998L141.611 87.2673L142.049 87.2775L142.708 87.425ZM138.869 99.1381L138.962 98.9128L138.927 98.7518L138.729 98.7845L138.589 98.9939L138.683 99.1707L138.869 99.1381ZM138.724 107.751L138.721 107.717L138.698 107.72L138.687 107.741L138.698 107.754L138.724 107.751ZM132.264 103.658L132.369 103.825L132.381 103.922L132.31 104.032L132.339 104.28L132.075 104.074L131.675 104.178L131.429 104.155L131.362 103.97L131.418 103.862L131.799 103.839L131.917 103.786L132.149 103.81L132.264 103.658ZM129.851 112.016L130.009 112.281L130.364 113.369L130.398 113.603L130.327 113.843L130.237 114.013L129.884 114.558L129.936 115.008L130.067 115.286L130.086 115.593L130.021 115.974L129.802 118.304L129.696 118.715L129.63 119.07L129.389 119.178L129.078 119.064L128.686 118.864L128.505 118.876L128.322 118.945L128.173 118.886L128.03 118.772L127.923 119.568L127.746 119.89L127.477 120.096L127.223 120.108L126.962 120.039H126.741L126.573 119.887L126.441 119.619L126.229 119.294L126.014 118.908L125.99 118.557L125.953 117.784L126.015 117.615L126.105 117.453L126.149 117.106L126.119 116.803L126.182 116.695L126.307 116.803L126.4 116.762L126.394 116.606L126.423 116.321L126.258 116.082L125.98 116.001L125.953 115.751L125.982 115.507L126.129 115.342L126.178 115.124L126.179 114.456L125.983 114.209L125.908 113.835L125.807 113.597L125.624 113.356L125.417 113.16L125.29 112.971L125.262 112.475L125.334 112.061L125.399 111.883L125.465 111.909L125.67 112.115L125.838 112.161L126.17 112.21L126.497 112.144L126.898 111.956L127.284 111.728L127.844 111.058L128.188 110.922L128.365 110.745L128.426 110.507L128.572 110.445L128.745 110.677L128.959 110.701L129.289 110.893L129.431 111.075L129.552 111.295L129.669 111.392L129.794 111.447L129.812 111.499L129.713 111.551L129.599 111.802L129.664 111.874L129.851 112.016ZM125.597 111.358L125.492 111.548L125.344 111.535L125.402 111.394L125.54 111.111L125.706 111.017L125.781 111.101L125.702 111.263L125.597 111.358ZM143.461 112.75L143.32 112.786L143.238 112.736L143.193 112.673L143.248 112.517L143.536 112.61L143.532 112.698L143.461 112.75ZM126.207 119.471L126.025 119.872L125.835 119.588L125.827 119.345L125.853 119.275L126.087 119.377L126.207 119.471ZM148.639 122.885L148.425 123.34L148.321 123.515L147.558 124.624L147.47 124.88L147.416 125.158L147.337 125.401L147.232 125.63L147.131 125.92L147.15 126.249L147.187 126.41L147.279 126.516L147.43 126.615L147.546 126.768L147.368 126.907L147.563 127.185L147.729 127.349L147.752 127.514L147.748 127.678L147.403 127.987L147.268 128.157L147.184 128.363L147.148 128.575L147.185 128.766L147.174 128.956L146.826 128.933L146.47 128.815L146.111 128.866L145.6 128.645L145.414 128.606L145.245 128.519L144.82 127.835L144.478 127.545L144.111 127.319L143.736 127.305L143.361 127.331L143.03 127.192L142.355 126.724L141.64 126.349L141.337 126.106L141.199 125.942L141.037 125.832L140.628 125.724L140.26 125.47L140.093 125.452L139.734 125.482L139.549 125.464L139.363 125.374L139.005 125.076L138.775 124.661L138.716 124.478L138.878 124.003L139.07 123.547L139.24 123.42L139.439 123.328L139.558 123.193L139.659 123.027L140.028 123.505L140.192 123.621L140.359 123.595L140.654 123.423L140.678 123.235L141.005 122.998L141.42 122.993L141.611 123.037L141.711 123.252L141.869 123.319L142.051 123.347L142.653 123.756L142.822 123.822L142.992 123.833L143.459 123.662L143.817 123.597L144.568 123.692L144.974 123.589L145.257 123.577L145.671 123.419L145.988 123.157L146.154 123.091L146.332 123.072L146.762 123.089L147.194 123.149L147.376 123.087L147.528 122.914L147.703 122.837L147.896 122.889L148.395 122.594L148.616 122.573L148.825 122.687L148.639 122.885ZM137.497 128.689L137.345 128.733L137.147 128.598L137.133 128.409L137.169 128.353L137.41 128.439L137.486 128.615L137.497 128.689Z" fill="#108AB4"/>
<path d="M115.947 53.7604L115.813 53.6872L116.524 53.4766L116.973 53.4124L117.053 53.4405L116.241 53.7176L115.947 53.7604ZM117.525 53.418L118.149 53.3313L118.145 53.2986L117.981 53.2457L117.45 53.2547L117.279 53.2919L117.314 53.3538L117.525 53.418ZM119.426 53.0565L119.292 53.034L118.902 53.1466L118.875 53.1984L118.983 53.2367L119.426 53.0565ZM115.555 54.1286L115.297 54.1173L114.921 54.4541L114.971 54.516L115.555 54.1286ZM120.903 52.4473H120.757L120.486 52.5531L120.401 52.6939L120.694 52.6759L120.903 52.4473ZM112.087 64.0004L111.684 64.2099L111.157 64.1367L110.756 63.9835L110.239 64.0128L110 64.0928L110.095 64.5297L110.167 64.6682L110.26 64.7583L110.384 64.7764L110.527 64.6682L110.726 64.5545L111.047 64.6074L111.28 64.7122L111.364 64.8214L111.518 64.925L111.743 64.9498L112.179 64.7516L112.598 64.4487L112.721 64.2381L112.767 64.0477L112.404 64.1784L112.087 64.0004ZM122.157 54.2649L121.716 54.1691L121.433 54.0284L121.256 53.7739L120.952 53.4259L120.153 53.4619L119.489 53.5621L118.569 53.605L117.973 53.7739L116.894 54.337L116.623 54.6241L116.346 55.2424L115.407 55.9541L114.859 56.2277L114.705 56.123L114.483 56.0543L114.306 56.4158L114.197 56.7413L113.83 58.6479L113.58 59.3371L113.243 59.9159L112.714 60.6231L112.471 60.8641L112.322 60.9553L112.136 61.2954L111.988 61.7031L111.886 61.8934L112.48 62.5939L112.554 62.7943L112.632 62.9114L112.07 62.9846L112.309 63.211L112.609 63.3732L112.811 63.4509L112.921 63.6142L112.705 63.6896L112.501 63.6941L111.695 63.0939L111.247 62.9835L110.63 63.0184L110.474 63.0815L110.314 63.2639L110.541 63.541L110.75 63.7043L111.087 63.7257L111.492 63.9306L112.076 63.7595L112.494 63.97L112.77 64.0455L113.018 64.1716L113.237 64.1986L113.332 64.1423L113.271 63.8372L113.449 63.6738L113.646 63.5984L113.735 63.7313L113.917 63.8664L114.059 63.8675L114.444 63.5162L114.534 63.586L114.617 63.711L114.635 63.8112L114.65 63.9171L114.737 63.961L115.04 63.9385L115.194 63.7482L115.314 63.6288L115.404 63.7099L115.448 63.9441L115.532 64.2493L115.893 64.5894L116.198 64.6863L116.573 64.6198L116.722 64.559L116.822 64.6097L116.922 64.7899L117.139 64.996L117.593 65.1412L117.732 65.2234L117.829 65.3619L117.801 65.559L117.585 66.0489L117.556 66.193L117.586 66.2415L117.543 66.3316L117.261 66.6593L117.237 66.7753L117.33 66.9634L117.408 67.1188L117.577 67.1942L117.736 67.219L118.036 67.2291L118.357 67.2393L118.529 66.4678L118.398 66.2426L118.234 66.1277L118.044 66.0714L117.956 65.9644L117.926 65.8417L117.96 65.7662L118.184 65.7888L118.254 65.7088L118.787 65.2538L118.81 65.166L118.736 65.1164L118.639 65.0905L118.614 64.9948L118.617 64.8687L118.902 64.2099L118.987 63.9284L119.006 63.729L118.988 63.5319L118.823 63.2223L118.665 62.9745L118.659 62.7774L118.543 62.6738L118.214 62.1434V61.9385L118.4 61.7786L118.66 61.6772L118.747 61.5927L118.902 61.5398L119.316 61.6929L119.5 61.8258L119.552 61.7988L119.719 61.6547L120.011 61.6772L120.72 61.3866L120.826 61.247L120.905 61.0984L120.911 61.033L120.636 60.7458L120.629 60.64L120.665 60.5206L120.742 60.426L120.905 60.3619L121.077 60.2357L121.463 59.8776L121.597 59.5668L121.639 59.2289L121.647 58.9767L121.541 58.7762L121.434 58.6467L121.289 58.667L121.006 58.6569L120.741 58.5442L120.596 58.3618L120.56 58.2019L120.626 58.1005L120.647 57.9767L120.604 57.8517L120.621 57.7469L120.74 57.6625L121.577 57.6647L121.64 57.5724L121.696 57.0859L121.906 56.3437L122.103 55.9293L122.135 55.7548L122.132 54.7694L122.157 54.2649ZM111.204 62.5691L111.48 62.4891L111.898 62.8292L112.289 62.7189L112.266 62.6243L112.199 62.5353L111.891 62.2572L111.385 62.2222L111.099 62.3078L111.1 62.4081L111.204 62.5691ZM114.54 55.7491L114.853 55.3775V54.7863L114.39 55.2694L114.293 55.56L114.348 55.6467L114.54 55.7491Z" fill="#108AB4"/>
<path d="M45.0773 143.596L45.5086 143.793L45.905 143.698L46.396 143.951L46.6517 144.01L46.4242 144.191L46.1956 144.421L45.6246 144.367L45.1415 144.146L44.9681 143.979L44.9207 143.828L45.0773 143.596ZM20.3088 127.891L20.2952 127.964L20.1162 127.935L19.8898 127.957L19.7682 127.747L19.8786 127.661L20.1331 127.639L20.2547 127.733L20.3088 127.891ZM18.3447 124.402L18.5452 124.429L19.5531 124.37L19.8211 124.413L19.793 124.706L19.6027 124.823L19.0092 124.902L18.0756 124.712L17.7625 124.46L17.7175 124.275L17.7231 124.189L17.9202 124.12L18.3447 124.402ZM10.4493 121.953L10.7094 122.114L10.3142 122.149L10.1836 122.228L9.8637 122.114L9.47745 122.131L9.23533 121.915L9.18014 121.69L9.30176 121.55L9.643 121.549L10.4493 121.953ZM8.88736 121.663L8.563 121.673L8.25332 121.367L8.70941 121.206L8.84344 121.303L8.94252 121.415L9.00108 121.558L8.88736 121.663ZM11.6149 121.539L11.4651 121.587L10.6227 121.278L10.3221 121.137L9.9324 120.78L11.0327 121.213L11.6149 121.539ZM13.8368 121.185L13.7737 121.224L13.1172 121.114L12.9302 120.967L12.8548 120.692L12.9651 120.599L13.2534 120.543L13.6724 120.595L13.9415 120.792V121.043L13.8368 121.185ZM0.998677 118.092L0.859008 118.288L0.618024 118.218L0.538086 118.145L0.607886 117.726L0.800481 117.628L0.994175 117.797L0.998677 118.092ZM73.5768 108.083L73.6432 108.116L73.8268 108.107L74.1534 107.947L74.3752 107.813L74.4529 107.869L75.0959 107.793L75.2479 107.854L75.3493 107.923L75.6658 108.015L76.0104 108.025L76.4372 107.896L76.6241 107.765L76.6602 107.621L76.6692 107.512L76.7243 107.442L76.8212 107.402L76.9732 107.473L77.1906 107.531L77.712 107.554L77.8145 107.474L77.9913 107.498L78.2244 107.599L78.4935 107.567L78.6298 107.691L78.6861 107.855L78.7019 108.212L78.6816 108.572L78.7345 108.705L78.917 108.74L79.2109 108.736L79.4755 108.833L79.6805 109.003L79.748 109.176L79.7773 109.295L79.6771 109.363L79.5352 109.62L79.1749 109.954L78.6602 110.255L78.2672 110.629L77.9969 111.075L77.6579 111.264L77.5543 111.365L77.5138 111.486L77.7379 112.031L77.8066 112.451L77.8618 112.964L77.8257 113.108L77.8066 113.672L77.7548 113.836L77.7683 113.97L77.8505 114.113L77.8877 114.25L77.7334 114.425L77.4507 114.628L77.2413 114.806L77.1849 114.972L77.2007 115.076L77.5532 115.428L77.6174 115.573L77.5701 115.92L77.3674 116.489L77.1737 116.835L77.1399 116.869L76.918 116.967L75.8549 116.97L75.5971 117.048L75.6331 117.118L75.8831 117.561L76.1433 117.797L76.23 117.851L76.3234 118.368L76.7458 119.192L77.1545 119.306L77.2964 119.512L77.2705 119.8L77.1444 120.117L76.8933 120.441L76.5948 120.668L76.4 120.895L76.3842 121.157L76.3223 121.489L76.2288 121.752L76.2052 121.928L76.9529 123.038L77.3696 122.984L77.4237 123.01L77.3494 123.273L77.2176 123.582L77.0599 123.64L76.703 123.735L76.3651 124.134L76.0915 124.612L75.8854 124.844L75.6973 125.412L75.7209 125.657L75.8122 126.036L76.0048 127.02L75.7277 127.064L74.6511 127.705L74.3178 127.706L73.695 127.424L72.5959 127.333L72.2378 127.248L71.7907 127.433L71.445 127.429L71.1702 127.664L70.9731 127.6L71.1995 127.072L71.5542 126.024L71.5395 125.384L71.624 124.825L71.5272 124.271L71.3493 123.924L71.5914 123.024L71.5643 122.559L71.3425 121.969L72.0148 122.059L71.8064 121.825L71.6015 121.682L71.4033 121.715L71.2355 121.706L70.6634 121.934L70.3762 122.003L70.2929 121.962L70.3244 121.597L70.1758 121.123L70.4055 120.998L70.6724 120.962L70.8999 120.76L71.0407 120.533L70.9664 120.129L71.1634 119.745L71.6263 119.419L71.3864 119.469L71.1116 119.672L70.6792 120.406L70.5384 120.778L70.1702 120.898L69.8402 120.958L69.6713 120.918L69.4686 120.825L69.4506 120.551L69.4663 120.333L69.6037 119.898L69.6578 119.283L69.8526 118.731L69.8379 118.584L69.7827 118.364L69.9562 118.149L70.1713 118.007L70.4979 117.532L70.954 116.396L71.4799 115.183L71.4371 115.034L71.3256 114.919L71.3706 114.591L71.6871 113.157L71.8155 112.969L71.9641 112.547L71.9979 111.864L72.0565 111.393L72.043 111.157L71.9957 110.872L71.7941 110.327L71.5824 109.171L71.5655 108.784L71.74 108.588L71.4528 108.56L71.3222 108.309L71.3515 108.024L71.6713 107.563L71.9697 107.277L72.2648 107.09L72.4281 107.019L73.1094 106.825L73.2885 106.73L73.4563 106.746L73.4844 106.839L73.5813 107.019L73.6894 107.144L73.7187 107.237L73.4551 107.623L73.4191 107.755L73.5565 108.004L73.5768 108.083Z" fill="#108AB4"/>
<path d="M118.741 70.3527L118.717 70.4845L118.721 70.7784L118.81 71.0723L119.022 71.3629L119.183 71.5724L119.4 71.7401L119.767 71.8989L119.914 71.9327L119.934 72.1478L119.906 72.3753L119.779 72.5003L119.659 72.6816L119.569 72.9012L119.476 73.3235L119.462 73.6152L119.25 73.4947L119.139 73.4125L118.945 73.39L118.753 73.4575L118.609 73.605L118.409 73.6501L118.246 73.605L118.149 73.4947L118.062 73.435L117.816 73.3607L117.709 73.1996L117.791 73.1242L117.861 73.0048L117.92 72.837L117.996 72.6827L117.754 72.2559L117.703 72.1253L117.505 71.8854L117.507 71.7627L117.554 71.6467L117.536 71.5554L117.565 71.3404L117.704 71.1365L117.797 70.8843L117.953 70.5397L118.299 70.1252L118.547 70.1894L118.656 70.1872L118.721 70.3392L118.741 70.3527Z" fill="#108AB4"/>
<path d="M130.193 45.9738H130.146L129.944 45.9254L129.801 45.8093L129.431 45.8916L128.935 46.0785L128.661 46.0695L128.442 45.869L127.548 45.583L127.404 45.5594L126.814 45.5481H126.813L126.784 45.0954L126.711 44.7677L126.504 44.2789L126.81 44.1607L126.751 43.2034L126.639 42.7068L125.784 42.1944L125.111 41.6955L125.266 40.0063L125.333 39.5491L125.077 38.6594L125.104 37.6301L125.212 35.9995L125.426 35.9353L125.584 35.9432L126.19 36.2371L126.442 36.2664L126.616 36.5287L126.818 36.6369L126.965 36.3587L127.022 35.8824L127.502 35.2641L127.838 35.0355L128.068 34.9262L128.3 35.1763L128.477 35.4567L128.519 34.8429L128.662 33.6684L128.206 33.4837L127.833 33.6436L127.465 34.3891L127.136 35.3227L126.602 35.4082L126.176 35.6718L125.792 35.3981L125.545 35.1571L125.539 34.8046L125.595 34.5918L126.047 33.8283L126.653 33.0929L127.263 33.0996L127.708 32.8643L127.974 32.8361L128.804 32.8868L129.229 32.7246L129.611 32.3868L130.435 30.9487L130.9 30.3462L131.839 30.1345L132.706 29.4363L132.948 29.4272L132.54 29.9475L132.475 30.1491L132.425 30.4565L132.717 31.1232L132.655 31.5286L132.676 32.3237L132.401 32.737L132.09 33.6132L131.956 33.7416L131.926 34.7596L131.957 35.0017L131.912 35.9229L132.23 36.299L132.567 36.495L133.691 36.4882L133.808 36.6526L133.946 36.9353L133.845 37.415L133.725 37.7765L133.399 38.0806L132.982 38.3069L132.721 38.3171L132.368 37.8869L132.2 38.0265L132.027 38.2462L131.735 39.4196L131.596 40.209L131.522 40.2732L131.358 40.1561L131.074 40.1471L130.715 40.334L130.899 40.5007L131.094 40.7901L131.016 40.9354L130.7 41.0919L130.42 41.4084L130.302 41.6471L129.95 41.9298L129.727 42.2879L129.836 42.7305L129.882 43.119L129.979 43.5469L129.891 43.8881L129.453 44.3769L129.292 44.7992L129.667 44.7936L129.898 44.8904L130.033 45.0154L130.173 45.1922L130.087 45.4107L130.193 45.9738V45.9738ZM134.341 32.2652L134.212 32.4014L133.778 32.2088L133.969 31.9386L134.447 31.8136L134.727 31.8552L134.419 32.1233L134.341 32.2652V32.2652ZM139.135 40.6572L139.143 41.218L139.061 41.3813L138.94 41.4894L138.625 41.6032L138.351 41.762L138.107 42.0401L138.017 42.4377L138.207 42.7282L138.554 42.887L138.643 43.4388L138.357 43.7102L137.622 43.9805L137.546 44.6325L137.57 45.1449L137.556 45.5166L137.497 46.0301L136.904 46.2632L136.52 45.4816L136.517 45.1675L136.402 44.8003L136.38 44.4873L136.244 43.9861L135.682 43.8499L135.464 43.8318L135.158 43.9253L135.083 43.8893L134.717 43.2023L134.778 42.441L134.583 42.0559L134.556 41.8814L134.56 41.6877L134.399 41.5278L134.206 41.4433L134.111 41.012L134.334 40.9072L134.887 40.9579L135.049 40.9286L135.197 40.8385L135.644 40.1268L135.63 39.9692L135.678 39.7653L136.161 39.6899L136.376 39.9658L136.332 40.4072L136.359 40.9703L136.652 41.1235L136.765 41.146L136.888 40.7304L136.974 40.5277L137.09 40.414L137.129 40.0333L137.061 39.8002L136.914 39.6257L137.461 39.1527L138.028 38.7765L138.358 38.7563L138.689 38.8486L138.998 38.9747L139.164 39.084L139.258 39.2597L139.05 39.6775L138.993 39.905L139.135 40.6572V40.6572ZM132.935 40.6685L132.881 40.7687L132.681 40.664L132.66 40.3014L132.735 39.9748L132.646 39.682L132.744 39.4939L133.026 39.932L133.105 40.1381L132.996 40.3836L132.935 40.6685V40.6685ZM139.441 41.7113L139.144 41.9489L139.079 41.9365L138.982 41.6111L139.139 41.4129L139.232 41.2451L139.298 41.2496L139.388 41.432L139.441 41.7113ZM133.055 41.6381L133.187 41.9286L133.349 42.548L133.605 43.2395L133.499 43.5278L133.572 43.8971L133.499 44.2812L132.988 44.7271L132.416 44.7474L131.822 44.5323L130.982 44.1167L130.914 43.8836L130.797 43.7541L130.572 43.0435L130.576 42.164L130.998 42.0525L131.921 41.6313L132.134 41.6978L132.357 41.9129L132.613 41.9253L132.985 41.6201L133.055 41.6381V41.6381ZM147.096 44.8961L146.979 44.9895L146.456 44.8352L145.82 44.4535L145.913 43.7034L146.076 43.378L147.238 44.2192L147.252 44.5357L147.096 44.8961V44.8961ZM133.336 46.3826L133.196 46.413L133.005 45.9704L132.98 45.8308L133.205 45.547L133.349 45.2249L133.724 44.7294L133.939 44.1472L134.021 44.1562L133.925 44.6753L133.433 46.1157L133.336 46.3826ZM131.209 45.6404L130.88 45.7159L130.712 45.583L130.404 45.5323L130.293 44.6866L130.325 44.6359L130.48 44.6956L131.013 45.0909L131.199 45.5222L131.209 45.6404V45.6404ZM139.073 45.2046L138.952 45.2868L138.467 45.2271L137.92 45.6078L137.713 45.4873L137.791 45.244L137.849 45.1551L138.032 45.0515L138.155 44.9006L138.204 44.664L138.317 44.7913L138.656 44.8442L138.822 44.9197L138.96 45.0312L139.073 45.2046V45.2046ZM132.547 45.8522L132.335 45.9096L132.093 45.7902L131.698 45.3409L131.648 45.2215L131.855 45.297L132.113 45.5323L132.324 45.583L132.612 45.7812L132.547 45.8522V45.8522ZM135.318 45.6111L135.878 45.9512L136.256 45.931L136.514 46.0717L136.576 46.2891L136.599 46.7711L136.329 46.9118L136.03 46.8646L135.624 47.0481L134.29 46.2609L134.309 45.6021L134.362 45.3431L134.994 45.2812L135.318 45.6111V45.6111Z" fill="#108AB4"/>
<circle cx="104" cy="89" r="25.5" stroke="#C5B581" stroke-width="9"/>
</svg>
