<svg width="97" height="97" viewBox="0 0 97 97" fill="none" xmlns="http://www.w3.org/2000/svg">
<path d="M5.68359 91.3164V0H0V97H97V91.3164H5.68359Z" fill="#0F171D"/>
<path d="M87.8944 11.6832L88.8091 14.0262L94.1034 11.9585L89.5462 0.287842L77.8749 4.84508L79.9426 10.1394L82.8569 9.00121C76.3785 24.412 65.7047 37.5065 51.865 46.9747C39.7252 55.2811 25.867 60.306 11.3672 61.7232V67.4334C27.0193 65.9992 41.9846 60.622 55.0746 51.6659C69.6766 41.6752 80.9727 27.8962 87.8944 11.6832Z" fill="#0F171D"/>
<path d="M30.502 85.6329V69.5471C24.9486 71.1767 19.2473 72.312 13.4512 72.9358V85.6329H30.502Z" fill="#0F171D"/>
<path d="M39.9746 85.6327H57.0254V57.2007C51.609 60.7862 45.9009 63.8027 39.9746 66.2278V85.6327Z" fill="#0F171D"/>
<path d="M66.498 85.6328H83.5488V31.2612C78.7222 38.2333 73.0024 44.5518 66.498 50.0793V85.6328Z" fill="#0F171D"/>
</svg>
