<svg width="189" height="544" viewBox="0 0 189 544" fill="none" xmlns="http://www.w3.org/2000/svg">
<path d="M169.438 468.137H150.711V171.06C150.711 165.998 148.856 161.604 145.154 157.89C141.445 154.187 137.056 152.333 131.99 152.333H19.6197C14.5467 152.333 10.1587 154.187 6.44972 157.89C2.74172 161.605 0.886719 165.993 0.886719 171.06V208.514C0.886719 213.588 2.74072 217.976 6.44972 221.684C10.1527 225.399 14.5407 227.253 19.6197 227.253H38.3467V468.136H19.6197C14.5467 468.136 10.1587 469.991 6.44972 473.693C2.74172 477.408 0.886719 481.797 0.886719 486.863V524.318C0.886719 529.392 2.74072 533.779 6.44972 537.488C10.1527 541.203 14.5407 543.058 19.6197 543.058H169.437C174.511 543.058 178.898 541.203 182.607 537.488C186.31 533.787 188.171 529.398 188.171 524.318V486.863C188.171 481.802 186.316 477.408 182.607 473.693C178.898 469.984 174.506 468.137 169.438 468.137Z" fill="#0F171D"/>
<path d="M90.6729 125.84C125.423 125.84 153.593 97.6698 153.593 62.92C153.593 28.1702 125.423 0 90.6729 0C55.9232 0 27.7529 28.1702 27.7529 62.92C27.7529 97.6698 55.9232 125.84 90.6729 125.84Z" fill="#0F171D"/>
</svg>
