<svg width="71" height="83" viewBox="0 0 71 83" fill="none" xmlns="http://www.w3.org/2000/svg">
<path d="M63.9705 6.19455L64.3669 6.21706L64.5438 6.19678L64.8467 6.26321L66.0483 6.92877L66.4109 7.01325L66.7859 7.02339L67.0494 6.96933L67.2814 6.78687L68.0066 5.97944L68.7702 5.24182L68.8547 5.26996V5.4738L68.7983 5.70014L68.4605 6.3747L68.0855 7.28014L68.0055 7.73737L68.1271 8.18218L68.3626 8.5493L68.5483 9.05044L68.7623 9.74528L69.0641 9.83312L69.2285 9.84326L69.5304 9.63493L69.8153 9.37026L70.0608 9.33762L70.3187 9.38267L69.9797 9.56736L69.6599 9.79257L69.3851 10.2183L69.2826 10.2982L68.9662 10.2723L68.7849 10.2881L68.4143 10.466L68.0889 10.6676L67.778 10.9142L67.4391 11.046L67.0776 11.0775L66.5201 11.2791L66.1586 11.2937L65.4796 11.1181L65.1496 11.1653L64.43 11.5618L63.7746 12.1338L63.2014 12.7746L62.7228 13.5427L62.5302 13.9413L62.4142 14.3873L62.3984 14.6823L62.3556 14.965L62.2453 15.1621L62.1124 15.322L61.7171 15.2285L61.0685 14.8208L59.8106 14.2274L58.4817 13.3163L57.734 12.858L56.3285 12.9953L54.9985 13.8692L54.8802 13.7949L54.3724 13.1958L54.1257 12.9582L53.8318 12.8906L53.6133 12.8985L53.4016 12.9424L53.101 13.251L52.9906 13.4728L52.905 13.7251L52.8791 13.903L52.9151 14.0776L53.2001 14.4717L53.5514 14.7645L53.7102 14.8197L54.0469 14.7994L54.2035 14.8299L54.7677 15.4166L55.3859 15.9661L55.5222 16.1474L55.2935 16.3378L55.0436 16.4323L54.7519 16.4087L54.4636 16.3366L53.9703 16.1035L53.7586 16.3017L53.4298 16.7083L53.2485 17.1497L53.101 17.3513L52.7383 17.6171L52.3543 17.7545L52.1527 17.7094L51.9996 17.5428L51.9129 17.3434L51.869 17.1114L51.95 16.6092L52.1493 16.1553L52.2259 15.6913L52.0627 15.0371L51.959 14.8997L51.5513 14.5156L51.3622 14.1407L51.3171 13.6733L51.3408 13.4154L51.4399 12.8445L51.539 12.5562L51.7259 12.4615L51.9309 12.4041L52.2451 12.1969L52.5908 11.9289L52.9219 11.6226L53.2496 11.2476L53.4196 10.8354L53.1393 10.3286L53.0807 10.0268L53.1224 9.74191L53.4219 9.58987L53.7293 9.70473L54.3499 10.1237L54.4704 10.1653L54.896 10.1845L55.4794 10.2757L55.8172 10.2532L55.9805 10.1901L56.226 9.8444L56.3465 9.40295L56.3026 8.83424L56.3004 8.26889L56.4558 7.80717L56.9423 7.0628L57.0819 6.62359L57.1325 5.5515L57.3082 5.0785L57.449 4.5864L57.5166 3.55259L57.3172 2.5548L57.1168 2.0638L56.8871 1.59647L56.9208 1.14939L57.1067 0.733815L57.1112 0.608821L57.1551 0.497333L57.5031 0.418494L57.6663 0.329552L57.8229 0.129087L58.0087 0.0119629L58.145 0.129087L58.2576 0.334054L58.7486 0.837433L59.5222 1.73384L60.4333 3.09537L61.0043 3.75642L61.6057 4.35442L62.2802 4.96478L62.9863 5.48844L63.4368 5.73619L63.7667 6.13035L63.9705 6.19455ZM55.2733 0.803649L55.1517 1.08746L54.9873 0.665149L54.9546 0.20906L55.0492 0.211294L55.2226 0.279994L55.2643 0.501835L55.2733 0.803649ZM55.9771 1.75862L55.7587 1.79016L55.503 1.60321L55.4715 1.36899L55.6562 1.18203L55.8398 1.25073L56.0233 1.49172L56.0841 1.61785L55.9771 1.75862ZM50.2439 14.9774L50.1718 14.9999L50.0975 14.9639L50.0243 14.6429L50.0874 14.474L50.2912 14.3557L50.4894 14.3231L50.3216 14.9132L50.2439 14.9774ZM55.7688 17.9651L55.8927 18.0439L56.4828 17.831L56.3701 18.4741L56.3071 19.1216L56.3499 20.1937L56.4029 20.6757L56.5053 21.1419L56.7576 21.4752L57.0864 21.7118L57.5628 22.4652L57.8184 23.3886L57.9986 23.8357L58.1337 24.3042L58.1754 24.5181L58.1788 24.7321L58.1382 25.0249L58.1833 25.2614L58.1315 26.0024L57.9186 26.8571L57.8916 27.2929L57.7058 27.3797L57.5932 27.5813L57.4975 27.6747L57.3904 27.7468L57.2362 27.7648L57.1247 27.847L57.0808 28.0779L57.0098 28.2907L56.8747 28.4878L56.7688 28.704L56.6821 29.2311L56.6506 29.7705L56.5211 30.1466L56.2069 30.2446L55.8476 30.2389L55.387 30.4124L55.2879 30.5149L54.9242 31.1703L54.8195 31.5543L54.8161 31.9665L54.9174 32.4732L55.0548 32.9676L55.1584 33.8854L55.0492 35.2796L54.9433 35.7244L54.7125 36.0251L54.5368 36.1647L54.3859 36.3359L54.1899 36.7875L53.8656 37.6862L53.8397 37.9114L53.8408 38.1445L53.753 38.4486L53.6967 38.747L53.7496 39.0939L53.8498 39.4182L54.2845 40.2482L54.4546 40.4937L54.6461 40.7167L53.9039 40.9633L53.771 41.077L53.3296 41.5477L53.1888 41.9937L53.2001 42.487L53.1269 42.6637L53.0063 42.8169L52.8802 42.9183L52.387 43.1435L52.0717 43.3676L51.7586 43.7178L51.6347 43.9003L51.3926 43.8417L51.2507 43.6795L51.3903 43.4768L51.3476 43.237L51.4162 42.621L51.3385 42.3732L51.5908 42.1851L51.7102 41.8856L51.9715 41.6457L52.1595 41.4329L52.1922 41.2595L52.0244 41.0725L51.8464 40.9374H51.6009L51.3645 40.9768L51.2102 41.1547L51.1595 41.3968L51.1719 41.5094L51.1516 41.6074L50.7799 41.9385L50.8284 42.2843L50.9376 42.4599L51.0773 42.5433L51.0356 42.6615L50.8588 42.9397L50.736 42.9667L50.5097 42.577L50.2259 42.3642L49.8746 42.3653L49.5142 42.443L49.2405 42.7021L49.1504 42.9171L49.0919 43.139L49.1122 43.6784L48.9984 44.1289L48.7754 44.5242L48.6718 44.6683L48.4004 44.9363L48.2124 44.9712L48.0794 44.8496L47.9714 44.6649L48.1087 43.9892L48.1031 43.6086L48.4207 43.4149L48.1605 43.1446L47.8407 43.0354L47.3914 43.1795L47.2641 43.3428L47.1774 43.5613L46.9353 43.8383L46.6695 44.0962L46.3666 44.5377L46.1639 45.0591L45.4995 44.889L45.1379 44.8507L44.772 44.8643L44.1233 44.8001L43.4116 44.907L42.6007 45.112L42.6492 44.9645L43.3158 44.6503L43.3395 44.5579L43.2753 44.3857L43.1098 44.3778L42.7111 44.4374L42.5072 44.4115L42.425 44.2268L42.2899 44.148L42.1999 44.2235L42.2291 44.5816L42.1311 44.6289L41.9994 44.5366L42.041 44.2573L41.9521 43.8485L41.9408 43.594L42.0805 43.3755L41.9374 43.2831L41.7866 43.3181L41.5951 43.4228L41.4262 43.5714L41.0692 44.3181L40.9307 44.7438L41.1919 45.085L41.9059 45.5613L42.0275 45.6785L42.0298 45.8812L41.9431 46.0963L41.7494 46.1897L40.9667 46.3485L40.2877 46.656L40.0917 46.9668L39.4745 48.1673L38.9802 48.986L38.282 49.2675L37.5162 49.0164L37.3303 48.7314L37.1806 48.379L36.8957 48.0603L36.6378 47.7123L36.488 47.299L36.5116 46.6323L36.4002 46.2303L36.5004 46.1233L36.9227 45.8778L37.0612 45.7404L37.3 45.4206L37.3855 45.2426L37.3979 44.9735L37.2065 44.8327L36.711 44.8372L36.2166 44.9217L35.8641 44.8046L35.4058 44.478L35.2639 44.4082L34.7706 44.3879L34.4181 44.4487L34.0724 44.5669L33.7064 44.6052L33.5848 44.6672L33.1625 45.067L32.8257 45.3181L32.5352 45.4431L31.9079 45.4758L31.5937 45.5568L31.2649 45.6886L31.1725 45.6774L30.8257 45.8598L30.427 46.0175L30.2153 46.1751L29.8246 46.0715L29.052 46.3541L28.6782 46.3891L28.293 46.2325L27.9349 45.9791L27.5914 46.0884L27.356 46.4611L27.2412 47.2021L27.1072 47.5355L27.0666 47.9353L26.8887 47.8722L25.8549 47.1526L25.7839 47.1267L24.9483 47.2506L24.7333 47.3102L24.4641 47.4555L24.1792 47.5209L23.9202 47.4161L23.6713 47.2461L23.4325 47.2967L23.1882 47.4161L23.0936 46.3282L23.142 46.1852L23.2918 45.9949L23.4573 45.8316L23.8616 45.7753L24.2704 45.8282L24.5632 45.7539L24.8109 45.5377L25.0711 45.2314L25.365 44.9814L25.7637 44.7843L26.1488 44.5579L26.4878 44.2404L26.8087 43.8924L27.1038 43.6368L27.4248 43.4228L27.9135 42.907L28.561 42.327L28.8099 41.8968L28.9642 41.7786L29.5217 41.5387L30.2615 41.354L30.6106 41.363L30.9552 41.7403L31.1411 41.6885L31.3302 41.5906L31.7109 41.5365L32.1028 41.5996L32.4856 41.6007L32.8686 41.5534L33.6028 41.4295L33.9902 41.2797L34.3686 41.086L35.7155 40.9498L36.6378 40.6243L36.7842 40.648L36.926 40.7223L36.9373 40.9633L36.8202 41.2257L36.934 41.3845L37.1209 41.4824L37.9892 41.5129L38.2369 41.5691L38.5995 41.3901L38.9419 41.1683L39.2988 40.8754L39.5489 40.5455L39.318 40.1322L39.2674 39.6795L39.4611 39.1874L39.7414 38.7729L40.0748 38.5218L40.3822 38.2323L41.0039 37.4103L41.4532 36.7436L41.6153 35.9215L41.5208 34.9462L41.9138 34.2188L42.2899 34.0938L43.0366 33.7615L43.4285 33.6647L43.487 33.81L43.4758 34.0003L42.8891 34.6106L42.5523 34.8618L42.3518 34.9395L42.1671 35.0499L42.0917 35.265L42.3913 35.6231L42.4668 35.8877L42.4476 36.1411L42.4611 36.3697L42.7989 36.6175L43.1874 36.6997L43.3497 36.6974L43.4915 36.6321L43.9352 36.0251L44.0343 35.9193L45.2956 35.4733L45.9161 35.1321L46.2596 35.0431L46.5817 34.8652L47.3046 34.1782L47.5704 33.8606L47.8125 33.5093L48.0063 33.1005L48.1594 32.6579L48.3689 32.382L49.5142 31.7232L49.8824 31.364L49.9995 31.1894L50.1415 30.6838L50.2394 30.1579L50.3779 29.7446L50.566 29.3572L50.8171 28.9619L51.0998 28.5936L51.2664 28.2164L51.5097 27.3121L51.6155 26.8098L51.6989 26.6285L51.8205 26.4765L51.9264 26.2828L52.0075 26.0666L52.0447 25.8526L52.0964 25.1972L52.0649 24.6859L51.8757 24.2523L51.7192 24.1296L51.5492 24.1228L51.2924 24.16L51.075 23.9832L51.12 23.8267L51.3419 23.7974L51.4928 23.7163L51.6021 23.5688L51.8059 23.0947L51.9275 22.5856L51.9387 22.3604L51.7789 21.9494L51.6527 21.455L51.6494 21.1881L51.7879 20.8795L51.9861 20.6284L52.1629 20.5698L52.3543 20.5518L52.5289 20.455L52.691 20.3142L52.7823 20.1588L52.9241 19.7354L52.9793 19.4944L52.8893 18.8457L52.9816 18.6678L53.1122 18.5574L53.2868 18.6407L53.467 18.6576L53.6764 18.6317L53.8769 18.7004L53.914 18.8671L54.0402 19.9617L54.1123 20.1092L54.2586 20.2241L54.4231 20.2072L54.565 20.0372L54.6607 19.8108L54.8499 19.7635L55.4276 20.0068L55.6325 19.8333L55.7654 19.5642L55.8814 19.0878L55.8251 18.6576L55.6866 18.4977L55.5436 18.5259L55.4175 18.6441L55.2755 18.7083L54.4231 18.9347L54.4276 18.4549L54.61 17.7342L54.7102 17.5056L54.8544 17.3975L55.2125 17.5236L55.387 17.6069L55.7688 17.9651ZM46.6493 32.4755L46.3485 32.4856L46.2742 32.4462L46.4556 32.3471L46.4725 32.1816L46.5817 31.8865L46.5794 31.802L46.3407 31.7863L46.3531 31.4518L46.531 31.1207L47.0209 30.5993L47.1549 30.5013L47.1751 30.73L47.0265 31.2694L46.9972 31.4642L47.3824 31.5047L47.1346 32.15L46.6493 32.4755ZM30.9305 38.854L30.7863 38.9993L30.5161 38.952L30.3595 38.7414L30.4113 38.5037L30.6939 38.3213L30.9642 38.6873L30.9305 38.854ZM50.1651 44.5624L50.1313 44.7426L49.9635 44.7032L49.8836 44.5861L49.8937 44.3755L50.0705 44.3744L50.1651 44.5624ZM18.3356 45.9859L18.2714 46.1695L18.0574 46.04L17.9595 45.9228L18.1588 45.3451L18.1351 45.1255L18.1475 45.0185L18.5428 44.7156L18.6115 44.773L18.6351 44.8575L18.6003 44.987L18.6205 45.2731L18.3232 45.746L18.3356 45.9859ZM35.8686 46.2348L35.5263 46.5591L35.229 46.5366L35.0803 46.3913L35.0308 46.2122L35.3134 45.9307L35.5566 45.5321L35.7774 45.3553L35.9553 45.2561L36.095 45.2595L35.7819 45.8159L35.8686 46.2348ZM34.0318 45.4904L33.9733 45.5659L33.917 45.5456L33.7155 45.7201L33.6726 45.5523L33.5139 45.4408L33.4947 45.353L33.9485 45.2956L34.0949 45.3418L34.0318 45.4904ZM34.0487 46.3564L34.4869 46.5152L34.9339 46.4701L34.9272 47.165L34.9914 47.3981L35.1163 47.6064L35.0521 47.9094L35.2548 48.013L34.6535 48.3576L34.1118 48.8148L33.8889 49.1222L33.6873 49.4522L33.5701 49.8013L33.4947 50.1763L33.3134 50.0276L32.7908 49.4184L32.4597 49.2517L31.9271 49.1628L31.7582 49.183L30.6636 49.7517L30.5183 50.1673L30.2199 50.7923L30.0779 50.9984L29.9203 51.0581L29.8088 51.1651L29.6872 51.6966L29.3482 52.0232L29.1398 52.0333L28.7863 51.9432L28.6263 51.9939L28.838 51.4702L28.5002 51.406L28.1613 51.4173L28.1534 51.0761L27.9484 50.8824L28.1004 50.6301L28.1049 50.4241L28.1939 50.3103L28.2243 50.1448L28.2119 50.0029L28.0036 49.9601L27.8764 49.8599L27.9 49.486L27.7806 49.4725L27.4833 49.5378L26.8662 49.8261H26.6984L26.9563 49.62L27.5047 49.3384L27.7513 49.1763L28.2896 48.7213L28.6286 48.5062L28.8043 48.1244L28.8595 47.8925L28.9743 47.6875L29.0756 47.3598L29.2491 47.2506L29.552 46.969L29.7255 46.9961L29.9192 47.3418L30.1793 47.6064L30.3663 47.5839L30.7007 47.4477L30.8629 47.4172L31.2492 47.4341L31.5971 47.2663L31.739 47.0681L31.792 46.8204L31.6625 46.4048L31.8291 46.4465L31.9901 46.4296L32.3674 46.165L32.7559 46.0073L33.1579 45.9679L33.6107 46.1177L34.0487 46.3564ZM18.0011 46.8621L17.795 47.0163L17.7072 46.781L17.7973 46.112L18.1835 46.2494L18.1768 46.4544L18.0011 46.8621ZM28.427 46.8936L28.3358 47.0456L28.0554 46.9994L28.168 46.8677L28.2536 46.7078L28.3167 46.6751L28.3696 46.8485L28.427 46.8936ZM27.4394 47.5389L27.5937 47.6785L27.9597 47.6222L28.0047 47.6616L27.8977 47.7878L27.7356 47.9127L27.4428 47.8193L27.2581 47.8148L27.2322 47.6064L27.2558 47.531L27.4394 47.5389ZM23.9911 48.8351L24.4156 48.9477L24.5959 48.9544L24.7614 48.9038L25.0159 48.7562L25.2805 48.647L25.4709 48.7022L25.6387 48.8339L25.7265 49.0197L25.6837 49.2134L25.383 49.6301L25.1353 50.0738L25.7028 50.1572L26.2704 50.1482L26.1387 50.4218L26.1161 50.6605L26.2896 50.7743L26.4371 50.9274L26.3988 51.0659L26.3144 51.2022L26.6241 51.4072L26.6038 51.5446L26.5238 51.6887L25.7502 52.6279L25.5227 53.102L25.365 53.6235L25.2198 54.0041L25.1139 54.3994L25.0339 54.8251L24.8898 55.2643L24.9382 55.6528L24.8898 56.0514L24.5013 57.0334L24.2242 57.0154L23.8763 56.8972L23.6589 56.9152L23.5463 57.1325L23.7456 57.5796L23.1262 58.11L22.4415 58.4659L22.437 58.3037L22.5023 58.1765L22.6003 58.074L22.6713 57.9501L22.7715 57.5334L22.722 57.1134L22.5147 56.5863L22.5001 56.3972L22.6431 56.3206L22.7389 56.2981L22.7906 56.2249L22.7929 56.0503L22.7276 55.9208L22.5316 55.8791L22.3447 55.8769L22.2129 56.0728L22.0316 56.4501L21.9438 56.8319L21.9821 57.0402L22.062 57.2271L22.3109 57.5391L22.2388 57.7238L22.1352 57.8668L21.2568 57.5413L21.0665 57.5177L20.9089 57.449L20.7399 57.0199L21.098 56.9163L21.2039 56.8645L21.2433 56.7271L21.2917 56.3082L21.125 55.9568L20.9832 55.8318L20.8683 55.6888L20.9403 55.3926L20.8931 55.0187L20.8886 54.4962L20.9505 54.4061L21.2827 54.3003L21.5226 54.0199L21.7343 53.7L22.044 53.137L22.2985 52.5277L22.0541 52.5018L21.847 52.3869L22.0721 52.0987L22.0024 51.7338L21.6645 51.2856L21.4787 50.7563L21.1802 50.522L21.0226 50.4364L20.83 50.5603L20.6723 50.709L20.8188 51.0536L20.8007 51.3588L20.8244 51.6606L20.9731 51.6774L21.1566 51.602L21.303 51.6549L21.3886 51.8137L21.4122 52.0175L21.3469 52.2191L21.2129 52.3194L21.0485 52.3115L20.883 52.2022L20.7535 52.0468L20.4437 51.9613L20.1172 52.1448L19.8075 52.5187L19.5428 52.7079L19.6667 52.4308L19.7264 52.1313L19.598 51.9207L19.2939 51.5705L19.223 51.3678L19.205 51.1223L19.259 50.879L19.5698 51.1583L19.7298 51.5063L19.9595 51.6594L20.2467 51.6606L20.026 51.1493L19.9471 51.0198L19.6386 50.79L19.2151 50.4038L18.9471 50.2168L19.0417 49.8126L19.2005 49.7326L19.3334 49.7517L19.7815 49.8948L19.8233 49.6932L19.7568 49.5851L19.723 49.4601L20.0192 49.2855L20.5023 49.1414L20.6014 49.0738L20.687 48.9285L20.8052 48.8531L21.1431 48.8553L21.428 48.7157L21.6634 48.3384L21.7197 48.1312L21.803 47.9578L22.3898 47.6515L22.535 47.6042L22.928 47.6425L23.2861 47.8159L23.463 48.1808L23.6184 48.5704L23.9911 48.8351ZM19.6329 48.2821L19.4144 48.4387L19.25 48.317L19.33 47.9792L19.3841 47.8666L19.571 47.9781L19.6329 48.2821ZM18.6712 50.2664L18.4493 50.4432H18.2883L18.4347 50.236L18.455 50.138L18.5777 49.8599L18.8176 49.7607L18.9189 49.7484L18.723 50.0367L18.6712 50.2664ZM17.3604 51.7011L17.2815 51.7416L17.1801 51.4038L17.1092 51.2833L17.2274 51.2191L17.465 50.6054L17.5079 50.8486L17.6003 51.0896L17.6926 51.1279L17.6025 51.3036L17.4707 51.3689L17.3604 51.7011ZM51.3813 50.8925L51.3262 50.9319L51.1741 50.8092L51.1516 50.7L51.1786 50.6324L51.2777 50.6178L51.4827 50.7518L51.3813 50.8925ZM16.0596 51.9128L16.1824 52.0142L16.3614 51.9567L16.5045 51.9432L16.607 51.9917L16.7365 52.2518L16.7838 52.4061L16.5529 52.4275L16.4549 52.4635L16.3288 52.6516L16.1475 52.5818L16.0337 52.4928L16.009 52.3678L16.0596 51.9128ZM20.5383 53.9793L20.2883 54.1122L20.2568 53.9849L20.1509 53.9264L20.3323 53.7473L20.3255 53.6663L20.2107 53.5458L20.3435 53.0885L20.3075 52.8914L20.8064 52.8182L20.8976 53.0041L20.9066 53.5671L20.5383 53.9793ZM21.482 53.2575L21.2028 53.2744L21.0868 53.2304L21.0406 53.1122L21.4325 52.8723L21.7366 52.9151L21.6014 53.1313L21.482 53.2575ZM19.3874 56.1021L19.2883 56.1663L19.3514 55.8758L19.6059 55.6212L19.6273 55.7857L19.3874 56.1021ZM23.3109 60.7272L23.0339 60.7655L23.0282 60.5538L23.2478 60.0763L23.2715 59.7249L23.4764 59.2812L23.5632 59.1844L23.6285 59.1495L23.6994 59.288L23.6206 59.8308L23.4145 60.2418L23.3109 60.7272ZM22.2467 61.2148L21.8852 61.2936L21.687 61.2092L21.5046 60.7598L21.8503 60.4783L22.312 60.7576L22.4066 60.8376L22.2467 61.2148ZM18.5484 68.617L18.2759 68.9064L17.9865 68.6452L17.6374 68.4706L17.8029 68.4233L17.8998 68.3523L17.9099 68.242L18.1362 68.0776L18.5845 67.9503L18.7275 67.9425L18.8885 67.8231L18.9415 67.715L19.0079 67.6631L19.2973 67.5145L19.3762 67.6857L19.3626 67.8197L19.1453 67.894L18.9336 68.0731L18.7365 68.2961L18.5608 68.3906L18.5045 68.4537L18.5484 68.617ZM18.1419 68.9886L18.1633 69.072L17.8536 69.0021L17.7275 68.6767L17.9335 68.7352L17.9966 68.8467L18.1419 68.9886ZM17.1115 70.3547L16.9786 70.42L16.8018 70.3299L16.7466 69.9222L16.8254 69.724L16.964 69.6801L17.0845 70.0326L17.1678 70.1778L17.1115 70.3547ZM14.7747 74.1295L14.4695 74.2917L14.3569 74.4842L14.0754 74.5496L13.8017 74.8198L13.536 74.8683L13.5427 75.0856L13.6565 75.2692L13.4796 75.3018L13.2938 75.5259L13.2792 75.6892L13.3456 75.8199L13.3366 75.8863L13.1024 76.08L12.8602 76.089L12.8501 75.8796L12.8659 75.723L13.0945 75.3424L13.1001 74.8998L13.3118 74.8491L13.3884 74.7872L13.7229 74.4719L13.7849 74.3378L13.6114 74.2072L13.6249 74.0529L13.6643 73.9876L13.9391 74.0372L14.0506 74.152L14.1058 74.1644L14.2668 74.0788L14.3423 73.9257L14.6418 73.6239L14.7634 73.3243L15.0056 73.5698L14.9403 73.8919L14.7747 74.1295ZM58.7993 74.2579L58.7407 74.2601L58.5425 73.8874L58.6 73.8694L58.7159 73.9279L58.8432 74.143L58.7993 74.2579ZM5.87926 80.7918L5.61237 80.8819L5.32629 80.829L5.37248 80.3458L5.4716 80.4134L5.53353 80.5779L5.7464 80.6747L5.87926 80.7918ZM2.24066 81.5779L2.05487 82.1229L1.90056 82.2017L1.74288 82.1578L1.58073 81.8538L1.69449 81.7366L1.85217 81.7986L1.97939 81.7749L2.26884 81.3312L2.33867 81.4033L2.24066 81.5779ZM0.963633 82.3909L0.764302 82.4394L0.524418 82.3797L0.30591 82.3628L0.303711 82.2603L0.532323 82.1545L0.53679 82.0069L0.593084 81.927L1.11004 82.1083L1.08749 82.2412L0.963633 82.3909Z" fill="#108AB4"/>
<circle cx="53" cy="36" r="8.5" stroke="#C5B581" stroke-width="3"/>
</svg>
