<svg width="212" height="125" viewBox="0 0 212 125" fill="none" xmlns="http://www.w3.org/2000/svg">
<path d="M179.355 54.733L179.254 54.8637L178.901 54.8108L178.83 54.6475L178.814 54.5326L179.035 54.2995L179.284 54.3986L179.38 54.5089L179.451 54.5315L179.45 54.625L179.423 54.6936L179.355 54.733ZM179.257 52.9628L179.21 53.0495L178.952 52.8929L178.873 52.599L178.881 52.5371L178.925 52.5044L179.027 52.5607L179.164 52.5821L179.25 52.6778L179.257 52.9628Z" fill="#108AB4"/>
<path d="M175.293 50.8276L174.791 50.9942L174.811 50.8985L175.214 50.6699L175.361 50.6857L175.293 50.8276Z" fill="#108AB4"/>
<path d="M186.38 67.6L186.29 67.6642L186.007 67.5358L185.908 67.3804L185.896 66.8871L186.07 66.8398L186.398 67.2306L186.588 67.3725L186.38 67.6Z" fill="#108AB4"/>
<path d="M175.828 51.9702L175.78 51.9736L175.742 51.9465L175.709 51.8968L175.689 51.8472L175.694 51.8179L175.722 51.8314L175.93 51.863L175.907 51.9002L175.871 51.9397L175.828 51.9702Z" fill="#108AB4"/>
<path d="M158.843 70.6169L158.69 70.9784L158.602 70.8173L158.586 70.5302L158.523 70.4175L158.392 70.3488L158.321 70.2543L158.327 70.1124L158.8 70.3398L158.843 70.6169ZM175.493 53.2246L175.416 53.2933L175.349 53.2877L175.304 53.2212L175.296 53.1109L175.36 53.1413L175.384 53.1582L175.404 53.1807L175.493 53.2246ZM174.56 52.8046L174.532 52.8169L174.492 52.7865L174.498 52.7325L174.532 52.71L174.558 52.7257L174.578 52.7685L174.56 52.8046Z" fill="#108AB4"/>
<path d="M130.335 24.754L130.269 24.7844L129.994 24.4342L129.773 24.3328L130.118 24.0851L130.268 23.8723L130.264 23.4072L130.349 23.1515L130.321 22.9308L130.396 22.7056L130.294 22.4522L130.005 22.2506L129.434 21.4499L128.532 21.2551L128.065 21.2472L128.322 21.1177L128.558 21.1335L128.923 21.21L129.36 21.2472L129.627 21.4826L129.881 21.7956L130.112 21.9218L130.207 22.0017L130.197 22.093L130.235 22.1785L130.536 22.3249L130.839 22.5603L130.928 23.2506L130.52 23.5772L130.446 24.575L130.335 24.754ZM126.33 21.8609L126.713 21.9713L126.919 21.9556L127.041 21.8846L127.608 21.9139L128.065 21.808L128.134 21.995L128.122 22.093L127.149 22.1842L126.258 22.4589L125.769 22.6448L125.539 22.6661L125.363 22.5682L124.774 22.0028L124.932 22.0591L125.367 22.379L125.637 22.3204L125.888 22.1087L125.926 21.9488L125.889 21.8733L126.003 21.62L126.33 21.8609ZM132.157 26.2079L132.678 26.5998L133.121 26.7484L133.601 27.2394L133.808 27.414L133.846 27.5728L133.764 28.298L133.656 28.7338L133.672 29.1156L133.56 29.0019L133.446 28.7519L133.259 28.6088L133.196 28.5334L133.531 28.5165L133.561 28.1223L133.725 27.8115L133.7 27.4872L133.308 27.1302L133.04 26.816L132.627 26.7146L132.245 26.4016L132.018 26.3633L131.74 26.4185L131.84 26.2315L131.91 25.9838L131.96 25.9365L132.157 26.2079ZM128.697 28.9151L128.69 29.3341L128.725 29.6471L128.693 29.7586L128.351 29.9681L128.263 30.0852L127.941 30.2035L127.746 30.3679L127.648 30.101L127.459 29.9366L127.428 29.6561L127.283 29.7508L127.074 29.6933L126.729 29.4816L126.512 29.1933L126.817 29.1438L126.88 29.3228L127.121 29.1032L127.066 28.9872L127.022 28.9726L126.943 28.7575L127.306 28.1922L127.385 27.8273L127.22 27.2406L127.375 27.2023L127.783 27.4083L127.967 27.6111L127.973 27.8892L128.145 28.1032L128.394 28.6178L128.697 28.9151ZM129.95 27.8532L129.593 27.9253L129.338 27.8543L129.272 27.7969L129.381 27.7012L129.621 27.6212L130.008 27.6133L130.177 27.7079L130.197 27.7496L129.95 27.8532ZM136.395 30.6674L136.417 30.842L136.205 30.8071L135.892 30.8758L135.779 30.878L135.849 30.7575L136.066 30.5954L136.078 30.4411L135.808 30.2181L135.496 29.6629L135.35 29.5311L135.28 29.3217L135.018 29.0976L135.072 28.9782L135.126 28.9501L135.303 29.0075L135.704 29.8071L135.73 29.8837L136.395 30.6674ZM128.969 30.4963L128.975 30.5751L128.662 30.7924L128.889 30.9478L129.103 30.61L129.273 30.8848L129.367 31.3983L129.351 31.4884L129.367 31.565L129.4 31.663L129.407 31.8049L129.234 32.2519L128.61 32.2058L128.595 31.8285L128.499 31.7553L128.353 31.2159L128.158 31.0425L127.887 30.5987L128.045 30.4839L128.255 30.5222L128.363 30.4681L128.655 30.4253L128.832 30.3645L128.969 30.4963ZM139.172 31.1213L138.921 31.494L138.787 31.4625L138.863 30.9929L139.036 30.9186L139.105 30.9231L139.172 31.1213ZM135.269 33.2429L135.137 33.2632L134.902 33.172L134.349 32.7553L134.092 32.7193L134.177 32.4839L134.373 32.5661L134.819 32.9254L134.986 33.1056L135.269 33.2429ZM137.874 35.1428L137.854 35.2306L137.455 34.5493L136.953 34.3837L136.664 34.2193L136.724 34.1259L136.924 34.0853L136.958 33.8691L136.873 33.6349L136.608 33.1619L136.459 32.8409L136.391 32.7666L136.37 32.4974L136.685 32.9152L136.815 33.2857L137.026 33.6484L137.167 34.2722L137.569 34.484L137.858 34.7858L137.874 35.1428ZM140.348 35.725L140.42 35.7858L140.218 35.9232L139.765 35.7543L139.662 35.7667L139.572 35.5865L139.537 35.4536L139.56 35.3308L139.83 35.4254L139.975 35.6022L140.348 35.725ZM139.876 37.4581L139.654 37.5606L139.704 37.3849L140.128 37.0865L140.364 36.8241L140.498 36.7306L140.545 36.6586L140.732 36.5617L140.825 36.3928L140.8 36.2543L140.605 36.0257L140.607 35.8646L140.675 35.7509L141.003 35.698L140.917 35.8691L141.046 36.3534L140.609 36.9559L140.235 37.1428L139.876 37.4581ZM143.561 36.7273L143.757 36.7757L143.864 36.7723L144.225 36.8737L144.44 37.0144L144.489 37.0719L144.373 37.1969L144.041 36.9604L143.75 36.93L143.342 36.9356L143.179 36.8905L143.288 36.636L143.561 36.7273ZM143.956 39.8523L143.535 40.0179L143.492 39.823L143.707 39.6665L143.956 39.8523ZM143.605 40.9131L143.505 41.1598L143.17 41.6305L142.423 41.7487L141.601 41.7713L141.538 41.6429L141.52 41.5303L141.58 41.3535L141.574 41.2837L141.541 41.2127L141.842 41.1372L142.038 40.9188L142.35 40.8816L142.739 41.0359L142.948 41.0415L143.258 40.8726L143.507 40.5066L143.654 40.5539L143.605 40.9131Z" fill="#108AB4"/>
<path d="M95.3486 49.999L95.1797 50.3751L95.3486 50.4235L95.5018 50.3886L95.8723 50.4022L96.0142 50.8143L95.977 51.16L95.6279 52.07L95.584 52.3819L95.4252 52.8492L95.6403 53.1567L95.4387 53.5644L95.37 53.8279L95.3543 54.2243L95.4556 54.9766L95.2923 56.0599L95.004 56.5329L94.825 56.712L94.5052 57.1816L94.0851 57.3212L93.5029 58.0768L93.4004 58.2751L93.4567 58.489L93.3204 58.4913L92.763 58.4564L92.3857 58.4958L92.3711 58.4766L92.4015 57.6647L92.4499 56.4068L92.4848 55.4822L92.5186 54.5768L92.5445 53.8977L92.5794 52.972L92.6098 52.1725L92.6065 51.8853L92.6977 51.6578L92.9601 51.5632L93.3002 51.7614L93.4421 51.8436L93.5693 51.7963L93.7315 51.6758L93.9297 51.3256L94.4274 50.6015L94.6268 50.0868L94.8216 49.9844L95.1031 49.9663L95.3486 49.999ZM96.4387 51.8087L96.289 51.8695L96.4128 51.6792L96.4309 51.5576L96.6043 51.0485L96.7282 51.0508L96.7608 51.0959L96.4387 51.8087ZM96.7484 53.4642L96.5052 53.9247L96.4894 53.793L96.5908 53.4517L96.7282 53.3324L96.8138 53.2063L96.8329 53.0576L96.9523 53.1297L96.9219 53.2761L96.7484 53.4642Z" fill="#108AB4"/>
<path d="M149.003 71.5242L148.889 71.5636L148.748 71.6481L148.319 71.8069L147.739 71.9578L146.984 72.1515L146.813 72.3587L146.067 73.6572L145.442 73.9196L145.214 74.1133L145.043 74.3587L144.67 74.8103L144.515 75.1572L144.104 75.9106L143.878 76.8543L143.793 77.3836L143.669 78.1505L143.487 78.5357L143.243 78.8971L142.981 79.2496L142.756 79.637L142.564 79.9399L142.533 80.0436L142.626 80.1269L143.08 80.0436L143.259 79.9523L143.507 79.8352L143.662 79.8983L143.818 80.2316L143.993 80.2733L144.159 80.2316L144.335 80.315L144.559 81.1438L144.749 81.8454L145.19 82.2835L145.535 82.6247L145.618 82.9265L145.701 83.3522L145.722 83.5605L145.614 83.6855L145.443 83.9445L145.4 84.4389L145.371 84.6033L145.339 85.0617L145.362 85.3432L145.454 85.5628L145.607 85.6889L145.918 85.7543L146.198 85.8308L146.359 86.2115L146.588 86.6957L146.834 86.8996L147.194 87.0336L147.452 86.9851L148.053 86.8996L148.57 86.9209L149.327 87.0505L149.608 87.0459L149.972 87.0212L150.613 86.7588L150.846 86.7194L151.105 86.743L151.483 86.877L151.688 86.9829L151.951 87.0921L152.334 87.1698L152.58 87.1563L152.767 87.1518L152.875 87.2013L153.478 87.9525L154 88.6034L154.455 89.1496L154.947 89.7386L154.986 89.7735L155.208 89.698L155.354 89.7307L155.489 89.8501L155.722 89.8005L156.053 89.582L156.535 89.5381L157.169 89.6688H158.006L159.044 89.5393L159.69 89.3985L159.942 89.2464L160.359 89.2622L160.862 89.3985L161.133 89.5922L161.166 89.7825L161.267 90.0809L161.158 90.3827L160.838 90.6879L160.66 91.0787L160.625 91.5539L160.46 91.9053L160.164 92.1328L160.048 92.4639L160.113 92.8986L160.082 93.5337L159.952 94.3693V94.8682L160.082 95.0315L160.141 95.2657L160.131 95.5709L160.18 95.8412L160.341 96.1925L160.565 96.8919L160.752 97.1926L160.915 97.3029L161.08 97.4381L161.558 98.1532L161.674 98.3041L161.639 98.4358L161.594 98.5338L161.539 98.5969L161.03 99.0226L160.018 99.9482L159.935 100.065L159.942 100.259L160.235 100.134L160.549 100.239L160.702 100.259L160.772 100.336L160.863 100.586L160.968 100.627L161.121 100.731L161.421 100.994L161.672 101.271L161.86 101.404L161.993 101.528L162.034 101.708L161.979 101.889L162.137 102.306L162.244 102.436L162.3 102.595L162.244 102.755L162.377 102.942L162.521 103.31L162.696 103.759L162.718 104.009L162.791 104.124L162.878 104.457L163.025 104.77L162.99 104.984L163.052 105.195L162.454 105.336L162.4 105.313L162.364 105.236L162.381 104.638L162.376 103.962L162.283 103.685L162.01 103.241L161.647 102.653L161.548 102.484L161.395 102.387L161.213 102.374L161.08 102.416L160.903 102.525L160.735 102.644L160.41 102.999L160.084 103.413L159.892 103.507L159.701 103.545L159.532 103.533L159.396 103.421L159.256 103.195L159.088 102.894L158.888 102.796L158.81 102.889L158.744 103.065L158.692 103.241L158.827 103.464L158.943 103.636L158.744 103.631H158.1H157.356H156.614H155.947H155.33L155.095 103.616L154.855 103.515L154.625 103.467L154.504 103.475L154.286 103.573L154.004 103.588L153.813 103.681L153.66 103.67L153.658 104.188L153.653 104.926L153.649 105.709L153.82 105.649L153.968 105.654L154.076 105.71L154.38 105.665L154.548 105.688L154.708 105.709L154.855 105.711L154.946 105.773L155.068 105.761L155.199 105.693L155.355 105.736L155.523 105.846L155.631 106.01L155.728 106.214L155.825 106.322L155.819 106.517L155.816 106.67L155.782 106.797L155.825 106.88L155.856 106.968L155.847 107.018L155.791 107.042L155.668 107.059L155.538 107.073L155.446 107.068L155.375 106.989L155.307 106.98L155.208 106.991L155.102 106.944L155.011 106.845L154.848 106.746L154.675 106.788L154.556 106.839L154.433 106.901L154.321 106.966L154.21 106.95L154.068 106.997L153.949 107.07L153.789 107.13L153.615 107.158L153.416 107.186L153.226 107.197L153.009 107.221L152.997 107.633L152.972 108.443L152.955 108.979L152.956 109.473L153.04 109.653L153.423 110.034L153.723 110.234L153.978 110.459L154.231 110.552L154.337 110.637L154.407 110.775L154.442 110.92L154.469 111.044L154.442 111.176L154.379 111.301L154.406 111.433L154.497 111.536L154.525 111.668L154.588 111.793L154.623 111.918L154.7 112.008L154.797 112.07L154.922 112.174L154.935 112.271L154.922 112.381L154.92 112.464L155.04 112.655L155.075 112.789L155.02 112.947L154.965 113.5L154.828 114.13L154.739 114.611L154.596 115.393L154.429 116.304L154.226 117.415L154.024 118.512L153.83 119.574L153.655 120.534L153.461 121.594L153.344 122.236L153.287 122.347L153.125 122.114L152.88 121.895L152.65 121.763L152.552 121.589L152.42 121.236L152.236 121.115L152.106 121.022L151.981 121.035L151.848 121.132L151.643 121.194L151.505 121.185L150.947 120.942L150.856 120.918L151.214 120.362L151.855 119.368L152.263 118.735L152.714 118.033L152.945 117.675L152.976 117.614V117.522L152.878 117.386L152.66 117.328L152.408 117.223L152.249 117.053L152.03 116.98L151.858 116.86L151.546 116.741L151.36 116.632L151.131 116.593L150.95 116.392L150.289 116.004L150.119 115.968L149.933 116.027L149.66 116.089L149.398 116.301L149.07 116.37L148.764 116.368L148.604 116.241L148.451 116.195L148.25 116.023L147.897 115.89L147.64 115.798L147.481 115.84L147.277 116.033L147.071 116.224L146.908 116.344L146.688 116.337L146.426 116.513L146.168 116.576L145.908 116.603L145.608 116.665L145.276 116.559L145.004 116.465L144.882 116.423L144.772 116.452L144.6 116.55L144.294 116.592L144.054 116.602L143.884 116.556L143.731 116.386L143.483 116.299L143.211 116.193L143.153 115.973L143.193 115.809L143.299 115.572L143.24 115.328L143.125 114.943L143.077 114.785L142.991 114.651L142.857 114.603L142.595 114.639L142.308 114.494L142.131 114.354L142.04 114.184L142.136 113.863L142.051 113.589L141.88 113.438L141.769 113.171L141.598 112.96L141.373 112.851L141.146 112.863L140.97 112.797L140.768 112.571L140.579 112.487L140.365 112.268L139.966 112.171L139.759 112.086L139.641 111.951L139.481 111.71L139.499 111.577L139.421 111.445L139.353 111.21L139.216 110.862L139.066 110.664L138.912 110.515L138.782 110.389L138.588 110.201L138.35 110.091L138.149 109.977L138.07 109.807L138.002 109.667L137.889 109.677L137.726 109.665L137.548 109.629L137.36 109.527L137.203 109.405L136.938 109.196L136.794 109.169H136.666L136.476 109.373L135.91 109.159L135.425 108.841L134.921 108.759L134.596 108.566L134.295 108.261L134.133 108.055L134.001 107.954L133.36 107.659L133.233 107.631L132.989 107.768L132.91 107.85L132.895 108.086L132.866 108.22L132.653 108.301L132.31 108.283L132.072 108.197L131.912 108.185L131.879 108.252L131.789 108.281L131.594 108.261L131.307 108.196L131.047 108.109L130.695 107.925L130.531 107.948L130.13 107.909L129.803 107.803L129.719 107.706L129.578 107.042L129.534 106.996L129.393 106.968L129.155 106.875L129.005 106.768L128.928 106.584L128.834 106.409L128.434 106.448L127.779 106.218L127.325 105.998L126.91 105.755L126.279 105.275L126.039 105.157L125.742 105.01L125.566 104.774L125.277 104.535L125.18 104.47L125.089 104.255L124.656 103.942L124.87 103.538L125.391 103.234L126.073 103.47L126.156 102.999L125.91 102.582L125.947 101.795L126.027 101.637L126.207 101.427L126.441 101.28L126.579 101.239L126.813 101.311L126.96 101.153L127.517 101.224L127.686 101.158L127.802 101.051L127.938 100.97L128.111 100.78L128.212 100.562L128.295 100.476L128.487 100.507L128.505 100.412L128.605 100.284L128.941 99.9967L128.938 99.8694L128.843 99.5924L128.867 99.491L129.062 99.4561L129.293 99.3784L129.415 99.1138L129.567 98.8829L129.741 98.5428L129.932 98.5214L130.034 98.1239L130.292 97.7759L130.816 96.7443L130.658 96.7669L130.531 96.9054L130.388 96.8885L130.225 96.8074L130.272 96.3423L130.179 96.2871L129.926 96.6453L129.707 96.2804L129.687 96.0585L129.779 95.8389L129.766 95.6914L129.412 95.8018L129.429 95.6644L129.648 95.5236L129.749 95.3772L129.94 95.2173L130.02 94.9763L130.066 94.6013L130.153 94.1993L130.089 94.0011L129.985 93.8321L129.898 93.0821L129.922 92.6452L129.877 92.3017L129.787 92.0112L129.367 91.6294L130.03 91.1924L130.268 90.8625L129.966 90.1834L129.572 89.6102L129.561 89.2667L129.664 89.3106L129.797 89.3005L129.918 88.5753L129.889 88.3512L129.668 87.9885L129.393 87.9795L129.152 87.5234L129.013 87.421L128.902 87.1338L128.513 86.5741L128.206 86.2824L128.437 85.6067L128.638 85.4772L128.704 85.3094L128.625 84.8939L128.647 84.797L128.695 84.7554L128.742 84.7576L128.823 84.8207L128.974 84.9997L129.1 85.2216L129.201 85.2891L129.355 85.2159L129.947 84.7734L129.909 84.636L129.963 84.359L130.161 84.1326L130.373 84.0549L130.436 83.9288L130.385 83.734L130.162 83.2486L129.964 82.9873L129.837 82.7272L129.769 82.4873L129.544 82.2609L129.638 82.047L129.813 81.797L129.873 81.7531L129.967 81.8218L130.228 82.2756L130.644 82.5706L131.08 83.047L131.259 83.3758L131.401 83.4355L131.524 83.5538L131.469 83.6427L131.333 83.7362L131.294 83.9265L131.383 84.0335L131.476 84.1022L131.731 84.0583L131.87 83.8353L131.777 82.8567L131.63 82.3668L131.46 82.2148L131.308 82.0211L131.411 81.8747L131.682 81.8082L132.038 81.6371L133.342 80.7012L133.789 79.8217L134.132 79.503L134.518 79.2958L134.991 79.3442L135.358 79.2339L135.472 78.9535L135.372 78.5739L135.231 78.3442L135.366 78.012L135.507 77.5063L135.497 77.0818L135.678 76.8284L135.615 76.7293L135.35 76.9343L135.141 77.0266L135.259 76.8577L135.629 76.4388L135.822 75.8002L135.97 75.5345L136.492 75.1628L136.596 74.9838L136.991 74.7045L137.627 74.1054L137.871 73.9387L139.104 74.325L139.496 74.3002L139.426 74.3712L139.244 74.3948L138.983 74.4995L138.908 74.7304L139.084 74.9714L139.273 75.0412L139.432 74.8858L139.591 74.4432L139.847 73.9533L139.907 73.4398L140.088 73.263L140.353 73.1988L140.826 73.3002L141.185 73.406L141.56 73.4196L142.71 73.3419L144.579 72.0074L145.447 71.7202L145.991 71.4387L146.338 70.8902L146.431 70.4781L146.687 70.3181H146.955L147.078 70.2179L147.116 70.0906L147.763 69.7337L148.133 69.6875L148.461 69.6942L149.193 70.0051L149.532 70.5546L149.588 70.933L149.124 71.344L149.003 71.5242ZM127.53 101.054L127.445 101.124L127.281 101L127.226 100.842L127.326 100.725L127.455 100.764L127.513 100.859L127.53 101.054Z" fill="#108AB4"/>
<path d="M110.056 74.5502L110.135 74.6775L110.226 74.8768L110.266 75.1336L110.668 75.9928L110.989 76.4726L111.692 77.3464L111.995 77.5075L112.507 78.2091L112.684 78.3251L112.786 78.5323L113.317 78.7023L113.465 78.8284L113.447 78.887L113.391 78.949L113.314 79.0109L113.21 79.0537L112.96 78.9253L112.713 78.78L112.578 78.8465L112.528 79.0357L112.436 79.1325L112.323 79.1708L112.275 79.2339L112.265 79.8713L112.274 80.4715L112.46 80.485L112.771 80.6933L112.904 80.8161L112.945 80.9298L112.907 80.985L112.68 81.1157L112.458 81.2812L112.347 81.4873L112.541 81.8218L112.583 82.0481L112.576 82.2857L112.522 82.3995L112.093 82.6709L111.999 82.7666L112.011 82.8353L112.248 83.0233L112.36 83.2047L112.453 83.4231L112.467 83.6135L112.252 83.261L111.954 82.9243L111.695 82.717L111.675 82.2339L111.572 81.9715L111.182 81.7294L110.849 81.5594L110.601 81.5943L110.753 81.8724L111.144 82.2294L111.169 82.3657L111.164 82.5493L110.895 82.5211L110.656 82.4468L110.367 82.4231L110.174 82.3139L109.765 81.8871L110.056 81.5244L110.146 81.2857L110.138 80.7902L110.071 80.5503L109.756 80.1855L109.255 79.7834L108.552 79.4557L108.222 79.1911L107.399 78.9883L107.086 78.8543L106.842 78.6055L106.806 78.4264L106.892 78.1505L106.665 77.8003L105.685 77.1099L105.137 76.8566L105.02 76.7068L104.933 76.6606L105.016 77.137L105.256 77.4241L105.881 77.691L106.053 77.8476L106.123 78.0503L105.761 78.4377L105.575 78.5357L105.521 78.7474L105.402 78.8116L105.277 78.6899L104.771 78.0818L103.79 77.7901L103.612 77.6111L103.247 77.0548L103.079 76.548L103.139 76.209L103.542 75.6809L103.668 75.4511L103.642 75.3092L103.655 75.1009L103.505 74.9556L103.132 74.7653L102.895 74.6133L102.96 74.5378L103.387 74.3329L103.414 74.1482L103.411 74.0874L103.481 74.0738L103.543 74.0254L103.581 73.9736L103.697 73.7957L103.8 73.6955L103.918 73.6797L104.061 73.7529L104.6 73.9455L105.199 74.1583L106.051 74.4601L106.405 74.2664L106.709 74.1189L106.921 74.1403L107.379 74.3126L107.655 74.3678L107.824 74.3497L108.116 74.6031L108.276 74.7935L108.303 74.9196L108.392 74.9883L108.621 75.0029L109.18 75.1313L109.521 75.1065L109.832 74.9703L110.003 74.807L110.056 74.5502Z" fill="#108AB4"/>
<path d="M115.759 34.2259L116.587 34.3847L117.256 34.3397L117.576 34.2462L117.546 34.3419L117.84 34.5773L117.947 34.593L118.38 34.4737L119.509 34.4286L119.625 34.4951L119.825 34.7248L120.113 34.8667L120.411 34.9748L120.723 35.003L121.034 34.9545L121.326 34.9782L121.691 35.2012L121.805 35.2271L122.132 35.1662L122.036 35.3712L122.586 35.6572L122.989 36.2203L123.282 36.4512L123.592 36.6584L123.853 36.7992L124.146 36.8667L125.034 36.8397L125.245 36.8566L125.433 36.9366L125.612 36.9681L125.715 36.9377L127.432 37.8116L127.978 38.2778L128.311 38.5199L129.033 38.869L129.323 38.9456L129.475 38.8994L129.445 38.8229L129.234 38.6292L129.202 38.5582L129.473 38.6179L129.963 39.012L130.098 39.1573L130.343 39.2925L130.589 39.3893L130.472 39.5447L130.272 39.5582L129.888 39.494L130.193 39.7474L130.245 39.931L130.387 39.9467L130.598 39.7452L130.732 39.5751L131.272 40.0143L131.562 40.2148L131.488 40.3319L131.464 40.4479L131.789 40.3398L131.912 40.3522L132.03 40.4141L132.159 40.6022L132.462 40.6438L132.767 40.6393L133.387 40.7948L133.974 41.1112L134.525 41.1754L135.082 41.1866L135.363 41.3533L135.483 41.5785L135.347 41.7373L135.271 41.9029L135.478 42.1067L135.026 42.1934L134.962 42.3162L134.986 42.4479L135.076 42.52L135.334 42.4569L135.708 42.5133L136.297 42.5628L136.691 42.5223L137.493 42.6608L137.736 42.7351L138.211 42.9952L138.431 43.1664L138.903 43.6281L139.309 43.8095L139.662 43.8534L139.784 43.823L139.896 43.8736L139.994 43.9378L140.091 44.1394L140.037 44.3511L139.835 44.5234L139.724 44.6484L139.22 44.6631L138.516 44.7205L137.836 44.9074L137.504 45.0561L137.352 45.1541L136.994 45.2453L136.97 45.1676L136.977 45.0696L136.884 44.8883L136.802 45.0516L136.67 45.171L136.445 45.2723L135.619 45.2791L135.287 45.1417L134.945 45.0482L133.702 44.9502L133.404 44.9581L132.574 45.0606L131.739 45.1158L131.39 45.1789L131.044 45.2734L130.372 45.2701L129.578 45.3782L128.782 45.3984L129.292 44.6405L130.368 43.9097L130.57 43.752L130.714 43.5504L130.748 43.3984L130.701 43.2689L130.444 43.0391L130.392 42.8691L130.316 42.7587L129.943 42.663L129.566 42.6056L129.168 42.6045L128.334 42.5256L127.89 42.52L127.514 42.3635L126.89 41.8071L126.598 41.6506L126.449 41.5256L126.332 41.3815L126.185 40.5616L126.061 40.1675L125.872 39.824L125.584 39.5638L125.282 39.4749L124.124 39.6979L123.855 39.6641L123.593 39.5886L121.845 39.056L121.124 38.7632L120.83 38.6179L120.579 38.4107L120.319 38.0706L120.027 37.7665L120.028 37.8893L119.983 37.9692L118.521 38.0053L118.287 37.9355L118.138 37.8521L118.032 37.7294L117.953 37.4827L117.813 37.2755L117.768 37.4962L117.696 37.7001L117.5 37.8138L117.276 37.833L117.005 37.5627L115.819 37.5064L115.714 37.4602L115.325 37.1978L114.992 36.869L115.322 36.753L116.005 36.601L116.152 36.4996L116.238 36.369L116.176 36.1753L116.04 36.0345L115.9 35.9523L115.746 35.9005L115.542 35.878L112.903 35.8431L112.751 35.9489L112.515 36.164L112.046 36.4399L111.738 36.726L111.622 36.8735L111.478 36.9794L111.153 37.1561L110.876 37.4287L110.541 37.5503L110.357 37.476L110.176 37.4771L110.044 37.5447L109.905 37.5751L109.229 37.6077L109.127 37.6776L109.03 37.8724L108.92 38.2519L108.816 38.3769L108.478 38.4242L108.154 38.5278L107.497 38.8882L107.327 38.9411L107.364 38.6764L107.331 38.4186L107.145 38.4096L106.934 38.4523L106.757 38.5244L106.43 38.717L106.265 38.7654L106.11 38.6674L106.142 38.5413L107.231 38.0774L107.352 38.0424L107.546 38.0774L107.735 38.0616L107.883 37.931L107.704 37.3161L107.773 36.8971L108.025 36.5728L108.529 36.0807L108.773 35.9185L111.26 34.8903L111.515 34.8374L113.132 34.6302L113.379 34.5581L114.129 34.2529L114.916 34.1279L115.759 34.2259ZM123.622 35.9275L123.628 36.0176L123.075 35.7676L122.837 35.5075L122.741 35.4478L122.897 35.4421L123.519 35.8689L123.622 35.9275ZM125.896 36.3082L126.329 36.3802L126.48 36.3363L126.624 36.3239L126.776 36.3543L126.989 36.637L126.802 36.6719H126.654L126.544 36.6212L126.155 36.6088L125.898 36.5266L125.757 36.4557L125.688 36.3701L125.896 36.3082ZM127.801 37.2158L127.737 37.2721L127.566 37.146L127.318 37.0908L127.173 36.8937L127.033 36.8183L127.022 36.7462L127.252 36.6989L127.411 36.7203L127.589 36.8701L127.692 37.1471L127.801 37.2158ZM128.268 37.7519L128.165 37.7609L127.851 37.6201L127.757 37.5019L127.868 37.3431L127.891 37.1708L127.934 37.1595L127.985 37.369L128.225 37.458L128.239 37.5041L128.387 37.6809L128.268 37.7519ZM128.934 38.3465L128.805 38.4501L128.663 38.3003L128.573 38.2846L128.448 38.2249L128.205 38.0582L128.147 37.8859L128.348 37.8724L128.603 37.9028L129.048 38.0008L129.008 38.1956L128.934 38.3465ZM113.47 39.6325L113.176 39.8116L112.549 40.0639L112.212 40.0729L111.872 39.9783L111.637 39.7677L111.503 39.5593L111.515 39.4591L111.728 39.6258L111.911 39.708L112.062 39.6528L112.169 39.5627L111.824 38.8893L111.84 38.7474L112.114 38.3769L112.858 38.4895L112.988 38.5548L113.091 38.7891L113.257 38.9726L113.452 39.4636L113.47 39.6325Z" fill="#108AB4"/>
<path d="M180.726 60.5813L180.43 60.6522L180.303 60.0902L180.096 59.6815L180.132 59.4269L180.169 59.3301L180.605 59.4866L180.741 59.6769L180.823 60.177L180.726 60.5813Z" fill="#108AB4"/>
<path d="M147.585 51.433L147.598 50.8879L147.683 50.6661L147.605 50.4329L147.255 50.1852L147.041 49.8654L146.851 49.5827L146.893 49.5422L147.274 49.5298L147.408 49.4251L147.664 49.1356L147.714 48.9025L147.694 48.7257L147.527 48.5151L147.462 48.2921L147.667 48.0984L147.936 47.8147L147.973 47.7054L147.968 47.5973L147.654 47.2989L147.632 47.1694L147.779 46.845L147.764 46.63L147.619 45.9576L147.55 45.8574L147.69 45.8011L147.782 45.6007L147.904 45.4216L148.066 45.3259L148.25 45.2651L148.616 45.2707L149.123 45.4261L149.267 45.4238L149.754 45.2819L150.157 45.2031L150.538 45.2932L150.692 45.4148L151.005 45.6074L151.163 45.6649L151.658 45.6614L151.794 45.6806L152.21 45.9982L152.56 46.1254L152.764 46.131L153.129 46.0083L153.31 46.0117L153.517 46.2854L153.558 46.6739L153.731 47.0275L153.997 47.2538L155.307 47.1592L155.599 47.345L155.499 47.4982L155.314 47.5804L154.691 47.5444L154.419 47.5624L154.364 47.7156L154.363 47.8575L154.727 47.8912L155.084 47.9622L155.449 48.0771L155.818 48.1548L156.235 48.2054L156.646 48.2876L157.331 48.5658L158.086 49.1964L158.289 49.3406L158.423 49.5377L158.359 49.782L158.088 50.1807L157.935 50.3079L157.712 50.3868L157.559 50.5489L157.412 50.8271L157.322 50.8507L157.216 50.8395L157.034 50.6818L156.905 50.4397L156.539 50.2122L156.105 50.2415L155.466 50.1075L155.079 50.1717L154.692 50.1875L154.297 50.1188L153.898 50.0951L153.5 50.1807L153.115 50.326L152.973 50.4194L152.726 50.6458L152.594 50.7303L151.656 50.844L151.387 50.6773L151.136 50.4499L150.775 50.4194L150.252 50.5951L149.925 50.6593L149.792 50.7336L149.753 50.8203L149.752 51.1379L149.678 51.3305L149.168 52.058L148.881 52.5715L148.763 52.7292L148.625 52.7641L148.374 52.469L148.214 52.3632L148.016 52.3091L147.932 52.1526L147.935 51.9296L147.883 51.7134L147.76 51.5433L147.585 51.433Z" fill="#108AB4"/>
<path d="M136.472 109.37L136.295 109.482L136.112 109.495L135.867 109.53L135.526 109.422H135.392L135.373 109.531L135.599 109.664L135.819 109.816L135.898 110.047L136.028 110.32L136.342 110.627L136.538 110.78L136.551 110.889L136.489 111.089L136.473 111.256L136.581 112.025L136.509 112.073L136.393 112.076L136.27 112.073L136.169 111.989L136.081 111.94L136.042 112.058L135.951 112.4L135.746 113.171L135.567 113.845L135.341 114.084L135.016 114.463L134.57 114.983L133.923 115.735L133.446 116.084L133.07 116.359L132.63 116.676L132.062 117.086L131.425 117.316L130.537 117.636L129.909 117.862L129.446 118.02L128.964 118.184L128.326 118.402L128.081 118.607L127.672 119.109L127.482 119.351L127.308 119.559L127.272 119.654L127.296 119.715L127.379 119.816L127.387 119.921L127.272 119.986L127.173 119.996L127.129 119.944L127.097 119.83L126.991 119.712L126.868 119.679L126.797 119.707L126.792 119.814L126.631 120.328L126.625 120.578L126.557 120.677L126.562 120.902L126.4 121.11L126.329 121.296L126.279 121.453L126.149 121.563L126.101 121.734L125.981 122.099L125.84 122.385L125.741 122.629L125.723 122.813L125.798 122.942L125.824 123.047L125.757 123.235L125.719 123.376L125.539 123.471L125.165 123.699L125.02 123.855L124.963 124.032L125 124.183L124.984 124.308L124.806 124.355L124.743 124.462L124.623 124.655L124.486 124.723L124.137 124.62L123.879 124.619L123.68 124.526L123.464 124.248L123.286 124.015L123.141 123.714L123.096 123.3L122.901 123.179L122.709 123.035L122.48 123.075L122.207 123.102L122.056 123.006L121.683 122.832L121.366 122.634L121.126 122.534L120.942 122.582L120.832 122.701L120.639 122.914L120.354 123.062L120.226 123.055L120.054 122.957L120.022 122.842L120.163 122.66L120.45 122.259L120.132 122.248L120.021 122.123L120.005 121.978L119.954 121.822L120.017 121.634L120.183 121.534L120.434 121.612L120.607 121.618L120.722 121.441L120.836 121.363L120.951 121.306L120.999 121.217L120.877 120.934L120.841 120.78L120.878 120.691L120.873 120.514L120.868 120.384L120.795 120.269L120.789 120.098L120.726 120.004L120.705 119.905L120.7 119.79L120.621 119.733L120.538 119.674L120.607 119.634L121.059 119.475L121.248 119.316L121.481 119.172L121.681 118.95L121.813 118.738L122.125 117.753L122.419 117.131L122.369 116.834L122.126 116.432L122.071 115.84L122.093 115.659L122.063 115.523L121.901 115.769L121.942 116.641L121.799 117.034L121.599 117.129L121.468 117.06L121.543 116.423L121.396 116.539L121.162 116.971L120.778 117.292L120.757 117.399L120.663 117.531L120.367 117.409L120.141 117.278L119.398 116.558L118.911 116.407L118.617 116.156L118.555 116.05L118.52 115.905L118.821 115.754L119.128 115.551L119.159 115.105L119.151 114.755L118.923 114.156L119.03 113.374L118.972 113.068L118.711 112.418L118.904 112.091L119.592 111.852L119.813 111.692L119.967 111.176L120.124 110.868L120.43 110.991L120.67 110.977L120.345 110.862L120.082 110.397L120.038 110.185L120.547 109.55L120.814 109.384L121.142 109.049L121.418 108.542L121.484 107.743L121.37 107.172L121.285 106.567L121.449 106.41L121.868 106.33L122.208 106.136L122.38 105.955L122.785 105.982L123.252 105.703L123.999 105.562L125.039 105.244L125.269 104.962L125.165 104.461L125.262 104.526L125.552 104.765L125.727 105.001L126.025 105.148L126.265 105.266L126.895 105.746L127.311 105.989L127.765 106.209L128.42 106.44L128.82 106.4L128.913 106.575L128.991 106.759L129.141 106.866L129.378 106.959L129.519 106.987L129.563 107.033L129.705 107.697L129.788 107.794L130.116 107.9L130.517 107.94L130.68 107.916L131.033 108.101L131.293 108.187L131.58 108.253L131.775 108.272L131.865 108.244L131.898 108.176L132.057 108.188L132.295 108.274L132.639 108.292L132.851 108.211L132.881 108.077L132.895 107.842L132.974 107.759L133.218 107.622L133.346 107.65L133.987 107.945L134.118 108.047L134.28 108.253L134.581 108.557L134.907 108.75L135.41 108.833L135.895 109.15L136.472 109.37ZM125.016 105.103L124.838 105.126L124.755 104.977L124.972 104.802L125.046 104.768L125.016 105.103ZM85.9416 108.957L86.1376 109.159L86.2445 109.736L86.8786 110.344L86.9574 110.684L86.9011 110.842L86.9304 110.904L87.2356 111.143L87.4349 111.396L87.1004 111.987L86.3876 112.236L85.6274 112.228L85.4776 112.164L85.2738 111.937L85.2366 111.738L85.3538 111.546L85.7468 111.253L86.3459 110.991L86.4202 110.791L86.1803 110.596L86.0148 110.209L85.6364 109.937L85.4484 109.11L85.3222 109.068L85.0655 109.182L84.9393 109.082L84.9179 109.029L85.195 108.841L85.2524 108.705L85.6623 108.64L85.838 108.748L85.9416 108.957ZM88.1489 110.085L88.0025 110.18L87.4067 110.07L87.2209 109.888L87.3707 109.639L87.4968 109.54L87.8527 109.632L88.2142 109.91L88.1489 110.085ZM85.4562 110.482L85.1387 110.538L84.8718 110.43L84.758 110.263L84.7344 110.012L84.758 109.928L85.347 109.837L85.5396 110.048L85.5373 110.356L85.4562 110.482ZM88.9045 111.458L88.7401 111.463L88.2502 111.159L88.2829 110.861L88.4788 110.66L89.1128 110.558L89.3786 110.747L89.355 111.104L89.1387 111.365L88.9676 111.413L88.9045 111.458ZM91.7998 111.896L91.4271 112.025L91.2987 111.967L91.2187 111.903L91.1996 111.825L91.4057 111.631L91.6061 111.526L91.7863 111.303L92.1163 111.171L92.2131 111.201L92.2785 111.247L92.3032 111.321L92.1906 111.502L91.9902 111.628L91.7998 111.896ZM88.623 113.243L88.4957 113.248L88.3212 113.113L88.4552 112.868L88.5982 112.927L88.7029 112.998L88.7649 113.093L88.623 113.243ZM121.153 118.373L121.092 118.495L120.791 118.484L120.705 118.444L120.707 118.306L120.778 117.865L120.86 117.681L121.107 117.502L121.313 117.415L121.576 117.431L121.856 117.594L121.527 117.889L121.343 117.934L121.272 117.972L121.153 118.373Z" fill="#108AB4"/>
<path d="M179.357 71.0416L179.146 71.0539L179.23 70.9357L179.248 70.733L179.358 70.4863L179.531 70.3208L179.699 70.3647L179.636 70.9075L179.357 71.0416Z" fill="#108AB4"/>
<path d="M180.583 57.3783L180.211 57.4143L179.967 57.3861L179.91 57.1519L180.035 56.9537L179.945 56.7127L180.003 56.5697L180.128 56.4751L180.333 56.6012L180.365 56.7814L180.494 56.9458L181.071 57.2972L180.583 57.3783ZM179.754 58.1091L179.498 58.2555L179.373 58.2105L179.218 57.9289L179.108 57.1474L179.193 57.0179L179.254 56.9695L179.59 57.0652L179.731 57.1755L179.872 57.2454L179.801 57.3884L179.836 57.9751L179.754 58.1091ZM180.889 58.492L180.713 58.5044L180.635 58.4762L180.612 58.2803L180.748 58.1452L180.828 58.1125L180.946 58.2645L180.974 58.3907L180.889 58.492Z" fill="#108AB4"/>
<path d="M92.6126 52.1726L92.5822 52.9722L92.5473 53.8979L92.5214 54.5769L92.4865 55.4824L92.4515 56.4069L92.4031 57.6648L92.3727 58.4757L92.3874 58.4948L92.7646 58.4554L93.3221 58.4914L93.4583 58.4892L93.6284 58.559L93.7601 58.5804L94.0439 58.7628L94.3761 58.9014L94.589 58.6221L94.4775 58.4543L94.393 58.3687L94.4066 58.2932L95.562 59.0162L95.4257 59.1277L95.1318 59.3845L94.598 59.8248L94.1205 60.2178L93.6599 60.5737L93.2466 60.8947L93.1971 60.9262L92.6723 61.1559L92.5844 61.2607L92.4718 61.7134L92.42 61.826L92.5157 62.0771L92.6103 62.4645L92.5799 62.6684L92.2173 62.9172L92.0507 63.1413L91.9775 63.2866L91.9121 63.2494L91.7995 63.2382L91.5405 63.2945L91.4144 63.3069L91.3108 63.3711L91.2995 63.5107L91.3693 63.737L91.3941 63.8531L91.3209 63.9071L91.0011 64.0434L90.8749 64.1774L90.7545 64.3846L90.6148 64.4724L90.4684 64.4567L90.3648 64.4871L90.143 64.6436L89.8096 64.9454L89.6317 65.1695L89.6272 65.3362L89.6621 65.4871L88.4481 64.9555L88.0449 64.8643L86.34 64.8756L85.6091 64.6661L84.7769 64.263L84.2126 63.8959L82.8984 62.8677L82.9806 62.7843L83.0505 62.5929L83.1361 62.3947L83.0831 62.1661L83.0516 61.9814L83.1496 61.7111L83.1406 61.5095L83.1856 61.3845L83.3297 61.3035L83.4052 61.1492L82.9953 60.6176L82.9964 60.496L83.0505 60.3462L83.3815 59.7775L83.7768 59.1007L84.2115 58.3529L84.4739 57.9025L85.43 57.9014L86.0629 57.9002H86.867L87.7398 57.8991H88.313L88.5494 57.8935L88.5089 57.6007L88.5404 57.2763L88.644 56.9824V56.8529L88.4729 56.693L88.1429 56.6007L87.9582 56.4599L87.9571 56.2819L87.8771 56.0669L87.7161 55.8135L87.3839 55.5544L86.8782 55.2887L86.4481 54.9328L86.0933 54.4857L85.7938 54.1985L85.5618 54.0781L85.5077 54.015L86.1845 54.0195L86.8242 54.0251L86.8287 53.3832L86.8321 52.8134L86.8366 52.167L87.9965 52.1681L89.3828 52.1693L90.8198 52.1715L91.9482 52.1726H92.6126Z" fill="#108AB4"/>
<path d="M193.643 91.5908L193.476 91.789L193.445 91.9162L193.337 92.1403L193.253 92.262L193.375 92.5413L193.515 92.5536L193.569 92.5897L193.604 92.6437L193.596 92.7034L193.542 92.7563L193.408 92.8239L193.281 92.9849L193.293 93.1629L193.213 93.2552L192.956 93.3048H192.454L192.209 93.3172L192.012 93.3475L191.882 93.4624L191.718 93.5435L191.588 93.5615L191.474 93.6956L191.361 93.8847L191.399 94.0154L191.516 94.1877L191.585 94.3645L191.495 94.6517L191.396 94.8735L191.337 95.0424L191.257 95.3667L191.064 95.7249L190.927 95.9276V96.1494L190.997 96.4625L191.39 96.9197L191.521 97.1382L191.628 97.4884L191.982 97.7643L192.206 97.9873L192.185 98.2812L192.215 98.3736L192.354 98.4479L192.523 98.5042L192.709 98.4997L192.875 98.4749L192.914 98.4333L193.299 98.4276L193.343 98.502L193.365 98.9254L193.381 99.0977L193.472 99.1664L193.527 99.2722L193.531 99.3668L193.548 99.6044L193.605 99.7295L193.596 99.9817L193.636 100.075L193.742 100.138L193.876 100.32L193.927 100.342L193.953 100.406L194.068 100.664L194.126 100.742L194.167 100.753L194.185 100.843L194.268 101.084L194.325 101.144L194.432 101.321L194.476 101.514L194.617 101.733L194.763 101.886L194.828 102.045L195.014 102.395L195.194 102.642L195.437 102.706L195.641 102.741L195.768 102.835L195.893 102.938L195.759 102.985L195.639 103.048L195.471 103L195.239 103.026L194.998 103.096L194.775 103.129L194.355 103.019L194.228 103.003L194.14 102.956L193.967 102.739L193.883 102.713L193.66 102.814L193.389 102.885L193.256 102.871L193.099 102.945L192.954 103.043L192.677 103.467L192.534 103.617L192.381 103.686L192.074 103.683L191.745 103.699L191.498 103.802L191.268 103.853L191.153 103.86L191.114 104.093L191.061 104.201L190.989 104.263L190.81 104.281L190.649 104.273L190.552 104.177L190.371 104.128L190.21 104.093L190.106 104.038L190.022 104.052L189.952 104.148L189.897 104.232L189.848 104.385L189.604 104.433L189.499 104.52L189.56 104.805L189.532 104.916L189.481 105.003L189.186 105.02L188.935 105.014L188.791 105.119L188.611 105.242L188.501 105.264L188.372 105.258L188.202 105.115L188.037 104.94L187.621 104.817L187.207 104.716L186.936 104.438L186.872 104.302L186.745 104.241L186.422 103.911L186.245 103.699L186.052 103.642L185.831 103.554L185.84 103.4L185.826 103.252L185.73 103.191L185.597 103.152L185.549 103.068L185.562 102.875L185.588 102.374L185.551 101.895L185.255 101.73L185.126 101.616L184.901 100.907L184.795 100.589L184.791 100.351L184.865 99.6439L184.949 99.3375L185.179 98.7238L185.311 98.5155L185.319 98.3601L185.305 98.1607L185.238 97.7666L185.625 97.5177L185.792 97.413L185.82 97.2463L186.027 97.0357L186.12 96.8353L186.196 96.6776L186.175 96.5943L186.085 96.5458L185.978 96.396L185.754 95.9636L185.672 95.8758L185.604 95.7542L185.639 95.5638L185.727 95.3555L185.715 95.2688L185.581 95.1573L185.304 94.9703L185.074 94.9568L184.897 94.8893L184.635 94.8803L184.427 94.86L184.308 94.7902L184.332 94.6753L184.384 94.5875L184.56 94.369L184.677 94.137L184.693 93.9095L184.729 93.6111L184.779 93.351L184.806 93.0581L184.531 92.8656L184.443 92.7068L184.329 92.566H184.203L184.014 92.5063L183.719 92.691L183.486 92.6572L183.326 92.727L182.956 92.7124L182.719 92.6223L182.433 92.682L181.762 91.9399L181.089 91.1932L180.426 90.459L180.382 90.3588L180.659 90.0085L180.907 89.7574L181.113 89.6144L181.211 89.4894L181.135 88.9488L181.14 88.7551L181.043 88.5434L180.974 88.3069L181.056 88.1087L181.157 87.9713L181.286 87.9173L181.595 87.87L181.813 87.8497L181.891 87.7709L182.017 87.6797L182.184 87.674L182.508 87.7382L182.657 87.6189L182.926 87.4567L183.529 87.1785L183.665 86.9961L183.759 86.7145L183.749 86.5805L183.687 86.531L183.537 86.4848L183.308 86.4781L183.124 86.5513L182.934 86.5107L182.776 86.3373L182.767 86.1931L182.86 85.9904L182.806 85.8553L182.505 85.4274L182.506 85.3091L182.725 85.1165L182.849 84.9533L183.019 84.5613L183.154 84.4307L183.574 84.3845L183.681 84.3012L183.895 84.094L184.215 83.8575L184.675 83.6683L184.806 83.3248L184.889 83.2302L185.255 83.0501L185.319 82.9532L185.31 82.8676L184.722 82.0962L184.839 82.148L185.294 82.6525L185.546 82.7617L185.599 82.764L185.602 82.6334L185.834 82.6874L186.43 83.0331L187.305 83.6019L188.534 84.6762L188.883 85.085L189.118 85.2776L189.483 85.746L189.59 85.9736L189.58 86.8846L189.256 87.4995L189.177 87.9623L189.16 88.5783L188.972 88.9308L189.221 88.7394L189.299 88.1842L189.512 87.8463L189.787 87.4758L190.156 87.3868L190.552 87.5445L190.872 87.5727L191.153 87.6819L191.753 88.2743L192.338 88.7427L192.552 89.1178L193.173 89.3058L193.54 89.602L193.658 89.8587L193.73 90.5277L193.611 91.539L193.643 91.5908Z" fill="#108AB4"/>
<path d="M103.012 56.621L102.771 56.8102L102.727 56.7246L102.843 56.5489L102.989 56.4487L103.129 56.4589L103.096 56.5343L103.012 56.621ZM101.277 56.8935L100.77 57.1492L100.611 57.1447L100.843 56.9476L101.218 56.7787L101.536 56.6954L101.796 56.7314L101.277 56.8935ZM111.588 61.4128L110.774 61.3644L110.39 61.4646L110.222 61.691L110.078 61.7923L109.957 61.7687L109.713 61.8576L109.345 62.0581L109.013 62.1335L108.717 62.0851L108.632 62.1335L108.608 62.2L108.563 62.2642L108.448 62.298L108.316 62.2799L108.169 62.209L108.091 62.2394L108.082 62.37L108.002 62.4049L107.851 62.343L107.681 62.3903L107.492 62.5468L107.226 62.5795L106.884 62.4894L106.619 62.3193L106.431 62.0693L106.206 62.0063L105.812 62.1921L105.647 62.4094L105.611 62.5423L105.65 62.6628L105.578 62.7428L105.394 62.7833L105.254 62.9309L105.16 63.1854L105.141 63.3824L105.198 63.5209L105.107 63.6223L104.867 63.6876L104.584 63.9072L104.258 64.2811L103.933 64.5412L103.61 64.6888L103.455 64.8532L103.466 65.0334L103.446 65.0897L103.384 65.1111L103.279 65.1358L102.656 64.7439L102.477 64.4703L102.323 64.512L102.127 64.6505L101.851 64.9579L101.556 65.3769L101.413 65.4241L100.675 65.3611L100.286 65.3982L100.206 65.4534L100.17 65.6066L100.192 65.8115L100.299 66.548L100.359 66.851L100.3 66.9445L100.102 66.9591L99.8444 67.0019L99.7036 67.1404L99.6698 67.2834L99.6563 67.4828L99.5752 67.6888L99.4164 67.8364L99.2588 67.8893L98.3793 67.9287L98.395 67.5886L98.1416 67.4501L97.9975 67.1663L97.8714 66.9748L97.913 66.86L97.9006 66.7237L97.5425 66.6179L97.2081 66.7001L97.0155 66.646L96.8736 66.5739L97.118 66.4062L97.1349 66.3037L97.056 66.2305L96.9761 66.1809L96.9997 65.9906L97.0493 65.7654L97.1867 65.2395L97.136 65.1471L96.9119 64.9883L96.6281 64.9726L96.315 65.0221L96.1641 64.941L96.0324 64.7597L95.8094 64.673L95.4141 64.8171L94.9952 65.0345L94.8668 65.1133L94.7609 65.1032L94.7136 64.9399L94.6922 64.7473L94.6663 64.7L94.4434 64.6313L94.1832 64.5818L94.0503 64.5288L93.9253 64.3982L93.6134 64.2282L93.5424 64.102L93.1258 63.8138L93.0413 63.6707L92.9456 63.566L92.7451 63.4331L92.5886 63.4647L92.0604 63.2991L91.9805 63.2845L92.0537 63.1392L92.2204 62.9151L92.583 62.6651L92.6134 62.4624L92.5188 62.075L92.4231 61.8239L92.4749 61.7112L92.5886 61.2585L92.6764 61.1538L93.2012 60.924L93.2496 60.8925L93.6641 60.5716L94.1235 60.2157L94.601 59.8227L95.1348 59.3824L95.4288 59.1245L95.565 59.013L95.8725 59.1042L96.1146 58.8959L96.2542 58.826L96.5819 58.5771L96.6833 58.5231L97.2306 58.4206L97.4952 58.4229L97.7272 58.6763L97.9108 58.8148L98.2565 58.6965L98.5459 58.6706L99.743 58.906L100.218 58.8024L101.091 58.7799L101.484 58.8384L102.038 58.5062L102.394 58.4386L102.812 58.2832L102.757 58.1233L102.656 58.0512L103.294 58.121L104.243 58.4589L105.254 58.3981L105.619 58.2157L105.855 58.1639L106.891 58.5107L107.163 58.7776L107.376 58.8035L107.542 58.7427L107.587 58.6875L107.383 58.629L107.289 58.5456L108.106 58.71L109.642 59.9679L109.673 60.0704L109.017 59.6988L108.67 59.727L108.579 59.7866L108.599 59.9893L108.631 60.0839L108.779 60.0952L108.89 60.04L109.161 60.1064L109.341 60.2416L109.559 60.4488L109.689 60.6729L109.83 60.6763L109.968 60.5412L110.23 60.5243L110.399 60.6752L110.519 60.6662L110.351 60.4319L109.956 60.1988L110.05 60.1887L110.926 60.6065L111.173 61.1312L111.38 61.2495L111.588 61.4128Z" fill="#108AB4"/>
<path d="M144.754 44.7911L144.882 44.8688L144.834 44.9634L144.515 44.9048L144.185 44.7979L144.077 44.8238L144.01 44.8103L143.818 44.7078L143.987 44.6289L144.161 44.603L144.353 44.6087L144.754 44.7911ZM147.55 45.8576L147.62 45.9567L147.765 46.629L147.78 46.8441L147.633 47.1684L147.655 47.2968L147.969 47.5964L147.974 47.7044L147.937 47.8137L147.669 48.0975L147.463 48.2912L147.528 48.5142L147.695 48.7259L147.716 48.9027L147.666 49.1358L147.41 49.4252L147.276 49.5288L146.896 49.5412L146.853 49.5829L147.042 49.8655L147.256 50.1854L147.606 50.4331L147.684 50.6662L147.599 50.887L147.585 51.432L147.317 51.1674L147.023 50.9466L146.846 50.861L146.662 50.8059L145.26 50.834L145.103 50.8723L144.981 50.9433L144.85 50.9782L144.465 51.0446L144.082 51.0592L143.187 50.8813L142.832 50.789L142.475 50.7304L142.065 50.7496L141.658 50.8036L141.331 50.932L141.087 51.1584L141.041 51.3689L140.897 51.423L140.567 51.0885L140.262 50.8509L139.917 50.6719L139.208 50.4162L139.079 50.2608L139.021 50.0727L139.308 49.4939L139.633 49.3881L139.812 49.3678L140.214 49.4387L140.607 49.5705L140.965 49.6561L141.52 49.6898L141.822 49.8317L143.954 50.0525L144.358 50.1223L144.516 50.0986L144.653 50.0119L144.768 49.8554L144.9 49.7383L145.532 49.7124L145.665 49.6595L145.757 49.4961L145.755 49.3261L145.383 49.0986L144.802 48.5986L144.291 48.0097L144.511 47.8103L144.427 47.4466L144.51 47.1099L144.632 46.7799L144.125 46.4972L143.526 46.2145L142.696 46.1256L142.44 46.0546L142.308 45.8429L142.427 45.5591L142.696 45.4015L143.005 45.3046L143.321 45.2371L144.084 45.156L144.84 45.2472L145.495 45.54L146.159 45.7697L146.998 45.8463L147.375 45.9296L147.55 45.8576ZM144.31 48.9871L144.255 49.2214L143.446 48.9432L142.791 48.5919L142.819 48.4015L143.153 48.3576L143.474 48.4748L143.948 48.709L144.31 48.9871Z" fill="#108AB4"/>
<path d="M130.222 50.0481L130.607 50.1663L131.006 50.2283L131.177 50.2317L131.338 50.27L131.702 50.5549L131.995 50.7103L133.104 51.0582L133.473 51.6585L133.543 51.8466L133.257 51.9569L132.896 51.9963L132.551 52.002L132.232 51.8882L132.094 51.8004L131.761 51.7576L131.845 51.6765L131.697 51.6394L131.513 51.6472L131.376 51.8781L131.225 52.0605L130.935 52.0425L130.823 51.8871L130.671 51.9569L130.547 52.0718L130.401 52.502L130.163 52.288L129.906 52.1101L129.582 52.0357L128.929 52.0233L128.621 51.9659L128.364 51.6022L128.263 51.4986L128.005 51.404L127.748 50.9862L127.656 50.9287L126.958 50.8398L126.815 50.6112L126.858 50.404L127.09 50.1506L127.204 50.0785L127.589 50.0898L127.957 50.0132L128.12 49.9051L128.288 49.833L129.622 50.0166L129.929 50.0177L130.222 50.0481Z" fill="#108AB4"/>
<path d="M176.464 54.0655L176.383 54.1173L176.239 53.9146L176.007 53.8594L175.806 53.7401L175.802 53.7142L175.805 53.6545L175.845 53.5847L175.947 53.5317L176.203 53.695L176.322 53.9L176.434 53.9935L176.464 54.0655ZM176.776 54.4552L176.617 54.525L176.482 54.4304L176.512 54.2018L176.641 54.195L176.769 54.2964L176.776 54.4552Z" fill="#108AB4"/>
<path d="M122.125 45.8784L121.978 45.9291L121.863 45.9088L122.122 45.7703L122.188 45.723L122.246 45.6982H122.305L122.381 45.7264V45.7478L122.125 45.8784ZM121.634 45.8908L121.603 45.9099L121.501 45.8953L121.269 46.0316L121.169 46.0237L121.199 45.9764L121.248 45.9314L121.302 45.8987L121.353 45.8852L121.515 45.8582L121.591 45.8548L121.644 45.8852L121.634 45.8908ZM117.239 47.0879L117.341 47.1521L117.47 47.1127L117.507 47.0417L117.994 47.0935L118.068 47.2321L117.696 47.2354L117.529 47.3244L117.446 47.3424L117.127 47.321L117.081 47L117.17 46.9663L117.239 47.0879Z" fill="#108AB4"/>
<path d="M181.95 65.2098L181.772 65.5476L181.426 65.3359L181.388 65.069L181.418 64.908L181.629 64.5994L181.793 64.399L181.909 64.3325L181.977 64.5983L181.95 65.2098Z" fill="#108AB4"/>
<path d="M182.167 63.0318L182.134 63.2176L182.054 63.2536L181.936 63.0994L181.417 63.1207L181.337 62.9834L181.333 62.918L181.583 62.6838L181.289 62.6207L181.173 62.5194L180.924 62.0261L180.944 61.882L181.048 61.8065L181.215 61.7964L181.533 61.9552L181.768 62.1827L181.848 62.186L181.875 62.2502L181.828 62.4102L181.969 62.5453L182.03 62.6455L182.167 63.0318Z" fill="#108AB4"/>
<path d="M177.988 55.708L177.97 55.9017L177.756 55.842L177.752 55.6708L177.852 55.4974L177.902 55.4805L177.988 55.708Z" fill="#108AB4"/>
<path d="M67.3753 24.5539L67.3179 25.2758L67.1264 25.8659L66.4969 27.0923L66.2345 27.8513L65.7266 30.0112L65.5701 31.4212L65.533 32.0833L65.489 32.1768L65.5363 32.2737L65.4147 33.7343L65.48 34.9775L65.4384 35.1701L65.2537 35.544L65.1241 36.0609L65.1748 36.2906L65.1726 36.4494L65.3618 37.2343L65.4226 37.8233L65.9868 38.8301L66.3032 39.1815L66.6963 39.4855L66.8404 39.6567L66.7694 40.0835L66.6095 40.2986L66.5409 40.6409L66.462 40.3583L66.4924 39.9912L66.6174 39.7941L66.6219 39.65L66.3911 39.4956L65.9688 38.99L65.453 38.0936L65.8201 39.5249L65.9463 39.7535L66.0442 39.8482L66.2086 39.9484L66.2514 40.1038L66.2525 40.2186L66.7053 41.2096L67.2177 42.2322L67.2447 42.5115L67.4497 42.8549L68.7549 44.2852L69.5533 45.3505L69.8303 46.3595L69.997 46.6737L70.0792 47.1039L70.6017 47.5859L70.7617 47.8967L71.0421 48.069L71.2684 48.5893L71.6941 48.8934L71.5928 48.899L71.22 48.7459L71.2448 48.8472L71.5579 49.0623L72.1716 49.274H72.3248L72.0826 49.1637L71.8777 49.015L71.9497 48.9936L72.3788 49.1783L73.5782 49.2391L74.1063 49.6704L74.791 49.8562L75.1593 50.4069L75.5872 50.9813L75.8609 51.0083L76.0737 51.0105L76.7156 50.9137L77.7134 50.5522L78.0569 50.3754L78.7269 50.1355L79.7528 50.0916L80.0704 50.1592L80.8373 50.0094L81.2033 49.8258L81.3306 49.6592L81.3903 49.5364L82.1009 49.3607L82.2416 49.3258L82.9612 49.2943L83.3092 49.229L83.718 49.1907L84.0131 49.4497V49.5758L83.816 49.6952L83.9083 49.8112L84.2586 50.0026L84.9005 50.0803L85.1088 50.0499L85.405 49.7673L85.9264 49.4936L85.9151 49.1749L85.8217 49.0004L85.6708 48.9891L85.6347 48.8911L85.7406 48.6569L85.7135 48.578L85.3892 48.8033H85.3149L85.3509 48.6986L85.4185 48.6152L86.369 48.1242L86.6122 47.9226L86.941 47.7447L87.6224 47.0769L87.7676 45.8179L87.9039 45.5971L88.3555 45.2097L88.4039 45.0926L88.4332 44.8291L88.4208 44.1658L88.4456 43.6433L88.4264 43.052L88.5075 42.5239L88.5807 42.3764L88.8397 41.5295L89.378 41.1545L90.3116 40.7096L90.5256 40.6364L93.4997 40.1657L93.9175 40.0508L94.4288 39.7457L94.8027 39.642L95.484 39.65L95.6935 39.6094L95.7352 39.5677L95.7363 39.5261L95.8624 39.4844L96.2566 39.5249L96.9931 39.7096L97.2611 39.7558L97.9199 39.9698L98.6451 40.0554L98.7487 40.0182L98.8445 39.9529L98.9177 39.8279L98.8422 39.7186L98.7713 39.7265L98.6485 39.7851L98.5021 39.7907L98.2149 39.7006L98.2724 39.6252L98.5652 39.6319L98.7532 39.5959L99.0314 39.4641L99.3276 39.5632L99.7172 40.0002L99.9942 40.1387L100.017 40.7716L100.058 40.8876L100.16 41.0542L100.021 41.5441L99.8659 41.9484L99.671 42.2795L99.2499 42.8009L98.7386 43.2176L98.1057 44.1421L97.9616 44.5746L97.9649 44.9215L98.0719 45.2559L98.0415 45.3798L97.9638 45.5048L97.8354 45.4935L97.5854 45.6535L97.2633 46.1287L97.2566 46.2728L97.3973 46.4057L97.5809 46.3415L97.8197 46.3359L97.9537 46.2965L98.0944 46.3066L98.0629 46.5791L97.912 46.7728L97.8163 46.8337L97.6451 46.8663L97.4537 46.9767L97.3557 47.078L97.3647 47.3922L97.4706 47.417L97.6958 47.1828L97.8264 47.194L97.8523 47.2931L97.5606 48.0961L97.3726 48.9193L97.1181 49.3956L97.028 50.0882L96.894 50.3833L96.7385 50.6749L96.6473 50.6592L96.4018 50.1063L96.1507 49.9644L96.0955 49.8303L96.2385 49.1592L96.1732 48.7875L96.0403 48.8022L95.8737 49.006L95.6518 49.1828L95.6563 49.4384L95.4018 49.863L95.3387 50.0026L95.0966 49.97L94.8151 49.988L94.6203 50.0905L94.4209 50.6051L93.9232 51.3293L93.725 51.6795L93.5628 51.8L93.4355 51.8473L93.2937 51.7651L92.9536 51.5669L92.6912 51.6614L92.6 51.8889L92.6033 52.1761H91.9389L90.8105 52.175L89.3735 52.1739L87.9884 52.1727L86.8284 52.1716L86.8239 52.8169L86.8206 53.3878L86.8172 54.0297L86.1775 54.0241L85.5007 54.0185L85.5548 54.0827L85.7868 54.2032L86.0874 54.4903L86.4422 54.9374L86.8724 55.2933L87.378 55.5579L87.7102 55.8169L87.8713 56.0703L87.9523 56.2854V56.4634L88.137 56.6041L88.467 56.6976L88.6382 56.8564V56.9859L88.5334 57.2798L88.503 57.6041L88.5436 57.897L88.3071 57.9015H87.7339L86.8611 57.9026H86.0582H85.4253L84.4692 57.9037L84.2068 58.3541L83.7709 59.1019L83.3757 59.7787L83.0446 60.3475L82.9905 60.4972V60.6189L83.4004 61.1504L83.325 61.3047L83.182 61.3858L83.1358 61.5108L83.1448 61.7135L83.0479 61.9826L83.0795 62.1684L83.1313 62.397L83.0457 62.5953L82.9759 62.7867L82.8937 62.87L82.8002 62.798L81.9578 61.9151L81.0794 60.9432L80.7337 60.6256L80.3993 60.3846L79.9488 59.9364L78.7663 58.951L78.156 58.5006L77.5816 57.9611L77.0658 57.6616L76.5579 57.4668L76.3316 57.3541L76.1334 57.2066L76.023 57.1976L75.9679 57.398L76.1458 57.4983L76.3586 57.5839L76.5264 57.5895L76.7032 57.6604L77.2246 57.9341L77.3102 58.0749L75.8271 57.5276L75.2235 57.4769L75.1581 57.3913L75.4588 57.1053L75.3654 57.0017L75.2584 56.987L74.9352 57.1852L74.8158 57.1987L74.7944 57.0681L74.809 56.9454L74.6007 56.7652L74.4689 56.7719L74.3608 56.898L74.0793 57.1357L74.0883 57.2291L74.6401 57.3305L74.8304 57.3879L74.7865 57.451L74.3135 57.4499L73.7279 57.558L72.6851 58.219L71.7144 58.5028L70.3179 59.138L69.702 59.1706L69.3787 59.272L68.4395 59.0287L67.2492 58.4319L65.4474 58.2438L64.2334 57.4611L63.0284 57.1391L62.2637 56.3868L61.8031 56.3541L61.507 56.2336L60.4123 55.9611L59.3301 55.7809L58.2749 55.1221L57.5846 54.9126L56.9877 54.6502L55.6735 54.2021L55.1859 53.9532L54.7253 53.568L53.9741 53.1694L53.6532 52.836L53.2951 52.7167L52.7827 52.0883L52.5158 51.8236L52.2894 51.6997L52.0473 51.6569L51.348 51.7076L50.304 51.4295L49.822 51.3585L48.8141 50.9486L47.4763 50.4902L47.0382 49.9632L46.6632 49.4711L45.9875 48.8224L45.5663 48.5454L44.8354 48.2166L44.43 47.9497L43.805 47.7447L42.7442 47.2244L42.4075 46.7785L42.2104 46.3821L41.6462 45.9001L41.0279 45.0003L40.868 44.6681L40.7486 44.1579L40.6056 43.8617L40.4367 43.6298L40.5234 43.4608L40.8376 43.2525L41.3601 43.2052L41.7295 42.98L41.778 42.7942L41.7543 42.6793L41.5178 42.3955L41.2239 42.3201L40.9953 42.3156L40.9367 42.2074L41.109 42.0892L41.3061 41.8121L41.5966 41.4743L41.8016 41.1624L41.8399 40.722L41.814 40.2817L41.8917 39.9089L41.1878 39.4788L41.1056 39.2952L40.8838 38.8008L40.4998 38.2265L40.511 37.0767L40.0482 36.0541L39.5696 35.5451L39.3218 35.3672L38.6495 34.5755L38.1191 34.1149L37.5999 33.2467L37.0864 32.6937L36.4332 31.7646L35.9614 31.3007L33.8116 29.7297H33.9321L34.5627 30.116L34.6686 30.0844L34.6832 29.8964L34.6111 29.6711L34.494 29.6171L34.3262 29.6677L34.0999 29.6205L33.9861 29.5461L33.6472 29.4988L33.2226 29.2364L33.0402 28.9639L33.0199 28.6531L32.4106 27.9898L32.1798 27.6193L32.298 27.6463L32.4602 27.795L32.6246 27.8378L32.816 27.8389L32.9546 27.7792L32.905 27.6688L32.7744 27.5765L31.887 27.2263L31.5942 26.9808L30.8667 26.5708L30.6944 26.4267L30.5795 26.0303L30.4016 26.0111L30.245 26.1215L29.816 26.2296L29.7067 26.1035L29.691 25.9818L29.9939 25.8535L30.2721 25.4785L30.2665 25.3478L30.1133 25.4987L29.8813 25.6665L29.6426 25.76L29.2878 25.8377L29.1054 25.7814L28.9466 25.6969L28.691 25.3693L28.5626 24.3017L28.7878 23.9311L29.0513 23.564L29.2754 23.3467L29.4049 23.5111L29.5378 23.5314L29.4443 23.3456L29.2236 23.1721L29.1459 22.9987L29.138 22.8399L29.0333 22.5448L28.3801 21.9243L27.7698 21.9717L27.5209 21.9502L27.2878 21.7138L27.0896 21.3151L26.9927 20.9806L26.9803 20.8027L26.9218 20.6236L25.8688 20.3309L25.5524 20.0797L25.2348 19.7633L25.103 19.5054L24.9792 19.3151L24.8778 18.9817L24.8057 18.5932L24.9229 18.0898L25.076 17.8465L24.3519 17.6653L24.0692 17.6574L23.8406 17.7598L23.6345 17.6281L23.2066 17.4817L22.6976 16.9535L22.0996 15.994L21.4419 15.6855L21.2302 15.351L20.9611 15.0492L20.7257 14.6753L20.6897 14.512L20.6187 14.4208L20.2899 14.1595L19.9205 13.717L19.8248 13.3611L19.7257 12.8161L19.4791 12.6235L19.2369 12.5345L19.1896 12.2744L19.2043 12.1291L19.1221 11.8532L18.6221 11.191L18.3687 10.646L18.229 10.4759L18.0984 10.227L18.0319 9.71688L17.8247 9.08173L17.4238 8.31709L17.0894 7.80131L16.9227 7.28102L16.997 6.7506L16.9407 6.4229L16.8979 6.34633L16.9317 6.23935L17.0432 6.29901L17.1367 6.2033L17.1254 5.86433L17.0083 5.76185L16.684 5.656L16.5409 5.58279L15.7526 5.44426L15.301 5.2517L15.2718 4.80348L15.06 4.59741L14.872 4.47015L14.2774 4.20552L14.1839 4.34065L14.1039 4.59064L13.8562 4.6447L13.64 4.65597L13.2773 4.48256L12.3776 3.8215L12.1872 3.71565L11.9068 3.65932L11.7661 3.54897L11.1579 3.19986L11.2796 3.38569L11.4552 3.57825L11.6118 4.13795L11.4282 4.54108L11.3212 5.94654L11.4383 6.22581L11.7019 6.67289L11.8843 7.38124L11.9406 7.90829L12.105 8.3261L12.0532 9.30584L12.1163 9.60316L12.3674 10.0908L12.8325 10.548L12.9294 10.7879L13.5397 11.1358L13.9114 11.5874L14.6479 12.2023L14.8799 12.4613L15.5443 13.4174L15.5657 13.7012L15.6884 14.0492L16.0612 13.9771L16.2279 14.2418L16.2087 14.3634L16.2538 14.4569L16.4486 14.4366L16.6164 14.5086L16.97 15.5368L17.1592 15.6776L17.4024 15.7373L17.6738 15.851L17.6919 16.1134L17.6817 16.3229L17.9115 16.6258L17.872 17.0357L18.0579 17.3826L18.0297 17.7182L18.1063 17.9828L18.6795 18.5819L19.3856 19.0572L19.5331 19.6799L19.8214 20.2487L20.1165 20.3917L20.4138 20.627L20.3766 20.8725L20.398 21.0223L20.7966 21.4694L20.8608 22.0381L21.2043 22.4108L21.3012 22.4401L21.3766 22.3816L21.1266 22.0077L21.0061 21.7644L20.9904 21.3815L21.0748 21.3309L21.7877 21.9367L21.8631 22.3883L22.1019 22.644L22.1199 22.9886L22.2651 23.1935L22.3091 23.4908L22.5388 23.9807L22.5444 24.6598L22.6661 25.1541L23.1154 25.912L23.4791 26.0708L23.5445 26.4425L23.9228 27.4019L24.3598 27.9211L24.5771 28.3614L24.6064 28.6351L24.4431 29.0405L24.4251 29.322L24.6627 30.1802L25.0175 30.6193L25.415 30.7252L25.4837 30.7883L25.4522 30.9054L25.585 31.0101L25.7348 30.8761L25.808 30.6858L25.7326 30.4639L25.719 30.3029L25.7866 30.1869L25.9161 30.17L26.6751 30.7556L26.8024 30.9809L27.0839 31.2432L27.343 31.5664L27.4544 31.821L27.6617 32.0315L27.7687 32.5203L28.2968 32.7387L28.5772 33.1419L28.5964 33.3976L28.4601 34.0507L28.3419 34.2388L27.9162 34.5169L27.6065 34.8469L27.3069 35.0507L26.9894 35.1746L26.7281 35.1465L26.4758 34.767L26.1763 33.6171L25.9758 33.375L25.835 33.0135L25.6008 32.714L24.7562 32.2601L24.3305 31.7804L23.9172 31.4595L23.4724 30.9944L22.2606 30.223L21.7584 29.8299L21.4273 29.4403L21.2145 29.4459L21.05 29.4864L20.987 29.3794L20.978 29.1767L20.9048 29.045L20.1964 28.4571L20.05 28.1317L20.0196 27.7533L20.1795 26.778L20.2505 26.206L20.2054 25.9109L20.1311 25.8704L20.0635 25.7104L20.0478 25.2386L19.8766 24.7251L19.2335 23.6699L18.764 23.4616L18.3461 23.3095L17.2009 22.3737L16.89 21.9052L16.8146 21.6383L16.7752 21.0955L16.6175 21.4097L16.4069 21.6428L15.9215 21.6259L15.3765 21.8883L15.0522 21.6417L14.8765 21.3613L14.6096 21.0246L14.31 20.9581L14.1186 20.9491L13.7593 20.5313L13.4688 20.3984L13.0533 20.3466L12.6996 20.1349L12.5904 19.9029L12.5318 19.5752L12.4001 19.3815L11.8449 18.9975L11.3933 18.5729L10.9676 18.3004L10.8426 18.0774L10.8325 17.9242L11.5059 17.9671L12.3066 18.1304L12.6906 18.0842L12.9294 17.9265L13.158 17.8128L13.194 17.9355L13.1523 18.1585L13.3719 18.3635L13.6738 18.529L13.8877 18.5132L13.6794 18.3319L13.5521 17.9626L13.6096 17.8297L13.6062 17.645L13.3078 17.6866L13.2661 17.5932L13.5217 17.3117L13.8145 16.5706L13.9542 15.8386L13.6479 15.1967L13.131 14.7508L12.0093 13.4411L11.3392 12.7665L11.1456 12.5154L10.9676 12.3971L10.4214 12.2428L9.96309 11.8645L9.16015 11.3284L8.81667 11.0514L8.58018 10.4016L8.39211 10.3126L8.4518 9.86215L8.3696 9.06373L8.23445 8.85876L7.79975 8.65943L7.69615 8.1155L7.67476 7.59748L7.5903 7.23597L6.85042 6.62674L6.80875 6.33169V6.05125L6.7333 5.77312L6.33802 5.1909L5.86052 4.68185L5.69386 4.43863L5.67358 3.94536L5.50467 3.8125L5.56886 3.77871L5.72539 3.79108L5.81435 3.72575L5.82449 3.38115L5.106 2.83949L4.8988 2.09286L4.5159 1.69646L4.42582 1.55343L4.21972 0.846214L5.12403 0.766242L6.02832 0.686303L6.93263 0.60633L7.83692 0.526392L8.74121 0.446419L9.64552 0.36648L10.5498 0.286508L11.4541 0.206535L11.8156 0.166016L11.6151 0.72909L11.4643 0.939659L12.9632 1.4915L14.4621 2.04216L15.961 2.59173L17.4599 3.14017L18.9588 3.6886L20.4577 4.2359L21.9566 4.7821L23.4555 5.32717L24.5726 5.3249L25.6898 5.32263L26.8069 5.3204L27.9241 5.31813L29.0412 5.3159L30.1583 5.31363L31.2755 5.31139L32.3926 5.30913L32.3949 4.89472L32.396 4.48029L32.3982 4.06475L32.4005 3.64918L33.0953 3.65368L33.7902 3.65819L34.485 3.66159L35.1798 3.66609L35.8747 3.66946L36.5695 3.67396L37.2643 3.67846L37.9592 3.68297L37.984 3.68974L38.0132 3.70438L38.2948 4.02083L38.5831 4.51634L38.9232 4.86204L39.3151 5.058L39.9829 5.63458L40.9266 6.59068L41.6788 7.22583L42.2408 7.54342L42.6169 7.81595L42.8095 8.04456L43.0685 8.54007L43.5573 9.68086V10.2034L43.7442 10.6978L44.1181 11.3374L44.4447 11.7136L44.724 11.8273L45.0291 12.0537L45.3602 12.3926L45.742 12.6201L46.1744 12.7361L46.7713 13.0402L47.5326 13.5311L48.0551 13.7812L48.3378 13.7924L48.5855 13.6348L48.7972 13.3093L49.0056 13.0998L49.2105 13.0064L49.2939 12.8566L49.2556 12.6494L49.3941 12.1854L49.7094 11.4624L50.0856 11.0705L50.5236 11.0097L50.8097 10.8734L50.9448 10.6617L51.179 10.6392L51.5135 10.8047L52.0574 10.9117L52.8108 10.959L53.2557 10.9433L53.3919 10.8622L53.4629 10.8667L53.4685 10.9556L53.58 10.9939L53.7973 10.9804L53.9865 11.1043L54.2298 11.4973L55.0654 12.1257H55.0665L55.1375 12.3408L55.428 12.6505L55.9641 13.1269L56.267 13.5368L56.3379 13.8814L56.6116 14.4253L57.0879 15.1674L57.2997 15.5672L57.2479 15.6247L57.285 15.833L57.4123 16.1922L57.6476 16.4963L57.9934 16.7452L58.3425 17.1911L58.695 17.8342L59.1229 18.3229L59.6252 18.6563L59.909 18.9671L59.9754 19.2542L59.9709 19.4998L59.8943 19.7036L59.927 19.8973L60.0677 20.0808L60.115 20.3061L60.0599 20.618L60.0632 20.7058L60.1038 20.7768L60.5497 21.3128L60.7795 21.7453L60.9619 22.4345L60.963 22.4401L61.1657 22.8523L61.4585 23.0201L61.9079 23.0832L62.2491 23.2262L62.4822 23.4503L62.7773 23.5854L63.132 23.6316L63.4721 23.7802L63.7987 24.0291L64.4068 24.1924L65.2964 24.2712L65.9733 24.4739L66.4384 24.8005L66.6422 24.867L66.6974 24.8715L66.7233 24.8219L66.7582 24.7296L66.9384 24.6237L67.3753 24.5539ZM11.9147 3.92285L11.81 3.93862L11.614 3.76857L11.6287 3.61203L11.6715 3.59626L11.8674 3.73366L11.9339 3.85415L11.9147 3.92285ZM16.7774 13.5965L16.7549 13.6595L16.4317 13.4366L15.6997 12.6775L15.4339 12.2969L15.39 12.1178L15.4125 11.7192L15.6637 11.7665L15.9542 12.0334L16.0803 12.2811L16.086 12.5638L16.6288 12.6978L16.7053 13.3093L16.7774 13.5965ZM19.7876 13.7654L19.55 14.6123L19.3068 14.5987L18.8045 14.3318L18.7516 14.1652L18.9441 13.1809L19.0905 13.0514L19.5286 12.9185L19.5973 13.0402L19.6435 13.3307L19.7876 13.7654ZM0.699387 13.9929L0.564255 14.1303L0.201627 13.3803L0.198242 13.1989L0.304111 13.1088L0.47978 13.1257V13.3138L0.627319 13.4726L0.684747 13.628L0.699387 13.9929ZM10.409 17.1146L10.3663 17.2294L9.83246 16.9918L10.1253 16.5763L10.0825 16.1393L10.2097 16.0481L10.3257 16.1922L10.4789 16.7486L10.409 17.1146ZM23.2731 24.3467L23.3125 24.4728L23.2911 24.5089L23.1616 24.421L22.9431 24.9435L22.8789 24.9909L23.0107 24.2757L23.1492 24.1733L23.3023 24.153L23.2731 24.3467ZM20.2482 29.4741L20.184 29.5123L19.9137 29.1125L19.8732 28.8378L19.7628 28.7218L19.4903 28.6294L19.7257 28.0697L19.925 26.9087L20.0128 27.1215L19.8023 28.2972L19.8124 28.4504L19.9104 28.5934L20.0162 28.8355L20.0286 29.0968L20.2144 29.3401L20.2482 29.4741ZM24.9578 27.8895L25.0479 28.277L24.8857 28.2195L24.674 28.0089L24.5287 27.7398L24.5422 27.6193L24.5704 27.5968L24.8711 27.7555L24.9578 27.8895ZM21.3811 30L21.3383 30.1633L20.3867 29.518L20.6153 29.4571L20.8811 29.5022L21.3811 30ZM27.3666 30.8356L27.2979 30.8468L27.1357 30.6644L27.0648 30.215L27.0975 30.1678L27.4027 30.7241L27.397 30.7928L27.3666 30.8356ZM37.8049 39.5013L37.7126 39.7794L37.4738 39.668L37.3882 39.4934L37.3713 39.2074L37.5042 39.1589L37.6968 39.2806L37.7362 39.3616L37.8049 39.5013ZM100.347 40.7558L100.403 40.9191L100.348 40.9L100.276 40.7772L100.224 40.6241L100.268 40.6207L100.306 40.6736L100.347 40.7558ZM99.6339 43.9012L99.4695 44.0059L99.3805 43.6365L99.5111 43.2762L99.6699 43.0689L99.983 43.0453L100.19 42.9766L100.216 43.0678L100.046 43.3471L99.6339 43.9012ZM23.8598 49.1073L23.6695 49.1772L23.389 48.9733L23.4634 48.8123L23.6233 48.7031L23.7731 48.9069L23.8598 49.1073ZM84.6403 49.3202L84.2845 49.3968L84.2214 49.3247L84.9388 48.9857L85.0615 49.0004L85.1043 49.0465L84.7327 49.2076L84.6403 49.3202Z" fill="#108AB4"/>
<path d="M111.588 61.4122L111.5 61.5316L111.403 61.6104L111.202 61.9989L111.132 62.0338L111.117 61.7467L110.997 61.7084L110.856 61.8109L110.778 61.9584L110.901 62.1498L111.009 62.1532L111.14 62.2061L111.492 63.5327L111.417 63.7692L111.198 64.1375L110.991 64.4494L110.783 64.6454L110.525 65.4787L110.293 66.8312L110.459 68.0441L110.375 69.1646L110.449 69.4281L110.471 69.757L110.3 69.8167L110.203 69.8065L110.104 69.6049L110.115 69.427L110.217 69.2187L110.259 68.936L110.211 68.7885L110.109 69.1106L109.931 69.2547L109.815 69.3054L109.703 69.4676L109.822 69.7739L109.976 69.998L110.028 70.1579L109.971 70.3493L109.936 71.0025L109.881 70.9845L109.824 70.8966L109.661 70.8899L109.642 71.1534L109.654 71.2998L109.516 71.4135L109.466 71.5262L109.58 71.6072L109.705 71.6545L109.859 71.6433L109.985 71.9665L110.026 72.2289L109.731 72.471L109.632 72.6715L109.465 72.9147L109.37 73.1534L109.342 73.3246L109.457 73.8674L109.659 74.2526L109.829 74.4969L110.056 74.5499L110.003 74.8066L109.832 74.9699L109.521 75.1062L109.18 75.131L108.622 75.0026L108.393 74.9879L108.304 74.9193L108.277 74.7931L108.117 74.6028L107.824 74.3494L107.655 74.3674L107.379 74.3123L106.921 74.1399L106.709 74.1186L106.405 74.2661L106.052 74.4598L105.199 74.1579L104.6 73.9451L104.062 73.7526L103.919 73.6793L103.801 73.6951L103.698 73.7953L103.582 73.9733L103.544 74.0251L103.482 74.0735L103.412 74.087L103.41 74.0025L103.146 73.6489L102.727 73.2244L101.123 71.9203L100.532 71.1399L100.216 70.5779L99.9153 70.2851L99.0482 69.686L98.8478 69.4473L97.9896 68.6455L97.3342 68.1747L97.3252 67.9743L97.5943 67.7243L97.7261 67.7366L97.8703 67.9146L98.1022 68.1184L98.2115 68.1195L98.3736 68.025L98.377 67.9303L99.2565 67.8921L99.4142 67.8391L99.573 67.6916L99.6552 67.4844L99.6687 67.2862L99.7025 67.1432L99.8433 67.0047L100.101 66.9619L100.299 66.9472L100.358 66.8537L100.298 66.5508L100.191 65.8143L100.169 65.6082L100.205 65.4551L100.286 65.3999L100.675 65.3627L101.413 65.4247L101.556 65.3785L101.851 64.9596L102.126 64.6521L102.322 64.5136L102.477 64.472L102.655 64.7456L103.278 65.1375L103.384 65.1127L103.445 65.0913L103.465 65.035L103.454 64.8548L103.609 64.6904L103.932 64.5429L104.257 64.2828L104.583 63.9089L104.867 63.6893L105.106 63.624L105.198 63.5226L105.141 63.3841L105.16 63.187L105.254 62.9325L105.394 62.785L105.576 62.7444L105.65 62.6645L105.611 62.544L105.646 62.4122L105.812 62.1949L106.206 62.0091L106.431 62.071L106.618 62.321L106.884 62.4911L107.226 62.5811L107.492 62.5485L107.681 62.3919L107.851 62.3446L108.002 62.4066L108.082 62.3706L108.091 62.2399L108.169 62.2095L108.318 62.2805L108.448 62.2985L108.563 62.2647L108.608 62.2005L108.632 62.1341L108.717 62.0857L109.014 62.1341L109.345 62.0586L109.713 61.857L109.957 61.7692L110.078 61.7917L110.222 61.6904L110.39 61.4651L110.774 61.3638L111.588 61.4122Z" fill="#108AB4"/>
<path d="M129.867 81.749L129.807 81.7929L129.633 82.0429L129.538 82.2569L129.763 82.4832L129.831 82.7231L129.958 82.9833L130.156 83.2445L130.379 83.7299L130.43 83.9247L130.367 84.0508L130.155 84.1285L129.957 84.3549L129.903 84.6319L129.941 84.7693L129.349 85.2119L129.196 85.2851L129.094 85.2175L128.968 84.9957L128.817 84.8166L128.736 84.7536L128.689 84.7513L128.642 84.793L128.619 84.8898L128.698 85.3054L128.633 85.4732L128.431 85.6027L128.2 86.2784L128.11 86.1928L127.35 85.2828L126.692 84.1556L126.555 83.6443L126.725 83.6139L126.889 83.6251L126.978 83.5463L127.081 83.3977L126.997 83.0519L127.317 82.7895L127.438 82.6127L127.527 82.633L127.736 82.9348L128.04 83.1071L128.413 83.3582L128.644 83.4157L128.352 83.1522L127.848 82.8053L127.707 82.5778L127.574 82.2614L127.377 82.3988L127.286 82.5148L127.183 82.5801L127.094 82.5013L127.079 82.3988L126.781 82.3785L126.705 82.285L126.626 82.2332L126.662 82.4314L126.72 82.553L126.689 82.7006L126.592 82.7107L126.51 82.5587L126.404 82.4202L126.263 81.8436L125.925 81.5722L125.77 81.481L125.643 81.4472L125.455 81.2625L125.207 81.1645L124.869 80.8773L124.455 80.6713L123.948 80.5992L123.332 80.6442L123.125 80.7591L122.984 80.9044L122.919 80.9719L122.555 81.1375L122.417 81.3773L122.331 81.5801L122.149 81.8098L122.357 81.9483L121.171 82.7287L120.937 82.8425L120.404 82.9224L120.281 83.0058L120.119 83.16L120.096 83.3943L120.121 83.5936L120.275 83.7479L120.414 83.8447L120.744 84.3087L121.331 84.8943L121.442 85.1072L121.533 85.4236L121.357 85.5723L121.219 85.6353L120.661 85.6601L120.468 85.7862L120.39 85.9788L120.182 86.1365L119.462 86.293L118.897 86.311L118.721 86.1308L118.679 85.6229L118.298 84.7558L118.207 84.1578L118.112 84.2321L117.911 84.302L117.842 84.4506L117.791 84.891L117.717 85.0418L117.561 85.0272L117.242 84.8695L116.816 84.7243L116.274 83.7907L116.216 83.615L116.11 83.4044L115.691 83.3155L115.334 83.1578L114.944 83.1341L114.745 83.2231L114.541 83.1105L114.506 82.8537L114.097 82.9686L113.573 82.9281L113.103 82.8188L112.782 82.8774L112.513 83.0598L112.55 83.5249L112.471 83.6173L112.459 83.4269L112.365 83.2085L112.253 83.0271L112.016 82.8391L112.004 82.7704L112.097 82.6758L112.526 82.4033L112.579 82.2895L112.586 82.053L112.544 81.8267L112.351 81.4933L112.461 81.2873L112.683 81.1217L112.91 80.9911L112.949 80.9359L112.907 80.8222L112.774 80.6994L112.463 80.4911L112.276 80.4776L112.269 79.8773L112.278 79.2399L112.325 79.1769L112.439 79.1386L112.53 79.0417L112.581 78.8525L112.717 78.7849L112.962 78.9302L113.213 79.0586L113.317 79.0158L113.395 78.9528L113.45 78.8908L113.468 78.8323L113.668 79.0023L114.077 79.3041L114.101 79.4516L114.063 79.5935L114.175 80.0012L114.387 80.0598L114.601 79.9809L114.654 80.0564L114.614 80.1318L114.504 80.2163L114.477 80.5665L114.827 80.7298L115.003 80.8728L115.584 80.8053L115.798 80.8435L115.944 80.8019L115.782 80.5204L115.565 80.312L115.583 80.2185L115.747 80.2884L115.873 80.4302L116.159 80.6059L116.685 81.2163L117.289 81.3638L117.766 81.3447L118.211 81.2625L118.92 81.026L119.433 80.5981L119.842 80.4077L121.169 80.0012L121.639 79.5755L121.839 79.5203L122.028 79.4674L122.444 79.1453L122.669 78.8942L122.905 78.7681L123.607 78.8593L124.062 78.9775L124.376 78.9618L124.678 79.0462L124.809 79.2287L124.947 79.3064L125.689 79.2861L126.297 79.3762L127.629 79.9167L128.427 80.4517L128.849 81.0192L129.867 81.749ZM114.508 79.4516L114.474 79.6003L114.229 79.3334L114.374 79.2895L114.426 79.2951L114.508 79.4516ZM125.049 82.9675L124.986 83.1015L124.839 82.8019L124.862 82.7254L124.852 82.4551L124.993 82.3841L125.097 82.3785L125.182 82.4168L125.236 82.7355L125.191 82.8796L125.049 82.9675ZM124.521 83.0317L124.379 83.1724L124.325 83.0396L124.424 82.901L124.459 82.8999L124.521 83.0317ZM116.501 85.9518L116.327 85.9686L115.974 85.8324L115.715 85.57L115.693 85.4855L115.699 85.3977L115.84 85.1297L116.029 85.0373L116.103 85.0385L116.284 85.3481L116.162 85.4675L116.211 85.659L116.468 85.8009L116.501 85.9518Z" fill="#108AB4"/>
<path d="M165.405 50.0896L165.502 50.1549L165.597 50.1459L165.52 50.0097H165.591L166.197 50.093L166.587 50.2338L166.988 50.3002L167.012 50.7608L166.704 50.9455L166.502 51.137L166.338 51.3723L165.905 51.646L165.385 51.7282L165.038 51.7361L164.909 51.727L164.783 51.6798L164.521 51.7248L164.198 51.6043L163.921 51.6347L163.372 51.6065L163.165 51.7102L162.968 51.7338L162.776 51.7147L162.611 51.6674L162.204 51.6707L162.031 51.5795L162.102 51.0559L162.108 50.8194L162.008 50.6234L161.897 50.5007L161.819 50.3554L161.978 50.2597L162.11 50.1201L162.152 49.9095L162.296 49.8577L162.465 49.834L163.244 49.932L165.217 49.9872L165.33 50.004L165.405 50.0896ZM167.629 51.2113L167.382 51.2316L167.221 51.2045L167.167 51.1065L167.467 51.0142L167.818 51.0277L168.018 51.0829L168.043 51.12L167.629 51.2113ZM159.896 51.3622L159.867 51.3656L159.838 51.3622L159.824 51.3532L159.804 51.3228L159.714 51.2732L159.692 51.227L159.713 51.1797L159.75 51.1606L159.932 51.1561L159.951 51.1606L159.987 51.1944L159.989 51.218L159.971 51.2417L159.938 51.2991L159.924 51.3138L159.914 51.3284L159.91 51.3543L159.896 51.3622Z" fill="#108AB4"/>
<path d="M91.9772 63.2867L92.0572 63.3025L92.5853 63.468L92.7419 63.4354L92.9423 63.5682L93.0381 63.673L93.1225 63.8171L93.5392 64.1043L93.609 64.2304L93.921 64.4005L94.0471 64.5311L94.18 64.584L94.4401 64.6347L94.6631 64.7034L94.689 64.7507L94.7104 64.9444L94.7577 65.1066L94.8636 65.1167L94.9919 65.0379L95.4109 64.8205L95.8061 64.6752L96.0291 64.762L96.1609 64.9433L96.3118 65.0244L96.6249 64.9748L96.9086 64.9906L97.1316 65.1493L97.1834 65.2406L97.046 65.7676L96.9965 65.9917L96.9728 66.1821L97.0528 66.2327L97.1316 66.3059L97.1147 66.4084L96.8704 66.5773L96.7938 66.6201L96.8501 66.9445L96.6688 67.1415L96.5021 67.2823L96.2093 67.3206L95.7127 67.3363L94.9649 67.1764L94.4131 66.958L94.1169 66.9568L94.2104 67.0289L94.4458 67.0751L94.7543 67.2282L94.6653 67.271L93.5426 66.9512L92.2452 66.3217L91.4693 66.2215L90.5808 66.057L90.056 65.6595L89.6619 65.4872L89.627 65.3363L89.6315 65.1696L89.8094 64.9455L90.1427 64.6437L90.3646 64.4872L90.4682 64.4568L90.6146 64.4726L90.7542 64.3847L90.8747 64.1775L91.0009 64.0435L91.3207 63.9072L91.3939 63.8532L91.3691 63.7372L91.2993 63.5108L91.3105 63.3712L91.4142 63.307L91.5403 63.2946L91.7993 63.2383L91.9119 63.2496L91.9772 63.2867Z" fill="#108AB4"/>
<path d="M174.907 51.333H175.26L175.257 51.4107L175.223 51.4974L175.01 51.4242L174.902 51.3476L174.907 51.333Z" fill="#108AB4"/>
<path d="M147.231 38.7239L147.176 38.76L146.992 38.6429L146.966 38.5494L146.901 38.5449L146.792 38.4604L146.818 38.3512L147.068 38.3467L147.168 38.6496L147.231 38.7239ZM147.923 38.9785L147.91 39.0246L147.731 38.894L147.388 38.8929L147.334 38.7138L147.465 38.6845L147.901 38.7476L148 38.903L147.923 38.9785ZM145.8 38.6879L146.161 38.8748L146.379 38.8467L146.397 38.8872L146.28 38.93L146.25 38.9649L145.902 39.0134L145.793 39.0044L145.771 38.8782L145.8 38.6879Z" fill="#108AB4"/>
<path d="M181.066 67.3544L180.973 67.4051L180.741 67.1889L180.769 66.9366L180.91 66.7981L181.043 66.717L181.179 66.708L181.226 66.9163L181.194 67.2103L181.066 67.3544ZM180.903 67.8815L180.852 67.9164H180.876L180.852 67.94L180.837 67.9164L180.812 67.9017L180.78 67.895L180.743 67.8961V67.8724L180.79 67.8871L180.861 67.8724V67.8466L180.84 67.8229L180.831 67.806L180.857 67.7812L180.945 67.7249L180.982 67.6957L180.986 67.708L180.987 67.7193L180.992 67.7306L181.005 67.7418L180.96 67.7857L180.903 67.8815ZM180.561 68.8466L180.529 68.8477L180.501 68.8364L180.509 68.8263L180.545 68.8184L180.562 68.797L180.556 68.7689L180.557 68.7373L180.585 68.7182L180.608 68.7171L180.618 68.7295L180.624 68.7587L180.607 68.7813L180.588 68.7993L180.579 68.8274L180.561 68.8466Z" fill="#108AB4"/>
<path d="M184.722 82.0952L185.309 82.8677L185.318 82.9534L185.254 83.0502L184.888 83.2315L184.806 83.325L184.674 83.6684L184.213 83.8565L183.895 84.093L183.681 84.3002L183.574 84.3836L183.152 84.4297L183.017 84.5603L182.847 84.9523L182.723 85.1167L182.505 85.3092L182.504 85.4264L182.806 85.8543L182.86 85.9894L182.766 86.1933L182.775 86.3374L182.934 86.5109L183.123 86.5503L183.308 86.4782L183.538 86.4849L183.687 86.5311L183.749 86.5818L183.759 86.7147L183.665 86.9962L183.529 87.1787L182.925 87.458L182.657 87.6201L182.508 87.7395L182.183 87.6753L182.017 87.6798L181.89 87.7721L181.812 87.851L181.594 87.8712L181.285 87.9185L181.156 87.9715L181.056 88.11L180.972 88.3071L181.042 88.5436L181.139 88.7553L181.134 88.9489L181.209 89.4884L181.112 89.6145L180.905 89.7564L180.658 90.0087L180.381 90.3589L180.425 90.4591L181.087 91.1934L181.761 91.94L182.431 92.6821L182.525 92.7148L182.651 92.8004L182.768 93.0594L182.864 93.3353L182.866 93.4772L182.791 93.6563L182.628 93.8623L182.429 94.029L182.14 94.1709L181.909 94.3049L181.719 94.6574L181.603 94.7813L181.497 94.8309L181.288 94.877L180.95 94.8657L180.727 94.8387L180.45 95.1023L180.097 95.1991L179.861 95.5595L179.018 95.8455L178.194 96.0674L177.968 96.1552L177.153 95.9716L176.957 96.0291L176.732 96.2003L176.524 96.332L176.348 96.3399L176.201 96.4086L176.113 96.6529L176.035 97.4942L175.742 97.7442L175.39 97.7431L175.148 97.4514L174.861 97.2318L174.359 96.7104L174.22 96.6417L174.09 96.6451L173.625 96.8005L173.404 96.7329L173.227 96.6518L172.929 96.6777L172.4 96.6834L172.062 96.6879L171.898 96.546L171.745 96.2543L171.642 96.1496L171.522 96.0651L171.322 96.0223L170.47 96.0234H170.309L170.192 95.9671L170.027 95.7171L169.848 95.6L169.638 95.5955L169.545 95.734L169.91 96.1833L170.016 96.4277L170.336 96.7802L171.26 97.5268L171.431 97.7634L171.412 98.0663L171.407 98.5291L171.438 98.9672L171.676 99.5956L172.009 100.234L172.1 100.642L172.038 100.942L171.974 101.103L171.981 101.174L172.05 101.239L172.368 101.331L173.037 101.388H173.442L174.059 101.458L174.105 101.682L174.044 102.053L173.923 102.263L173.823 102.324L173.488 102.373L173.134 102.6L172.621 102.824L172.328 102.855L172.206 102.899L172.103 102.966L172.017 103.052L171.918 103.473L171.767 103.948L171.482 104.23L171.169 104.463L170.85 104.489L170.595 104.47L170.467 104.538L170.284 104.73L170.022 104.968L169.819 105.096L169.546 105.083L169.255 105.2L168.886 105.393L168.642 105.551L168.434 105.821L168.135 106.104L167.829 106.303L167.683 106.548L167.473 106.859L167.212 106.869L167.19 106.682L167.315 106.382L167.179 106.123L166.93 105.983L166.813 105.941L166.697 105.958L166.402 106.087L166.041 106.32L165.818 106.488L165.616 106.564L165.202 106.634L164.853 106.67L164.708 106.623L164.449 106.452L163.849 105.916L163.037 105.19L162.975 104.98L163.01 104.766L162.863 104.453L162.776 104.119L162.703 104.004L162.681 103.754L162.506 103.305L162.361 102.937L162.229 102.75L162.285 102.59L162.229 102.431L162.122 102.302L161.964 101.884L162.019 101.704L161.977 101.524L161.845 101.4L161.657 101.267L161.405 100.99L161.106 100.726L160.953 100.623L160.848 100.581L160.757 100.331L160.687 100.254L160.534 100.234L160.22 100.129L159.927 100.254L159.92 100.061L160.003 99.9435L161.015 99.0179L161.524 98.5922L161.579 98.5291L161.624 98.4311L161.659 98.2994L161.543 98.1485L161.065 97.4334L160.9 97.2982L160.736 97.1879L160.55 96.8872L160.325 96.1878L160.164 95.8365L160.116 95.5662L160.126 95.261L160.066 95.0268L159.937 94.8635V94.3646L160.066 93.529L160.098 92.8939L160.033 92.4592L160.149 92.1281L160.445 91.9006L160.61 91.5493L160.645 91.074L160.823 90.6832L161.143 90.378L161.252 90.0762L161.151 89.7778L161.118 89.5875L160.847 89.3938L160.343 89.2575L159.927 89.2418L159.674 89.3938L159.029 89.5346L157.991 89.6641H157.154L156.52 89.5334L156.038 89.5774L155.707 89.7958L155.474 89.8454L155.339 89.726L155.192 89.6933L154.971 89.7688L154.932 89.7339L154.44 89.1449L153.985 88.5987L153.463 87.9478L152.86 87.1967L152.752 87.1471L152.565 87.1516L152.318 87.1651L151.936 87.0874L151.673 86.9782L151.468 86.8723L151.09 86.7383L150.831 86.7147L150.598 86.7541L149.957 87.0165L149.593 87.0413L149.312 87.0458L148.555 86.9163L148.038 86.8949L147.437 86.9805L147.179 87.0289L146.818 86.8949L146.573 86.691L146.344 86.2068L146.183 85.8262L145.903 85.7496L145.592 85.6843L145.439 85.5581L145.346 85.3385L145.324 85.057L145.355 84.5987L145.385 84.4342L145.428 83.9398L145.599 83.6808L145.707 83.5558L145.685 83.3475L145.603 82.9218L145.52 82.62L145.175 82.2788L144.734 81.8407L144.544 81.1391L144.319 80.3103L144.144 80.2269L143.978 80.2686L143.803 80.2269L143.647 79.8936L143.492 79.8305L143.244 79.9477L143.065 80.0389L142.611 80.1222L142.518 80.0389L142.549 79.9353L142.741 79.6323L142.966 79.2449L143.228 78.8924L143.471 78.531L143.654 78.1458L143.778 77.3789L143.863 76.8496L144.089 75.9059L144.5 75.1525L144.655 74.8056L145.028 74.3541L145.199 74.1086L145.426 73.9149L146.051 73.6525L146.798 72.354L146.969 72.1468L147.724 71.9531L148.304 71.8022L148.733 71.6434L148.874 71.559L148.987 71.5195L148.894 71.6705L148.688 71.8619L148.455 71.979L147.253 72.2729L147.13 72.3349L146.974 72.4565L146.973 72.7358L147.005 72.9542L147.359 73.6727L147.497 73.8495L147.97 74.2381L147.862 74.2921L147.688 74.2989L147.815 74.8079L148.106 75.157L148.119 75.3766L147.896 76.0591L147.49 76.4667L147.201 76.9408L146.977 77.1289L146.481 78.0613L146.858 78.6165L146.912 78.8981L147.238 79.2979L147.451 79.4285L147.593 79.5906L147.528 79.8632L147.658 80.2326L147.827 80.4274L148.039 80.5051H148.302L149.055 80.2585L149.234 80.1481L149.349 79.951L149.726 79.5512L149.75 79.0343L149.831 78.4127L149.738 78.0073L149.342 77.4285L149.169 77.0174L148.776 76.6345L148.535 75.978L148.435 75.773L148.361 75.4903L148.277 74.9892L148.54 74.8068L148.513 74.3957L149.162 74.282L150.565 73.6131L151.433 73.4442L152.422 73.0871L152.652 72.9104L152.85 72.6164L153.004 72.5826L153.52 72.8585L153.775 72.7628L153.875 72.5477L153.734 72.1288H153.438L152.547 72.2808L152.46 72.1006V71.9419L152.25 71.4418L152.38 71.0657L152.514 70.7605L152.77 70.6378L153.144 70.5049L153.427 70.7087L153.598 70.9024L153.691 71.0905L153.755 71.6006L153.907 72.1164L154.067 72.4745L154.322 72.7448L154.517 72.7268L154.656 72.6817L155.583 72.6209L156.146 72.8056L156.862 72.8991L157.531 73.291L158.22 73.7662L158.395 74.1131L158.453 74.4442L158.619 74.666L158.454 74.8946L158.544 75.2752L158.741 75.6593L159.038 75.9037L159.886 75.9701L160.803 75.8057L162.22 75.6559L162.676 75.5275L165.02 75.4577L165.467 75.6424L165.511 75.8259L165.516 75.9667L166.27 76.6536L166.89 76.7471L167.416 76.9667L167.96 77.085L168.554 77.2516L168.889 77.2303L169.14 77.1717L169.435 77.1616L171.527 76.0129L172.649 76.0422L172.821 75.9678L172.97 75.8676L172.557 75.693L171.623 75.6255L171.34 75.7426L171.18 75.4464L171.484 75.4543L172.523 75.3552L173.713 75.4205L174.683 75.2099L175.17 75.175L175.452 75.2167L176.224 75.0804L177.678 75.2415L178.825 75.1086L178.692 75.2989L178.316 75.4149L177.706 75.4509L177.241 75.7291L176.25 75.6784L175.554 75.7787L175.777 75.8564V76.1413L175.872 76.1987L175.972 76.201L176.209 76.4127L176.273 76.5512L176.349 76.8417L176.245 77.1559L176.1 77.2967L176.383 77.2494L176.543 77.1019L176.519 76.9532L176.543 76.7809L176.702 76.835L176.813 76.9127L177.175 77.7348L177.429 78.1661L177.495 78.1503L177.555 78.1345L177.631 78.0523L177.744 77.8496L177.84 77.978L177.899 78.0276L177.958 78.0433L177.903 77.8598L177.976 77.6244L177.951 77.5422L178.063 77.5242L178.199 77.5557L178.39 77.621L178.731 77.8913L178.956 78.1717L178.976 78.3282L179.058 78.4161L179.205 78.5084L179.277 78.6526L179.291 78.4251L179.204 78.2596L179.183 78.0704L179.626 78.0625L179.742 77.8136L179.985 77.9634L180.627 78.647L180.863 78.7596L181.562 78.8902L182.003 79.219L182.261 79.5141L182.107 79.8227L181.696 79.9769L181.532 80.1695L181.437 80.3587L181.436 80.549L181.311 80.7697L181.293 80.8474L181.219 81.1582L181.05 81.5333L180.825 81.9308L179.651 81.9398L179.941 82.1031L180.208 82.2213L180.646 82.5333L180.994 82.2878L181.492 82.2698L182.032 81.9973L182.236 81.9544L183.245 82.0963L183.488 81.897L183.691 81.8384L184.237 81.8756L184.722 82.0952ZM172.612 73.8665L172.713 74.2842L172.683 74.3631L172.397 74.6446L172.157 74.6649L171.963 74.6547L171.817 74.6007L171.629 74.4171L171.445 74.4723L170.991 74.4081L170.865 74.3439L171.035 74.1187L171.347 74.0275L171.462 74.0083L171.553 74.1469L171.781 74.2662L172.047 74.2786L172.114 74.0658L172.475 73.7493L172.612 73.8665ZM168.304 74.5849L168.134 74.657L167.822 74.5849L167.666 74.4847L167.765 74.3698H168.02L168.26 74.5095L168.304 74.5849ZM182.183 80.2224L181.803 80.3272L181.809 80.2427L181.91 80.0952L182.107 80.0535L182.182 80.0028L182.307 79.969L182.379 79.9747L182.451 80.0164L182.279 80.0997L182.183 80.2224ZM181.624 81.085L181.428 81.1492L181.399 80.8306L181.459 80.745L181.792 80.4882L181.884 80.4398L181.952 80.4938L181.935 80.5625L182.096 80.6785L182.057 80.8249L181.883 80.9848L181.624 81.085Z" fill="#108AB4"/>
<path d="M203.25 92.1867L202.984 92.4097L202.695 92.7273L202.314 93.2757L202.331 93.448L202.248 93.5876L202.227 93.8331L202.254 94.109L202.352 94.2892L202.397 94.6316L202.322 94.9401L202.351 95.1203L202.428 95.4041L202.491 95.7082L202.484 95.8298L202.576 95.93L202.662 96.0269L202.635 96.2972L202.936 96.7791L203.119 96.9886L203.387 97.1936L203.484 97.3929L203.635 97.6339L203.725 97.662L203.773 97.7589L203.724 97.9447L203.714 98.2026L203.544 98.5021L203.15 99.0506L203.101 99.1778L203.204 99.6328L203.15 100.007L203.126 100.186L202.932 100.513L202.473 101.305L202.209 101.448L202.049 101.677L201.947 101.679L201.832 101.7L201.796 101.729L201.652 101.726L201.539 101.625L201.521 101.506L201.461 101.368L201.32 101.327L201.052 101.375L200.974 101.34L200.815 101.194L200.683 101.033L200.649 100.877L200.565 100.892L200.361 101.033L200.222 101.061L200.112 101.025L199.99 101.035L199.679 101.186L199.495 101.22L199.365 101.372L198.501 101.44L198.273 101.48L197.758 101.218L197.625 101.133L197.557 101.12L197.5 101.134L197.443 101.193L197.358 101.521L197.28 101.61L197.145 101.684L197.013 101.814L196.987 101.941L197.19 102.012L197.359 102.259L197.542 102.457L197.69 102.631L197.67 102.829L197.645 103.109L197.538 103.205L197.359 103.251L196.705 103.116L196.202 102.994L195.992 102.968L195.896 102.937L195.771 102.834L195.644 102.74L195.44 102.705L195.197 102.641L195.017 102.394L194.831 102.044L194.765 101.885L194.62 101.732L194.478 101.513L194.434 101.32L194.327 101.143L194.271 101.083L194.188 100.842L194.17 100.752L194.129 100.741L194.071 100.663L193.956 100.405L193.93 100.341L193.879 100.319L193.745 100.137L193.638 100.074L193.599 99.9808L193.608 99.7285L193.55 99.6035L193.533 99.3659L193.53 99.2713L193.475 99.1655L193.384 99.0968L193.368 98.9244L193.345 98.501L193.301 98.4267L192.916 98.4323L192.878 98.474L192.711 98.4988L192.525 98.5033L192.357 98.447L192.218 98.3726L192.188 98.2803L192.209 97.9864L191.985 97.7634L191.63 97.4875L191.523 97.1373L191.393 96.9188L191 96.4616L190.93 96.1485V95.9266L191.067 95.724L191.26 95.3658L191.34 95.0415L191.398 94.8726L191.497 94.6507L191.587 94.3636L191.519 94.1867L191.402 94.0144L191.363 93.8838L191.477 93.6946L191.591 93.5606L191.72 93.5426L191.885 93.4615L192.014 93.3466L192.211 93.3162L192.457 93.3038H192.959L193.216 93.2543L193.296 93.1619L193.283 92.984L193.411 92.823L193.545 92.7554L193.599 92.7025L193.607 92.6428L193.572 92.5888L193.518 92.5527L193.378 92.5403L193.255 92.261L193.34 92.1394L193.448 91.9153L193.478 91.7881L193.646 91.5898L193.687 91.6507L193.816 91.2881L193.832 90.993L193.931 90.7024L194.083 90.3578L194.357 90.1866L195.95 90.3612L196.678 90.5256L197.613 90.8094L197.746 91.1135L197.753 90.8094L197.707 90.5031L197.966 90.2858L198.533 90.2092L199.384 90.3139L200.115 90.1855L201.109 90.2013L202.618 90.449L203.294 90.618L203.572 90.7711L203.625 91.0459L203.599 91.3984L203.489 91.7351L203.25 92.1867Z" fill="#108AB4"/>
<path d="M211.162 96.2756L211.064 96.3431L210.801 96.4918L210.68 96.6889L210.609 96.8792L210.446 97.0076L210.289 97.1709L210.24 97.3015L210.094 97.4062L210.066 97.5797L209.698 98.1923L209.551 98.4671L209.339 98.7598L209.207 98.8691L209.028 99.0425L208.937 99.2441V99.4524L208.812 99.7013L208.742 99.9164L208.624 100.041L208.312 100.722L208.296 100.956L208.222 101.094L208 101.419L207.85 101.614L207.588 101.76L207.313 101.919L207.209 102.092L207.014 102.18L206.873 102.186L206.644 102.123L206.334 102.092L206.178 102.112L206.107 102.027L206.001 101.83L205.847 101.689L205.748 101.737L205.539 101.878L205.295 101.962L205.121 101.933L204.743 101.837L204.582 101.787L204.534 101.704L204.477 101.642L204.394 101.669L204.282 101.773L204.134 101.882L203.913 102.026L203.459 102.284L203.332 102.376L203.215 102.325L203.022 102.275L202.817 102.272L202.375 102.105L202.116 101.985L202.003 101.835L201.872 101.771L201.796 101.73L201.832 101.701L201.947 101.68L202.049 101.678L202.209 101.449L202.473 101.306L202.932 100.514L203.126 100.187L203.15 100.008L203.204 99.6337L203.101 99.1788L203.15 99.0515L203.544 98.5031L203.714 98.2035L203.724 97.9456L203.773 97.7598L203.725 97.663L203.635 97.6348L203.484 97.3938L203.387 97.1945L203.119 96.9895L202.936 96.7801L202.635 96.2981L202.662 96.0278L202.576 95.931L202.484 95.8307L202.491 95.7091L202.428 95.4051L202.351 95.1213L202.322 94.9411L202.397 94.6325L202.352 94.2902L202.254 94.11L202.227 93.8341L202.247 93.5886L202.331 93.449L202.314 93.2766L202.695 92.7282L202.984 92.4106L203.25 92.1876L203.474 92.021L203.777 91.1876L203.996 90.8948L204.226 90.8521L205.467 91.5424L206.049 91.6066L207.222 91.9793L207.646 92.4568L208.629 93.2519L209.146 93.5019L209.151 93.7102L209.038 94.0413L209.369 93.7519L209.881 94.2102L210.026 94.4343L210.185 94.8487L210.129 95.1156L210.058 95.253L210.055 95.36L210.207 95.2125L210.293 95.0965L210.319 94.8183L210.442 94.4737L210.609 94.467L210.742 94.673L211.017 95.5661L211.12 95.7485L211.16 96.0323L211.145 96.1584L211.162 96.2756Z" fill="#108AB4"/>
<path d="M171.227 49.1112L171.272 49.2227L171.245 49.2204L171.065 49.1438L170.925 49.1382L170.867 49.1179L170.836 49.0763L171.115 49.0718L171.227 49.1112ZM170.888 50.0256L170.805 50.0493L170.753 50.0437L170.735 49.9963L170.791 49.8646L171.112 49.8499L170.888 50.0256ZM170.26 50.2294L170.013 50.2418L169.939 50.2002L170.079 50.0977L170.338 50.0853L170.414 50.1123L170.26 50.2294Z" fill="#108AB4"/>
<path d="M169.466 50.4701L169.229 50.4993L168.901 50.3462L169.159 50.2876L169.326 50.3248L169.466 50.4701ZM170.05 50.3901L169.841 50.4779L169.7 50.4656L169.646 50.434L169.757 50.3315L170.05 50.3901ZM169.717 52.2404L169.981 52.3856H170.302L169.968 52.5309L169.327 52.5455L169.342 52.3124L169.717 52.2404Z" fill="#108AB4"/>
<circle cx="100" cy="60" r="8.5" stroke="#C5B581" stroke-width="3"/>
</svg>
