<svg width="264" height="224" viewBox="0 0 264 224" fill="none" xmlns="http://www.w3.org/2000/svg">
<path d="M148.4 71.6813L148.48 71.7748L148.478 71.8728L148.745 72.0733L149.279 72.3784L149.779 72.9674L150.245 73.8424L150.683 74.4911L151.092 74.91L151.468 75.2074L151.812 75.3808L151.995 75.5215L152.019 75.6297L152.34 75.8537L152.958 76.1949L153.349 76.5362L153.513 76.8763L154.124 77.2288L155.181 77.5914L155.95 77.7648L156.43 77.749L157.118 78.0385L158.015 78.6353L158.562 79.0498L158.759 79.2806L159.346 79.6556L160.81 80.4315L161.455 80.6263L161.761 80.8043L161.943 81.0295L162.122 81.0994L162.299 81.0115L162.666 81.0926L163.224 81.3426L163.661 81.6455L164.223 82.3134L164.402 82.5803L164.478 82.819L164.451 83.0296L164.279 83.2548L163.964 83.4935L163.871 83.5983L163.864 83.6985L163.784 83.9001L163.523 84.3302L163.456 84.5307L163.442 84.6793L163.276 84.8416L162.836 85.1411L162.744 85.2863L162.722 85.4429L162.667 85.5364L162.607 85.5758L162.523 85.7323L162.454 85.9925L162.447 86.3258L162.501 86.7335L162.49 86.8652L162.393 86.9351L162.338 87.0297L162.319 87.22L162.235 87.3596L162.09 87.4486L162.036 87.5499L162.074 87.6659L161.967 87.7797L161.715 87.8923L161.561 88.0567L161.503 88.2718L161.363 88.4644L161.139 88.6344L161.065 88.8608L161.183 89.2797L162.563 89.1345L163.688 89.2876L165.019 89.6907L165.902 89.8315L166.338 89.7099L166.661 89.7268L166.872 89.8833L167.154 89.9149L167.509 89.8225L167.803 89.8934L168.035 90.1277L168.246 90.0691L168.435 89.72L168.652 89.4644L168.898 89.3045L169.203 89.256L169.569 89.3202L169.861 89.4486L170.079 89.6412L170.317 89.6355L170.575 89.4317L170.698 89.1874L170.687 88.9024L170.79 88.6986L171.005 88.5758L171.15 88.4103L171.226 88.2008L171.481 88.0736L171.917 88.0274L172.146 87.9249L172.166 87.7662L172.294 87.6198L172.532 87.4857L172.695 87.3191L172.783 87.1198L172.926 86.9936L173.126 86.9429L173.349 86.5229L173.594 85.7368L173.739 84.676L173.79 83.1748L174.036 83.176L174.151 83.2875L174.334 83.3449L174.525 83.2187L174.688 83.1602L174.946 83.1557L175.086 83.0138L175.249 82.9913L175.361 83.0679L175.469 83.1613L175.699 83.1827L175.881 83.426L176.081 83.5003L176.167 83.7796L176.297 84.5149L176.538 84.9497L176.776 85.4452L176.785 85.6659L176.651 85.8889L176.629 86.2098L176.545 86.9947L176.517 87.2842L176.601 87.4813L176.631 87.7572L176.502 88.0939L176.249 88.5984L176.005 88.7346L175.942 88.7403L175.611 89.032L175.378 89.1412L175.243 89.068L175.088 89.1941L174.915 89.5218L174.703 89.6683L174.32 89.7493L174.205 89.7876L173.982 89.7763L173.791 89.8574L173.631 90.032L173.461 90.0973L173.28 90.0534L173.115 90.1176L172.968 90.2899L172.882 90.4768L172.858 90.6784L172.714 90.8158L172.449 90.889L172.356 90.9903L172.373 91.1311L172.254 91.2404L171.804 91.3552L171.479 91.5579L171.278 91.8495L171.067 92.0331L170.733 92.1457L170.281 92.4431L170.215 92.6266L170.388 92.7955L170.45 92.9464L170.401 93.0782L170.26 93.0962L170.026 93.0005L169.86 92.9802L169.76 93.0365L169.713 93.1424L169.719 93.2978L169.635 93.4036L169.462 93.4599L169.353 93.5883L169.307 93.7899L169.089 94.0445L168.702 94.3507L168.397 94.764L168.173 95.2844L167.911 95.6267L167.612 95.7911L167.406 96.0253L167.293 96.3294L166.973 96.8001L166.448 97.4398L165.972 97.879L165.544 98.1177L165.304 98.388L165.251 98.6887L164.974 99.0322L164.473 99.4173L164.331 99.5907L164.214 99.7326L164.197 99.9804L164.002 100.306L163.627 100.71L163.497 101.06L163.667 101.503L163.692 102.04L163.617 102.255L163.453 102.328L163.416 102.467L163.505 102.672L163.509 102.941L163.43 103.275L163.257 103.658L162.988 104.09L162.922 104.378L163.062 104.523L163.131 104.678L163.128 104.842L163.071 105.08L162.96 105.392L162.791 105.624L162.564 105.774L162.496 105.966L162.587 106.197L162.599 106.438L162.534 106.689L162.572 106.933L162.714 107.171L162.704 107.442L162.457 108L162.398 108.344L162.552 109.823L162.458 110.03L162.302 110.269L162.116 110.287L161.904 110.245L161.751 110.394L161.656 111.05L161.364 112.474L161.416 112.813L161.65 113.364L161.735 113.715L161.801 113.98L161.853 114.482L161.716 114.708L161.59 114.748L161.431 114.875L161.619 115.489L161.769 115.771L162.197 116.352L163.84 117.161L164.522 117.638L165.293 118.29L165.714 118.962L165.751 119.516L165.135 120.346L165.067 121.044L165.193 121.536L165.416 121.993L166.013 122.588L166.452 122.806L167.045 122.783L167.147 122.949L167.207 123.096L167.301 124.306L167.29 124.762L167.115 125.181L165.975 127.112L165.002 128.296L164.65 128.953L164.525 129.657L164.213 129.992L162.526 131.06L159.909 132.016L157.794 132.514L157.313 132.681L153.913 133.23L153.256 133.307L152.4 133.258L151.705 133.331L150.93 133.182L150.239 133.009L149.851 132.581L149.392 132.528L149.267 132.742L149.491 133.288L149.382 133.947L149.518 134.323L149.789 134.399L150.051 134.594L150.281 134.855L149.884 134.882L150.038 135.09L150.208 135.212L150.189 135.648L150.035 136.7L149.647 136.925L149.544 136.986L149.427 137.213L149.18 138.224L149.101 138.882L149.207 139.307L149.672 140.201L149.496 140.783L149.203 141.099L147.929 141.751L147.42 142.013L146.618 142.192L145.326 142.222L144.849 142.182L143.742 141.587L142.92 141.231L142.167 140.949L141.435 140.78L141.54 140.694L141.589 140.541L141.383 140.455L141.233 140.436L140.751 140.744L140.548 141.058L140.49 141.334L140.479 141.996L140.565 142.553L140.912 143.931L140.948 144.682L140.783 145.632L141.013 146.193L141.292 146.446L141.92 146.698L142.163 146.869L142.431 146.842L142.513 146.908L142.474 147.031L142.316 147.273L142.326 147.529L142.802 147.604L143.295 147.552L143.812 147.439L143.933 147.261L143.937 146.889L143.331 146.824L143.407 146.685L143.867 146.534L144.468 146.288L144.776 146.241L144.985 146.407L145.126 146.559L145.299 146.959L145.407 147.487L145.412 148.123L145.34 148.724L145.254 148.936L145.102 149.192L144.021 149.519L143.718 149.433L143.437 148.979L143.348 148.51L143.107 148.193L142.59 147.942L142.075 148.019L141.565 148.454L141.064 148.595L140.886 148.993L142.143 149.637L142.736 149.817L142.93 149.81L143.122 149.895L142.943 150.135L142.764 150.283L141.87 150.612L141.476 150.842L141.015 151.294L140.37 152.284L140.172 152.501L140.073 152.753L140.006 153.439L140.216 154.582L139.995 155.061L140.131 155.595L140.055 155.952L139.83 156.467L138.924 157.281L138.763 157.878L139.077 158.23L139.056 158.539L138.951 158.819L138.575 158.816L137.208 158.628L136.71 158.934L136.248 159.309L136.122 159.488L135.959 159.601L135.019 159.801L134.833 159.934L133.833 161.37L133.405 162.264L132.888 163.145L132.753 163.519L132.724 164.038L132.796 164.506L132.868 164.852L133.048 165.297L133.426 165.805L135.353 167.885L135.753 168.067L137.814 168.291L138.271 168.583L138.538 169.047L138.636 169.457L138.518 170.498L138.395 170.824L138.167 171.121L137.68 171.504L137.096 171.708L137.263 171.853L137.5 171.832L138.015 171.708L138.238 171.832L138.407 172.245L138.084 172.412L137.986 172.614L137.753 172.919L136.564 174.14L135.923 174.506L135.334 174.998L134.543 175.497L134.234 175.784L133.815 176.387L133.174 177.046L132.483 178.466L132.456 178.742L132.556 178.927L132.172 181.439L132.038 181.737L131.76 182.054L131.028 182.579L130.675 182.644L130.209 182.34L129.946 182.023L129.689 181.48L129.378 180.921L129.362 181.121L129.47 181.461L129.397 181.817L128.602 181.979L128.391 182.145L129.109 182.071L129.597 182.179L129.805 182.309L129.99 182.58L130.155 182.907L130.017 183.088L129.626 183.238L129.119 183.514L128.52 184.013L128.187 184.591L128.044 185.008L127.882 185.85L127.839 186.409L127.586 186.839L127.195 187.228L127.218 187.317L127.482 187.117L127.694 187.054L127.877 187.572L128.122 188.612L128.236 189.335L128.218 189.549L128.145 189.844L127.64 189.915L127.19 189.906L126.859 190.032L127.037 190.162L127.341 190.116L127.761 190.427L128.227 190.294L128.44 190.503L128.593 190.693L129.307 192.218L129.931 193.165L130.246 193.728L130.09 193.985L130.033 193.643L129.627 193.554L129.23 193.463L128.569 193.219L127.678 192.849H126.787L126.078 192.537L125.295 192.193L123.643 192.162L122.188 192.141L120.697 192.12L119.744 192.105L119.105 192.096L118.94 191.967L118.996 191.539L118.759 191.223L118.416 190.843L117.998 190.575L117.791 190.215L117.559 189.812L117.689 189.455L117.89 188.589L117.893 188.209L117.712 187.943L117.657 187.566L117.712 187.389L117.875 187.255L117.973 186.639L117.897 186.036L117.772 185.499L117.606 185.263L117.393 185.15L117.236 185.129L116.887 185.329L116.308 185.278L116.111 185.355L115.828 185.57L115.427 185.888L115.204 185.777L115.135 185.437L114.987 185.143L114.892 184.884L114.821 184.457L114.703 183.911L114.466 183.266L114.104 182.746L114.084 182.278L114.016 181.693L114.201 181.124L114.093 180.653L113.866 180.094L113.936 179.515L114.159 179.195L114.229 178.789L115.26 178.725L115.218 178.181L115.389 177.742L115.581 177.345L115.746 177.164L116.113 177.007L116.545 176.778L116.79 176.517L116.907 176.283L116.978 175.981L116.997 175.66L116.926 174.979L117.007 174.769L117.275 174.493L117.728 174.249L117.923 173.601L117.811 173.039L117.56 172.594L117.24 172.394L117.212 171.938L117.356 171.506L117.544 171.043L117.768 170.512L117.755 170.142L117.954 169.926L118.522 169.444L118.717 168.973L118.916 168.846L119.149 168.789L119.162 168.523L118.992 168.26L118.965 167.93L118.986 167.565L119.037 167.077L119.302 166.895L119.694 166.501L119.799 166.251L119.812 165.916L119.699 165.227L119.602 164.734L119.552 164.553L119.374 164.219L119.242 164.009L119.453 163.745L119.847 163.469L120.014 163.07L119.861 162.731L119.638 162.552L119.568 162.033L119.651 161.377L119.818 161.179L120.404 161.08L120.459 160.743L120.905 160.268L120.891 159.814L120.607 159.536L120.329 159.087L120.124 158.692L119.442 158.476L118.717 158.359L118.619 157.986L118.647 157.771L118.983 157.858L119.534 157.782L119.949 157.765L120.237 157.727L120.569 157.673L120.875 157.83L121.182 157.732L121.307 157.145L121.502 156.833L121.53 156.54L121.335 156.307L120.978 156.235L119.416 156.05L119.369 155.817L119.382 155.426L119.441 155.028V154.832L119.583 154.659L119.745 154.299L119.858 154.059L119.745 153.748L119.496 153.29L119.677 153.078L119.692 152.826L119.635 152.579L119.376 152.306L119.148 151.928V151.528L119.416 151.421L119.594 151.298L119.635 151.05L119.537 150.745L119.167 150.651L118.674 150.465L118.523 150.308L118.383 149.981L118.487 149.066L118.435 148.515L118.391 148.211L118.512 147.977L118.676 147.766L118.598 147.276L118.452 147.02L118.504 146.823L118.642 146.624L118.763 146.38L118.866 146.323L119.022 146.462L119.284 146.38L119.601 146.183L119.634 145.951L119.571 145.62L119.336 144.789L119.124 144.276L119.168 144.092L119.251 143.898L119.185 143.195L119.206 142.772L119.222 141.527L119.246 141.104L119.03 140.672L119.059 140.267L119.211 139.972L119.354 139.574L119.461 139.221L119.574 139.062L119.764 138.983L119.808 138.791L119.721 138.644L119.476 138.416L119.419 138.137L119.471 137.923L119.592 137.799L119.778 137.8L119.919 137.495L119.96 137.119L119.989 136.944L119.881 136.724L119.803 136.207L119.73 135.915L119.817 135.792L119.937 135.747L120.15 135.817L120.3 135.781L120.326 135.624L120.343 135.456L120.4 135.343L120.534 134.964L120.677 134.496L120.711 134.166L120.66 133.273L120.736 133.068L120.889 132.881L121.102 132.705L121.382 132.56L121.73 132.35L122.158 132.274L122.331 132.042L122.452 131.733L122.486 131.48L122.321 131.304L122.105 131.095L122.003 130.569L121.947 130.084L121.916 129.473L121.701 128.949L121.476 128.362L121.415 127.839L121.49 127.554L121.579 127.101L121.485 126.895L121.372 126.527L121.489 126.239L121.631 125.792L121.614 125.565L121.502 125.026L121.398 124.724L121.502 124.402L121.666 124.101L121.795 123.94L121.774 123.681L121.83 123.468L122.076 123.327L122.306 123.063L122.47 123.032H122.668L122.798 122.957L122.849 122.754L122.884 122.53L123.201 122.252L123.387 121.997L123.723 121.944L123.888 121.667L123.891 121.312L123.853 120.954L123.966 120.541L123.841 119.91L123.853 119.577L123.723 119.302L123.749 119.006L123.679 118.816L123.484 118.745L123.411 118.51L123.506 118.394L123.691 118.305L123.923 118.125L124.096 117.26L124.178 117.003L124.258 116.696L124.248 116.536L124.36 116.305L124.499 115.955L124.719 115.617L124.844 115.385L124.966 115.073L125 114.885L125.156 114.791L125.335 114.768L125.546 114.709L125.632 114.594L125.616 114.428L125.603 114.06L125.54 113.475L125.499 112.724L125.537 112.231L125.675 111.736L125.805 111.468L125.77 111.262L125.735 111.036L125.493 110.912L125.263 111.019L125.102 110.99L124.896 110.727L124.835 110.449L124.87 110.07L125.031 109.833L125.094 109.536L124.999 109.443L124.797 109.246L124.605 108.568L124.629 107.992L124.439 107.839L124.35 107.389L124.154 107.228L124.076 106.893L124.015 106.547L124.041 106.395L124.246 106.352L124.362 106.08L124.275 105.928L124.12 105.796L123.922 105.806L123.744 105.651L123.506 105.001L123.318 104.643L123.378 104.121L123.415 103.715L123.496 103.367L123.525 103.093L123.672 102.962L123.81 103.022L123.94 102.992L124.059 102.77L124.19 102.63L124.182 102.52L124.104 102.4L124.067 102.19L124.158 101.939L124.316 101.366L124.554 100.735L124.657 100.5L124.631 100.3L124.683 100.21L124.845 100.31L125.306 100.2L125.461 99.9207L125.522 99.6718L125.66 99.5322L125.6 99.3339L125.409 99.2743L125.294 99.1808L125.341 98.9555L125.408 98.4387L125.397 98.0592L125.223 97.2495L125.084 96.4499L125.182 96.183L125.484 95.8182L125.712 95.6537L125.754 95.4453L125.98 94.5061L126.006 93.9937L126.155 93.7111L126.253 93.1796L126.663 92.7223L126.783 92.4194L126.948 92.3901L127.034 92.2921L127.252 91.9554L127.534 91.6097L127.778 91.4351L127.838 91.1626L127.954 90.791L128.195 90.175L128.33 89.7459L128.512 89.5916L128.723 89.0308L128.815 88.702L129.057 88.5668L129.246 88.5286L129.427 88.6829L129.618 88.6536L129.791 88.461L130.208 88.3292L130.396 88.2583L130.483 88.0657V87.7279L130.309 87.4779L129.957 86.9992L129.653 86.4643L129.62 86.2965L129.618 86.1129L129.669 85.881L129.815 85.6186L130.18 85.1861L130.14 84.8776L129.874 83.7435L129.776 83.4316L129.592 82.8539L129.618 82.6253L129.78 81.9879L129.921 81.7311L130.128 81.6838L130.24 81.5982L130.275 81.4845L130.137 81.3426L130.076 81.1624L130.015 80.9057L129.824 80.8156L129.713 80.6027V80.2908L129.886 79.8842L130.076 79.7705L130.154 79.5903L130.358 79.4259L130.543 79.2987L130.699 79.0632L131.34 78.775L131.849 78.5509L132.842 78.123L133.523 77.829L133.588 77.6263L133.64 77.4878L133.956 76.4551L134.364 75.1229L134.62 74.2895L134.032 73.6769L134.136 73.5136L134.473 73.0947L134.542 72.7591L134.676 72.615L135.28 72.2737L135.384 72.0474L135.436 71.7962L135.559 71.616L135.789 71.5789L136.207 71.419L136.655 71.2669L136.79 71.0609L136.917 70.7028L137.027 70.3063L137.113 70.2129L137.257 70.223L137.497 70.3221L137.623 70.4719L138.251 70.9471L138.532 71.2185L138.8 71.2546L139.33 71.2016L139.437 71.214L140.787 71.2298L140.993 71.2534L141.465 71.3694L141.732 71.4629L141.917 71.5113L142.216 71.6577L142.475 72.1431L142.62 72.5293L142.722 72.8694L142.948 73.4674L143.102 73.6949L143.157 73.5845L143.289 72.9302L143.47 72.5496L143.715 72.1228L144.207 71.1273L144.379 70.9787L144.571 70.9066L144.705 70.9009L144.841 70.9753H145.027L145.159 70.8965L146.449 70.884L147.788 70.8728L147.816 70.8784L147.877 71.0496L148.1 71.4234L148.35 71.6217L148.4 71.6813ZM150.85 134.024L150.882 134.281L150.717 134.25L150.326 134.005L150.195 133.775L150.164 133.678L150.563 133.783L150.751 133.879L150.85 134.024ZM129.43 207.253L129.448 206.019L129.472 204.37L129.477 202.909L129.481 201.495L129.486 200.04L129.49 198.595L129.496 197.06L129.502 195.512L129.687 195.731L130.422 196.801L130.613 197.24L130.734 197.754L130.44 197.427L130.13 197.614L129.977 197.92L129.846 198.254V198.489L129.948 198.695L130.249 198.874L130.983 198.935L131.037 199.003L131.465 200.299L131.68 200.589L131.93 200.82L132.508 201.487L133.064 202.208L133.722 202.894L134.432 203.422L135.078 203.823L135.694 204.315L136.352 205.004L137.067 205.506L137.835 205.861L138.611 206.158L139.806 206.042L140.176 206.074L140.407 206.292L140.175 206.897L139.879 207.385L139.484 207.586L139.066 207.661L138.689 207.65L138.313 207.56L137.959 207.611L137.621 207.817L137.269 207.92L136.906 207.933L136.552 208.106L136.198 208.232L135.829 208.128L134.872 207.641L134.251 207.525L132.145 207.333L131.469 207.221L130.796 207.054L130.443 207.046L129.94 207.155L129.537 207.141L129.43 207.253ZM142.401 206.502L142.75 206.628L143.439 206.532L143.803 206.531L143.963 206.576L144.034 206.644L144.509 206.538L144.719 206.55L144.665 206.784L144.227 207.018L144.047 206.918L143.116 206.94L142.704 207.181L142.528 207.179L142.121 207.522L141.824 207.305L141.742 207.105L141.957 206.822L142.16 206.816L142.298 206.701L142.401 206.502Z" fill="#108AB4"/>
<path d="M162.593 64.7067L162.656 64.1515L162.592 63.6706L162.528 63.5468L161.599 62.9747L160.756 62.4544L159.652 61.7742L158.228 61.7933L156.754 61.8125L155.35 62.1165L153.968 62.415L153.313 62.5568L151.999 62.8407L151.225 62.9712L151.022 63.5186L150.719 64.3407L150.419 64.8215L150.072 65.3272L149.583 66.0401L149.582 66.9072V67.7326L149.238 68.8982L148.946 69.8892L148.664 70.8487L148.47 71.512L148.398 71.6809L148.353 71.6269L148.103 71.4286L147.88 71.0548L147.819 70.8847L147.791 70.878L146.451 70.8892L145.162 70.9017L145.03 70.9804L144.844 70.9793L144.708 70.9061L144.575 70.9118L144.382 70.9839L144.21 71.1336L143.718 72.1291L143.475 72.5548L143.293 72.9365L143.162 73.5909L143.107 73.7001L142.953 73.4738L142.727 72.8758L142.626 72.5345L142.48 72.1483L142.221 71.6629L141.923 71.5165L141.737 71.4681L141.47 71.3757L140.998 71.2598L140.792 71.2361L139.442 71.2203L139.335 71.2079L138.806 71.2609L138.538 71.2248L138.256 70.9546L137.629 70.4794L137.503 70.3284L137.262 70.2293L137.119 70.2192L137.031 70.3127L136.923 70.7091L136.794 71.0672L136.66 71.2732L136.212 71.4253L135.794 71.5841L135.565 71.6212L135.442 71.8003L135.388 72.0514L135.285 72.2778L134.682 72.619L134.548 72.762L134.478 73.0988L134.141 73.5165L134.038 73.6798L133.508 73.7947L132.82 73.9186L132.418 73.9107L132.143 73.878L132.06 73.8026L131.874 73.6843L131.843 73.5526L131.841 73.3657L131.892 73.0289L131.866 72.5627L131.65 72.0199L131.667 71.8453L131.639 71.5796L131.53 71.0807L131.25 70.8296L131.172 70.4151L131.139 70.0514L130.904 69.5965L130.865 69.0176L130.871 68.5221L130.502 67.9466L130.116 67.3362L129.806 67.2529L129.729 67.1797L129.695 67.0052L129.688 66.7337L129.713 66.5693L129.953 66.3024L129.962 66.2619L129.914 66.2056L129.294 65.8069L129.138 65.6909L129.089 65.549L129.094 65.4207L129.241 65.29L129.317 65.1932L129.172 64.9094L129.186 64.6526L129.094 64.5423L129.104 64.4589L129.194 64.388L129.596 64.3057L129.721 64.0456L129.726 63.8294L129.665 63.6763L129.293 63.29L129.285 63.2247L129.675 62.6875L129.954 62.335L130.031 62.2629L130.007 62.1864L129.938 62.0929L129.762 61.9578L129.532 61.8091L129.342 61.6289L129.094 61.362L128.782 61.1334L128.551 60.9059L128.433 60.7168L128.431 60.5231L128.399 60.2021L128.248 59.6818L128.208 59.3304L128.142 58.9419L128.077 58.6885L128.041 58.4442L127.933 58.1795L127.873 57.9858L127.96 57.8496L128.047 57.7437L128.036 57.6772L127.441 57.3946L127.342 57.3225L127.201 56.7572L126.768 56.2549L126.718 55.8811V55.8765V55.7301L126.683 55.4948L126.551 55.3112L126.354 55.184L126.292 55.033L126.357 54.8743L126.741 54.5601L126.947 54.5072L127.001 54.3472L127.126 54.2211L127.488 53.7594L127.701 53.4564L127.914 53.274L128.16 53.1479L128.267 53.042L128.211 52.7165L128.228 52.497L128.313 52.3584L128.56 52.212L128.782 52.1005L128.829 52.0454L128.81 51.9632L128.606 51.7965L128.186 51.6512L127.908 51.6659L127.738 51.5375L127.644 51.4283L127.094 50.0814L127.003 49.7672L127.009 49.6455L127.379 48.9811L127.528 48.7638L127.788 48.4507L127.741 48.3268L127.288 47.8077L127.148 47.5611L127.151 47.3144L127.196 47.016L127.46 46.855L127.535 46.6117L127.59 46.3719L127.703 46.293L127.818 46.1567L127.954 45.9608L128.166 45.7896L128.291 45.659L128.318 45.2952L128.422 45.1961L128.711 45.0802L128.74 44.9867L128.675 44.7423L128.531 44.4844L128.414 44.3583L128.259 43.7254L128.098 43.4112L128.166 43.285L128.277 43.1251L128.385 42.8087L128.42 42.4404L128.393 41.0868L128.4 40.8199L128.542 40.6341L128.75 40.4179L128.927 40.3357L129.094 40.1994L129.081 39.9438L129.192 39.7929L129.328 39.6037L128.906 38.8593L128.534 38.205L128.186 37.5912L127.783 36.8818L127.518 36.4144L127.188 35.8344L126.899 35.3254L126.504 34.6317L126.871 34.6193L127.611 34.6441L128.327 34.768L128.812 34.822L129.015 34.9279L129.06 35.0979L129.194 35.1768L129.349 35.1464L129.525 35.1351L129.918 34.9617L130.236 34.8457L130.509 34.7072L130.65 34.572L130.991 34.0979L131.266 33.8367L131.52 33.7455L132.014 33.7072L132.17 33.7815L132.372 33.7725L132.547 33.5033L132.812 33.206L133.336 32.8355L133.602 32.7342L133.767 32.6047L134.051 32.5855L134.301 32.4504L135.507 31.5145L135.996 31.2736L136.3 31.2296L136.552 31.1722L136.98 31.0382L138.052 30.9075L138.74 30.8546L138.961 30.9841L139.209 30.947L139.42 30.7375L139.594 30.6699L139.722 30.6756L139.907 30.9233L139.997 31.1868L139.938 31.3873L139.949 31.6789L140.031 32.0596L139.985 32.3997L139.725 32.8434L139.594 33.0247L139.561 33.2117L139.584 33.4639L139.703 33.8738L139.918 34.4437L139.951 34.8648L139.8 35.1385L139.73 35.375L139.743 35.5743L139.796 35.714L139.892 35.7939L139.945 35.9527L139.957 36.1915L140.083 36.4223L140.323 36.6453L140.421 36.857L140.376 37.0597L140.388 37.187L140.458 37.2365L140.523 37.196L140.611 37.1396L140.689 37.1599L140.858 37.4426L140.879 37.5L140.97 37.7343L140.998 37.9111L141.245 38.0102L141.512 38.0879L141.659 38.1802L141.954 38.4606L142.202 38.6453L142.513 38.7962L142.616 39.0383L142.806 39.4032L143.33 39.5429L143.94 39.6127L144.33 39.6927L144.805 39.4989L145.119 39.526L145.444 39.6577L145.583 39.7478L145.825 39.9359L146.2 40.1769L146.506 40.2658L146.725 40.1318L146.926 40.0845L147.083 40.1408L147.165 40.4032L147.247 40.5801L147.429 40.7141L147.817 41.0575L148.037 41.1983L148.285 41.1882L148.796 41.4145L149.341 41.6341L149.622 41.6702L149.899 41.6375L150.083 41.7231L150.157 41.9877L150.631 42.517L150.854 42.7254L151.12 42.9033L151.797 42.8999L152 42.9528L152.302 42.9056L153.209 42.8154L153.374 42.7873L153.887 43.0181L154.494 43.3515L154.896 43.6128L155.177 43.7569L155.323 43.9912L155.442 44.2355L155.498 44.499L155.424 44.7603L155.314 44.8662L155.277 45.0351L155.323 45.2885L155.525 45.5148L155.599 45.793L155.709 46.2862L155.833 46.4417L155.913 47.9698L155.507 47.9822L154.933 48.0002L155.101 48.1467L155.575 48.7165L156.011 49.2424L156.081 50.087L156.124 50.6197L156.186 51.3719L156.222 51.8213L157.311 51.8618L158.565 51.908L160.073 51.9643L161.399 52.0138L161.529 52.0082L161.759 51.9474L161.912 51.8674L162.006 51.8697L162.021 52.0521L161.99 52.2819L161.991 52.5465L161.611 53.0691L161.588 53.2335L161.645 53.9227L161.779 54.4812L161.847 54.9858L161.999 55.1434L162.448 55.4103L163.127 55.9035L163.399 55.9677L163.628 55.9002L163.766 56.1018L163.793 56.4272L164.168 57.336L164.405 57.9137L164.515 58.1153L164.693 58.2189L164.659 58.2944L164.511 58.3248L164.445 58.4329L164.239 59.0816L163.967 59.9363L163.784 60.5388L163.949 60.5478L163.956 60.7145L163.993 60.969L163.789 61.0005L163.729 61.0918L163.494 61.5861L163.188 62.2337L162.87 62.9049L162.682 63.3023L163.003 63.5963L163.538 64.0873L163.454 64.2235L163.224 64.2923L163.031 64.3396L162.884 64.5253L162.802 64.6616L162.593 64.7067Z" fill="#108AB4"/>
<path d="M134.038 73.6796L134.626 74.2922L134.371 75.1256L133.962 76.4578L133.646 77.4905L133.595 77.629L133.529 77.8317L132.848 78.1257L131.855 78.5536L131.346 78.7777L130.705 79.066L130.55 79.3014L130.364 79.4286L130.16 79.593L130.082 79.7732L129.892 79.887L129.72 80.2935V80.6054L129.83 80.8183L130.021 80.9084L130.082 81.1651L130.143 81.3453L130.281 81.4872L130.247 81.6009L130.134 81.6865L129.927 81.7338L129.786 81.9906L129.624 82.628L129.598 82.8566L129.783 83.4343L129.881 83.7462L130.146 84.8803L130.186 85.1888L129.821 85.6213L129.676 85.8837L129.624 86.1157L129.626 86.2992L129.659 86.467L129.963 87.002L130.315 87.4806L130.489 87.7306V88.0684L130.402 88.261L130.214 88.3319L129.797 88.4637L129.624 88.6563L129.434 88.6856L129.252 88.5313L129.063 88.5695L128.821 88.7047L128.73 89.0335L128.518 89.5944L128.337 89.7486L128.201 90.1777L127.96 90.7937L127.845 91.1653L127.784 91.4378L127.54 91.6124L127.258 91.9582L127.04 92.2948L126.954 92.3928L126.789 92.4221L126.669 92.725L126.259 93.1823L126.161 93.7138L126.012 93.9965L125.986 94.5088L125.76 95.4481L125.718 95.6564L125.49 95.8209L125.188 96.1857L125.09 96.4526L125.23 97.2522L125.403 98.0619L125.414 98.4414L125.347 98.9583L125.301 99.1835L125.415 99.277L125.606 99.3367L125.667 99.5349L125.528 99.6745L125.467 99.9234L125.312 100.203L124.851 100.313L124.689 100.213L124.637 100.303L124.663 100.502L124.561 100.738L124.322 101.368L124.164 101.941L124.073 102.193L124.11 102.403L124.188 102.523L124.196 102.633L124.065 102.773L123.946 102.994L123.816 103.025L123.678 102.965L123.531 103.096L123.502 103.369L123.421 103.717L123.384 104.124L123.324 104.645L123.512 105.003L123.75 105.653L123.928 105.809L124.126 105.799L124.281 105.93L124.368 106.082L124.252 106.355L124.047 106.398L124.021 106.55L124.082 106.895L124.16 107.231L124.356 107.392L124.445 107.841L124.635 107.995L124.611 108.571L124.803 109.249L125.005 109.446L125.1 109.538L125.037 109.836L124.876 110.072L124.841 110.452L124.902 110.73L125.108 110.992L125.269 111.022L125.499 110.915L125.741 111.039L125.776 111.265L125.811 111.471L125.681 111.739L125.543 112.233L125.506 112.727L125.546 113.478L125.609 114.062L125.623 114.43L125.638 114.597L125.552 114.712L125.341 114.771L125.162 114.794L125.007 114.888L124.972 115.076L124.85 115.388L124.725 115.62L124.505 115.958L124.366 116.308L124.254 116.539L124.264 116.699L124.185 117.006L124.102 117.263L123.929 118.128L123.697 118.308L123.512 118.397L123.418 118.513L123.49 118.748L123.686 118.819L123.755 119.008L123.73 119.304L123.859 119.579L123.847 119.913L123.972 120.543L123.859 120.957L123.897 121.315L123.894 121.669L123.73 121.946L123.393 121.999L123.207 122.255L122.891 122.533L122.856 122.757L122.804 122.96L122.674 123.034H122.476L122.312 123.066L122.082 123.329L121.837 123.471L121.78 123.684L121.802 123.943L121.672 124.104L121.508 124.405L121.404 124.727L121.508 125.029L121.62 125.568L121.637 125.794L121.495 126.242L121.378 126.53L121.491 126.898L121.585 127.104L121.496 127.557L121.421 127.842L121.482 128.364L121.707 128.952L121.922 129.476L121.954 130.086L122.009 130.572L122.111 131.098L122.328 131.307L122.492 131.483L122.458 131.736L122.338 132.045L122.164 132.277L121.736 132.353L121.388 132.563L121.108 132.708L120.895 132.884L120.742 133.07L120.666 133.275L120.717 134.169L120.683 134.498L120.54 134.967L120.406 135.345L120.349 135.459L120.332 135.627L120.306 135.783L120.156 135.819L119.943 135.75L119.823 135.795L119.736 135.917L119.809 136.21L119.887 136.727L119.995 136.947L119.966 137.121L119.925 137.497L119.786 137.797L119.599 137.796L119.478 137.92L119.427 138.134L119.483 138.413L119.728 138.642L119.815 138.788L119.771 138.981L119.581 139.059L119.468 139.218L119.361 139.571L119.218 139.969L119.066 140.264L119.037 140.669L119.253 141.101L119.229 141.524L119.214 142.769L119.192 143.192L119.259 143.895L119.175 144.089L119.131 144.273L119.343 144.786L119.579 145.617L119.642 145.948L119.608 146.18L119.291 146.377L119.029 146.459L118.874 146.32L118.77 146.377L118.649 146.621L118.511 146.82L118.459 147.017L118.606 147.273L118.683 147.763L118.519 147.974L118.398 148.208L118.442 148.512L118.494 149.063L118.39 149.979L118.53 150.305L118.681 150.462L119.174 150.649L119.545 150.742L119.643 151.047L119.601 151.295L119.423 151.418L119.155 151.525V151.926L119.384 152.303L119.643 152.577L119.699 152.823L119.684 153.075L119.503 153.287L119.752 153.745L119.866 154.056L119.752 154.296L119.59 154.657L119.448 154.829V155.025L119.389 155.423L119.376 155.814L119.423 156.047L120.985 156.232L121.342 156.304L121.537 156.537L121.509 156.83L121.314 157.142L121.189 157.729L120.883 157.827L120.576 157.67L120.244 157.724L119.956 157.762L119.541 157.779L118.991 157.855L118.654 157.768L118.626 157.983L118.724 158.356L119.449 158.473L120.132 158.689L120.336 159.085L120.615 159.533L120.898 159.811L120.912 160.265L120.466 160.74L120.411 161.077L119.825 161.176L119.659 161.374L119.575 162.031L119.645 162.549L119.868 162.728L120.021 163.067L119.854 163.466L119.46 163.742L119.25 164.006L119.381 164.216L119.559 164.55L119.609 164.731L119.706 165.224L119.82 165.913L119.806 166.248L119.701 166.498L119.309 166.892L119.045 167.075L118.993 167.562L118.973 167.927L119 168.257L119.17 168.521L119.156 168.786L118.923 168.843L118.724 168.97L118.529 169.441L117.961 169.923L117.762 170.139L117.776 170.509L117.551 171.04L117.363 171.503L117.219 171.935L117.247 172.391L117.567 172.592L117.818 173.036L117.93 173.598L117.735 174.246L117.282 174.49L117.014 174.766L116.933 174.976L117.004 175.657L116.985 175.978L116.914 176.28L116.797 176.514L116.553 176.775L116.12 177.004L115.753 177.162L115.589 177.342L115.396 177.739L115.225 178.178L115.268 178.722L114.236 178.787L114.166 179.192L113.943 179.512L113.873 180.091L114.1 180.65L114.208 181.121L114.023 181.69L114.091 182.275L114.111 182.743L114.474 183.263L114.71 183.908L114.828 184.454L114.899 184.881L114.994 185.14L115.143 185.434L115.211 185.774L115.434 185.885L115.835 185.567L116.118 185.352L116.315 185.275L116.894 185.326L117.243 185.126L117.401 185.147L117.613 185.26L117.779 185.496L117.904 186.033L117.981 186.636L117.883 187.252L117.719 187.386L117.664 187.563L117.719 187.94L117.901 188.206L117.897 188.586L117.697 189.452L117.566 189.809L117.798 190.212L118.005 190.572L118.423 190.84L118.767 191.22L119.003 191.536L118.947 191.964L119.112 192.093L119.751 192.102L120.705 192.117L122.196 192.138L123.651 192.16L125.303 192.19L126.085 192.535L126.794 192.847H127.686L128.576 193.216L129.238 193.46L129.634 193.551L130.041 193.64L130.097 193.982L128.314 193.497L127.914 193.234L127.575 193.204L126.924 193.532L126.565 194.317L126.377 194.54L125.926 194.752L125.471 194.794L123.942 195.558L123.398 195.624L123.027 195.827L122.664 196.12L122.525 196.752L122.581 197.137L122.168 198.521L122.065 199.296L122.063 199.691L122.181 200.339L122.029 201.45L121.754 201.694L121.075 202.005L120.614 201.779L119.823 201.576L119.26 201.147L118.536 200.844L118.304 200.667L117.664 199.811L117.595 199.528L117.549 199.171L117.887 198.663L118.068 198.626L118.598 198.642L119.038 198.559L119.32 198.832L119.397 199.427L119.273 199.744L119.161 199.94L119.196 200.09L119.512 199.882L119.673 198.55L120.749 197.891L121.101 197.505L121.445 196.913L121.498 196.744L121.523 196.522L121.295 196.34L120.787 196.098L119.174 197.34L118.443 197.668L117.973 198.025L117.403 198.666L117.295 198.857L117.174 199.285L117.117 199.757L116.555 199.541L115.697 198.859L115.524 198.609L115.697 198.26L115.958 197.969L115.976 196.997L116.042 196.657L116.224 196.386L116.553 196.088L116.716 196.018L116.854 196.147L116.872 196.375L117.42 196.358L118.482 195.501L118.919 195.481L119.495 195.672L120.146 195.556L120.263 195.469L120.398 195.269L119.913 195.034L119.448 194.914L118.14 194.832L117.858 194.923L117.47 195.375L117.342 195.262L117.26 195.034L116.816 194.872L116.603 194.905L116.399 195.122L116.432 195.461L116.318 195.824L115.907 196.184L115.628 196.759L115.642 197.207L115.619 197.44L115.517 197.564L115.305 197.713L114.624 197.611L114.238 197.141L114.089 196.82L113.653 196.472L114.599 196.04L114.931 195.795L115.235 195.249L115.461 194.901L115.3 194.657L115.111 194.656L115.129 195.045L114.921 195.362L114.485 195.211L113.842 195.683L113.447 195.557L112.803 195.696L112.487 195.441L112.42 195.119L112.533 194.783L112.415 194.216L112.237 194.079L112.056 194.11L111.975 193.773L111.779 193.182L111.692 193.022L111.599 192.749L111.696 192.681L111.917 192.759L112.111 192.937L112.406 192.959L113.056 193.344L113.326 193.252L113.473 193.164L113.528 192.844L113.531 192.541H113.643L114.012 192.929L114.246 192.893L114.661 192.995L114.871 192.953L115.26 192.809L115.871 192.384L116.189 191.944L116.341 191.885L116.529 191.941L116.655 192.067L116.657 192.372L116.8 192.656L116.995 192.887L117.049 193.171L117.01 193.449L116.662 193.841L116.597 193.977L116.714 194.122L116.858 194.054L117.056 193.86L117.169 193.594L117.199 193.456L117.211 193.258L117.197 193.017L116.914 192.333L116.878 192.179V191.87L117.2 191.585L117.291 191.365L117.306 190.938L117.139 190.644L116.448 189.968L115.292 189.292L115.16 189.363L115.069 189.486L115.176 189.574L115.33 189.619L116.359 190.176L116.627 190.5L116.803 190.586L117.011 190.8L116.958 191.116L115.921 191.424L115.099 192.093L114.484 192.5L114.057 192.351L113.854 191.939L113.639 191.406L113.316 191.096L113.132 191.125L112.985 191.067L112.868 190.903L112.619 191.039L112.072 190.671L111.913 190.51L112.314 189.992L112.755 190.191L112.862 188.742L112.725 188.414L112.15 188.057L111.869 188.103L111.484 188.055L111.225 187.891L110.93 187.826L110.68 187.73L110.353 187.51L109.959 187.391L109.426 186.48L109.198 186.004L109.074 185.484L109.889 185.473L110.367 185.388L110.483 185.173L110.315 184.76L110.081 184.436L110.252 184.131L110.496 183.896L110.751 184.001L111.378 184.525L111.486 184.88L111.932 185.966L112.04 186.064L112.093 186.165L113.015 186.775L113.145 186.766L113.087 186.255L113.353 185.561L113.611 185.333L113.741 185.335L113.754 185.219L113.503 184.932L113.626 184.548L113.546 184.536L113.324 184.782L112.878 185.989L112.604 186.21L112.229 185.663L112.016 185.268L111.912 185.128L111.949 184.511L112.692 184.636L112.437 184.433L111.569 184.078L111.353 183.906L111.192 183.842L110.904 183.425L110.546 183.073L111.163 182.439L111.48 181.994L112.474 182.23L112.666 182.093L112.5 181.767L112.304 181.867L111.994 181.664L111.512 181.058L111.529 180.751L111.617 180.185L111.808 180.066L112.214 179.949L112.676 180.132L112.878 180.281L113.053 180.21L112.876 179.793L112.574 179.635L112.237 179.337L112.272 179.008L112.38 178.737L112.461 178.441L112.518 178.025L112.487 177.702L112.583 177.553L112.732 177.486L112.741 177.365L112.448 177.39L112.342 177.798L112.301 178.171L112.093 178.47L112.004 178.809L111.951 179.214L111.835 179.681L111.582 179.503L111.433 179.32L111.376 179.196L111.402 178.959L111.333 177.494L111.326 176.275L111.456 175.33L111.814 174.955L111.977 174.846L112.126 174.895L112.354 174.891L112.505 174.755L111.992 174.53L111.681 174.658L111.45 174.838L111.034 174.703L110.956 174.22L110.71 173.803L110.667 173.271L110.687 172.503L111.269 172.569L111.743 172.719L112.996 172.706L114.026 173.442L114.479 173.344L114.458 173.195L114.11 173.009L113.894 172.598L113.767 172.479L113.707 172.232L113.687 171.944L113.431 170.89L113.328 170.917L113.23 171.277L113.018 171.88L112.72 172.174L112.265 172.292L111.816 172.36L111.425 172.244L111.334 171.994L111.344 171.704L111.175 171.562L110.734 171.438L110.609 171.367L110.464 171.107L110.674 170.712L110.846 170.477L111.058 170.524L111.259 170.631L111.515 170.94L111.768 170.999L112.055 170.753L112.111 170.586L111.931 170.481L111.766 170.44L111.511 170.309L111.009 169.837L111.26 169.358L111.852 168.811L112.033 168.686L111.877 168.226L112.055 167.723L111.872 167.31L111.543 166.865L111.099 166.767L111.004 166.897L110.988 167.079L111.059 167.216L111.018 167.316L110.916 167.312L110.352 167.214L109.974 166.918L109.357 166.649L109.277 166.438L109.209 166.13L109.425 165.598L109.316 165.59L108.915 166.001L108.309 166.216L107.863 166.287L107.667 166.454L107.59 166.593L107.708 166.674L107.966 166.694L108.154 167.21L108.106 167.408L108.014 167.541L107.805 167.567L107.367 167.211L107.136 166.807L107.141 166.487L107.298 166.051L107.993 165.466L108.185 165.22L108.593 164.947L109.137 164.332L109.612 163.991L109.381 163.71L109.138 163.286L109.163 162.699L110.122 162.467L110.538 162.572L111.068 162.554L111.364 162.415L111.58 162.384L112.032 162.223L112.227 161.996L112.273 161.822L112.271 161.671L112.218 161.484L112.145 161.002L112.219 160.841L112.413 160.65L112.667 160.59L112.784 160.605L113.086 160.781L113.026 161.031L112.905 161.331L112.658 162.531L112.535 162.802L112.34 163.037L112.469 163.529L112.274 163.875L111.405 164.243L111.29 164.265L111.355 164.397L111.859 164.365L112.248 164.287L112.635 163.977L112.756 163.504L112.916 162.584L113.126 162.454L113.37 162.425L113.497 162.641L113.456 163.126L113.455 163.596L113.13 164.993L112.738 165.557L112.694 165.705L112.71 165.881L113.021 165.855L113.257 165.552L113.429 165.165L113.6 164.626L113.581 164.238L113.633 163.998L113.703 163.213L113.822 162.817L113.814 162.264L113.6 162.055L113.3 161.929L113.225 161.591L113.381 160.926L113.953 160.943L114.495 160.49L114.85 160.326L115.051 160.359L115.76 160.796L115.901 160.802L115.878 160.644L115.768 160.533L115.488 160.385L114.975 159.917L114.283 159.84L114.411 159.233L114.545 158.68L114.88 158.604L115.443 158.422L116.517 157.596L116.704 156.975L116.754 156.279L116.237 156.098L115.689 155.644L115.246 155.403L114.854 155.1L114.931 154.649L114.982 153.914L115.474 153.757L115.702 152.752L115.372 151.985L115.451 151.415L115.881 150.93L115.958 150.595L116.076 150.226L116.455 150.189L116.464 149.989L116.43 149.624L116.181 149.194L116.171 148.599L116.405 147.897L116.781 147.946L116.853 147.917L116.586 147.493L116.369 147.028L116.406 146.842L116.615 146.684L116.856 146.597L117.117 146.834L117.491 147.593L117.547 147.398L117.396 146.626L117.272 145.668L116.878 145.793L116.517 145.725L116.38 145.578L116.245 145.362L116.372 145.1L116.5 144.905L116.764 144.66L117.314 144.573L117.711 144.266L117.844 143.634L117.714 143.696L117.499 144.252L117.136 144.44L116.951 144.412L116.734 144.308L116.306 143.824L116.069 143.711L115.84 143.699L115.643 143.822L115.14 144.675L114.926 144.82L114.042 144.888L113.718 144.789L113.367 144.657L113.41 144.447L113.517 144.223L113.716 144.107L113.719 143.978L113.444 143.946L113.128 143.71L112.987 143.412L112.921 142.878L112.637 142.037L112.581 141.436L112.781 141.008L113.211 139.334L113.343 138.485L113.574 137.741L113.569 137.251L114.166 136.804L114.394 136.537L114.901 135.038L114.975 134.233L114.171 131.804L114.047 131.342L114.008 130.769L114.199 129.82L114.221 129.461L114.057 128.943L113.599 128.099L113.59 127.668L113.782 127.227L113.595 126.68L113.687 126.342L113.787 126.077L114.505 126.219L114.832 126.151L115.006 125.991L115.143 125.544L115.211 124.846L115.254 124.546L115.316 124.107L115.669 123.932L115.79 123.517L116.085 122.941L116.389 121.335L116.69 120.94L116.994 120.485L116.878 119.811L117.074 119.5L117.254 119.274L117.413 118.864L117.629 118.477L118.144 117.922L118.274 117.245L118.674 116.079L118.753 115.334L118.877 114.83L118.841 114.362L119.081 113.793L119.312 113.314L119.384 113.049L119.91 112.418L119.999 111.915L119.811 111.573L119.807 111.046L119.661 110.318L120 110.045L120.137 109.846L120.579 108.686L120.55 108.232L120.678 107.669L120.387 107.004L120.347 105.512L120.184 104.369L119.916 103.166L119.941 102.494L119.778 101.661L119.768 101.181L119.893 100.096L120.743 99.4144L120.909 98.652L121.01 97.6249L120.975 96.8783L120.892 96.5438L120.473 95.9954L120.367 95.0168L120.448 94.7611L120.795 94.4864L121.039 94.1057L121.165 93.5156L121.42 93.0516L121.52 91.9323L121.735 91.0437L121.842 90.734L122.18 90.3455L122.243 90.2419L122.295 89.9457L122.279 89.2475L122.331 88.8218L122.6 87.9851L122.632 87.5988L122.93 86.7407L122.998 86.1247L123.125 85.8004L123.075 85.4355L123.16 84.6201L122.957 84.1607L122.912 83.8926L123.168 83.0605L123.341 82.8577L123.621 82.4715L123.74 82.0379L123.761 81.7631L123.403 80.3971L123.355 79.932L123.442 78.852L123.565 78.156L123.525 77.602L123.565 77.3171L123.627 76.96L123.873 76.5276L123.929 76.2202L123.842 76.0918L123.551 75.9353L123.309 75.5434L123.293 75.1571L123.37 74.8756L123.388 74.478L123.746 74.4004L123.938 74.1796L124.119 73.7675L124.348 72.7708L124.446 71.5377L124.582 70.7967L124.678 70.4307L124.759 69.6672L124.892 69.1683L124.915 68.7088L124.889 68.3585L124.546 66.5826L124.557 65.9306L124.703 64.9204L124.7 63.5003L124.671 63.1693L124.541 62.8595L124.503 62.4384L124.296 61.7086L124.109 60.2458L124.106 59.4743L124.025 58.8212L123.846 58.6477L123.974 58.6084L124.275 58.5813L124.585 58.5802L124.98 58.4417L125.4 58.1849L125.673 57.8121L125.79 57.472V57.1737L125.668 56.7941L125.634 56.5261L125.779 56.3977L126.163 56.3482L126.474 56.0948L126.713 55.874L126.762 56.2479L127.196 56.7502L127.337 57.3155L127.435 57.3865L128.03 57.6692L128.04 57.7356L127.954 57.8414L127.867 57.9788L127.928 58.1714L128.036 58.436L128.072 58.6816L128.138 58.9349L128.204 59.3235L128.243 59.6759L128.395 60.1951L128.426 60.516L128.428 60.7097L128.546 60.8989L128.777 61.1264L129.089 61.355L129.337 61.6219L129.526 61.8032L129.756 61.9508L129.932 62.087L130.002 62.1805L130.026 62.256L129.949 62.328L129.67 62.6805L129.28 63.2177L129.287 63.283L129.66 63.6693L129.72 63.8224L129.715 64.0386L129.59 64.2988L129.188 64.381L129.098 64.4519L129.087 64.5353L129.179 64.6456L129.164 64.9024L129.31 65.1862L129.235 65.2831L129.087 65.4136L129.083 65.542L129.132 65.6839L129.288 65.7999L129.908 66.1986L129.956 66.2538L129.947 66.2954L129.707 66.5623L129.682 66.7268L129.689 66.9982L129.723 67.1739L129.801 67.247L130.111 67.3293L130.495 67.9396L130.865 68.5151L130.86 69.0106L130.899 69.5894L131.133 70.0444L131.166 70.4081L131.244 70.8226L131.524 71.0748L131.633 71.5726L131.661 71.8383L131.644 72.0129L131.861 72.5557L131.886 73.0231L131.834 73.3586L131.837 73.5468L131.867 73.6785L132.054 73.7967L132.136 73.871L132.411 73.9037L132.813 73.9116L133.501 73.7877L134.038 73.6796ZM1.02766 88.6608L0.540039 88.77L0.555814 88.5752L0.678557 88.4062L1.03893 88.5031L1.20785 88.5212L1.02766 88.6608ZM97.3473 112.402L96.7808 112.483L96.7617 112.46L96.7943 112.393L96.9238 112.277L97.0815 112.136L97.1153 112.132L97.1738 112.143L97.2391 112.169L97.4081 112.264L97.4576 112.329L97.4396 112.383L97.3473 112.402ZM113.246 151.517L113.009 151.608L112.787 151.631L112.562 151.564L112.167 151.57L111.775 151.401L111.407 151.162L111.305 151.024L111.35 150.825L111.614 150.367L111.867 149.502L112.034 148.267L111.899 147.799L111.916 147.607L111.978 147.374L112.009 147.135L111.989 146.894L112.021 146.671L112.299 146.201L112.341 145.991L112.349 145.762L112.469 145.29L112.432 145.134L112.33 145.002L112.413 144.886L113.379 145.232L114.021 145.312L114.055 145.67L114.179 145.951L114.252 146.456L114.352 146.571L114.3 146.932L114.004 147.089L114.03 147.422L114.2 147.736L113.952 147.849L113.684 147.917L113.622 148.004L113.429 148.073L113.193 148.248L113.264 148.403L113.56 148.756L113.891 149.001L114.073 149.368L114.308 149.752L114.193 149.997L113.978 150.343L113.635 150.574L113.318 150.713L113.355 151.284L113.246 151.517ZM110.417 152.653L109.97 152.73L109.869 152.6L109.87 152.49L109.947 152.4L110.176 152.34L110.326 152.414L110.405 152.52L110.43 152.617L110.417 152.653ZM113.129 153.609L113.196 153.824L113.056 153.854L112.833 153.82L112.725 153.99L112.67 154.024L112.157 153.873L112.077 153.805L112.087 153.581L112.634 153.562L112.982 153.419L113.03 153.441L113.129 153.609ZM113.367 156.098L113.211 156.287L112.966 156.321L112.584 156.541L112.544 156.731L112.524 156.965L112.788 157.248L112.919 157.577L113.075 158.07L113.189 158.541L113.179 158.686L113.207 158.931L113.395 159.312L113.413 159.484L113.391 159.655L113.316 159.973L113.256 160.016L113.071 160.047L113.056 160.24L113.01 160.303L112.48 160.323L112.219 160.235L112.251 159.655L111.916 159.428L111.687 159.045L111.427 158.385L111.21 158.182L110.957 157.662L110.581 157.218L111.014 156.937L110.947 156.446L111.2 156.278L111.581 156.103L111.861 156.241L112.113 156.193L112.226 156.076L112.192 155.575L112.272 155.182L112.55 154.98L112.85 154.956L112.962 155.178L113.11 155.396L113.473 155.569L113.471 155.794L113.367 156.098ZM115.735 157.803L114.969 158.158L114.585 158.038L114.437 157.777L114.364 157.557L114.286 157.186L114.416 156.987L114.698 156.701L114.801 156.516L114.852 156.298L114.834 156.096L114.87 155.902L115.036 155.834L115.602 156.051L116.19 156.375L116.399 156.599L116.439 156.778L116.182 157.173L116.018 157.499L115.735 157.803ZM113.693 157.987L113.59 158.037L113.496 158.029L113.401 157.877L113.369 157.677L113.163 157.377L113.104 157.237L113.109 157.068L113.227 156.825L113.403 156.759L113.521 156.768L113.664 157.053L113.706 157.363L113.743 157.683L113.693 157.987ZM109.236 158.292L109.157 158.364L109.059 158.342L108.978 158.202L108.922 157.961L109.032 157.869H109.12L109.218 157.998L109.269 158.205L109.236 158.292ZM111.542 161.88L111.367 162.08L111.06 162.176L110.756 162.019L110.389 162.092L110.351 161.749L110.488 161.467L110.766 161.133L110.968 160.686L110.944 160.055L111.11 159.911L111.199 159.689L111.551 159.553L111.631 160.021L111.537 160.859L111.774 161.355L111.808 161.52L111.762 161.711L111.542 161.88ZM109.015 171.753L108.782 171.813L108.755 171.66L108.545 171.406L108.728 171.238L109.086 171.063L109.358 171.084L109.602 171.217L109.635 171.373L109.208 171.579L109.103 171.693L109.015 171.753ZM110.737 175.32L110.677 175.434L110.288 175.364L109.613 175.484L109.329 175.051L109.206 174.365L109.121 174.224L108.953 173.834L108.869 173.578L108.698 173.182L108.631 172.766L108.588 172.641L108.743 172.394L109.449 172.151L109.7 171.758L109.915 171.81L109.855 172.612L109.985 172.882L110.225 173.107L110.27 173.2L110.31 173.485L110.431 173.927L110.586 174.136L110.627 174.264L110.634 174.373L110.577 174.525L110.737 175.32ZM107.757 176.139L107.401 176.145L107.313 175.293L107.731 174.07L107.761 173.605L107.62 173.255L107.563 172.968L107.597 172.851L108.132 172.608L108.299 172.865L108.498 173.547L108.877 174.526L108.868 175.467L108.657 175.699L107.997 175.936L107.757 176.139ZM111.025 177.984L111.055 178.692L111.002 179.405L110.88 180.283L110.9 180.462L111.042 180.505L111.081 180.615L111.039 181.079L110.964 181.436L110.816 181.729L110.73 182.081L110.652 182.158L110.308 182.22L110.12 182.182L109.969 181.782L109.925 181.537L109.934 181.216L109.748 180.785L109.743 180.621L109.815 180.338L109.965 180.199L109.987 179.764L110.063 179.635L110.233 179.455L110.259 179.382L110.243 179.318L110.18 179.311L109.496 179.847L109.43 179.999L109.399 180.201L109.391 180.913L109.271 181.325L109.162 181.404L108.843 181.422L108.422 181.38L107.944 181.002L107.632 181.106L107.568 180.647L107.725 180.28L108.306 180.311L108.404 179.659L108.219 179.506L108.014 179.245L107.893 179.005L108.002 178.827L108.338 178.569L108.519 178.542L108.685 178.686L109.099 178.577L109.075 178.168L108.707 177.988L108.789 177.678L109.254 177.382L109.532 177.084L109.545 176.745L109.432 176.407L109.467 176.275L109.699 175.997L110.023 175.863L110.171 175.882L110.471 176.078L110.739 176.102L110.805 176.16L110.853 176.378L111.025 177.984ZM109.033 176.488L109.007 176.869L108.54 177.603L108.138 178.038L107.771 178.382L107.537 178.379L107.344 178.213L107.56 177.941L107.829 177.669L107.744 177.318L107.663 177.217L107.549 177.18L107.354 176.997L107.414 176.726L107.528 176.596L107.679 176.497L107.819 176.556L108.43 176.365L108.622 176.211L108.994 176.185L109.033 176.488ZM109.197 183.581L108.578 183.977L108.397 183.813L107.951 183.815L108.068 183.386L108.113 183.072L108.181 182.95L108.206 182.679L108.34 182.184L108.709 182.349L108.985 182.397L109.359 182.561L109.764 182.666L109.882 183.096L109.488 183.293L109.197 183.581ZM108.415 185.484L108.325 185.943L108.069 185.904L107.984 185.787L107.939 185.495L107.86 185.354L107.97 185.063L108.042 184.739L108.018 184.492L108.409 184.51L108.876 184.574L109.005 184.641L108.862 184.86L108.726 184.989L108.444 185.069L108.415 185.484ZM110.765 188.473L110.759 188.895L110.658 189.03L110.571 189.07L110.349 188.942L110.221 188.928L110.011 189.152L109.834 189.265L109.57 189.236L109.22 189.084L108.908 189.721L108.762 189.935L108.457 190.234L108.423 189.884L108.617 189.362L108.707 189.007L108.885 188.48L109.243 188.679L109.745 188.484L110.202 188.122L110.598 188.12L110.727 188.313L110.765 188.473ZM109.93 190.259L110.065 191.249L110.162 191.387L110.484 191.46L110.834 191.965L110.85 192.103L110.426 192.965L110.336 193.579L109.84 193.535L109.631 192.925L109.317 192.339L109.211 191.654L109.039 191.067L109.346 190.736L109.64 190.809L109.657 190.361L109.93 190.259ZM112.082 191.791L111.987 191.848L111.636 191.729L111.46 191.622L111.192 191.353L111.149 191.075L111.029 190.745L111.107 190.741L111.387 190.871L111.502 190.971L111.655 191.183L112.109 191.486L112.166 191.575L112.155 191.691L112.082 191.791ZM129.502 195.511L129.497 197.059L129.491 198.594L129.486 200.039L129.482 201.494L129.477 202.909L129.473 204.369L129.448 206.018L129.43 207.252H128.955L128.83 207.378L128.078 207.56L126.798 207.28L126.478 207.028L126.049 206.477L125.896 206.626L125.493 206.859L125.079 207.044L124.739 207.064L124.423 206.836L124.356 206.72L124.284 206.695L123.603 207.011L122.851 206.688L122.252 206.491L121.289 206.379L120.62 205.974L119.386 206.009L119.164 205.875L119.082 205.479L119.147 205.295L119.411 205.184L119.484 204.964L119.751 205.017L120.097 205.307L120.202 205.297L120.431 205.024L120.769 204.781L120.889 204.757L121.51 205.055L121.76 205.021L122.118 204.887L122.182 204.77L122.24 204.565L122.334 204.446L122.653 204.387L122.964 204.504L123 204.861L122.957 205.244L123.361 205.348L123.852 205.336L124.19 205.479L124.233 205.245L123.694 204.636L123.467 204.259L123.163 204.037L122.772 203.923L122.446 203.218L122.466 202.602L122.431 202.004L123.136 201.677L122.974 201.168L123.217 200.782L123.494 200.635L123.773 202.054L123.974 202.554L123.718 202.655L123.183 202.654L123.482 203.356L123.973 203.597L124.395 204.118L124.404 204.498L124.638 204.669L125.204 204.68L125.593 204.606L125.777 204.352L125.989 204.272L126.368 204.587L127.008 204.82L127.18 204.984L127.305 205.259L127.313 205.555L127.346 205.713L127.531 205.636L127.797 205.234L127.928 205.094L128.088 205.026L128.189 204.936L128.192 204.819L127.714 204.535L125.209 203.212L124.902 202.686L124.695 202.026L124.701 201.347L124.884 201.137L125.331 200.87L126.152 200.494L127.099 199.955L127.217 199.851L127.206 199.514L127.088 199.288L126.712 199.123L126.319 199.081L125.944 199.098L125.569 199.169L124.885 199.526L124.498 199.503L124.129 199.311L123.857 198.925L123.716 198.406L123.717 198.075L123.769 197.771L123.936 197.462L124.16 197.326L124.36 197.344L124.549 197.272L124.662 197.166L124.758 197.025L124.73 196.902L124.656 196.796L124.351 196.577L124.231 196.367L123.969 196.028L124.112 195.933L124.572 195.88L124.893 196.113L125.192 196.389L125.376 196.388L125.54 196.272L125.919 195.92L126.235 195.477L126.524 194.975L126.757 194.674L127.022 194.647L127.803 195.589L128.079 195.624L128.995 195.117L129.098 195.144L129.409 195.401L129.502 195.511ZM111.312 196.918L111.363 196.965L111.488 196.954L111.663 197.038L112.323 197.142L112.913 197.387L113.22 197.618L113.625 197.689L113.956 197.983L114.096 198.057L114.267 198.081L114.71 198.625L114.735 198.687L115.238 199.117L115.263 199.186L114.977 199.209L114.397 199.009L114.108 198.998L113.898 198.936L113.85 198.901L113.808 198.652L113.742 198.529L113.184 197.956L112.952 197.831L112.55 197.719L112.093 197.797L111.785 197.724L111.678 197.75L111.221 197.296L110.766 196.913L110.572 196.459L110.282 196.111L110.281 196.01L110.414 195.932L110.725 196.128L111.031 196.464L111.197 196.591L111.312 196.918ZM115.934 199.86L116.02 200.292L116.065 200.374L116.295 200.304L116.687 200.264L117.329 200.425L117.402 200.483L117.674 200.955L117.884 201.156L118.204 201.594L117.885 201.887L117.697 202.308L117.687 202.521L117.562 202.645L117.366 202.774L117.074 203.02L116.715 203.047L116.361 203.178L116.197 203.296L116.1 203.304L115.985 203.24L115.862 203.118L115.823 202.977L116.065 202.847L116.381 202.382L116.438 201.9L116.097 201.813L115.893 201.879L115.741 201.877L115.566 201.73L115.46 201.956L115.421 202.173L115.467 202.506L115.435 202.614L115.312 202.674L115.026 202.548L114.728 202.324L114.705 202.195L114.765 201.746L114.76 201.513L114.698 201.178L114.665 201.143L114.554 201.151L114.203 201.215L113.853 200.786L113.664 200.333L113.02 200.204L113.522 199.573L114.279 199.484L114.536 199.803L115.378 200.022L115.327 199.685L115.341 199.564L115.457 199.413L115.522 199.401L115.621 199.507L115.783 199.552L115.858 199.655L115.934 199.86ZM120.778 202.801L121.478 203.23L121.942 203.226L121.94 203.494L121.996 203.951L121.923 204.137L121.75 204.328L121.641 204.598L121.559 204.64L121.049 204.313L120.517 203.867L120.249 203.945L119.894 203.835L119.608 203.859L119.43 204.111L119.015 204.243L118.94 203.739L118.564 203.261L118.189 202.879L118.393 202.295L118.636 202.201L118.866 202.007L119.786 202.213L120.263 202.387L120.778 202.801ZM122.038 207.331L122.184 207.678L122.239 207.742L122.628 207.878L122.804 207.796L123.227 207.758L123.482 207.624L123.852 207.555L124.277 208.419L124.23 208.682L123.894 208.968L123.668 209.032L123.454 208.945L123.468 208.8L123.429 208.673L123.282 208.509L123.145 208.525L122.923 208.646L122.817 208.631L122.593 208.497L122.2 208.398L122.123 208.276L122.114 208.096L122.039 208.006L121.629 207.716L121.367 207.47L121.145 207.437L121.064 207.466L120.982 207.583L120.782 207.696L120.725 207.677L120.661 207.583L120.628 207.448L120.713 207.176L120.827 207.15L121.387 207.204L121.731 207.33L122.038 207.331ZM126.111 207.61L128.646 208.152L129.428 207.823L130.046 207.833L130.23 208.285L129.602 208.761L129.555 208.912L129.643 209.034L130.287 209.11L130.45 209.264L130.6 209.462L130.473 209.756L130.461 209.892L130.528 210.024L131.011 210.47L131.209 210.699L131.31 210.92L131.35 211.307L131.341 211.618L131.233 211.66L130.998 211.565L130.768 211.385L130.566 210.939L130.426 210.85L130.019 210.76L129.616 210.543L129.302 210.555L129.012 210.463L128.753 210.544L128.661 210.398L128.549 210.101L128.547 209.973L128.683 209.507L128.68 209.385L128.609 209.37L128.307 209.465L128.186 209.402L127.857 209.064L127.724 209L127.394 208.967L127.207 209.564L127.197 209.713L127.387 210.093L127.761 210.68L127.572 210.691L127.031 210.511L126.893 210.399L126.726 210.102L126.405 209.931L126.293 209.826L126.26 209.702L126.257 209.318L126.186 209.261L125.73 209.359L125.636 209.266L125.598 209.104L125.531 209.014L125.237 208.866L125.212 208.774L125.342 208.664L125.423 208.391L125.538 207.407L126.111 207.61ZM134.401 208.903L134.307 209.115L134.108 209.394L133.84 209.61L133.58 209.67L133.392 209.557L133.297 209.359L133.253 209.163L133.189 209.056L133.09 209.033L132.962 209.038L132.804 209.111L132.468 209.394L132.324 209.467L132.227 209.485L131.273 209.274L131.179 209.195L131.066 209.007L130.943 208.447L130.542 207.949L131.155 207.668L131.892 207.669L133.313 207.884L133.88 207.932L134.315 208.405L134.384 208.689L134.401 208.903ZM136.322 209.319L136.07 209.561L135.882 209.545L135.821 209.457L135.801 209.347L135.838 209.23L135.917 209.123L136.101 208.989L136.159 208.967L136.436 209.1L136.322 209.319ZM133.741 212.369L133.625 212.413L133.539 212.308L133.41 212.233L132.883 212.077L132.872 211.982L132.927 211.847L133.032 211.726L133.234 211.607L133.398 211.297L133.471 211.321L133.545 211.447L133.671 211.875L133.823 212.184L133.807 212.291L133.741 212.369ZM132.837 213.002L132.722 213.014L132.443 212.909L132.025 212.863L131.977 212.82L131.967 212.738L132.017 212.653L132.244 212.589L132.93 212.644L133.018 212.683L133.042 212.748L132.93 212.934L132.837 213.002Z" fill="#108AB4"/>
<path d="M160.412 188.437L160.895 188.733L161.499 188.63L161.754 188.711L161.903 188.957L161.814 189.186L161.622 189.153L161.458 189.215L161.49 189.517L161.602 189.647L162.24 189.979L162.358 189.999L162.336 189.859L162.225 189.631L162.183 189.385L162.278 189.181L162.444 189.117L163.172 189.015L163.342 189.112L163.702 189.69L163.364 189.77L163.222 190.022L163.52 190.131L163.755 190.292L163.63 190.538L163.608 190.662L163.084 190.837L162.62 190.949L162.408 191.24L162.034 191.452L160.935 191.821L161.064 192.122L161.081 192.266L161.033 192.657L159.521 192.189L159.316 192.239L159.72 193.036L159.421 193.184L159.124 193.088L158.855 193.154L158.684 193.732L158.253 193.363L157.884 192.838L157.883 192.545L158.239 191.999L158.131 191.768L158.959 191.028L159.107 190.809L159.365 190.684L159.633 190.641L159.747 190.546L159.728 190.366L159.621 190.06L159.63 189.562L160.293 188.887L160.196 188.454L160.412 188.437ZM156.425 189.072H155.991L155.906 188.908L155.907 188.491L156.236 188.455L156.557 188.629L156.535 188.803L156.425 189.072ZM155.873 189.407L156.33 189.502L156.75 189.146L157.04 189.033L157.279 189.109L157.446 189.324L157.69 189.291L158.378 189.071L158.468 189.145L158.713 188.89L158.924 189.008L159.091 189.231L159.01 189.489L158.819 189.653L158.699 189.883L158.558 190.068L158.315 190.24L158.128 190.515L157.68 191.16L157.026 191.987L156.81 192.061L156.36 192.111L156.166 192.053L156 192.072L155.868 192.52L155.661 192.861L155.565 192.932L155.351 192.963L155.249 193.015L155.173 193.141L154.61 193.108L154.212 192.899L153.741 192.435L154.37 191.867L154.911 191.893L155.359 191.513L155.722 191.32L155.866 191.125L156.025 190.975L156.026 190.781L155.905 190.694L155.74 190.703L155.578 190.787L155.198 190.898L154.937 190.675L155.109 190.591L155.301 190.596L155.89 190.386L156.003 190.299L155.821 190.002L155.467 189.822L155.179 189.52L155.127 189.408L155.141 189.229L154.982 188.875L155.149 188.857L155.371 189.085L155.873 189.407ZM153.558 191.051L153.784 191.121L154.009 191.095L153.882 191.619L153.783 191.872L153.516 191.852L153.252 191.508L153.159 191.326L153.454 191.195L153.558 191.051ZM161.712 192.202L161.731 192.652L161.478 192.509L161.388 192.291L161.529 192.142L161.645 192.153L161.712 192.202ZM157.781 193.334L157.578 193.433L157.522 193.389L157.458 193.195L157.454 192.945L157.431 192.832L157.557 192.868L157.785 193.068L157.781 193.334Z" fill="#108AB4"/>
<path d="M229.143 202.978L229.451 203.239L229.695 203.061L229.948 203.083L230.087 203.171L230.229 203.204L230.407 203.205L230.713 203.647L230.585 204.038L230.92 203.961L231.212 204.287L231.345 204.261L231.411 204.129L231.599 203.978L231.729 204.181L231.887 204.569L232.086 204.687L232.262 205.099L232.4 205.619L232.526 205.693L232.742 205.694L232.962 205.623L232.879 206.074L232.905 206.472L233.267 206.76L233.051 206.918L232.824 207.148L232.361 207.325L232.24 207.251L231.836 206.851L231.648 206.38L231.223 205.709L231.14 205.512L231.031 205.386L230.647 205.305L230.309 205.144L230.027 204.806L229.939 204.599L229.831 204.454L229.45 204.462L229.209 204.303L228.971 204.087L227.898 203.463L227.477 203.526L227.283 203.351L227.293 203.039L227.515 202.853L226.586 202.782L226.256 202.671L226.483 202.603L227.778 202.593L228.264 202.541L228.307 202.675L228.736 202.951L229.143 202.978ZM263.402 227.817L263.415 228.162L262.924 227.847L262.811 227.698L262.968 227.506L263.277 227.499L263.352 227.616L263.402 227.817Z" fill="#108AB4"/>
<path d="M125.28 13.3468L125.261 13.5518L125.16 13.634L125.005 13.652L124.766 13.5056L124.591 13.5428L124.417 13.5518L124.171 13.3817L124.087 13.2139L123.894 13.0765L123.496 13.1317L123.167 13.1351L122.892 13.1036L122.645 13.1498L122.436 13.3265L122.279 13.5338L122.096 13.7072L121.556 13.8232L121.269 13.8265L121.011 13.9403L120.627 13.982L120.365 14.0833L119.9 14.1385L119.342 14.1914L119.031 14.3457L118.908 14.4133L118.591 14.6261L118.04 14.9617L117.736 15.0788L117.369 15.4426L116.929 15.7838L116.643 15.9651L116.223 16.0485L116.048 16.1408L115.984 16.25L116.021 16.3784L115.949 16.7073L115.821 17.3142L115.786 17.6127L115.754 17.7546L115.476 18.2433L115.177 18.6972L115.029 18.9978L114.947 19.2186L115.039 19.401L115.161 19.731L115.263 19.9945L115.293 20.1735L115.257 20.3785L115.13 20.5666L114.931 20.6893L114.663 20.7231L114.111 21.0531L113.496 21.5418L113.295 21.7693L113.237 21.9844L113.148 22.32L113.186 22.4945L113.295 22.6139L113.405 22.8988L113.414 23.0463L113.323 23.1286L113.148 23.1466L112.992 23.1747L112.873 23.2479L112.753 23.2299L112.644 23.266V23.3864L112.68 23.5238L112.662 23.6714L112.589 23.7626L112.525 23.8268L112.589 23.9191L112.698 24.0024L112.864 24.1398L113.093 24.4067L113.268 24.4529L113.414 24.5452L113.432 24.6917L113.377 24.8392L113.249 24.9034L113.24 25.0329L113.414 25.1894L113.534 25.2998L113.653 25.4653L113.763 25.6962V25.8426L113.883 26.0273L113.956 26.1838V26.3313L114.148 26.4777L114.314 26.5892L114.432 26.6906L114.552 26.7548L114.58 26.8651L114.564 27.0329L114.735 27.31L115.049 27.5172L115.304 27.8178L115.468 28.0363L115.774 28.3877L115.785 28.7909L115.407 29.2537L115.029 29.7177L115.647 29.7053L116.278 29.7143L116.938 29.8472L117.383 29.9744L117.654 30.0319L117.847 30.1805L117.938 30.4114L118.011 30.6006L118.03 30.8731L118.305 31.0949L118.286 31.3066L118.278 31.6051L118.4 31.6096L119.207 31.6107L120.09 31.6118L120.939 31.5567L121.26 31.4846L121.648 31.122L121.881 31.015L122.105 30.8461L122.377 30.5375L122.593 30.399L122.776 30.2278L123.047 30.0566L123.16 29.9305L123.252 29.8843L123.463 29.801L123.372 29.9677L123.301 30.1377L123.279 30.3832L123.38 30.6512L123.296 30.8517L123.16 31.0307L123.158 31.5026L123.155 32.1715L123.152 32.7447L123.149 33.4632L123.145 34.2774L123.143 34.8191L123.287 34.7121L123.488 34.6164L123.748 34.8653L123.934 34.9734L124.092 34.9993L124.256 34.9914L124.478 34.9385L124.964 34.7302L125.297 34.5624L125.679 34.5736L126.203 34.6389L126.505 34.6322L126.9 35.3259L127.189 35.8349L127.519 36.4149L127.784 36.8822L128.187 37.5917L128.535 38.2054L128.907 38.8597L129.329 39.6041L129.193 39.7933L129.082 39.9442L129.095 40.1999L128.928 40.3361L128.751 40.4183L128.543 40.6346L128.401 40.8204L128.394 41.0873L128.421 42.4409L128.386 42.8092L128.278 43.1256L128.167 43.2855L128.099 43.4116L128.26 43.7258L128.415 44.3587L128.532 44.4848L128.676 44.7427L128.741 44.9871L128.712 45.0806L128.422 45.1966L128.319 45.2957L128.292 45.6594L128.167 45.7901L127.955 45.9612L127.819 46.1572L127.704 46.2935L127.591 46.3723L127.536 46.6121L127.461 46.8554L127.197 47.0164L127.152 47.3149L127.149 47.5615L127.288 47.8081L127.742 48.3273L127.788 48.4511L127.529 48.7642L127.38 48.9816L127.01 49.646L127.003 49.7676L127.095 50.0818L127.645 51.4287L127.739 51.5379L127.909 51.6663L128.187 51.6517L128.607 51.7969L128.811 51.9636L128.83 52.0458L128.783 52.101L128.561 52.2125L128.314 52.3589L128.229 52.4974L128.212 52.717L128.268 53.0425L128.161 53.1483L127.915 53.2745L127.702 53.4569L127.489 53.7598L127.127 54.2216L127.002 54.3477L126.948 54.5076L126.742 54.5605L126.358 54.8747L126.293 55.0335L126.355 55.1844L126.552 55.3116L126.684 55.4952L126.719 55.7306V55.877V55.8815L126.48 56.1022L126.169 56.3556L125.786 56.4051L125.641 56.5324L125.673 56.8016L125.797 57.1811L125.796 57.4784L125.679 57.8185L125.405 58.1912L124.987 58.448L124.591 58.5854L124.28 58.5865L123.98 58.6135L123.851 58.653L123.619 58.4277L122.589 57.6833L122.197 57.2858L121.833 57.1L120.947 56.4626L120.859 56.2587L120.75 55.6044L120.635 55.4209L120.33 55.1844L119.565 54.8702L119.268 54.7137L118.957 54.4276L118.5 54.2249L118.002 53.8094L117.706 53.4783L117.374 53.2587L116.342 52.9524L115.825 52.6449L114.858 52.2114L114.427 51.9354L113.392 51.5999L113.084 51.44L112.066 50.655L111.352 50.3983L110.777 49.958L109.04 49.0221L108.768 48.7225L108.502 48.2608L108.117 47.9861L107.683 47.3543L107.039 46.9827L106.419 46.4905L106.19 46.0434L105.778 45.4747L105.656 45.1718L105.296 44.8678L105.271 44.2698L105.02 43.995L105.2 43.8587L105.39 43.799L105.628 42.87L105.503 42.4049L104.859 41.5614L104.622 41.1571L104.455 40.6391L104.197 40.3316L103.814 39.6841L103.58 39.1109L103.068 38.6953L102.929 38.5455L102.851 38.3338L102.566 38.184L102.551 37.7449L102.353 36.9115L102.069 36.4914L101.048 35.7077L101.031 35.4058L100.95 34.8574L100.722 34.2639L99.5862 32.4238L99.3013 31.8765L99.0175 30.988L98.7619 30.4846L98.4803 29.5881L98.0558 28.9068L97.7878 28.3167L97.504 27.5836L97.4792 27.1917L96.9634 26.5183L96.6898 25.9011L96.2089 25.3842L95.7393 24.9912L95.5355 24.7131L94.8665 23.3932L94.7753 23.0024L94.3204 22.2772L93.8688 21.7569L93.5838 21.3368L93.219 20.9596L91.0027 19.7985L90.2223 19.3165L89.9588 19.0868L89.8371 18.7253L89.8878 18.5136L90.1164 18.3154L90.4329 18.4685L90.6266 18.4043L90.7775 18.1465L90.7809 17.7557L90.5872 17.2523L89.8766 16.2804L89.9306 16.0743L90.0646 15.8412L89.791 15.3739L89.4925 14.9989L89.3428 14.7117L89.5117 13.6182L89.6739 13.3412L90.7482 12.2319L91.0433 11.7578L91.505 11.465L91.9757 11.0179L92.5422 10.6778L92.6244 10.7364L92.7032 10.7938L92.7077 10.9087L92.7291 11.0078L92.7922 11.1013L92.7978 11.2725L92.871 11.3873L92.8755 11.5168L92.8811 11.6936L92.844 11.7826L92.88 11.9358L93.0016 12.2195L92.9543 12.3074L92.8395 12.3648L92.7246 12.4436L92.6097 12.6205L92.4363 12.6148L92.1863 12.5371L92.0185 12.6351L91.9566 12.8232L92.0084 12.9797L92.0241 13.125L92.1334 13.25L92.4521 13.2601L92.1649 13.661L92.0241 13.8435L92.0545 13.9583L92.2268 14.0563L92.3552 14.0631L92.6401 13.9167L92.8338 13.7027L92.9431 13.5833L93.1266 13.536L93.3665 13.6351L93.6852 13.8333L94.0568 14.0079L94.2089 14.1036L94.4814 14.0766L94.71 14.036L94.9026 14.1802L95.0974 14.3018L95.1424 14.7151L95.2877 15.0169L95.4656 15.2489L95.6819 15.5259L95.8812 15.6194L96.138 15.6217L96.4871 15.7241L96.6233 15.6565L96.7427 15.4628L96.8058 15.3536L96.9837 15.3063L96.9995 15.1824L96.9623 15.0304L97.0209 14.8536L97.1661 14.6971L97.54 14.4696L97.7202 14.3739L97.7574 14.2342L97.8249 14.0462L97.799 13.9425L97.7236 13.813L97.7416 13.6295L97.8407 13.3851L97.9815 13.0991L98.1031 12.7342L98.1493 12.563L98.2799 12.4538L98.3294 12.2961L98.4004 12.1103L98.5614 11.902L98.5569 11.6779L98.6245 11.5787L98.6301 11.3288L98.7912 10.8152L98.7968 10.7083L98.8677 10.6801L98.9905 10.7128L99.0964 10.8299L99.129 10.9447L99.1729 10.9965L99.2732 10.9864L99.388 10.9211L99.3801 10.8175L99.2968 10.7161L99.2732 10.6553L99.3092 10.5596L99.4837 10.3513L99.6741 10.1091L100.083 9.60575L100.329 9.40079L100.966 9.18345L101.449 9.0179L101.911 8.86022L102.539 8.63388L103.426 8.31406L104.063 8.08431L104.631 7.67441L105.072 7.35682L105.448 7.08319L105.925 6.73405L106.572 5.98178L107.018 5.46263L107.342 5.08315L107.567 4.84326L107.746 4.1687L107.951 3.39952L108.041 3.05719L108.081 2.93783L108.169 2.98849L108.27 3.07183L108.393 3.0752L108.509 3.07183L108.582 3.02454L108.474 2.2565L108.49 2.08868L108.55 1.88825L108.538 1.78013L108.342 1.62699L108.028 1.31954L107.897 1.04588L107.818 0.816164L107.599 0.664123L107.372 0.531225L107.392 0.422005H107.526L107.866 0.528991L108.111 0.495208L108.294 0.482801L108.472 0.370214L108.661 0.16748H108.788L108.933 0.194528L109.198 0.402863L109.354 0.525623L109.544 0.626972L109.722 0.662989L109.884 0.674262L109.997 0.665257L110.064 0.803758L110.143 0.973807L110.344 1.0887L110.583 1.19792L110.776 1.38598L110.906 1.5121L111.061 1.66078L111.21 1.85897L111.345 2.20694L111.414 2.44342L111.492 2.57409L111.474 2.70695L111.634 2.94907L111.752 3.0831L111.959 3.16868L112.359 3.26553L112.573 3.484L112.762 3.56847L112.963 3.79368L113.141 3.86015L113.366 3.84774L113.591 3.957L113.762 4.16983L113.873 4.43673L114.044 4.58764L114.128 4.86127L114.031 5.18223L114.123 5.35228L114.299 5.49191L114.587 5.63718L114.849 5.60117L114.983 5.64959L115.069 5.78249L115.117 5.94127L115.232 6.32639L115.292 6.57077L115.185 6.80725L115.145 6.9717L115.204 7.19018L115.476 7.29713L115.724 7.38387L115.877 7.55392L116.048 7.60008L116.288 7.58994L116.594 7.54828L116.766 7.4503L116.875 7.42102L116.998 7.46381L117.27 7.55729L117.601 7.66314L117.902 7.60234L118.162 7.57416L118.42 7.51223L118.681 7.33545L118.902 7.34218L119.065 7.22282L119.271 7.03136L119.475 6.8388L119.634 6.79602L119.891 6.88836L120.244 7.02123L120.445 7.19354L120.598 7.2386L120.758 7.36583L121.064 7.3681L121.392 7.2994L121.654 7.08769L121.926 7.02573L122.111 6.96607L122.283 7.00208L122.944 7.39061L123.125 7.59107L123.352 7.63049L123.539 7.73971L123.851 7.85797L124.023 7.97959L124.241 8.0528L124.401 8.22171L124.652 8.32643L124.871 8.38389L124.968 8.52126V8.6125L124.939 8.6733L124.708 9.03141L124.256 9.73302L123.848 10.3648L123.207 11.3603L122.85 11.9166L122.941 11.9403L123.499 12.1835L123.637 12.1925L123.841 12.1306L123.974 12.0337L124.099 12.0202L124.23 12.1137L124.413 12.2342L124.545 12.5889L124.643 12.7624L124.873 12.8941L125.118 13.1137L125.28 13.3468Z" fill="#108AB4"/>
<path d="M177.732 112.764L177.577 112.905L177.41 113.17L177.214 113.808L176.555 114.689L176.421 115.188L175.71 115.709L175.209 116.297L174.883 116.283L174.588 116.535L172.891 117.301L172.281 117.156L171.83 117.159L171.411 116.821L170.455 116.699L169.855 116.834L169.049 117.206L168.806 117.2L168.632 117.18L168.196 117.026L167.958 116.698L166.718 116.32L165.722 115.463L164.544 115.446L163.64 115.558L163.501 115.445L163.41 115.226L163.223 114.909L162.446 114.155L161.835 113.41L161.716 112.678L161.8 111.884L161.984 110.946L161.951 110.653L162.178 110.487L162.399 110.454L162.614 110.211L162.807 109.847L162.84 109.571L162.691 109.059L162.587 108.348L162.465 107.993L162.711 107.436L162.721 107.164L162.58 106.925L162.541 106.681L162.605 106.43L162.593 106.19L162.503 105.959L162.571 105.768L162.797 105.616L162.967 105.385L163.078 105.073L163.136 104.835L163.138 104.671L163.069 104.517L162.93 104.371L162.995 104.083L163.263 103.651L163.438 103.268L163.515 102.934L163.511 102.664L163.422 102.46L163.459 102.322L163.625 102.248L163.699 102.032L163.674 101.495L163.503 101.054L163.634 100.703L164.008 100.299L164.204 99.9737L164.219 99.7259L164.336 99.5829L164.515 99.8509L165.047 99.9219L165.583 99.9309L165.67 99.8633L165.88 99.4253L166.157 99.3002L166.459 99.2676L166.789 99.2901L167.141 99.5795L168.135 100.529L168.865 101.19L169.086 101.502L169.28 101.736L169.424 101.953L169.362 102.521L169.373 102.77L169.406 102.841L169.573 102.848L169.821 102.806L170.029 102.685L170.191 102.503L170.35 102.354L170.48 102.275L170.526 102.155L170.6 102.03L170.675 102.003L170.82 102.095L171.161 102.42L171.424 102.72L171.49 102.891L171.591 103.071L171.7 103.227L171.777 103.38L172.032 103.578L172.294 103.705L172.468 103.575L172.911 103.99L173.885 104.335L174.064 104.545L174.233 104.843L174.573 105.295L175.045 105.702L175.424 105.875L175.789 105.973L175.993 106.063L176.133 106.219L176.355 106.387L176.495 106.45L176.543 106.601L176.687 106.931L176.838 107.349L177.001 107.737L177.356 108.111L177.757 108.402L178.172 108.566L178.405 108.771L178.507 108.983L178.226 109.298L177.922 109.696L177.654 110.008L177.377 110.226L177.285 110.377L177.223 110.61L177.226 111.851L177.204 112.314L177.223 112.437L177.263 112.519L177.438 112.643L177.646 112.746L177.732 112.764Z" fill="#108AB4"/>
<path d="M162.595 64.7074L162.664 64.9507L162.706 65.1387L162.811 65.2716L162.914 65.4484L163.019 65.5486L163.092 65.7153L163.071 65.9034L163.114 66.1477L163.166 66.3583L163.217 66.4146L163.368 66.4698L163.443 66.6613L163.388 66.7581L163.41 66.8696L163.464 66.9777L163.414 67.0847L163.44 67.1647L163.542 67.2368L163.636 67.5037L163.646 67.9609L163.542 68.2063L163.458 68.4068L163.438 68.5295L163.5 68.7075L163.395 68.9192L163.27 69.176L163.302 69.355L163.322 69.5228L163.332 69.7019L163.364 69.8697L163.322 70.0487L163.28 70.2053L163.259 70.3843L163.312 70.5859L163.217 70.7763L163.166 70.9102L163.144 71.0454L163.239 71.2582L163.48 71.3483L163.668 71.3708L163.845 71.2582L163.981 71.2244L164.232 71.3258L164.462 71.5049L164.754 71.5274L165.016 71.5611L165.214 71.6174L165.507 71.5499L165.811 71.6174L166.166 71.7188L166.458 71.8078L166.751 71.7853L166.971 71.7751L167.2 71.6738L167.42 71.685L167.587 71.5049L167.681 71.3483L167.765 71.2357L168.006 71.1456L168.172 71.2019L168.309 71.4947L168.549 71.6625L168.643 71.7853L168.82 71.8427L169.207 71.8529L169.448 71.8427L169.72 71.9317H169.897L170.054 72.0893L170.201 72.2796L170.221 72.6287L170.357 72.899L170.535 73.0004L170.628 73.1693L170.598 73.4058L170.514 73.6423L170.525 73.9025L170.618 74.1389V74.3765L170.681 74.613L170.806 74.8168L170.848 75.1446L170.828 75.3822L170.911 75.5185L170.943 75.711L170.89 75.8687L170.869 76.0849L170.88 76.2774L170.943 76.4363L171.131 76.6401L171.183 77.0038V77.2538L171.266 77.5489L171.424 77.6863L171.675 77.7313L171.966 77.7764L172.322 77.7088L172.636 77.6288L172.813 77.5489L173.158 77.3338L173.462 77.2077L173.618 77.1289L173.765 77.0714L174.068 77.2077L174.35 77.3789L174.569 77.6176L174.978 77.8788L174.898 77.943L174.736 78.1582L174.739 78.4093L174.854 78.7708L174.752 79.5377L174.436 80.7111L174.306 81.3969L174.363 81.5917L174.246 81.9353L173.812 82.674L173.795 83.1729L173.745 84.6741L173.599 85.7349L173.355 86.5209L173.133 86.941L172.931 86.9917L172.788 87.1178L172.701 87.3171L172.538 87.4838L172.3 87.6178L172.171 87.7642L172.151 87.923L171.924 88.0254L171.488 88.0716L171.233 88.1989L171.157 88.4072L171.011 88.5728L170.795 88.6955L170.694 88.8993L170.704 89.1842L170.58 89.4275L170.322 89.6314L170.083 89.637L169.866 89.4444L169.573 89.3172L169.207 89.253L168.902 89.3025L168.657 89.4624L168.439 89.7169L168.25 90.066L168.039 90.1246L167.807 89.8904L167.514 89.8194L167.159 89.9117L166.875 89.8803L166.666 89.7237L166.342 89.7068L165.907 89.8284L165.024 89.6877L163.693 89.2845L162.568 89.1313L161.188 89.2766L161.071 88.8577L161.144 88.6324L161.368 88.4624L161.509 88.2699L161.566 88.0547L161.721 87.8903L161.973 87.7777L162.08 87.664L162.042 87.5479L162.096 87.4466L162.241 87.3577L162.323 87.218L162.342 87.0277L162.397 86.9331L162.494 86.8633L162.506 86.7304L162.452 86.3239L162.458 85.9894L162.526 85.7292L162.61 85.5727L162.67 85.5333L162.726 85.441L162.748 85.2844L162.839 85.138L163.279 84.8385L163.445 84.6763L163.459 84.5277L163.526 84.3283L163.787 83.897L163.867 83.6954L163.874 83.5952L163.967 83.4905L164.283 83.2518L164.453 83.0276L164.48 82.817L164.404 82.5783L164.225 82.3114L163.663 81.6436L163.226 81.3407L162.668 81.0918L162.301 81.0107L162.124 81.0985L161.945 81.0287L161.763 80.8035L161.457 80.6255L160.812 80.4318L159.347 79.6559L158.76 79.2809L158.563 79.0501L158.016 78.6356L157.118 78.0388L156.43 77.7482L155.95 77.764L155.181 77.5917L154.124 77.2291L153.514 76.8766L153.35 76.5365L152.959 76.1952L152.341 75.854L152.02 75.63L151.996 75.5218L151.813 75.3811L151.47 75.2077L151.094 74.9115L150.684 74.4925L150.246 73.8439L149.78 72.9688L149.28 72.3787L148.746 72.0747L148.478 71.8731L148.479 71.7751L148.399 71.6816L148.472 71.5128L148.665 70.8495L148.947 69.8899L149.24 68.8989L149.583 67.7334V66.9079L149.584 66.0408L150.073 65.3279L150.42 64.8223L150.72 64.3414L151.023 63.5193L151.226 62.972L152 62.8414L153.314 62.5576L153.969 62.4157L155.351 62.1173L156.755 61.8132L158.23 61.7941L159.653 61.7749L160.757 62.4551L161.6 62.9754L162.529 63.5475L162.593 63.6714L162.658 64.1522L162.595 64.7074Z" fill="#108AB4"/>
<circle cx="141" cy="99" r="8.5" stroke="#C5B581" stroke-width="3"/>
</svg>
