<svg width="225" height="176" viewBox="0 0 225 176" fill="none" xmlns="http://www.w3.org/2000/svg">
<path d="M55.5572 4.76305L55.4424 4.47477L55.493 4.40267L55.5516 4.36438L55.6259 4.37342L55.9187 4.68197L56.046 4.76645L56.2329 4.99052L56.6552 5.01757L57.162 4.77655L57.3985 4.87453L57.5111 4.85653L57.8827 4.62791L58.1248 4.56262L58.287 4.39367L58.4515 4.57612L58.8186 4.78783L58.9346 5.00967L59.09 5.11442L59.1418 5.18422L58.9177 5.41733L58.8895 5.66849L58.6496 5.65158L58.3624 6.06375L57.2848 6.75522L56.3174 6.1651L55.8973 5.76647L55.6158 5.21463L55.5572 4.76305ZM76.3538 19.046L76.3899 19.2093L76.5611 19.3681L76.6962 19.2172L76.6253 19.0865L76.6038 18.8411L76.4304 18.6192L76.3561 18.8073L76.2852 18.8512L76.2187 19.001L76.3538 19.046ZM83.479 22.2938L83.6175 22.2961L83.8428 22.2218L83.9599 22.0641L84.0826 22.1046L84.327 21.8163L84.4914 21.6744L84.9283 21.6271L84.6333 21.2611L84.5803 21.2353L84.1727 21.3772L83.6479 21.4706L83.4452 21.6677L83.2358 21.9909L83.1885 22.2792L83.2256 22.3704L83.479 22.2938ZM92.7337 1.08392L92.8103 0.86431L92.674 0.757324L92.5118 0.981434L92.6515 1.17063L92.7337 1.08392ZM75.1331 4.99843L75.5847 4.40944L75.7075 3.82609L75.5531 3.86551L75.5385 4.12227L75.4856 4.29458L75.4146 4.35651L75.2919 4.46573L75.0103 4.93423L74.8898 5.05022L74.9056 5.19436L75.1331 4.99843ZM62.1598 4.31032L62.4121 4.80473L62.4752 4.75518L62.5889 4.32723L62.4865 4.12677L62.4752 3.7788L62.429 3.68645L62.2995 3.87678L62.1295 3.90493L62.2319 4.15718L62.1598 4.31032ZM74.4394 5.65385L74.7277 5.41733L74.7558 5.27883L74.6601 5.3464L74.0846 5.63244L73.8099 5.95453L74.3099 5.71578L74.4394 5.65385ZM75.9169 18.7239L75.9676 18.7003L76.0543 18.5989L76.0126 18.3174L75.9135 18.4525L75.9169 18.7239ZM92.6177 2.63801L92.6008 2.72699L92.6368 2.92969L92.808 3.0254L93.0716 2.84184L92.8283 2.48147L92.6177 2.63801ZM74.8302 18.5798L74.8662 18.7239L74.9191 18.7408L75.1084 18.7273L75.177 18.4525L75.0937 18.4187L74.8932 18.4492L74.8302 18.5798ZM76.0396 14.0763L75.7288 13.9491L75.6117 13.8105L75.5971 13.6732L75.7322 13.2621L75.8167 13.1382L75.9056 13.1033L76.1038 12.8781L76.0565 12.7474L75.9924 12.6731L75.9124 12.6315L75.784 12.9276L75.6365 12.9366L75.5002 12.8026L75.4406 12.5515L75.4597 12.4073L75.3133 12.3893L75.0835 12.5357L74.9281 12.77L74.5824 13.0008L74.5407 13.4738L74.5926 13.8466L74.4799 14.0065L74.3009 14.1236L74.3887 14.1788L74.6951 14.1968L75.293 14.3455L75.6512 14.3218L76.0656 14.386L76.1827 14.234L76.2446 14.0335L76.1917 14.0166L76.0396 14.0763ZM121.401 45.9452L121.474 45.899L121.583 45.7549L121.515 45.577L121.371 45.3247L121.407 45.1017L121.318 45.0454L121.218 45.0556L121.11 44.9688L120.837 44.8653L120.752 45.104L121.23 45.8258L121.401 45.9452ZM127.134 52.8789L127.214 52.7832L127.234 52.5444L127.417 51.9532L128.077 50.3902L128.105 50.094L127.911 49.8777L127.861 49.2651L127.782 49.2325L127.675 49.2696L127.541 49.3575L127.424 49.5309L127.559 49.5928L127.734 49.9036L127.688 50.1919L127.568 50.4172L127.09 50.8417L127.161 51.2212L127.132 51.4025L126.968 51.7303L126.897 52.0884L126.992 52.7077L127.134 52.8789ZM128.3 58.3351L128.368 58.2822L128.318 57.8768L128.445 57.2991L128.336 57.2709L128.17 57.3396L128.123 57.6549L128.159 57.9961L128.3 58.3351ZM128.237 58.9545L128.221 59.5198L128.318 59.6662L128.4 59.6854L128.673 58.709L128.618 58.6594L128.346 58.5987L128.237 58.9545ZM119.122 40.9823L119.223 40.9294L119.137 40.6625L119.032 40.6027L119.02 40.7964L118.949 40.9327L119.03 40.9902L119.122 40.9823ZM117.262 40.5431L117.261 40.3944L117.212 40.0532L117.095 40.1388L117.075 40.3978L117.151 40.6456L117.262 40.5431ZM105.213 27.4775L105.45 27.7106L105.591 28.0011L105.79 28.1138L105.879 27.9944L105.927 27.8333L105.79 27.589L105.725 27.2748L105.633 27.2568L105.575 27.3074L105.436 27.3536L105.157 27.3424L105.213 27.4775ZM93.0873 1.40374L93.2754 1.20554L93.1492 1.04L92.8959 1.06928L92.8215 1.22805L92.888 1.34408L93.0873 1.40374ZM114.125 33.6578L114.19 33.6071L114.227 33.3042L114.111 33.3864L114.033 33.4967L113.971 33.6364L114.054 33.6724L114.125 33.6578ZM114.288 34.1657L114.391 34.1679L114.466 34.1308L114.471 34.0835L114.342 33.8954L114.268 33.668L114.135 34.1037L114.288 34.1657ZM84.1738 23.3783L84.0128 23.5146L84.0545 23.6497L84.1727 23.5934L84.5252 23.527L84.4914 23.3547L84.2797 23.1857L84.1738 23.3783ZM103.224 99.7268L103.033 99.5635L102.619 99.5826L102.59 99.6716L102.572 99.8709L102.747 99.9925L103.224 99.7268ZM112.108 106.35L112.021 106.272L111.731 106.156L111.169 105.414L110.957 105.284L110.66 105.717L110.432 105.875L110.575 106.04L110.778 106.02L110.871 106.29L110.823 106.467L111.246 107.114L111.317 107.282L111.402 107.398L111.503 107.486L111.834 107.369L112.116 107.117L112.16 107.121L112.19 107.002L111.962 106.816L112.084 106.675L112.108 106.35ZM111.917 108.533L111.858 108.492L111.778 108.484L111.538 108.559L111.569 108.653L111.761 108.854L111.917 108.533ZM102.092 100.422L102.541 100.39L102.807 100.54L102.788 100.464L102.678 100.274L102.594 100.2L102.374 100.146L102.092 100.422ZM101.004 108.498L101.024 108.224L101.001 108.201L100.899 108.347L100.77 108.409L100.888 108.841L101.004 108.498ZM73.7457 12.5853L73.6657 12.6382L73.6275 12.7272L73.6297 12.8443L73.9168 12.9063L73.9912 12.8702L74.1105 12.7621L74.0542 12.4885L73.9214 12.3533L73.7457 12.5853ZM145.608 174.357L145.415 175.434L145.444 175.682L145.55 175.467L145.762 174.733L145.804 174.175L145.608 174.357ZM112.199 107.672L111.794 107.882L111.353 107.879L111.2 107.977L111.231 108.074L111.491 108.27L111.843 108.294L112.177 108.2L112.283 108.459L112.445 108.415L112.667 108.191L112.498 107.921L112.199 107.672ZM112.245 115.224L112.205 115.065L112.121 114.922V114.77L112.165 114.446L112.078 113.973L112.106 113.257L112.075 112.873L112.084 112.495L112.155 112.011L112.136 111.522L112.09 111.278L112.07 111.03L112.093 110.327L111.848 109.943L111.271 109.636L111.067 109.63L110.764 110.018L110.59 110.014L109.971 109.901L109.837 110.03L109.588 110.399L109.442 110.556L109.231 110.488L109.018 110.368L108.854 110.381L108.696 110.48L108.339 110.525L107.973 110.517L107.751 110.623L107.552 110.792L107.486 111.005L107.525 111.251L107.327 111.023L107.13 110.875L106.9 111.034L106.659 111.144L105.847 111.232L105.195 111.042L104.279 110.652L104.134 110.537L104.002 110.39L103.851 110.295L103.504 110.149L103.369 109.983L103.216 109.935L103.04 109.959L102.787 109.826L102.576 109.592L102.39 109.572L102.183 109.677L101.817 109.662L101.108 109.391L100.792 109.186L100.764 109.646L100.563 110.47L100.615 110.879L100.727 111.346L100.938 111.978L100.943 112.182L100.982 112.302L101.416 113.25L101.859 114.021L102.437 114.837L102.503 115.209L102.428 115.59L102.616 115.565L102.732 115.378L102.759 115.564L102.824 115.72L103.317 116.261L103.351 116.404L103.164 116.851L103.058 116.482L102.862 116.192L102.313 115.734L102.433 116.691L102.531 117.071L103.225 118.709L103.319 118.815L103.477 118.887L103.611 119.018L103.838 119.352L104.22 120.077L104.443 120.287L104.765 120.22L105.24 120.368L105.402 120.327L105.502 120.389L105.561 120.558L105.189 120.555L104.827 120.648L104.788 120.789L104.887 120.948L104.982 121.393L105.436 121.243L106.152 121.272L106.58 121.225L107.056 121.629L107.483 121.705L107.608 121.675L107.864 121.197L108.022 120.621L108.12 120.402L108.252 120.215L107.968 119.968L107.959 119.843L107.996 119.699L108.553 120.129L108.78 119.956L108.827 119.57V119.331L108.894 119.161L109.034 119.082L109.09 118.87L109.106 118.707L108.962 118.338L108.948 118.125L109.297 118.567L109.437 119.167L109.704 119.009L109.742 118.914L109.7 118.499L109.82 118.36L110.198 118.473L110.535 118.714L110.558 118.825L110.536 118.938L110.453 119.037L110.179 118.936L110.054 119.111L110.216 119.55L110.491 119.972L110.656 119.863L110.994 119.806L111.107 119.699L111.035 118.852L110.9 118.233L110.891 117.556L110.929 117.188L111.084 116.904L111.198 116.604L111.183 116.218L111.24 115.853L111.378 115.475L111.572 115.192L111.662 115.127L111.615 115.048L111.697 114.804L111.843 114.625L111.932 114.844L111.815 114.93L111.747 115.025L111.976 115.187L112.045 115.33L112.069 115.487L112.045 115.683L112.087 115.834L112.216 115.862L112.252 115.665L112.215 115.426L112.245 115.224ZM128.79 61.5672L128.408 60.8824L128.323 60.3453L128.189 59.8859L127.596 58.5953L127.339 57.8509L127.482 57.1031L127.236 54.7145L127.491 53.5253L127.367 53.38L127.06 53.1965L126.924 53.0085L126.72 52.5624L126.697 51.6694L126.303 51.1199L125.877 50.8688L125.589 50.4183L125.395 50.0432L125.368 49.8349L125.251 49.4824L124.925 49.2404L124.701 49.1255L124.22 48.773L123.984 48.4171L123.501 47.4047L123.277 47.1356L122.831 46.845L122.466 46.8281L122.231 46.7561L121.395 46.1119L121.135 45.9711L120.926 45.6693L120.613 45.345L120.431 45.1062L120.153 44.8529L119.963 43.89V42.9553L119.902 41.8415L119.613 41.3044L119.456 41.131L119.285 41.1884L119.271 41.5352L119.319 41.7717L119.198 41.783L118.768 41.4766L118.23 41.1501L117.939 40.7852L117.727 40.4429L117.552 40.4563L117.428 40.5104L117.304 40.9316L117.506 41.658L117.407 41.7571L117.236 41.5893L116.927 41.2097L116.766 41.3337L116.553 41.3821L116.367 41.0014L116.211 40.7616L115.984 39.9676L115.781 39.0937L115.762 38.4619L115.367 38.1151L115.213 37.5194L115.09 37.3539L114.974 36.9315L114.518 36.3797L114.049 35.9901L113.661 35.6218L113.326 35.1004L113.473 34.7232L113.71 34.8031L113.963 34.7671L113.761 34.3831L113.565 34.1252L113.064 33.642L112.831 33.5204L112.326 33.4494L111.766 33.0091L111.422 32.8188L111.18 32.7884L110.9 32.7197L110.701 32.4709L110.351 32.3887L109.858 31.8965L109.616 31.401L109.494 31.2186L109.329 31.0812L109.085 31.1634L108.885 31.2005L108.443 31.1308L108.298 30.9292L108.013 30.6735L107.465 30.606L107.031 30.4449L106.7 30.2861L106.365 30.0834L106.056 29.7455L105.782 29.294L105.83 28.7151L105.898 28.3401L105.549 28.1949L104.947 27.4099L104.918 27.0889L105.08 26.4336L105.244 25.3051L105.004 24.4673L104.537 23.4459L104.568 22.9278L104.333 22.9211L104.072 22.8197L103.704 22.3163L103.424 21.9853L103.236 21.6801L103.032 21.2668L103.065 20.9357L103.113 20.7127L103.134 20.1226L102.874 19.5494L102.791 18.9627L102.545 18.2296L102.613 17.743L102.559 17.3422L102.483 16.9953L102.563 16.7746L102.595 16.4941L102.255 16.2137L101.89 15.9998L101.42 15.6214L100.574 15.0313L100.379 14.5853L100.021 14.1867L99.5424 14.341L99.1899 14.4142L98.8611 14.7148L98.4061 14.9367L97.9646 14.7362L97.7552 14.5673L97.5998 13.9704L97.3982 13.3195L97.2271 12.993L97.0987 12.5988L97.2191 11.6382L97.039 11.1866L96.9826 10.5121L96.8115 9.74178L96.6212 9.35662L96.6347 9.04694L96.2811 8.59308L96.1685 8.26762L95.968 8.1505L95.7135 7.96471L95.6774 7.71582L95.6966 7.5345L95.8486 7.23382L95.9309 6.84416L95.5761 6.74731L95.3295 6.73044L95.1572 6.60768L94.9635 6.41735L94.8936 5.81149L94.9004 5.16958L94.8497 4.76868L94.7439 4.47027L94.6696 4.15495L94.4905 3.81935L93.9522 3.38351L93.9916 3.20785L94.1166 2.98034L93.9263 2.84971H93.647L93.4893 3.15379L93.2348 3.41506L92.7359 3.61439L92.6424 4.65946L92.3328 5.80812L92.0513 6.6561L92.103 6.91286L92.0805 7.16402L91.9285 7.0514L91.7945 6.91063L91.5895 7.24623L91.219 8.11672L91.1853 8.5683L91.4026 8.68993L91.5546 8.80932L91.7359 8.84874L91.8181 8.96023L91.8643 9.1787L91.9814 9.36676L91.9521 9.57059L91.8114 9.49062L91.5152 9.49175L91.3643 9.66857L90.9825 10.0222L91.0828 11.0402L90.9037 11.5763L90.7314 11.9918L90.5366 12.7801L90.5625 13.1979L90.7348 13.4952L90.9206 13.9299L90.808 14.529L90.6942 14.9581L90.9488 16.2014L91.0197 16.8635L90.88 17.3151L90.4702 18.6507L90.2855 19.6282L90.3451 20.1677L90.1672 20.6632L89.9645 21.456L89.7359 22.0551L88.9352 23.2646L88.7764 23.8502L88.5072 24.5799L87.9318 25.0056L87.4971 25.2714L86.5444 25.5349L85.9948 25.5293L85.711 25.3682L85.5477 25.2286L84.9002 24.9955L84.113 24.4684L83.5071 24.2972L83.2076 23.768L83.1783 23.5483L83.0702 23.2623L82.7526 22.8862L82.1535 22.7589L81.5386 22.4875L81.1591 22.5258L80.3359 22.2927L79.7875 21.9605L79.2863 21.4999L78.6253 20.7026L78.0645 20.4875L77.3471 20.1575L76.9349 19.8827L76.6849 19.7499L76.4079 19.5438L76.1557 19.59L75.7198 19.5956L75.4462 19.4019L75.4113 19.2499L75.4529 19.1305L75.4687 18.9131L75.373 18.8805H75.2761L75.1961 18.939L75.0846 18.9818L74.6995 18.8151L74.1601 18.537L74.0588 18.2926L73.8887 17.9942L73.1432 17.5606L72.7108 17.2025L71.7558 16.6834L71.5114 16.4322L71.4315 16.2126L71.3605 15.8962L71.5745 15.5673L71.7828 15.3342L72.4326 14.3669L72.6274 14.198L72.8718 13.9356L73.0959 13.2294L73.2074 12.8263L73.017 12.2159L73.0103 11.1911L73.7648 10.7936L73.9754 10.7418L74.1703 10.654L74.3932 10.7778L74.543 10.9704L74.6984 10.9355L75.1196 10.2215L75.052 9.9242L74.8775 9.67081L74.9383 9.51427L76.2356 8.11672L76.0768 7.77438L75.8842 7.69554L75.5149 7.71919L75.1668 7.42078L74.9484 6.85657L74.6421 6.83629L74.0948 7.41514L74.0306 7.54801L74.1635 7.62348L74.2795 7.97485L74.0655 8.38702L73.8515 8.39038L73.5002 8.34983L73.3403 8.05592L73.2682 7.6077L73.0452 7.48157L72.7907 7.56605L72.5801 7.72369L72.4315 7.76875L72.3076 7.66626L72.3008 7.47934L72.6218 7.16852L72.8909 6.96919L72.9124 6.89485L72.7164 6.83406L72.7457 6.68989L72.9957 6.43426L72.8785 6.42076L72.5733 6.69439L72.2479 6.85207L71.8155 7.18766L71.1949 7.40724L70.7693 7.70455L70.1758 7.61447L69.6228 7.32166L69.5023 7.16739L69.2298 6.94104L68.6228 7.18653L68.2411 7.16062L68.0305 7.07391L67.6713 7.01535L67.3626 6.79801L66.6194 6.45114L65.83 6.3847L65.4471 6.40048L65.1622 6.22143L64.8874 6.11894L64.3479 6.04687L64.1239 5.77771L63.8412 5.23604L63.6385 5.09077L63.3108 5.03895L62.9628 5.28784L62.759 5.40496L62.3614 4.96014L61.6553 4.50065L61.4301 4.43759L61.3119 4.54908L61.2263 4.76081L61.0922 4.78109L60.9357 4.68534L60.6598 4.41394L60.4796 4.36438L60.0066 4.65383L60.0393 4.75291L60.4256 4.90045L60.831 5.30474L61.0236 5.38805L61.4785 5.2822L62.1024 5.3588L62.7319 5.86332L62.6396 6.11444L62.5923 6.46354L62.6092 6.84416L62.5946 7.10205L62.8536 7.38586L62.7375 7.40724L62.4447 7.34307L62.2139 7.42188L61.9966 7.55591L61.8997 7.93766L61.777 7.75747L61.4008 7.58632L61.1778 7.71805L60.804 7.89151L60.4639 7.82167L60.2476 7.73383L59.7364 7.8825L58.8253 7.878L58.5213 7.66403L58.4323 7.29688L58.3613 7.20681L58.278 7.37122L58.135 7.56041L57.5843 7.5987L57.5021 7.6764L57.5347 7.85996L57.5134 8.09084L57.3017 8.10771L57.0404 8.16854L57.0685 8.45118L57.117 8.67192L57.0201 8.78227L56.733 8.58071L56.6046 8.36337L56.403 8.29577L56.2453 8.37348L56.2048 8.5672L56.2284 9.06721L56.0854 9.12351L55.7127 9.10437L55.5415 9.19894L55.2836 9.82735L54.8095 10.0672L54.7374 10.3949L54.7059 10.6742L55.1 11.1798L54.9097 11.4389L54.7093 11.6506L54.5088 11.7407L54.0831 11.8229L53.77 12.0537L53.6383 12.297L53.6135 12.529L53.5268 12.8263L53.3905 13.1788L53.3635 13.3691L53.0786 13.5583L52.5718 14.1247L52.3162 14.7047L52.6495 15.02L53.0414 15.2464L53.3263 15.2396L53.3286 15.2971L53.0313 15.5302L53.216 15.7689L53.5009 15.9919L53.6743 16.0245L53.8016 16.1192L53.5324 16.1721L53.1338 16.1912L53.0572 16.4345L53.1056 16.7149L53.1766 16.9581L53.127 17.1304L52.9784 17.0122L52.913 16.8297L52.5707 16.4581L52.3252 16.3444L51.9659 16.2565L51.8578 16.3691L51.8724 16.9356L51.8015 17.1957L51.6743 17.0482L51.6427 16.6338L51.3038 16.2982L49.9682 15.9626L49.779 15.9412L49.4682 15.9851L49.2553 16.118L49.2339 16.2487L49.092 16.3545L48.8612 16.475L48.6494 16.6597L48.5121 16.814L48.5053 17.0066L48.6765 17.368L48.7767 17.4728L48.7632 17.6451L48.5965 17.466L48.4501 17.4086L48.3116 17.6901L48.1787 17.7465L48.2136 16.9604L48.3521 16.4277L48.4647 16.1135L48.5886 15.868L48.5289 15.7385L47.6033 15.0031L47.2113 14.4007L46.9242 14.0628L46.4771 13.7373L46.244 13.5324L45.7248 13.2193L45.1122 13.002L44.8172 12.708L44.4917 12.6033L44.0885 12.7463L44.0548 13.02L44.1054 13.2857L43.7845 13.7205L43.4388 13.9524L43.1629 13.6867L42.9117 13.493L42.6584 13.6326L42.5817 13.8725L42.4545 13.9614L42.3587 13.7982L42.2202 13.4378L42.0142 13.2948L41.8081 13.3578L41.87 13.6439L41.9883 13.8015L41.9556 14.029L41.8069 14.1338L41.7788 14.3488L41.6898 14.6349L41.7034 15.0347L41.468 15.1191L41.2923 15.4356L41.165 15.368L41.1324 15.1619L41.0682 14.9513L40.8115 14.8714L40.7169 15.0673L40.6594 15.1338L40.5682 15.1473L40.6301 14.9874V14.6878L40.7044 14.3747L40.4612 14.2621L40.3643 14.332L40.3678 14.6022L40.3092 14.9964L40.0682 15.0583L39.8542 15.2351L39.5378 15.2385L39.3768 15.3241L39.3193 15.5324L39.0411 15.7475L39.0468 16.0054L39.2337 16.2667L39.2461 16.4941L39.6909 16.725L39.665 16.957L39.6019 17.0651L39.4341 17.0223L39.0749 16.8219L38.7089 16.7791L38.5985 16.6867L38.5546 16.7532L38.5524 16.9074L38.4105 17.0201L38.2067 17.0313L37.9691 17.1969L38.1379 17.4559L38.1076 17.5584L38.1909 17.6823L38.5535 17.7048L38.7078 17.6721L38.7236 17.8928L38.6774 18.1136L38.5299 18.1924L38.3891 17.9897L37.6897 17.6011L37.5062 17.564L37.4679 17.6856L37.5006 17.8444L37.3531 18.037L37.0929 18.2892L36.9161 18.2205L36.7066 18.2802L36.5715 18.7116L36.5242 19.1429L36.7562 19.4447L36.9116 19.8422L37.2348 19.3534L37.3665 19.2971L37.3677 19.5088L37.2416 19.7285L37.1672 19.9988L37.1425 20.3039L36.9308 20.3118L36.6931 20.2712L36.6357 20.3681L36.5467 20.5956L36.5985 20.9098L36.7562 21.028L37.1222 21.0168L37.4341 21.0393L37.7123 21.153L37.7585 21.2488L37.5073 21.1947L36.9938 21.224L36.7494 21.1812L36.264 21.2105L35.9037 21.0314L35.7258 20.8524L35.4566 20.8062L35.1942 20.8782L35.0478 21.1294L34.871 21.1902L34.4599 20.5686L34.2021 20.5269L34.0748 20.6722L34.1987 21.0618L34.1334 21.3017L33.9926 21.4807L33.8147 21.4695L33.7043 21.5449L33.7921 21.7094L34.0737 22.1272L34.3045 22.3096L34.5095 22.563L34.6143 22.7814L34.862 22.7713L34.9194 22.9481L34.7775 23.2049L34.782 23.6125L34.6807 23.634L34.5377 23.5438L34.2539 23.2927L34.1075 23.2443L34.032 23.3164L34.0084 23.4887L34.077 23.9391L33.9318 24.5822L33.9611 24.7702L33.9352 24.9301L33.8158 24.8142L33.6694 24.5653L33.3664 24.179L32.996 23.3378L32.604 22.7679L32.3912 22.2826L32.0635 21.3693L31.8935 21.3557L31.6761 21.7488L31.4362 22.2657L31.2729 22.5202L30.8855 22.7736L30.6468 23.0303L30.3607 23.1204L30.0466 23.4132L29.8202 23.6643L29.5027 24.25L29.4486 24.6272L29.4621 25.0248L29.6006 25.5889L29.747 26.4087L29.9621 26.4966L30.1355 26.6352L30.0871 26.8829L29.8236 27.0395L29.015 27.8153L28.4711 28.0924L28.3157 28.2872L28.1164 28.6982L27.8281 29.2174L27.6974 29.5451L27.3945 30.1802L26.9013 30.8897L26.4024 31.4168L25.8269 31.8391L25.4497 32.0407L24.0442 32.6307L23.2942 32.856L21.9394 33.0204L21.3651 33.2873L20.6466 33.2006L19.8425 33.1432L18.7265 34.0351L17.8009 34.2524L16.981 34.4157L16.6285 34.5621L15.8222 35.0767L15.3526 35.3121L14.4764 35.5756L14.1172 35.5486L13.6318 35.3065L13.178 35.3628L12.6757 35.3279L12.2658 35.3504L11.9471 35.5509L10.0676 36.6162L9.69593 36.9067L9.30964 37.329L8.75557 37.7198L8.31299 38.1703L7.3828 38.6399L6.4256 38.9957L5.95257 39.2919L5.6159 39.694L5.02918 40.7751L4.90526 41.0487L4.67101 41.3337L4.36019 41.4372L4.15866 41.5296L4.22959 40.9868L4.00552 40.5048L4.16313 39.5847L4.10457 39.31L3.78474 39.489L3.58094 39.6849L3.06406 41.0183L2.71042 42.0578L2.97842 42.6546L3.06516 43.0014L3.06406 43.3742L2.96941 43.9103L2.97622 44.2594L2.94467 44.7245L2.30049 45.8033L2.10005 46.2729L1.88382 47.1761L1.8579 47.5951L1.87371 48.2223L2.14508 48.7719L2.35231 49.112L2.67323 50.0962L3.05842 50.7505L3.69243 52.0692L4.39174 53.1391L4.43683 53.549L4.35799 54.1008L4.39628 54.6718L4.27125 54.8396L4.00098 55.0366L3.69126 54.7833L3.53365 54.5637L3.33542 53.7551L3.25432 53.7089L3.12145 54.0625L2.97505 54.2168L2.84218 54.1121L2.7408 53.978L2.71606 53.8384L2.76108 53.6718L2.80953 53.0659L2.51899 52.7201L2.2611 52.3485L1.98293 52.2573L1.81178 52.4251L1.80615 52.6559L2.17889 53.3024L2.41871 54.0028L2.78926 54.4409L3.0077 54.5535L3.25212 54.8204L3.19919 55.4116L3.02234 55.6323L2.87483 55.745L2.39396 55.6143L2.28248 55.1887L1.90636 54.352L1.7847 54.0276L1.68112 53.9397L1.63946 54.0997L1.6473 54.388L1.57753 54.5118L1.50433 54.4995L1.35566 54.3486L1.22163 54.2675L1.14059 54.2956L1.28699 54.504L1.60901 55.1211L2.79826 56.6346L3.80619 58.3982L4.02799 59.0964L4.13948 60.6325L4.2397 61.0041L4.83432 61.7688L5.41657 62.655L5.58772 63.0965L5.58436 63.4748L5.70258 63.8341L6.4256 64.8093L6.74769 65.8567L6.78708 66.2396L6.69476 66.8972L6.77917 68.0605L6.86028 68.6935L7.12264 69.948L7.43572 70.8534L7.80627 71.4164L8.31299 72.6687L9.0833 74.1147L9.20832 74.8298L9.16887 76.7364L9.11368 77.358L8.9448 77.465L8.83104 77.7274L8.99545 78.9819L9.03374 79.6982L8.78485 80.3739L8.50331 80.9741L8.00897 81.384L7.44927 81.3976L7.1891 81.1588L6.85691 80.9144L6.79835 82.0056L6.79161 82.9426L6.89293 83.2996L6.9042 83.7208L7.28032 84.0485L7.49202 83.9212L7.75328 83.9032L8.66209 84.3672L9.17224 84.7501L9.99438 85.7794L10.7219 86.0508L11.6701 86.5192L12.7715 86.6679L13.6521 86.6949L15.0361 86.9416L15.3323 86.8537L15.9247 86.7771L16.3774 86.6173L16.785 86.5148L18.0013 85.5587L19.1871 84.5744L19.7738 84.4967L20.2998 84.4855L20.9417 84.1498L21.525 83.133L21.8223 82.9066L22.2176 82.6532L23.3403 82.5045L24.0014 82.6093L24.355 82.4449L25.2525 82.2613L27.1197 82.0924L28.1445 82.2286L28.8292 82.2061L29.1918 82.2737L29.4756 82.7185L31.4565 82.3356L32.0196 82.3086L32.3721 82.3728L32.8157 82.705L33.3135 82.3908L33.7606 82.4325L34.2133 82.1295L34.9014 81.2219L35.2145 80.6554L35.7156 79.4628L36.0872 79.0349L36.496 78.8221L36.9758 78.7533L37.7156 78.5383L39.3204 77.5349L39.9432 77.3186L40.272 77.1294L41.3768 76.3513L42.0694 76.2015L44.1009 76.4031L45.0638 76.3513L45.8093 76.2297L46.9411 75.8107L48.1731 75.4954L49.6855 74.8332L50.9491 74.1485L51.7137 73.9908L52.9176 73.8703L54.6901 73.6924L56.7543 73.7848L57.2769 73.644L57.5336 73.519L57.8951 73.385L58.3411 73.4785L58.6834 73.5798L59.7195 74.126L61.2803 75.2758L61.6249 75.3242L62.652 75.0618L62.9954 75.0877L64.4324 75.9323L65.0281 75.9503L65.5045 75.9289L65.8649 76.0202L66.2478 76.2499L66.7016 76.7815L67.6623 77.2916L67.7106 77.7038L67.6397 77.9718L67.4235 77.9819L67.24 78.0394L67.4708 78.9031L67.874 79.6013L68.8424 79.696L69.1949 79.9403L69.4212 80.2162L69.5981 80.6543L69.7299 81.3401L70.2152 81.9122L70.6679 82.4009L70.7738 82.6025L70.9866 83.2951L71.0677 83.4978L71.2445 84.1836L71.5024 84.9674L71.4315 85.0474L71.2783 85.0305L71.0058 84.8312L70.7659 84.6093L70.6375 84.6442L70.4911 84.7963L70.4697 84.9843L70.6837 84.9348L70.8087 84.9618L71.1048 85.2017L71.3807 85.4809L71.5992 85.6443L72.1263 86.3402L72.3324 86.1848L72.5846 86.0463L72.9855 86.4247L73.1454 86.5001L73.2366 86.3548L73.0846 85.6758L72.9326 85.5114L72.8965 85.2703L73.0846 85.0981L73.1759 84.892L73.6229 84.3841L74.6016 82.8672L74.9022 82.6937L75.2491 82.3616L75.7176 82.1081L76.2018 81.8075L76.5104 81.6904L76.8133 81.6284L77.1523 81.3503L77.5216 80.598L77.7998 79.7072L78.0971 79.3153L78.5521 78.8975L78.9023 78.3176L78.8742 77.8637L78.8787 77.4008L79.1309 77.7578L79.2897 78.1204L79.5409 79.3333L79.3258 79.6002L79.0983 79.7342L79.1422 80.1599L79.2942 80.7151L79.3505 81.1599L78.873 81.6295L78.4609 82.2196L77.9665 83.366L77.9349 83.7129L77.8573 84.1949L77.8865 84.6194L77.9631 85.0305L77.8415 85.6679L77.6422 86.2377L77.3809 86.2523L77.203 86.231L76.8122 86.2816L76.4518 86.2479L76.0385 87.4934L76.3009 87.5519L76.5014 87.481H76.8629L77.2672 87.258L77.8584 87.0756L78.1962 87.1398L78.5927 87.1195L79.1692 85.5249L79.3122 84.4877L79.6061 84.0226L79.6974 83.7016L79.8494 83.3976L80.1558 83.9201L80.4024 84.428L80.9452 85.2523L81.1152 85.6634L81.1828 86.6634L80.8303 87.8234L80.6185 88.1555L80.3629 88.445L80.1489 88.9326L80.7965 89.0565L81.2165 89.0474L81.8731 88.6927L82.0026 88.6454L82.3326 88.6398L82.4587 88.454L82.7819 88.2772L83.0229 88.07L83.3349 87.9067L83.6186 88.0148L83.6828 88.1083L83.7537 88.213L83.6491 88.4427L83.6401 88.9281L83.4542 88.8752L83.2887 88.5869L83.0814 88.6612L82.9373 88.8786L82.6276 88.8098L82.6794 88.9518L82.845 89.2299L83.4993 89.7659L84.1986 90.4766L84.4588 90.8121L85.0286 91.8831L85.434 93.0216L85.4013 93.3584L85.202 93.9665L85.059 94.5847L85.0714 94.9091L85.2031 95.3201L85.4903 95.7413L86.5556 96.8911L87.1187 97.9046L87.8676 98.4306L89.0805 98.6243L89.7212 99.0049L90.3868 99.773L90.5985 99.8382L90.9217 99.8698L91.3361 99.4024L91.9679 99.452L92.799 99.9159L93.2934 99.8056L93.6459 99.863L94.1391 100.125L94.861 100.645L95.6268 100.906L96.0817 101.299L96.4354 101.357L97.0694 101.613L97.5356 101.395L97.932 101.12L98.8475 100.168L99.5649 99.7099L99.9421 99.5319L100.245 99.4531L100.629 99.1558L100.39 98.9464L100.164 98.9813L99.7766 98.863L99.9973 98.7256L100.228 98.6231L101.343 97.9159L101.639 98.1254L101.844 98.3596L102.066 98.6805L101.899 99.1344L101.751 99.3484L101.407 99.6918L100.993 99.7054L100.796 99.6772L101.205 100.062L101.558 100.321L102.29 99.8506L102.473 99.4801L102.611 99.265L102.843 99.2177L103.19 99.2898L103.324 99.5612L103.399 99.8923L103.148 99.9824L103.027 100.228L102.941 100.461L103.378 100.761L103.602 100.951L103.872 100.946L104.184 100.993L104.421 101.433L104.642 101.941L104.903 101.8L105.066 101.667L105.345 101.794L105.65 102.194L105.896 102.648L105.921 102.839L106.11 102.927L106.289 102.792L106.375 102.601L106.368 102.248L106.32 101.692L106.195 101.607L105.91 101.909L105.747 101.691L105.529 101.459L105.532 101.235L105.77 101.123L105.972 101.172H106.224L107.555 100.977L109.258 99.1918L110.003 98.5375L110.778 98.0522L111.58 97.7402L111.998 97.64L114.151 97.4722L115.271 97.5262L115.848 97.4035L116.115 97.2391L116.567 96.7897L116.885 96.515L117.275 96.4384L117.369 96.1028L117.37 95.7436L117.445 95.3686L117.331 94.6647L117.361 93.7401L117.449 93.2581L117.685 92.5813L117.788 91.8865L117.894 90.9023L117.988 90.3189L118.105 89.7862L118.41 89.1995L118.669 88.82L119.28 87.392L119.492 87.2513H119.669L119.746 87.1645L119.769 87.0857L119.717 87.0283L119.64 86.8627L119.691 86.7288L119.877 86.5958L119.936 86.6465L120.03 86.6184L120.045 86.5452L119.957 86.1544L120.086 85.6071L120.242 84.651L120.419 84.2219L120.524 83.8807L120.932 83.3683L121.38 82.8638L121.252 82.8097L121.043 82.7714L121.178 82.6509L121.285 82.6149L121.421 82.6948L121.534 82.473L121.559 82.125L121.668 81.6115L121.571 81.1644L121.778 81.0248L122.014 80.9403L122.113 80.4718L122.178 80.2838L122.324 80.1093L122.57 79.7364L122.762 79.348L123.219 78.6069L123.664 78.304L124.329 78.0698L124.403 77.9357L124.234 77.8535L124.241 77.7725H124.491L124.592 77.5134L124.856 77.322L125.296 76.8806L125.443 76.4751L125.534 76.1508L125.578 75.4177L126.294 74.456L126.793 73.1575L126.913 72.3253L127.037 71.8759L127.121 71.2183L127.045 70.5335L127.067 69.9604L127.564 68.5054L127.678 67.9051L127.831 67.52L128.067 66.0864L128.071 65.3432L128.432 64.4783L128.881 63.7744L128.919 63.1235L128.768 62.6235L128.79 61.5672ZM54.6924 6.42863L55.2802 6.25858L55.8658 6.46354L56.1935 6.40271L56.1823 6.26421L56.1101 6.14822L55.9908 6.03897L55.7307 5.96353L55.6474 5.68313L55.4976 5.4196L55.4705 5.13129L55.3523 4.86553H55.2126L55.0741 4.941L54.7633 5.31598L54.8725 5.52095L54.9052 5.89597L54.7205 6.01983L54.5088 5.96803L54.4176 6.31037L54.5234 6.43199L54.6924 6.42863ZM0.966001 53.4859L0.964901 53.2426L0.852245 53.0073L0.493037 51.9792L0.380381 52.0185L0.258789 52.1526L0.435575 52.8958L1.04257 53.9848L1.12595 53.8406L1.01666 53.5636L0.966001 53.4859ZM8.09682 36.0599L8.28034 35.7975L8.31525 35.5576L8.24322 35.3955L7.9898 35.6578L7.84456 35.8752L7.87384 36.0081L8.09682 36.0599ZM36.9712 18.0539L37.0839 18.082L37.2021 17.9897L37.2269 17.8422L37.0985 17.6935L37.0557 17.5618L36.9555 17.5527L36.907 17.6338L36.8395 17.7903L36.969 17.9277L36.9712 18.0539ZM39.103 15.3162L39.0862 15.2284L39.1008 14.9761L38.9803 14.9153L38.8463 15.0324L38.7641 15.3568L38.9015 15.5189L39.103 15.3162ZM109.121 119.37L109.041 119.518L109.016 119.651L108.944 119.722L109.075 119.815L109.11 120.027L109.182 120.063H109.38L109.263 119.534L109.121 119.37ZM108.994 120.234L108.904 120.228L108.746 120.451L108.701 120.628L108.634 120.662L108.59 120.786L108.521 120.883L108.337 120.807L108.338 120.886L108.492 121.186L108.737 121.112L108.983 121.189L109.132 120.738L109.089 120.519L108.994 120.234ZM111.619 117.376L111.397 117.278L111.239 117.481L111.264 117.578L111.26 117.799L111.32 117.818L111.496 117.78L111.484 117.653L111.701 117.529L111.619 117.376ZM79.337 89.3605L79.0431 89.5002L78.2863 89.409L78.2919 89.3448L78.4091 89.0903L78.2492 88.9495L78.0769 88.8909L77.4563 88.8425L76.6906 89.1185L75.2592 89.4484L75.07 89.6804L74.9495 89.9968L75.1038 90.1725L75.6275 90.5532L76.1252 90.6049L76.4822 90.516L76.8673 90.5756L77.0633 90.3549L77.6084 90.5047L77.8178 90.7153L78.266 90.5295L78.3674 90.1838L78.5217 90.0272L79.042 89.9101L79.5994 90.0644L79.7717 90.0374L79.9519 89.8493L79.7086 89.472L79.337 89.3605ZM98.9073 105.526L98.8138 104.924L98.5277 104.687L98.3633 104.702L98.3329 105.006L98.1437 105.177L98.0885 105.333L98.0987 105.685L98.0153 106.013L98.1707 106.34L98.1336 106.669L98.2056 106.901L98.298 106.885L98.6358 106.729L98.8802 106.498L98.9714 106.217L98.8611 105.889L98.9073 105.526ZM34.0354 8.39152L34.0332 8.35883L33.9622 8.35323L33.9644 8.38588L34.0354 8.39152Z" fill="#108AB4"/>
<path d="M224.386 122.23L224.272 122.344L224.078 122.338L223.739 122.783L223.761 122.451L223.659 122.322L223.369 122.352L223.314 122.425L223.509 122.513L223.551 122.561L223.366 122.754L223.559 123.167L223.728 123.153L223.893 123.476L223.891 123.577L223.515 123.702L223.317 123.877L223.14 123.87L223.057 123.836L222.958 123.524L222.95 123.394L223.167 123.165L223.29 122.932L223.191 122.718L222.94 122.579L222.393 122.643L222.266 122.596L222.54 122.308L222.837 122.34L223.157 122.132L224.386 122.23ZM224.389 124.778L224.25 124.816L224.27 124.565L224.223 124.403L224.459 124.35L224.56 124.542L224.389 124.778ZM191.034 86.3084L191.081 86.4841L191.256 86.3591L191.386 86.1621L191.597 85.9616L191.569 86.2848L191.677 86.3558L192.375 86.5809L192.519 86.769L192.668 86.8231L192.751 86.7172L192.85 86.6598L193.103 86.7781L193.672 87.1069L193.72 87.2206L193.69 87.3895L193.719 87.5686L193.796 87.7116L193.985 87.7443L194.238 87.5326L194.356 87.5067L194.523 87.8074L194.586 87.9774L194.56 87.9718L194.669 88.1407L194.813 88.3073L195.062 88.8018L195.025 88.9752L194.952 89.1317L195.18 89.59L195.03 89.6216L194.581 89.5439L194.596 89.6362L194.858 89.9729L195.079 90.4493L195.256 90.7364L195.88 91.6295L195.786 91.9471L195.801 92.1577L195.721 92.339L195.934 92.8142L195.801 92.9617L195.713 93.4493L195.616 93.535L195.628 93.7129L195.881 93.7601L196.033 93.8356L196.163 93.9809L196.244 93.8063L196.355 93.759L196.656 93.9921L197.282 94.2253L197.454 94.312L197.538 94.5001L197.603 94.955L197.724 95.1555L197.964 95.1937L198.222 95.1329L198.303 94.9674L198.251 94.5214L198.065 93.8097L198.064 93.5789L198.09 93.3468L198.047 93.1171L197.954 92.9009L197.854 92.7354L197.725 92.5957L197.77 92.3784L197.963 92.2804L198.08 92.4639L198.176 92.6858L198.661 93.3435L198.948 93.2973L198.974 93.5698L199.169 93.8469L199.277 94.1723L199.419 95.1465L199.636 96.0665L200.031 96.4675L200.077 96.66L199.837 96.5609L199.764 96.6183L199.788 96.7152L200.01 96.892L200.272 96.9787L200.436 96.9663L200.59 97.0305L201.612 97.6319L202.103 97.8661L203.341 98.2501L203.695 98.2805L203.891 98.2704L204.262 98.1375L204.594 97.8988L204.881 97.5418L205.129 97.1352L205.398 96.9382L205.703 96.7828L205.857 96.6386L206.019 96.5361L206.849 96.5834L207.13 96.7884L207.494 96.9528L207.684 97.0812L207.62 97.3425L207.402 97.7276L207.236 98.1499L207.087 99.1116L206.987 100.087L206.836 100.518L206.561 100.85L206.257 101.094L205.914 101.209L205.774 101.766L205.705 102.42L205.726 102.585L205.836 102.715L205.881 102.91L205.701 103.304L205.596 103.247L205.447 102.918L205.313 102.781L204.901 102.678L204.481 102.631L204.117 102.66L203.766 102.801L203.236 103.086L203.071 103.23L202.927 103.414L202.684 103.823L202.625 104.326L202.636 104.589L202.723 104.793L203.175 105.071L202.727 106.044L202.329 107.06L202.104 107.351L201.845 107.62L201.6 108.233L201.174 108.763L200.885 109.168L200.66 109.589L200.463 110.038L200.043 110.672L199.857 111.092L199.614 111.442L199.161 111.889L198.679 112.273L197.92 112.804L197.708 112.98L197.485 113.11L197.208 112.958L197.153 112.792L197.087 112.428L197.026 112.295L196.674 112.185L196.206 112.361L196.128 112.324L196.108 112.24V111.712L196.187 111.563L196.078 111.481L195.97 111.514L195.933 111.649L196.001 111.766L195.735 111.911L195.458 111.915L195.375 111.857L195.351 111.761L195.419 111.601L195.508 111.46L196.023 110.795L196.558 109.916L197.018 108.977L197.137 108.495L197.306 107.603L197.168 107.231L196.997 106.883L196.534 106.214L195.916 105.837L195.516 105.784L195.137 105.643L194.782 105.325L194.457 104.95L193.814 104.642L193.136 104.401L192.75 104.061L192.658 103.859L192.597 103.625L192.606 103.408L192.654 103.187L192.731 103.018L192.851 102.895L193.569 102.457L194.329 102.214L194.469 102.219L194.603 102.179L194.793 102.031L195.133 101.69L195.232 101.462L195.3 100.737L195.409 100.025L195.606 99.2107L195.903 98.7073L196 98.3988L195.88 97.8909L195.991 97.7051L196.126 97.5924L196.279 97.5271L196.02 97.0519L195.715 96.3345L195.651 96.1127L195.697 95.8931L195.772 95.678L195.581 95.624L195.471 95.4179L195.197 94.7252L195.271 94.6149L195.43 94.6892L195.666 95.1881L195.704 94.9314L195.884 94.7726L196.076 94.6904L196.28 94.6723L195.817 94.116L195.661 94.1385L195.456 94.2275L195.246 94.2816L195.039 94.2332L194.847 94.1104L194.748 93.8762L194.627 93.4268L194.552 93.2613L193.942 92.3457L194.121 92.3164L194.614 92.7748L194.709 92.6284L194.78 92.4178L194.757 92.1836L194.64 92.0056L194.465 91.8908L194.462 91.6824L194.595 91.4921L194.587 91.3592L194.304 91.0878L194.192 91.0585L194.141 91.1847L194.222 91.3727L194.146 91.3942L193.461 90.9008L193.249 90.5045L193.075 90.0698L193.057 90.2466L193.083 90.4954L193.355 90.9943L193.795 91.5529L193.871 91.7015L193.805 91.8941L193.652 91.9493L193.517 91.8277L193.315 91.3491L193.17 91.1103L191.486 88.6508L191.702 88.3276L192.035 88.0551L192.112 87.9346L192.162 87.7871L192.021 87.7623L191.895 87.8298L191.751 87.9549L191.619 88.0967L191.453 88.4132L191.374 88.4864L191.177 88.2668L191.101 88.1317L191.105 87.9695L191.052 87.867L190.905 87.8344L190.69 87.5123L190.554 87.3479L190.782 87.0337L190.787 86.6204L190.555 86.1879L190.278 85.7904L189.744 85.1496L189.254 84.4728L189.785 84.3872L190.323 84.3726L190.07 84.778L190.185 85.0122L190.356 85.2104L190.725 85.8185L190.757 85.9942L190.944 86.1722L191.034 86.3084ZM198.219 91.5124L198.243 91.7252L198.001 91.6498L197.907 91.4887L197.635 91.3221L197.596 91.2725L197.565 90.9493L197.708 90.7928L197.732 90.7263L197.795 90.7004L197.907 90.8705L198.122 91.1126L198.219 91.5124ZM190.546 111.716L190.91 111.736L191.249 111.429L191.596 111.181L191.959 110.974L192.514 110.503L192.659 110.433L193.018 110.343L193.175 110.231L193.349 110.205L193.191 110.485L192.993 110.578L192.962 110.678L193.073 110.84L192.901 111.067L192.908 111.349L192.703 111.684L193.016 111.547L193.132 111.329L193.072 111.206L193.207 110.963L193.418 110.847L193.335 110.664L193.34 110.518L193.598 110.572L193.725 110.567L193.827 110.509L194.012 110.487L194.05 110.649L194.3 110.629L194.208 110.834L194.018 111.071L193.973 111.215L193.668 111.455L193.464 111.558L193.778 111.584L194.238 111.263L194.51 110.98L194.502 111.334L194.28 111.651L194.091 111.852L193.877 111.915L193.664 112.078L193.561 112.345L193.573 112.523L193.634 112.664L193.851 112.901L193.607 113.361L193.88 113.303L194.028 113.39L194.238 113.655L194.112 113.961L194.024 114.118L193.492 114.765L193.26 115.094L192.989 115.305L192.992 115.65L192.837 115.903L192.044 116.769L191.905 116.957L191.28 118.341L190.882 118.924L190.653 119.123L190.411 119.284L189.831 119.56L189.574 119.878L189.292 120.141L188.993 120.201L189.002 120.318L189.194 120.384L189.343 120.557L189.232 120.752L189.019 120.873L188.798 120.908L188.686 121.033L189.213 120.944L189.361 121.046L189.388 121.261L189.445 121.454L189.572 121.711L190.016 121.876L190.414 121.952L190.492 122.072L190.552 122.483L190.48 122.684L190.391 122.817L190.257 122.864L189.932 122.89L189.607 122.797L189.392 122.548L188.776 122.628L188.611 122.681L188.527 122.636L188.868 122.374L188.69 122.226L188.542 122.171L188.381 122.257L188.272 122.395L188.241 122.62L188.129 122.751L187.961 122.788L187.721 122.6L187.483 122.332L187.134 122.061L187.188 122.228L187.456 122.637L187.59 122.908L187.278 123.126L186.951 123.295L186.677 123.394L186.418 123.549L186.112 123.791L185.945 123.877L185.499 123.882L185.26 123.959L185.181 124.279L185.015 124.483L184.623 124.523L184.764 124.587L184.851 124.69L184.592 125.656L184.536 126.058L184.487 126.747L184.324 127.389L183.859 127.386L183.933 127.5L184.286 127.681L184.219 127.955L183.832 128.456L183.67 128.745L183.512 129.45L183.276 130.102L182.914 130.845L182.911 130.979L183.038 131.17L183.192 131.334L183.201 131.566L183.154 131.689L182.982 131.72L182.831 131.8L182.025 132.005L181.761 132.235L181.544 132.647L181.289 133.003L180.442 133.794L179.945 134.458L179.844 134.648L179.71 134.787L178.621 135.102L177.851 135.15L177.432 135.068L177.028 134.909L176.804 134.854L176.376 134.952L176.189 135.059L175.853 134.954L175.587 135.034L175.509 134.956L175.41 134.761L175.465 134.502L175.392 134.311L175.223 134.181L175.109 134.03L174.979 133.923L174.626 133.881L174.067 133.949L173.883 133.942L173.503 133.308L173.378 133.153L172.926 132.951L172.772 132.979L172.53 133.317L172.387 133.375L171.538 133.411L170.687 133.302L170.373 133.175L170.311 132.884L170.958 132.083L170.766 132.19L170.368 132.515L170.113 132.466L170.358 132.111L170.379 131.952L170.328 131.777L169.996 132.075L169.618 132.115L169.569 131.838L169.603 131.517L169.68 131.425L170.701 131.258L171.069 131.148L171.23 130.976L170.619 130.917L170.581 130.676L170.668 130.484L171.191 130.164L170.806 130.245L170.379 130.217L170.407 129.879L170.519 129.616L170.966 129.608L170.826 129.426L170.805 129.174L170.929 129.157L171.382 129.497L171.71 129.621L171.572 129.366L171.591 129.205L171.678 129.133L171.946 129.082L171.871 129.037L171.62 128.971L171.321 128.778L171.289 128.573L171.3 128.336L171.622 128.011L171.813 128.205L172.038 128.152L171.866 128L171.761 127.772L171.832 127.622L172.515 127.02L172.69 127.6L172.73 127.407L172.741 127.225L172.658 127.066L172.671 126.906L172.75 126.769L173.042 126.632L173.423 126.191L173.705 125.986L173.933 126.118L174.09 126.295L174.066 126.119L173.955 125.974L173.924 125.569L174.435 124.943L174.997 124.349L175.537 123.727L175.824 123.502L176.435 123.246L176.827 123.353L176.928 123.333L177.509 122.887L177.75 122.771L177.969 122.93L178.104 122.987L177.968 122.579L178.075 122.393L178.561 122.064L179.169 121.725L179.63 121.584L179.971 121.354L180.175 121.349L180.145 121.175L180.18 121.01L180.356 121.021L180.41 120.956L180.254 120.865L180.755 120.534L181.028 120.168L181.17 120.093L181.299 119.983L181.459 119.73L181.648 119.647L181.824 119.686L181.951 119.81L181.882 119.604L181.656 119.487L181.898 119.309L182.15 119.185L182.394 119.274L182.634 119.418L182.394 119.198L182.355 119.061L182.646 118.904L182.804 118.855L183.025 119.15L182.993 118.916L183.045 118.709L183.357 118.37L183.766 117.811L183.896 118.006L183.918 118.242L183.897 118.526L183.982 118.428L184.01 118.171L183.947 117.717L184.458 116.88L184.56 116.787L184.672 116.73L184.85 116.708L184.795 116.582L184.656 116.46L184.796 116.037L184.879 115.553L184.998 115.089L185.188 114.637L185.396 113.882L185.555 113.725L185.984 113.67L186.172 113.565L186.485 113.293L186.856 112.802L187.054 112.407L187.314 111.388L187.461 110.326L187.882 109.541L188.5 108.974L189.044 108.544L189.267 108.454L189.643 108.427L190.001 108.545L189.334 108.649L189.266 108.905L189.244 109.164L189.321 109.396L189.44 109.603L189.763 109.798L190.142 109.914L190.311 110.353L190.341 110.874L190.393 111.322L190.546 111.716ZM193.072 109.98L192.649 110.222L192.667 110.054L192.749 109.688L192.941 109.504L193.036 109.491L193.23 109.353L193.208 109.659L193.072 109.98ZM171.153 128.583L171.289 129.12L171 129.018L170.879 128.854L171.1 128.585L171.153 128.583ZM170.416 130.72L170.399 130.942L170.362 131.054L170.252 131.055L170.087 131.03L169.926 130.928L169.823 130.957L169.737 130.92L169.849 130.67L170.224 130.537L170.368 130.644L170.416 130.72ZM174.836 136.217L174.839 136.401L174.509 136.335L174.515 136.541L174.776 136.651L174.871 136.799L175.142 136.757L175.202 136.978L175.139 137.178L174.959 137.323L174.425 137.396L174.078 137.686L173.779 137.642L173.698 137.668L173.354 137.978L172.97 138.074L172.866 138.051L172.919 137.773L173.205 137.511L173.21 137.259L173.283 137.057L173.557 136.915L173.562 136.654L173.746 136.421L173.634 135.92L173.693 135.471L174.236 135.446L174.836 136.217ZM168.756 154.89L168.825 155.31L168.652 155.311L168.29 155.194L168.176 155.015L168.1 154.971L167.968 155.179L167.756 155.189L167.709 155.12L167.792 154.898L168.291 154.479L168.385 153.953L168.378 153.784L168.77 153.745L168.862 153.809L168.904 153.881L168.879 153.973L168.72 154.147L168.715 154.347L168.755 154.556L168.626 154.658L168.693 154.838L168.756 154.89ZM178.102 163.705L178.277 163.969L177.941 164.084L177.778 163.988L177.663 163.867L177.606 163.697L177.787 163.715L177.943 163.645L178.102 163.705Z" fill="#108AB4"/>
<circle cx="63" cy="50" r="8.5" stroke="#C5B581" stroke-width="3"/>
</svg>
