<svg width="60" height="60" viewBox="0 0 60 60" fill="none" xmlns="http://www.w3.org/2000/svg">
<path d="M26.6389 25.6365L26.7358 25.561L26.7425 25.4529L26.7437 25.0971L27.0196 24.8504L27.4137 24.3426L27.6074 24.0644L27.827 23.8043L28.0826 23.6308L28.3338 23.5475L28.7279 23.5126L29.4813 23.5452L29.63 23.5148L30.1548 23.4878L30.2776 23.534L30.6593 23.5632L31.0816 23.5306L31.2944 23.4552L31.4915 23.3268L31.6627 23.0948L31.8407 22.6657L32.031 22.3267L32.1425 22.2637L32.915 24.0599L33.6526 25.2153L34.2821 26.0487L35.1785 27.6467L35.4409 28.498L35.4657 29.0239L35.6155 29.7458L35.4883 30.1591L35.5254 30.8089L35.4691 31.1422L35.3587 31.3877L35.3553 31.8585L35.3903 32.1096L35.3936 32.4429L35.4646 32.5724L35.567 32.6198L35.7303 32.4992L35.9297 32.4486L35.8948 32.8483L35.6538 33.8585L35.4443 34.5916L35.1594 35.229L34.7968 35.8113L34.3621 36.0387L34.0569 36.1198L33.4736 36.1491L32.9893 36.0511L32.5738 36.1221L32.4071 36.2426L32.2832 36.4498L32.3744 36.7707L32.3621 37.0072L32.1841 36.9892L31.8316 36.8518L31.4408 36.8327L31.2584 36.764L31.0737 36.425L30.8857 36.4374L30.5591 36.639L30.059 36.684L29.8834 36.7933L29.8203 36.934L29.8924 37.112L30.1446 37.3451L30.0602 37.5805L29.799 37.6975L29.5872 37.4081L29.4554 37.1244L29.3079 37.1086L29.0782 37.1897L29.032 37.496L29.139 37.7043L29.3147 37.9464L29.068 38.2246L29.0027 38.4228L28.8259 38.5647L28.3484 38.2482L28.4171 38.023L28.6243 37.8068L28.6491 37.5815L28.5804 37.4487L27.898 38.0163L27.4768 38.6582L27.2516 38.6109L27.1581 38.4464L27.0263 38.3789L26.5714 38.7922L26.4881 39.1199L26.3214 39.1323L26.2482 38.9937L26.2426 38.6965L26.1648 38.4464L25.6929 38.0816L25.479 37.7617L25.595 37.5827L25.9891 37.6795L26.3011 37.6672L26.2392 37.5151L26.1367 37.443L26.345 37.3574L26.5185 37.1829L26.3743 37.1356L26.1558 37.2369L25.9734 37.1874L25.9014 36.7674L25.6795 36.336L25.5635 35.9171L25.7831 35.6761L25.8945 35.3L26.0995 34.7549L26.202 34.5781L26.4846 34.4498L26.5849 34.309L26.4295 34.2369L26.1817 34.1727L26.1874 34.015L26.3563 33.9295L26.5455 33.7549L26.9104 33.5432L27.0241 33.1434L26.9182 33.0421L26.6896 32.9475L26.7414 32.7448L26.836 32.5905L26.8 32.4981L26.5308 32.2368L26.3529 31.9992L26.4059 31.7278L26.3653 31.3168L26.389 30.9711L26.3766 30.783L26.2448 30.3607L26.1851 29.9361L26.0128 29.9981L25.8732 30.1039L25.3743 29.9542L25.2155 29.9452L25.1513 29.6298L25.3304 29.2413L25.7549 28.8978L25.9993 28.855L26.1829 28.7041L26.47 28.6568L26.8146 28.8911L27.1232 28.9384L27.2944 29.3404L27.4003 29.426L27.4227 29.2785L27.6728 29.105L27.7324 28.9744L27.6784 28.9023L27.3912 28.8314L27.1334 28.3314L27.0973 28.1118L27.0038 27.9721L27.1424 27.5712L26.8439 27.1129L26.6986 26.9687L26.7201 26.5554L26.5646 26.293L26.4779 26.1489L26.425 25.8989L26.47 25.7863L26.6052 25.7435L26.6389 25.6365ZM26.2808 25.8155L26.2662 26.3415L26.0916 26.319L25.9734 26.266L25.9227 26.1635L25.8033 25.6759L25.9374 25.4743L26.1953 25.6343L26.2808 25.8155ZM40.173 26.8426L40.0289 26.9597L39.8588 26.8426L39.8375 26.7176L39.9264 26.6095L40.1336 26.5442L40.2305 26.6388L40.173 26.8426ZM25.9543 30.7256L25.9115 30.979L25.702 30.8123L25.6412 30.2559L25.8563 30.4181L25.9543 30.7256ZM33.299 37.2865L33.0006 37.523L32.5985 37.2054L32.5028 37.0309L32.808 36.773L33.067 36.479L33.2371 36.461L33.299 37.2865ZM31.1638 37.2584L31.1289 37.6334L30.9059 37.6525L30.7731 37.4115L30.6311 37.5286L30.5579 37.5309L30.4453 37.2302L30.4262 36.996L30.6886 36.8169L30.8485 36.9239L31.076 36.9791L31.1638 37.2584ZM25.1794 37.5444L25.1378 37.6367L25.0004 37.6097L24.8585 37.3462L24.7999 37.1367L24.6592 37.0219L24.8833 36.8406L25.1682 37.1671L25.1794 37.5444ZM30.3215 37.9881L30.2854 38.1063L30.1255 37.9273L30.2843 37.7313L30.3215 37.9881ZM25.3743 38.9217L25.1716 38.9802L25.0578 38.8485L24.979 38.8136L25.024 38.6413L25.3529 38.3023L25.4182 38.1852L25.7234 38.2561L25.8372 38.4363L25.6975 38.7088L25.3743 38.9217ZM27.0162 39.023L27.0692 39.2043L26.8135 39.1706L26.6783 38.996L26.6964 38.8462L26.8484 38.8248L27.0162 39.023ZM25.6682 43.263L25.5263 43.3463L25.3946 43.2968L25.3597 43.2574L25.1997 43.0422L25.1592 42.9319L25.2662 42.7202L25.7031 42.3722L26.8337 42.0366L27.0376 42.022L27.4836 42.1661L27.5793 42.4353L27.4971 42.6673L27.3946 42.8227L26.8777 43.0839L26.4745 43.2089L25.6682 43.263Z" fill="#108AB4"/>
<circle cx="30" cy="30" r="25.5" stroke="#C5B581" stroke-width="9"/>
</svg>
