<svg width="62" height="40" viewBox="0 0 62 40" fill="none" xmlns="http://www.w3.org/2000/svg">
<path d="M7.94959 7.45138L7.86401 7.93451L8.06334 8.46604L8.52957 9.20143L8.99916 9.57195L10.8967 10.4864L11.2458 10.5641L11.167 10.9379L11.0521 11.269L10.9271 11.4898L10.3708 11.6317L8.83695 11.2251L8.44846 11.1868L8.17483 11.2679L7.66805 11.563L7.10607 11.4684L6.32229 11.6351L6.10378 12.1902L5.55989 12.8243L4.66462 13.3355L4.02497 13.6092L3.06323 14.5867L2.62739 15.1554L2.4438 15.2658L2.22536 15.3536L2.29856 15.0799L2.40668 14.8299L2.38187 14.6407L2.3864 14.366L2.70623 14.054L2.99787 13.8277L3.85939 13.4166L4.0869 13.0743L3.41117 13.0821L2.72423 13.1576L2.29292 13.1092L1.91681 13.1373L1.79851 12.8378L1.7073 12.6576L1.80532 12.6013L1.92918 12.5619L2.14989 12.242L2.34695 12.0067L2.63075 11.7094L2.70286 11.5314V11.3659L2.63412 11.251L2.62065 11.1136L2.61165 10.9211L2.62739 10.5213L3.2783 10.0843L3.48664 10.0382L3.55757 9.83771L3.51028 9.37371L3.42017 8.99873L3.30305 8.97395L3.14654 8.8647L3.04406 8.73747L2.87964 8.59894L2.59701 8.51336L2.588 8.3951L2.61728 8.27685L2.72197 8.15522L3.19947 8.0505L3.25576 7.96493L3.31996 7.75319L3.41454 7.53699L3.52719 7.46602L3.72879 7.47279L4.11164 7.42323L4.37854 7.3523L4.64317 7.20366L4.77947 7.06849L5.35382 6.99079L5.51486 6.92212L5.67474 6.98065L5.88981 7.21153L6.24345 7.54262L6.43268 7.65298L6.57455 7.60228L6.83134 7.48179H7.07679L7.27502 7.5032L7.3707 7.39845L7.52054 7.37594L7.94959 7.45138ZM50.6025 9.35684L50.8119 9.44132L51.2083 9.5494L51.4539 9.68003L51.5935 9.71495L51.9167 9.44919L52.3965 9.45596L52.8188 9.48634L53.0361 9.53589L53.303 9.62374L53.625 9.68343L53.7568 9.55617L53.9449 9.18115L54.0181 9.13386L54.0699 9.10008L54.3087 9.0708L54.535 9.09895L54.642 9.16315L54.749 9.46383L55.0181 9.57081L55.4934 10.0494L55.7839 10.2409L55.8549 10.3208L55.7591 10.4177L55.7974 10.5371L55.963 10.6925L56.1961 10.751L56.4483 10.7296L56.5857 10.7859L56.6837 10.8737L56.7096 10.9976L56.7029 11.0765L56.7524 11.2533L56.9495 11.5033L57.1837 11.6564L57.3098 11.8197L57.5148 12.3817L57.5981 12.6914L57.5666 12.9898L57.4247 13.295L57.1139 13.6745L57.1905 13.8333L57.2603 14.0428L57.2366 14.1948L57.4574 14.679L57.5576 14.9797L57.4743 15.0495L57.4202 15.1452L57.8166 15.3761L58.2919 15.5698L58.4923 15.607L59.0374 15.518L59.3887 15.4989L59.7378 15.6824L60.2457 16.1272L60.7942 16.7061L60.9034 16.8818L60.9507 16.9595L61.0577 17.0991L60.9462 17.0969L60.766 16.9719L60.3302 16.616L60.1072 16.7692L59.9146 17.0327L59.704 18.0316L59.534 18.1374L59.2333 18.1352L58.865 18.1003L58.6117 18.1498L58.5464 18.2129L58.5801 18.3198L58.6556 18.4843L58.7085 18.6915L58.7243 18.8604L58.8572 19.0136L59.0363 19.1589L59.0441 19.3075L59.0171 19.5181L58.9754 19.678L58.9303 19.7692L59.0137 20.0125L59.2085 20.2996L59.3324 20.41L59.2862 20.9562L59.3595 21.1983L59.4157 21.5316L59.3932 22.0857L59.4168 22.222L59.4833 22.2681L59.6613 22.2896L59.8347 22.3402L59.8955 22.4314L59.8943 22.4979L59.677 22.7513L59.6511 22.9314L59.5757 23.1848L59.5137 23.3335L59.32 23.615L59.1973 23.9011L59.1409 24.1364L59.1781 24.2479L59.5362 24.2817L59.7299 24.4506L60.2468 24.7873L60.338 24.9236L60.1973 25.1308L60.1995 25.2175L60.2671 25.3279L60.2986 25.5205L60.2863 25.7333L60.2885 26.0148L60.3831 26.061L60.7345 26.3245L60.9845 26.5881L60.9924 26.6703L60.8719 26.8786L60.8977 27.1185L60.8933 27.1736L60.7851 27.0836L60.5904 27.0509L60.3899 27.0408L60.2637 27.1117L60.043 27.2998L59.7457 27.5047L59.5047 27.6928L59.3662 27.8223L59.2513 27.8009L59.1624 27.6883L59.1128 27.5306L59.1342 26.9349L59.0813 26.748L58.9687 26.6173L58.8358 26.543L58.6781 26.5013L58.5148 26.4968L58.284 26.6714L57.9562 26.8527L57.4483 26.8381L57.1072 26.8043L56.9427 26.7705L56.2816 26.4935L56.1442 26.4867L55.8976 26.3741L55.6049 26.2851L55.1116 26.4541L54.8988 26.4135L54.6003 26.2671L54.4945 26.3065L54.1611 26.7525L53.5936 27.2288L53.2872 27.3088L53.142 26.8302L53.0012 26.6443L52.9347 26.6218L52.7929 26.5621L52.6825 26.5959L52.3413 26.9225L51.794 27.1185L51.3413 27.2378L50.6205 27.3831L50.0642 27.4552L49.8277 27.4608L49.3142 27.3955L48.8615 27.3043L48.4088 27.3077L48.0608 27.3493L47.2544 27.6996L45.8828 28.4192L44.84 28.7626L44.2555 28.9057L43.7972 28.9868L43.0134 28.9913L42.3748 28.9361L41.9322 28.9417L41.6868 28.855L41.3365 28.5644L40.9131 28.2773L40.7239 28.2097L40.4773 28.1545L40.1169 28.1219L39.216 28.543L38.9356 28.6579L38.627 28.7435L38.0043 29.0003L37.7284 29.1377L37.3826 29.1253L36.9412 29.0892L36.5583 29.1016L36.3027 28.9068L36.1642 28.6872L35.6427 28.552L35.27 28.5127L35.1742 28.6106L35.0751 28.9102L34.9164 29.6748L34.8871 29.8663L35.2159 30.6242L35.2013 30.739L34.967 30.7785L34.6979 30.792L34.5222 30.8595L34.3769 30.9845L34.2891 31.6377L33.9772 31.7571L33.8285 31.8933L33.6753 32.2965L33.592 32.3055L33.0875 32.0003L32.851 31.9755L33.0548 31.6591L32.8341 31.0319L32.5931 30.444L32.8206 30.0678L33.2913 29.6129L33.7857 29.0791V28.7491L33.7598 28.4969L33.6179 28.3223L33.3453 28.0904L32.8893 28.3381L32.5638 28.6117L32.351 28.6669L32.1202 28.8223L32.0075 29.1039L31.7282 29.3224L31.2721 29.4079L30.5863 29.1737L29.8498 28.8178L29.4331 28.5284L29.093 28.4586L28.7698 28.5859L27.816 29.2931L26.9432 30.3246L26.727 30.5026L25.9049 30.9451L25.3621 31.0926L25.1065 31.0589L24.0242 31.2526L23.4871 31.2807L23.0614 31.5138L22.2359 31.2616L21.7427 30.9384L21.4454 30.6095L20.9611 29.9012L20.6176 29.5645L19.8462 29.2604L18.5016 28.5217L18.148 28.4406L17.2301 28.3347L16.2628 28.2671L16.0669 28.5363L15.9925 29.6005L15.827 29.8922L15.7561 30.4429L15.6378 30.6005L15.452 30.7041L15.1614 30.5307L14.9598 30.4541L14.4902 30.6805L13.5612 30.9969L13.2447 31.042L12.1681 30.6433L11.774 30.3866L11.5195 30.1028L11.4339 29.6219L11.2739 29.3482L11.2503 29.1602L11.1873 28.944L10.9699 28.8584L10.7368 29.0228L10.4868 29.016L10.1737 28.9158L9.43384 28.5115L8.86623 28.4789L8.52393 28.9721L8.25814 29.1287L7.96759 29.1759L7.95069 29.0363L8.17139 28.7165L7.28513 28.7751L6.8178 29.0183L6.45289 28.98L6.17925 28.8708L6.21981 28.7367L6.49681 28.6872L6.73786 28.578L7.69733 28.489L7.9214 28.4L8.16692 28.052L8.61288 27.7525L8.67034 27.6241L8.3268 27.623L6.85608 27.7097L5.84706 27.6624L5.72767 27.811L5.57563 27.8325L5.53397 27.4282L5.69392 27.2401L5.90789 27.2581L6.43605 27.0948L6.38876 26.7581L6.01147 26.5306L5.9349 26.3955L5.6601 26.3639L5.43822 26.2029L5.38984 25.7975L5.21305 25.3515L4.96079 25.1364L4.99227 25.0182L5.45513 24.8673L5.55088 24.2423L5.47995 23.8583L5.2468 23.8256L4.56777 23.5216L4.36163 23.5542L4.13646 23.2197L3.74226 22.9799L3.54747 23.0677L3.42471 23.177L3.24229 23.1251L2.93711 22.9168L2.63639 22.8042L2.50353 22.6645L2.67021 22.2918L2.89992 22.3008L2.94157 22.0091L2.76025 21.5215L2.77826 21.2704L2.97876 21.2017L3.20737 21.249L3.43825 21.5407L3.51365 21.8222L3.46526 22.097L3.61167 22.3628L3.71635 22.4303L3.78619 22.1499L3.8842 22.097L4.01933 22.2186L4.30871 22.2794L5.05874 22.1082L5.20288 21.963L4.65334 21.9798L4.45284 21.8436L4.2344 21.5384L4.10037 21.2614L4.07673 21.1251L4.00133 20.9258L4.08463 20.8188L4.46075 20.6589L4.79074 20.2095L4.65217 20.08L4.49457 20.0181L4.32335 20.0643L4.1612 19.91L4.13983 19.696L4.26932 19.5226L4.28286 19.2839L3.85829 18.6949L3.74 18.5665L3.83238 18.3739L4.15673 18.0507L4.46528 17.6498L4.4281 17.5181L4.19949 17.464L3.11616 17.6363L2.69495 17.785L1.94382 17.8536L1.88979 17.6351L1.90663 17.4392L2.07558 17.0811L2.05978 16.1959L2.16006 15.7151L2.57783 15.5709L3.09025 14.8626L3.92022 14.0247L4.78738 14.0405L5.13421 13.8085L5.64883 13.795L5.74231 13.9628L5.80087 14.1238L6.25246 14.3558L7.04978 14.3187L7.24347 14.2275L7.43153 14.1002L7.06215 13.688L7.17928 13.5709L7.51374 13.5574L7.87638 13.6542L7.89329 13.7488L7.79754 13.8783L7.68496 14.1047L7.79191 14.1486L8.82348 14.0112L9.90234 14.1216L10.2458 14.0619L11.0938 14.0664L11.2458 13.9245L10.989 13.7454L10.7379 13.6835L10.569 13.5968L10.4 13.4695L10.9384 13.0698L11.2425 12.9932L12.676 12.7466L13.7425 12.6238L13.756 12.5315H13.6017L12.2244 12.3265L11.8922 12.1688L11.4316 11.7916L11.3314 11.6846L11.2154 11.4999L11.2852 11.1069L11.3708 10.7904L11.5408 10.6068L12.0915 10.5787L13.979 10.9008L15.3236 10.7082L16.7932 11.1767L18.1998 11.0821L18.4892 10.8715L18.8417 10.1924L20.8282 9.0618L21.523 8.47057L22.2685 8.14622L23.5467 7.78587L24.6155 7.30837L24.9207 7.25318L27.486 7.48179L29.2484 7.51107L30.057 7.05949L30.5266 7.21153L30.4827 7.37257L30.3971 7.51107L30.423 7.78924L30.6978 8.19804L30.9782 8.47618L31.8003 8.87484L32.9433 8.53924L33.128 8.57643L33.3612 8.66987L33.7643 9.7476L34.0774 10.1271L34.4783 10.385L34.8082 10.4357L35.0527 10.1665L35.2418 10.0584L35.6551 10.0123L36.3319 10.3816L36.5662 10.7623L37.7182 11.0562L38.7757 11.2037L39.2318 11.5258L40.7205 11.8479L41.2769 11.7983L42.2093 11.4605L44.0247 11.09L45.2308 11.6069L45.5573 11.6744L45.8388 11.6294L46.2443 11.7713L46.6767 11.6947L48.0112 11.0844L48.429 10.7375L48.8716 10.6485L49.2635 10.4402L50.3086 9.75887L50.6025 9.35684ZM1.4877 15.1036L0.761377 15.2308L0.536133 15.1058L0.763645 14.857L1.18705 14.7027L1.32445 14.6846L1.51024 14.9324L1.4877 15.1036Z" fill="#108AB4"/>
<path d="M41 20C41 29.3888 33.3888 37 24 37C14.6112 37 7 29.3888 7 20C7 10.6112 14.6112 3 24 3C33.3888 3 41 10.6112 41 20Z" stroke="#C5B581" stroke-width="6"/>
</svg>
